<svg xmlns="http://www.w3.org/2000/svg" width="26" height="26" viewBox="0 0 26 26"><defs><clipPath id="a"><path d="M26,0 L26,26 L0,26 L0,0 L26,0 Z"/></clipPath><clipPath id="b"><path d="M11.3422323,0 C14.3719966,0 17.220108,1.1800057 19.3622835,3.32218121 C21.504459,5.46435672 22.6844647,8.31246808 22.6844647,11.3422323 C22.6844647,14.1178394 21.6840351,16.7340386 19.8708748,18.801633 L25.778472,24.7092303 C26.0738426,25.0046009 26.0738426,25.4831014 25.7784721,25.778472 C25.6307868,25.9261573 25.437319,26 25.2438512,26 C25.0503834,26 24.8569156,25.9261573 24.7092303,25.778472 L18.8016331,19.8708747 C16.7340386,21.6840351 14.1178394,22.6844647 11.3422323,22.6844647 C8.31246809,22.6844647 5.46435673,21.504459 3.32218121,19.3622834 C1.1800057,17.2201079 0,14.3719966 0,11.3422323 C0,8.31246808 1.1800057,5.46435672 3.32218121,3.32218121 C5.46435673,1.1800057 8.31246809,0 11.3422323,0 Z M11.3422323,1.51229757 C8.71675652,1.51229757 6.24819648,2.53501842 4.39142283,4.39142283 C2.53501842,6.24819647 1.51229757,8.71675651 1.51229757,11.3422323 C1.51229757,13.967708 2.53501842,16.436268 4.39142283,18.2930417 C6.24819648,20.1494461 8.71675652,21.1721669 11.3422323,21.1721669 C13.967708,21.1721669 16.4362681,20.1494461 18.2930417,18.2930417 C20.1494461,16.436268 21.172167,13.967708 21.172167,11.3422323 C21.172167,8.71675651 20.1494461,6.24819647 18.2930417,4.39142283 C16.4362681,2.53501842 13.967708,1.51229757 11.3422323,1.51229757 Z"/></clipPath></defs><g clip-path="url(#a)"><g clip-path="url(#b)"><polygon points="0 0 26 0 26 26 0 26 0 0"/></g></g></svg>