<svg xmlns="http://www.w3.org/2000/svg" width="30" height="30" viewBox="0 0 30 30"><defs><clipPath id="a"><path d="M30,0 L30,30 L0,30 L0,0 L30,0 Z"/></clipPath><clipPath id="b"><path d="M23.1792994,0 C23.5882805,0 23.9748789,0.180950639 24.2405409,0.496061615 C24.5072575,0.812981495 24.6264362,1.23849588 24.5670226,1.66431174 L24.101,4.568 L26.2898994,4.568265 C26.6981774,4.568265 27.0844243,4.74885386 27.3500863,5.06360305 C27.6171544,5.38016115 27.7363332,5.80573583 27.6776813,6.23082814 L27.233,9.208 L28.5973028,9.20852436 C28.9628004,9.20852436 29.3095463,9.35145034 29.5699077,9.60526975 L29.6760051,9.72074551 C29.9255539,10.0243398 30.0381116,10.419344 29.9885417,10.8113937 L28.3830858,28.0525346 C28.3135356,29.1305807 27.3935625,30 26.2903682,30 L3.70968968,30 C2.66034261,30 1.76269355,29.1798432 1.62148375,28.0920893 C1.61972595,28.0791255 1.61831971,28.0658602 1.61691347,28.0525346 L0.0114575787,10.8110319 C-0.03817093,10.4189219 0.0747383219,10.023978 0.324638664,9.72038373 C0.592409957,9.39520319 0.985277904,9.20852436 1.40263784,9.20852436 L2.801,9.208 L2.35835284,6.24306838 C2.30082889,5.88963127 2.38304533,5.51772826 2.58549347,5.21000576 L2.67956121,5.08229506 C2.94832859,4.75566739 3.33633329,4.568265 3.74425971,4.568265 L5.91,4.568 L5.47000761,1.67769763 C5.41217604,1.32172805 5.49408487,0.949508481 5.69669643,0.64174641 L5.79086441,0.514030056 C6.05963179,0.187402395 6.4476365,0 6.85556292,0 L23.1792994,0 Z M27.8300238,11.3671491 L2.16985826,11.3671491 L3.7016624,27.8119504 C3.70582252,27.8245524 3.71912319,27.840712 3.72820515,27.8450534 L26.2903096,27.8417973 L27.8300238,11.3671491 Z M19.4042515,16.0070467 C19.9834461,16.0070467 20.4528954,16.4901445 20.4528954,17.0861782 C20.4528954,17.6822118 19.9834461,18.1653097 19.4042515,18.1653097 L10.5956892,18.1653097 C10.0164946,18.1653097 9.54704527,17.6822118 9.54704527,17.0861782 C9.54704527,16.4901445 10.0164946,16.0070467 10.5956892,16.0070467 L19.4042515,16.0070467 Z M25.4818395,6.72652797 L4.55278839,6.72652797 L4.923,9.208 L25.111,9.208 L25.4818395,6.72652797 Z M22.3618059,2.15826297 L7.6658494,2.15826297 L8.032,4.568 L21.975,4.568 L22.3618059,2.15826297 Z"/></clipPath></defs><g clip-path="url(#a)"><g clip-path="url(#b)"><polygon fill="#FFF" points="0 0 30 0 30 30 0 30 0 0"/></g></g></svg>