<svg xmlns="http://www.w3.org/2000/svg" width="30" height="30" viewBox="0 0 30 30"><defs><clipPath id="a"><path d="M30,0 L30,30 L0,30 L0,0 L30,0 Z"/></clipPath><clipPath id="b"><path d="M26.311,0 C28.3474646,0.00220456441 29.9977954,1.65253542 30,3.689 L30,20.311 C29.9977954,22.3474646 28.3474646,23.9977954 26.311,24 L3.689,24 C1.65253542,23.9977954 0.00220456441,22.3474646 0,20.311 L0,3.689 C0.00220456441,1.65253542 1.65253542,0.00220456441 3.689,0 Z M28,6.832 L15.541,14.841 C15.2114779,15.0529699 14.7885221,15.0529699 14.459,14.841 L2,6.832 L2,20.311 C2.00110207,21.2433521 2.75664793,21.9988979 3.689,22 L26.311,22 C27.2433521,21.9988979 27.9988979,21.2433521 28,20.311 L28,6.832 Z M26.311,2 L3.689,2 C2.75664793,2.00110207 2.00110207,2.75664793 2,3.689 L2,4.454 L15,12.811 L28,4.454 L28,3.689 C27.9988979,2.75664793 27.2433521,2.00110207 26.311,2 Z"/></clipPath></defs><g clip-path="url(#a)"><g clip-path="url(#b)" transform="translate(0 3)"><polygon fill="#FFF" points="0 0 30 0 30 24 0 24 0 0"/></g></g></svg>