<svg xmlns="http://www.w3.org/2000/svg" width="30" height="30" viewBox="0 0 30 30"><defs><clipPath id="a"><path d="M30,0 L30,30 L0,30 L0,0 L30,0 Z"/></clipPath><clipPath id="b"><path d="M15,0 C23.29125,0 30,6.70951172 30,15 C30,23.29125 23.2904883,30 15,30 C6.70875,30 0,23.2903711 0,15 C0,6.70875 6.70951172,0 15,0 Z M15,2.09302734 C7.88308594,2.09302734 2.09302734,7.88302734 2.09302734,15 C2.09302734,22.1169727 7.88308594,27.9069727 15,27.9069727 C22.1169727,27.9069727 27.9069727,22.1169727 27.9069727,15 C27.9069727,7.88302734 22.1169727,2.09302734 15,2.09302734 Z M14.5561523,18.9799219 C15.3853711,18.9799219 16.0764258,19.6709766 16.0764258,20.5001953 C16.0764258,21.3097852 15.4051758,22.0205859 14.5561523,22.0205859 C13.7071289,22.0205859 13.0555664,21.3097852 13.0555664,20.5001953 C13.0555664,19.6709766 13.726875,18.9799219 14.5561523,18.9799219 Z M14.812793,7.46888672 C17.3400586,7.46888672 19.0183008,8.87074219 19.0183008,10.7266992 C19.0183008,12.5826563 17.3400586,13.925332 16.8069727,14.3399414 C15.7209961,15.1889648 15.70125,15.7812891 15.70125,16.8079688 C15.70125,17.1832031 15.5037891,17.6175586 14.5363477,17.6175586 C13.726875,17.6175586 13.4504297,17.3213672 13.4504297,16.2946875 C13.4504297,14.5966406 14.2006641,13.7870508 14.7733008,13.2935156 C15.4248633,12.7406836 16.5305859,12.1286133 16.5305859,11.0624414 C16.5305859,10.1541797 15.7407422,9.71976563 14.7535547,9.71976563 C12.7396289,9.71976563 13.1739844,11.2401563 12.1077539,11.2401563 C11.574668,11.2401563 10.9231055,10.8847266 10.9231055,10.1146875 C10.9231055,9.04851563 12.1472461,7.46888672 14.812793,7.46888672 Z"/></clipPath></defs><g clip-path="url(#a)"><g clip-path="url(#b)"><polygon fill="#FFF" points="0 0 30 0 30 30 0 30 0 0"/></g></g></svg>