<svg xmlns="http://www.w3.org/2000/svg" width="30" height="30" viewBox="0 0 30 30"><defs><clipPath id="a"><path d="M30,0 L30,30 L0,30 L0,0 L30,0 Z"/></clipPath><clipPath id="b"><path d="M15,0 C23.2842712,0 30,6.71572875 30,15 C30,23.2842712 23.2842712,30 15,30 C6.71572875,30 0,23.2842712 0,15 C0,6.71572875 6.71572875,0 15,0 Z"/></clipPath><clipPath id="c"><path d="M11.5274189,1.875 C8.73596582,1.875 6.46491895,4.146 6.46491895,6.9375 C6.46491895,9.729 8.73596582,12 11.5274189,12 C14.3188721,12 16.5899189,9.729 16.5899189,6.9375 C16.5899189,4.146 14.3188721,1.875 11.5274189,1.875 Z M11.5274189,13.875 C6.56015729,13.875 2.41687765,17.470487 1.56344175,22.1955993 L1.5589397,22.208665 C1.00458257,21.7152907 0.487069884,21.1814108 0.011045521,20.6116691 L9.41538514e-14,20.6456662 C0.555631316,18.726023 1.58984994,16.9670209 3.04215332,15.5146875 C4.34916895,14.2077187 5.90485645,13.2401719 7.6022002,12.6544687 C5.78424707,11.4023906 4.58991895,9.3069375 4.58991895,6.9375 C4.58991895,3.11217188 7.70209082,0 11.5274189,0 C15.3527471,0 18.4649189,3.11217188 18.4649189,6.9375 C18.4649189,9.3069375 17.2705908,11.4023906 15.4526846,12.6544687 C17.1500283,13.2401719 18.7057158,14.2077187 20.0127314,15.5146875 C21.456314,16.9583298 22.4868198,18.7049814 23.0448136,20.6112206 C22.5671959,21.1820955 22.0490113,21.716574 21.4938993,22.2104437 L21.4989528,22.2379546 C20.6626952,17.4919901 16.509512,13.875 11.5274189,13.875 Z"/></clipPath></defs><g clip-path="url(#a)"><g clip-path="url(#b)"><polygon fill="#FFF" points="0 0 30 0 30 30 0 30 0 0"/></g><g clip-path="url(#c)" transform="translate(3.473 4)"><polygon fill="#E74A3A" points="0 0 23.045 0 23.045 22.238 0 22.238 0 0"/></g></g></svg>