<svg xmlns="http://www.w3.org/2000/svg" width="30" height="30" viewBox="0 0 30 30"><defs><clipPath id="a"><path d="M30,0 L30,30 L0,30 L0,0 L30,0 Z"/></clipPath><clipPath id="b"><path d="M14.9964422,0 C15.9214289,0 16.7660772,0.511343564 17.17478,1.31874885 L20.4113753,7.70117981 C20.4626856,7.80171284 20.5612106,7.87153678 20.6752903,7.88821445 L27.9163282,8.91134452 C28.8321763,9.03978587 29.5936037,9.6631255 29.8803178,10.519157 C30.1670319,11.3751886 29.929281,12.3153699 29.2670743,12.9442159 L24.0272186,17.9122605 C23.9432752,17.990487 23.9043979,18.1039718 23.9233151,18.21556 L25.1597672,25.2308757 C25.2801606,25.9169543 25.0840865,26.6198165 24.6237,27.1525035 C24.1633134,27.6851904 23.4852915,27.9936948 22.7699858,27.9959555 C22.3766087,28 21.9881281,27.9065327 21.6395152,27.72703 L15.1632074,24.4150003 C15.061281,24.3619788 14.9388767,24.3619788 14.8369503,24.4150003 L8.36168152,27.72703 C7.54310608,28.1461665 6.55093141,28.0765974 5.80257619,27.5475911 C5.05422098,27.0185848 4.67956663,26.1219535 4.83623432,25.2349197 L6.07268647,18.219604 C6.09197774,18.1079873 6.0530432,17.9943355 5.96878293,17.9163045 L0.73412246,12.9452269 C0.0710938759,12.3166928 -0.167195688,11.3761413 0.119631423,10.5197724 C0.406458535,9.66340359 1.1685453,9.04007362 2.08486851,8.91235552 L9.31967218,7.89023645 C9.4339609,7.874056 9.5326992,7.80408088 9.58358718,7.7032018 L12.8181045,1.31874885 C13.2268073,0.511343564 14.0714556,0 14.9964422,0 Z M14.9969617,2.02622831 C14.8633643,2.02622831 14.7413371,2.09998349 14.682134,2.21651516 L11.4476167,8.59793511 C11.0940677,9.29609456 10.4095686,9.77982572 9.61787535,9.89100167 L2.37891554,10.9171647 C2.24644272,10.9353975 2.13622696,11.0254876 2.09491383,11.1493071 C2.05360069,11.2731266 2.08841239,11.4090298 2.18461591,11.4994996 L7.42343253,16.4685553 C7.99489604,17.0120453 8.25585166,17.7938132 8.12166433,18.5603103 L6.88417314,25.5766371 C6.86126771,25.7052451 6.91565707,25.8353156 7.02433547,25.9118309 C7.13301386,25.9883461 7.27699549,25.9979392 7.39537857,25.9365524 L13.8696083,22.6245226 C14.218153,22.445915 14.6061525,22.3525736 15.0000788,22.3525642 C15.3941434,22.3524774 15.7822472,22.4461911 16.1305494,22.6255336 L22.6058182,25.9365524 C22.7230125,26.001739 22.8690338,25.9917614 22.9757148,25.9112774 C23.0869815,25.8370151 23.1421358,25.7054337 23.1159846,25.5766371 L21.8784934,18.5603103 C21.744306,17.7938132 22.0052617,17.0120453 22.5767252,16.4685553 L27.8165808,11.4994996 C27.912005,11.4085776 27.9461679,11.2728596 27.9047278,11.1493203 C27.8632878,11.0257811 27.753418,10.9358052 27.6212422,10.9171647 L20.3812433,9.89302367 C19.589936,9.78153569 18.9058882,9.29784881 18.552541,8.59995711 L15.3117895,2.21651516 C15.2525864,2.09998349 15.1305592,2.02622831 14.9969617,2.02622831 Z"/></clipPath></defs><g clip-path="url(#a)"><g clip-path="url(#b)" transform="translate(0 1)"><polygon fill="#FFF" points="0 0 30 0 30 28 0 28 0 0"/></g></g></svg>