<svg width="1184" height="301" viewBox="0 0 1184 301" fill="none" xmlns="http://www.w3.org/2000/svg">
<rect y="0.5" width="300" height="300" rx="56.4033" fill="url(#paint0_linear_991_3724)"/>
<path fill-rule="evenodd" clip-rule="evenodd" d="M122.94 147.051C138.139 162.251 162.783 162.251 177.982 147.051C193.182 131.852 193.182 107.209 177.982 92.009C162.783 76.8095 138.139 76.8095 122.94 92.009C107.74 107.209 107.74 131.852 122.94 147.051ZM238.015 148.559C236.874 147.074 235.097 146.214 233.206 146.232C229.233 146.268 224.516 146.316 221.122 146.375C218.466 146.399 216.104 148.143 215.282 150.681C211.97 160.511 206.379 169.771 198.52 177.631C171.721 204.429 128.621 204.843 102.33 178.553C94.6176 170.84 89.205 161.685 86.1044 151.911C85.3288 149.378 82.9891 147.671 80.3231 147.695C76.9277 147.727 72.209 147.771 68.2379 147.849C66.3583 147.867 64.5787 148.757 63.4145 150.254C62.253 151.754 61.8387 153.692 62.2967 155.505C66.2467 170.191 73.9439 184.017 85.4047 195.478C120.857 230.93 178.984 230.375 215.124 194.235C226.805 182.555 234.769 168.579 239.039 153.825C239.536 151.991 239.156 150.044 238.015 148.559Z" fill="white"/>
<path fill-rule="evenodd" clip-rule="evenodd" d="M615.726 38.0734C617.154 39.5022 618.869 40.2166 620.869 40.2166C622.87 40.2166 624.584 39.5022 626.013 38.0734C627.442 36.6446 628.156 34.8824 628.156 32.7869C628.156 30.6913 627.442 28.9767 626.013 27.6432C624.584 26.2144 622.87 25.5 620.869 25.5C618.869 25.5 617.154 26.2144 615.726 27.6432C614.297 28.9767 613.582 30.6913 613.582 32.7869C613.582 34.8824 614.297 36.6446 615.726 38.0734ZM415.373 41.3596V33.0726H361.364V132.946H371.366V86.9383H408.514V78.6512H371.366V41.3596H415.373ZM431.97 72.7932C428.827 78.7941 427.255 85.7952 427.255 93.7965C427.255 101.798 428.827 108.846 431.97 114.943C435.209 121.039 439.638 125.754 445.258 129.088C450.973 132.422 457.355 134.089 464.404 134.089C471.833 134.089 478.215 132.374 483.55 128.945C488.979 125.421 492.932 120.991 495.409 115.657V132.946H505.41V54.9332H495.409V72.0788C493.027 66.7446 489.122 62.363 483.692 58.9339C478.358 55.5047 471.976 53.7902 464.547 53.7902C457.403 53.7902 450.973 55.4571 445.258 58.791C439.638 62.0296 435.209 66.697 431.97 72.7932ZM491.551 77.3653C494.123 82.128 495.409 87.6527 495.409 93.9394C495.409 100.226 494.123 105.751 491.551 110.513C488.979 115.276 485.455 118.943 480.978 121.515C476.596 124.087 471.738 125.373 466.404 125.373C460.879 125.373 455.926 124.135 451.545 121.658C447.163 119.086 443.686 115.419 441.114 110.656C438.638 105.798 437.399 100.178 437.399 93.7965C437.399 87.3193 438.638 81.747 441.114 77.0796C443.686 72.3169 447.163 68.6973 451.545 66.2207C455.926 63.7441 460.879 62.5058 466.404 62.5058C471.738 62.5058 476.596 63.7918 480.978 66.3636C485.455 68.9354 488.979 72.6027 491.551 77.3653ZM523.671 93.9394C523.671 85.8429 525.29 78.7941 528.529 72.7932C531.767 66.697 536.244 62.0296 541.959 58.791C547.675 55.4571 554.199 53.7902 561.534 53.7902C571.155 53.7902 579.061 56.1715 585.252 60.9342C591.539 65.6968 595.587 72.174 597.397 80.3658H586.681C585.347 74.7459 582.442 70.3642 577.965 67.2209C573.584 63.9823 568.106 62.363 561.534 62.363C556.295 62.363 551.58 63.5536 547.389 65.935C543.198 68.3163 539.864 71.8883 537.387 76.6509C535.006 81.3183 533.815 87.0811 533.815 93.9394C533.815 100.798 535.006 106.608 537.387 111.371C539.864 116.133 543.198 119.705 547.389 122.087C551.58 124.468 556.295 125.659 561.534 125.659C568.106 125.659 573.584 124.087 577.965 120.944C582.442 117.705 585.347 113.228 586.681 107.513H597.397C595.587 115.514 591.539 121.944 585.252 126.802C578.965 131.66 571.059 134.089 561.534 134.089C554.199 134.089 547.675 132.469 541.959 129.231C536.244 125.897 531.767 121.229 528.529 115.228C525.29 109.132 523.671 102.036 523.671 93.9394ZM658.52 27.2146V132.946H648.519V27.2146H658.52ZM625.87 132.946V54.9332H615.868V132.946H625.87ZM751.466 97.7971C751.656 95.9873 751.751 93.3679 751.751 89.9387C751.751 83.271 750.227 77.2225 747.179 71.793C744.227 66.2683 739.94 61.8867 734.32 58.6481C728.796 55.4095 722.318 53.7902 714.889 53.7902C707.459 53.7902 700.839 55.4095 695.028 58.6481C689.218 61.8867 684.693 66.5541 681.455 72.6503C678.216 78.7465 676.597 85.8429 676.597 93.9394C676.597 102.036 678.216 109.132 681.455 115.228C684.789 121.229 689.361 125.897 695.171 129.231C700.982 132.469 707.554 134.089 714.889 134.089C724.319 134.089 732.129 131.707 738.321 126.945C744.608 122.087 748.703 115.848 750.608 108.227H740.035C738.607 113.562 735.654 117.8 731.177 120.944C726.795 124.087 721.366 125.659 714.889 125.659C709.935 125.659 705.363 124.611 701.172 122.515C696.981 120.324 693.599 117.134 691.028 112.942C688.456 108.751 687.027 103.703 686.741 97.7971H751.466ZM738.035 74.7935C740.512 78.8894 741.702 83.8425 741.607 89.653H686.741C687.313 80.9849 690.218 74.2696 695.457 69.5069C700.696 64.7443 707.03 62.363 714.46 62.363C719.413 62.363 723.985 63.4107 728.176 65.5063C732.368 67.6019 735.654 70.6976 738.035 74.7935ZM943.856 169.964C946.995 172.778 951 174.185 955.871 174.185C960.633 174.185 964.53 172.778 967.561 169.964C970.7 167.041 972.269 163.469 972.269 159.248C972.269 154.918 970.7 151.346 967.561 148.532C964.53 145.609 960.633 144.148 955.871 144.148C951 144.148 946.995 145.609 943.856 148.532C940.825 151.346 939.31 154.918 939.31 159.248C939.31 163.469 940.825 167.041 943.856 169.964ZM941.907 274.201H969.672V183.602H941.907V274.201ZM442.321 228.739C442.321 219.431 444.053 211.258 447.516 204.223C451.088 197.187 455.905 191.775 461.967 187.986C468.028 184.198 474.793 182.303 482.262 182.303C488.215 182.303 493.628 183.548 498.498 186.038C503.478 188.527 507.374 191.883 510.189 196.104V154.052H537.953V274.201H510.189V261.212C507.591 265.542 503.856 269.005 498.986 271.603C494.223 274.201 488.648 275.5 482.262 275.5C474.793 275.5 468.028 273.606 461.967 269.817C455.905 265.921 451.088 260.454 447.516 253.419C444.053 246.275 442.321 238.048 442.321 228.739ZM510.189 228.902C510.189 221.974 508.24 216.508 504.344 212.503C500.555 208.498 495.901 206.496 490.38 206.496C484.86 206.496 480.151 208.498 476.255 212.503C472.466 216.4 470.572 221.812 470.572 228.739C470.572 235.667 472.466 241.187 476.255 245.3C480.151 249.305 484.86 251.308 490.38 251.308C495.901 251.308 500.555 249.305 504.344 245.3C508.24 241.295 510.189 235.829 510.189 228.902ZM387.764 182.466V205.521H424.945V226.953H387.764V251.957H429.816V274.201H360V160.222H429.816V182.466H387.764ZM619.737 274.201H647.501V183.602H619.737V232.798C619.737 238.86 618.167 243.569 615.028 246.924C611.889 250.28 607.614 251.957 602.202 251.957C596.898 251.957 592.676 250.28 589.537 246.924C586.398 243.569 584.829 238.86 584.829 232.798V183.602H557.227V236.533C557.227 244.434 558.688 251.308 561.611 257.153C564.533 262.998 568.647 267.49 573.95 270.629C579.254 273.66 585.37 275.175 592.297 275.175C598.143 275.175 603.446 273.985 608.209 271.603C613.08 269.114 616.923 265.866 619.737 261.861V274.201ZM661.923 228.902C661.923 219.485 663.818 211.258 667.606 204.223C671.503 197.187 676.861 191.775 683.68 187.986C690.608 184.198 698.509 182.303 707.385 182.303C718.751 182.303 728.222 185.28 735.799 191.233C743.484 197.187 748.517 205.576 750.899 216.4H721.348C718.859 209.472 714.042 206.009 706.898 206.009C701.811 206.009 697.752 208.011 694.721 212.016C691.69 215.913 690.175 221.541 690.175 228.902C690.175 236.262 691.69 241.945 694.721 245.95C697.752 249.847 701.811 251.795 706.898 251.795C714.042 251.795 718.859 248.331 721.348 241.404H750.899C748.517 252.011 743.484 260.346 735.799 266.408C728.114 272.469 718.642 275.5 707.385 275.5C698.509 275.5 690.608 273.606 683.68 269.817C676.861 266.029 671.503 260.617 667.606 253.581C663.818 246.545 661.923 238.319 661.923 228.902ZM765.425 204.223C761.961 211.258 760.229 219.431 760.229 228.739C760.229 238.048 761.961 246.275 765.425 253.419C768.997 260.454 773.814 265.921 779.875 269.817C785.937 273.606 792.648 275.5 800.008 275.5C806.395 275.5 811.969 274.201 816.732 271.603C821.603 269.005 825.391 265.596 828.097 261.374V274.201H855.861V183.602H828.097V196.429C825.499 192.208 821.765 188.798 816.894 186.2C812.131 183.602 806.557 182.303 800.171 182.303C792.702 182.303 785.937 184.198 779.875 187.986C773.814 191.775 768.997 197.187 765.425 204.223ZM822.252 212.503C826.149 216.508 828.097 221.974 828.097 228.902C828.097 235.829 826.149 241.295 822.252 245.3C818.464 249.305 813.809 251.308 808.289 251.308C802.768 251.308 798.06 249.305 794.163 245.3C790.375 241.187 788.481 235.667 788.481 228.739C788.481 221.812 790.375 216.4 794.163 212.503C798.06 208.498 802.768 206.496 808.289 206.496C813.809 206.496 818.464 208.498 822.252 212.503ZM926.442 250.658V274.201H912.317C902.25 274.201 894.403 271.766 888.774 266.895C883.146 261.916 880.331 253.852 880.331 242.703V206.658H869.29V183.602H880.331V161.521H908.095V183.602H926.28V206.658H908.095V243.027C908.095 245.733 908.745 247.682 910.044 248.872C911.343 250.063 913.507 250.658 916.538 250.658H926.442ZM1031.03 275.5C1022.16 275.5 1014.15 273.606 1007 269.817C999.967 266.029 994.392 260.617 990.279 253.581C986.274 246.545 984.272 238.319 984.272 228.902C984.272 219.593 986.328 211.421 990.441 204.385C994.555 197.241 1000.18 191.775 1007.33 187.986C1014.47 184.198 1022.48 182.303 1031.36 182.303C1040.23 182.303 1048.24 184.198 1055.39 187.986C1062.53 191.775 1068.16 197.241 1072.27 204.385C1076.39 211.421 1078.44 219.593 1078.44 228.902C1078.44 238.211 1076.33 246.437 1072.11 253.581C1068 260.617 1062.31 266.029 1055.06 269.817C1047.92 273.606 1039.91 275.5 1031.03 275.5ZM1031.03 251.47C1036.34 251.47 1040.83 249.522 1044.51 245.625C1048.3 241.728 1050.19 236.154 1050.19 228.902C1050.19 221.65 1048.35 216.075 1044.67 212.178C1041.1 208.282 1036.66 206.333 1031.36 206.333C1025.94 206.333 1021.45 208.282 1017.88 212.178C1014.31 215.967 1012.52 221.541 1012.52 228.902C1012.52 236.154 1014.25 241.728 1017.72 245.625C1021.29 249.522 1025.73 251.47 1031.03 251.47ZM1173.7 193.019C1167.43 186.092 1158.98 182.628 1148.38 182.628C1142.42 182.628 1137.06 183.819 1132.3 186.2C1127.54 188.473 1123.75 191.612 1120.94 195.617V183.602H1093.17V274.201H1120.94V225.005C1120.94 218.943 1122.51 214.235 1125.64 210.879C1128.78 207.524 1133 205.846 1138.31 205.846C1143.61 205.846 1147.83 207.524 1150.97 210.879C1154.11 214.235 1155.68 218.943 1155.68 225.005V274.201H1183.28V221.271C1183.28 209.256 1180.09 199.839 1173.7 193.019Z" fill="url(#paint1_linear_991_3724)"/>
<defs>
<linearGradient id="paint0_linear_991_3724" x1="258.874" y1="0.499988" x2="5.88047" y2="307.73" gradientUnits="userSpaceOnUse">
<stop stop-color="#FF4546"/>
<stop offset="0.514262" stop-color="#AF4BCC"/>
<stop offset="1" stop-color="#02A0FF"/>
</linearGradient>
<linearGradient id="paint1_linear_991_3724" x1="1756.59" y1="25.7854" x2="1681.69" y2="479.85" gradientUnits="userSpaceOnUse">
<stop stop-color="#FF4546"/>
<stop offset="0.514262" stop-color="#AF4BCC"/>
<stop offset="1" stop-color="#02A0FF"/>
</linearGradient>
</defs>
</svg>
