<svg width="14" height="16" viewBox="0 0 14 16" fill="none" xmlns="http://www.w3.org/2000/svg">
<path id="24px/file" fill-rule="evenodd" clip-rule="evenodd" d="M3.11394 1.65498C2.61443 1.65498 2.20952 2.0599 2.20952 2.55938V13.4402C2.20952 13.9397 2.61443 14.3446 3.11393 14.3446H10.886C11.3855 14.3446 11.7905 13.9397 11.7905 13.4402V5.99011C11.7905 5.95638 11.7771 5.92403 11.7532 5.90017L7.54522 1.69224C7.52136 1.66838 7.48901 1.65498 7.45526 1.65498H3.11394ZM0.909515 2.55938C0.909515 1.34192 1.89648 0.35498 3.11394 0.35498H7.45526C7.83378 0.35498 8.1968 0.505344 8.46445 0.772995L12.6724 4.98093C12.9401 5.24858 13.0905 5.61159 13.0905 5.99011V13.4402C13.0905 14.6577 12.1035 15.6446 10.886 15.6446H3.11393C1.89648 15.6446 0.909515 14.6577 0.909515 13.4402V2.55938ZM4.01837 10.9434C4.01837 10.5844 4.30938 10.2934 4.66837 10.2934H9.33162C9.69061 10.2934 9.98162 10.5844 9.98162 10.9434C9.98162 11.3023 9.69061 11.5934 9.33162 11.5934H4.66837C4.30938 11.5934 4.01837 11.3023 4.01837 10.9434ZM4.66837 7.18398C4.30938 7.18398 4.01837 7.475 4.01837 7.83398C4.01837 8.19297 4.30938 8.48398 4.66837 8.48398H7.77721C8.13619 8.48398 8.42721 8.19297 8.42721 7.83398C8.42721 7.475 8.13619 7.18398 7.77721 7.18398H4.66837Z" fill="black"/>
</svg>
