<svg width="16" height="8" viewBox="0 0 16 8" fill="none" xmlns="http://www.w3.org/2000/svg">
<path id="h5p" fill-rule="evenodd" clip-rule="evenodd" d="M7.35358 4.55156C7.50649 4.24811 7.82159 4.03662 8.18766 4.03662C8.69739 4.03662 9.11906 4.45041 9.11906 4.96076C9.11906 5.4711 8.70202 5.88489 8.18766 5.88489C7.82623 5.88489 7.51113 5.678 7.35821 5.37455L5.52321 5.63662C5.61589 5.94926 5.72247 6.18375 5.86148 6.39524C6.0005 6.60673 6.18122 6.79524 6.40364 6.96076C6.62143 7.12168 6.89019 7.24122 7.20066 7.33317H5.25445H4.68913V4.89639H2.37221V7.33317H0.333328V0.666504H2.37221V3.51708H4.68913V0.666504H5.25445H6.34804L5.52321 4.29409L7.35358 4.55156ZM15.1013 1.2046C14.726 0.845977 14.156 0.666667 13.4007 0.666667H11.385H10.8521V2.09195H7.7938L7.54357 3.11264C7.75209 3.01609 8.04866 2.91954 8.25254 2.86897C8.42932 2.82512 8.6061 2.8262 8.77985 2.82726C8.8065 2.82742 8.83308 2.82759 8.85958 2.82759C9.53611 2.82759 10.0875 3.03448 10.5092 3.43908C10.9309 3.84368 11.1394 4.35862 11.1394 4.97471C11.1394 5.4069 11.0328 5.82529 10.8151 6.22529C10.5973 6.62529 10.2914 6.93333 9.89292 7.14483C9.74927 7.21839 9.59172 7.28736 9.42027 7.33333H11.385H12.0106V4.89655H13.169C14.0124 4.89655 14.638 4.70345 15.0504 4.32184C15.4628 3.94023 15.6667 3.4069 15.6667 2.73103C15.6667 2.07356 15.4767 1.56322 15.1013 1.2046ZM13.3868 3.31503C13.2246 3.45296 12.942 3.51733 12.5388 3.51733H12.0106V2.04606H12.6222C13.0115 2.04606 13.2803 2.11503 13.4193 2.26215C13.5629 2.40928 13.6324 2.57939 13.6324 2.79089C13.6324 3.00698 13.549 3.1771 13.3868 3.31503Z" fill="black"/>
</svg>
