<svg width="16" height="16" viewBox="0 0 16 16" fill="none" xmlns="http://www.w3.org/2000/svg">
<g id="link">
<path id="Rectangle 16" d="M8.94956 7.00925C8.85127 6.91096 8.75866 6.81836 8.67025 6.72994C7.76902 5.82872 6.30796 5.82884 5.40674 6.73006L2.13188 10.0049C1.23065 10.9061 1.23065 12.3673 2.13188 13.2685L2.32976 13.4664C3.23098 14.3676 4.69216 14.3676 5.59339 13.4664L7.23082 11.829" stroke="black" stroke-width="1.3" stroke-linecap="round"/>
<path id="Rectangle 17" d="M7.06972 8.97524C7.16095 9.06647 7.24723 9.15275 7.32979 9.23531C8.23102 10.1365 9.69216 10.1365 10.5934 9.23527L13.8682 5.96042C14.7695 5.0592 14.7695 3.59803 13.8682 2.6968L13.7051 2.53362C12.8038 1.6324 11.3427 1.6324 10.4414 2.53362L8.804 4.17105" stroke="black" stroke-width="1.3" stroke-linecap="round"/>
</g>
</svg>
