<svg width="24.44px" height="24.44px" viewBox="0 0 24.44 24.44" version="1.1" xmlns="http://www.w3.org/2000/svg" xmlns:xlink="http://www.w3.org/1999/xlink">
<g id="TdB" stroke="none" stroke-width="1" fill="none" fill-rule="evenodd">
<g id="Dashboard-Prof." transform="translate(-909.280000, -12.280000)" fill="#FFFFFF" stroke="#FFFFFF" stroke-width="1.44">
<path d="M912.875,18.75 C914.462819,18.75 915.75,17.4628187 915.75,15.875 C915.75,14.2871813 914.462819,13 912.875,13 C911.287181,13 910,14.2871813 910,15.875 C910,17.4628187 911.287181,18.75 912.875,18.75 Z M912.875,27.375 C914.462819,27.375 915.75,26.0878187 915.75,24.5 C915.75,22.9121813 914.462819,21.625 912.875,21.625 C911.287181,21.625 910,22.9121813 910,24.5 C910,26.0878187 911.287181,27.375 912.875,27.375 Z M921.5,18.75 C923.087819,18.75 924.375,17.4628187 924.375,15.875 C924.375,14.2871813 923.087819,13 921.5,13 C919.912181,13 918.625,14.2871813 918.625,15.875 C918.625,17.4628187 919.912181,18.75 921.5,18.75 Z M921.5,27.375 C923.087819,27.375 924.375,26.0878187 924.375,24.5 C924.375,22.9121813 923.087819,21.625 921.5,21.625 C919.912181,21.625 918.625,22.9121813 918.625,24.5 C918.625,26.0878187 919.912181,27.375 921.5,27.375 Z M930.125,18.75 C931.712819,18.75 933,17.4628187 933,15.875 C933,14.2871813 931.712819,13 930.125,13 C928.537181,13 927.25,14.2871813 927.25,15.875 C927.25,17.4628187 928.537181,18.75 930.125,18.75 Z M930.125,27.375 C931.712819,27.375 933,26.0878187 933,24.5 C933,22.9121813 931.712819,21.625 930.125,21.625 C928.537181,21.625 927.25,22.9121813 927.25,24.5 C927.25,26.0878187 928.537181,27.375 930.125,27.375 Z M912.875,36 C914.462819,36 915.75,34.7128187 915.75,33.125 C915.75,31.5371813 914.462819,30.25 912.875,30.25 C911.287181,30.25 910,31.5371813 910,33.125 C910,34.7128187 911.287181,36 912.875,36 Z M921.5,36 C923.087819,36 924.375,34.7128187 924.375,33.125 C924.375,31.5371813 923.087819,30.25 921.5,30.25 C919.912181,30.25 918.625,31.5371813 918.625,33.125 C918.625,34.7128187 919.912181,36 921.5,36 Z M930.125,36 C931.712819,36 933,34.7128187 933,33.125 C933,31.5371813 931.712819,30.25 930.125,30.25 C928.537181,30.25 927.25,31.5371813 927.25,33.125 C927.25,34.7128187 928.537181,36 930.125,36 Z" id="icons-applications"></path>
        </g>
        </g>
        </svg>
