<svg width="32" height="32" viewBox="0 0 32 32" fill="none" xmlns="http://www.w3.org/2000/svg">
<g id="24px/grid">
<path id="grid" d="M10.8667 4H7.53333C5.58667 4 4 5.59375 4 7.54911V10.8973C4 12.8527 5.58667 14.4464 7.53333 14.4464H10.8667C12.8133 14.4464 14.4 12.8527 14.4 10.8973V7.54911C14.4 5.59375 12.8133 4 10.8667 4ZM12.6667 10.8973C12.6667 11.8884 11.8533 12.7054 10.8667 12.7054H7.53333C6.54667 12.7054 5.73333 11.8884 5.73333 10.8973V7.54911C5.73333 6.55804 6.54667 5.74107 7.53333 5.74107H10.8667C11.8533 5.74107 12.6667 6.55804 12.6667 7.54911V10.8973ZM24.4667 4H21.1333C19.1867 4 17.6 5.59375 17.6 7.54911V10.8973C17.6 12.8527 19.1867 14.4464 21.1333 14.4464H24.4667C26.4133 14.4464 28 12.8527 28 10.8973V7.54911C28 5.59375 26.4133 4 24.4667 4ZM26.2667 10.8973C26.2667 11.8884 25.4533 12.7054 24.4667 12.7054H21.1333C20.1467 12.7054 19.3333 11.8884 19.3333 10.8973V7.54911C19.3333 6.55804 20.1467 5.74107 21.1333 5.74107H24.4667C25.4533 5.74107 26.2667 6.55804 26.2667 7.54911V10.8973ZM24.4667 17.5536H21.1333C19.1867 17.5536 17.6 19.1473 17.6 21.1027V24.4509C17.6 26.4062 19.1867 28 21.1333 28H24.4667C26.4133 28 28 26.4062 28 24.4509V21.1027C28 19.1473 26.4133 17.5536 24.4667 17.5536ZM26.2667 24.4509C26.2667 25.442 25.4533 26.2589 24.4667 26.2589H21.1333C20.1467 26.2589 19.3333 25.442 19.3333 24.4509V21.1027C19.3333 20.1116 20.1467 19.2946 21.1333 19.2946H24.4667C25.4533 19.2946 26.2667 20.1116 26.2667 21.1027V24.4509ZM10.8667 17.5536H7.53333C5.58667 17.5536 4 19.1473 4 21.1027V24.4509C4 26.4062 5.58667 28 7.53333 28H10.8667C12.8133 28 14.4 26.4062 14.4 24.4509V21.1027C14.4 19.1473 12.8133 17.5536 10.8667 17.5536ZM12.6667 24.4509C12.6667 25.442 11.8533 26.2589 10.8667 26.2589H7.53333C6.54667 26.2589 5.73333 25.442 5.73333 24.4509V21.1027C5.73333 20.1116 6.54667 19.2946 7.53333 19.2946H10.8667C11.8533 19.2946 12.6667 20.1116 12.6667 21.1027V24.4509Z" fill="white"/>
</g>
</svg>
