<svg width="16" height="16" viewBox="0 0 16 16" fill="none" xmlns="http://www.w3.org/2000/svg">
<g id="16px/add-perso">
<path id="Union" fill-rule="evenodd" clip-rule="evenodd" d="M9.96355 14.1273C10.3465 14.0211 10.7536 13.8702 11.1141 13.6433L11.5225 13.3141C11.6468 13.1731 11.7265 13.0241 11.7783 12.9038C11.8558 12.7237 11.9011 12.5371 11.9302 12.3689C11.9878 12.0356 12.004 11.6384 11.9992 11.2111V11.0736C11.9992 9.96052 11.551 9.00669 10.6886 8.32304C10.0669 7.83013 9.27273 7.51025 8.36699 7.32348C8.46172 7.22093 8.54845 7.11292 8.62733 7.00065C9.11575 6.30549 9.26958 5.50078 9.26958 4.91264C9.26958 4.32563 9.11625 3.51526 8.62435 2.81662C8.13316 2.11897 7.34769 1.60071 6.25789 1.51687L6.25776 1.50538H6.23776L6.23764 1.5L5.99768 1.50529L5.75626 1.50136L5.7562 1.50538H5.74143L5.74132 1.5181C4.66067 1.60716 3.88344 2.12881 3.39832 2.82348C2.91243 3.51926 2.75897 4.32527 2.75897 4.91264C2.75897 5.50012 2.91249 6.30689 3.40052 7.00323C3.47755 7.11314 3.5621 7.21899 3.65431 7.31963C2.74265 7.50589 1.94211 7.82675 1.31565 8.32242C0.45336 9.0047 0.000720476 9.95796 0.000720476 11.0736V11.2111C-0.00412333 11.6432 0.0148454 12.0428 0.0762387 12.3788C0.10721 12.5483 0.15465 12.7342 0.233648 12.913C0.309344 13.0843 0.441618 13.3118 0.676897 13.4914C1.08537 13.8055 1.58328 13.999 2.04592 14.1273C2.52112 14.259 3.03255 14.3414 3.51903 14.3946C4.48323 14.5 5.44509 14.5 5.9926 14.5H6.01685C6.56436 14.5 7.52623 14.5 8.49043 14.3946C8.97692 14.3414 9.48835 14.259 9.96355 14.1273ZM6.01358 7.01892C6.80155 6.99564 7.27878 6.66182 7.56725 6.25124C7.86485 5.82766 7.97268 5.30438 7.97268 4.91264C7.97268 4.52203 7.86549 3.99641 7.56807 3.57143C7.27921 3.1587 6.80059 2.82399 6.00775 2.80657L6.00286 2.80646L5.99925 2.80649L5.99575 2.80658C5.21689 2.82773 4.74421 3.16148 4.45784 3.57373C4.16312 3.99799 4.05587 4.52196 4.05587 4.91264C4.05587 5.30455 4.16378 5.8303 4.46148 6.25508C4.74989 6.6666 5.22658 6.99997 6.01358 7.01892ZM4.60507 8.48493C3.48803 8.61529 2.66253 8.91363 2.11885 9.3438C1.57576 9.77352 1.29762 10.3467 1.29762 11.0736V11.2171L1.2976 11.2201C1.29291 11.6199 1.31206 11.9263 1.35188 12.1443C1.37177 12.2531 1.39541 12.3318 1.41928 12.3858C1.431 12.4123 1.44161 12.4302 1.44988 12.4417C1.4576 12.4525 1.46247 12.4563 1.46247 12.4563L1.46485 12.4582C1.68539 12.628 2.00347 12.7659 2.39139 12.8734C2.77638 12.9801 3.2136 13.0526 3.65954 13.1014C4.55184 13.1989 5.45509 13.1991 6.00473 13.1991C6.55437 13.1991 7.45763 13.1989 8.34993 13.1014C8.79588 13.0526 9.23309 12.9801 9.61809 12.8734C10.006 12.7659 10.3241 12.6281 10.5446 12.4582L10.547 12.4564C10.547 12.4564 10.564 12.443 10.5877 12.3881C10.6108 12.3344 10.6335 12.2558 10.6524 12.1467C10.6902 11.9281 10.707 11.621 10.7023 11.2201L10.7023 11.2171V11.0736C10.7023 10.3461 10.4261 9.77303 9.88445 9.34365C9.34264 8.9141 8.51842 8.61588 7.39836 8.4853C6.90605 8.45435 6.53576 8.44463 6.02391 8.45431L6.01909 8.45436H6L5.99527 8.45431C5.90001 8.45254 5.81222 8.45026 5.72896 8.44809C5.35224 8.43827 5.06826 8.43087 4.60507 8.48493ZM13.4716 3.7002C13.6373 3.7002 13.7716 3.83451 13.7716 4.0002V5.92861H15.7C15.8657 5.92861 16 6.06292 16 6.22861V6.77178C16 6.93747 15.8657 7.07178 15.7 7.07178H13.7716V9.0002C13.7716 9.16588 13.6373 9.3002 13.4716 9.3002H12.9284C12.7627 9.3002 12.6284 9.16588 12.6284 9.0002V7.07178H10.7C10.5343 7.07178 10.4 6.93747 10.4 6.77178V6.22861C10.4 6.06292 10.5343 5.92861 10.7 5.92861H12.6284V4.0002C12.6284 3.83451 12.7627 3.7002 12.9284 3.7002H13.4716Z" fill="black"/>
</g>
</svg>
