<svg width="16px" height="16px" viewBox="0 0 16 16" version="1.1" xmlns="http://www.w3.org/2000/svg" xmlns:xlink="http://www.w3.org/1999/xlink">
<g id="Messagerie" stroke="none" stroke-width="1" fill="none" fill-rule="evenodd">
<g id="Modale-envoyer-un-message2" transform="translate(-952.000000, -391.000000)">
<rect fill="#FFFFFF" x="0" y="0" width="1300" height="749"></rect>
<g id="modale" transform="translate(312.000000, 250.000000)" fill="#29C92E" fill-rule="nonzero">
<g id="Group-13" transform="translate(385.000000, 141.000000)">
<g id="icon/add-population" transform="translate(255.000000, 0.000000)">
<path d="M8,0 C12.418278,0 16,3.581722 16,8 C16,12.418278 12.418278,16 8,16 C3.581722,16 0,12.418278 0,8 C0,3.581722 3.581722,0 8,0 Z M8,1 C4.13400675,1 1,4.13400675 1,8 C1,11.8659932 4.13400675,15 8,15 C11.8659932,15 15,11.8659932 15,8 C15,4.13400675 11.8659932,1 8,1 Z M8.55911824,5 L8.55911824,7.40566038 L11,7.40566038 L11,8.39622642 L8.55911824,8.39622642 L8.55911824,11 L7.44088176,11 L7.44088176,8.39622642 L5,8.39622642 L5,7.40566038 L7.44088176,7.40566038 L7.44088176,5 L8.55911824,5 Z" id="Combined-Shape"></path>
        </g>
        </g>
        </g>
        </g>
        </g>
        </svg>
