<svg width="102px" height="121px" viewBox="0 0 102 121" version="1.1" xmlns="http://www.w3.org/2000/svg" xmlns:xlink="http://www.w3.org/1999/xlink">
<g id="Page-1" stroke="none" stroke-width="1" fill="none" fill-rule="evenodd">
<g id="version-finale-alerte" transform="translate(-878.000000, -430.000000)" fill="#D4D4D4" fill-rule="nonzero">
<path d="M918,430 L917.999889,430.040096 C918.371572,430.115452 918.725945,430.297027 919.014214,430.58482 L949.414214,460.934655 C949.702485,461.222451 949.884361,461.576244 949.95984,461.947318 L950,461.947195 L950.000778,481.097079 C966.975137,483.606721 980,498.213853 980,515.858086 C980,535.266429 964.240423,551 944.8,551 C930.334856,551 917.907608,542.289133 912.494162,529.835097 L886,529.834983 C881.581722,529.834983 878,526.259172 878,521.848185 L878,437.986799 C878,433.575812 881.581722,430 886,430 L918,430 Z M944.8,484.310231 C927.347802,484.310231 913.2,498.434687 913.2,515.858086 C913.2,519.347224 913.767361,522.704066 914.815002,525.841676 L915.037469,526.484579 C915.042609,526.498927 915.04776,526.51327 915.05292,526.527608 C915.123819,526.724592 915.19652,526.920393 915.271101,527.115267 L915.05292,526.527608 C915.137048,526.761355 915.223862,526.993823 915.313324,527.224975 L915.555102,527.830844 C915.570498,527.868288 915.585964,527.905696 915.601501,527.943067 L915.555019,527.830643 C915.736111,528.271066 915.926896,528.706495 916.127107,529.136665 C916.141751,529.168129 916.156409,529.199487 916.171117,529.230816 L916.127107,529.136665 C916.221555,529.339594 916.318101,529.541353 916.416716,529.741914 L916.171117,529.230816 C921.212197,539.968852 932.13615,547.405941 944.8,547.405941 C962.252198,547.405941 976.4,533.281485 976.4,515.858086 C976.4,500.1882 964.956606,487.186652 949.957774,484.728382 L949.265052,484.622724 C949.22806,484.617501 949.191047,484.612342 949.154014,484.607247 C948.944595,484.578434 948.734545,484.551673 948.523862,484.52698 L949.154014,484.607247 C948.866168,484.567643 948.577084,484.53191 948.286818,484.500102 C948.10519,484.480199 947.923098,484.461832 947.740557,484.445016 L948.286818,484.500102 C948.034703,484.472475 947.781696,484.447808 947.527833,484.426138 L947.740557,484.445016 C947.438614,484.417199 947.13544,484.393624 946.831096,484.374349 L947.527833,484.426138 C947.270045,484.404133 947.011375,484.385218 946.751858,484.36943 L946.831096,484.374349 C946.600638,484.359754 946.36951,484.347625 946.137736,484.337989 L946.751858,484.36943 C946.106283,484.330155 945.455472,484.310231 944.8,484.310231 Z M945.59996,495.092409 C947.47779,495.092409 949.163212,496.069042 950.101641,497.700354 L965.696435,524.809687 C966.634521,526.440339 966.634521,528.391767 965.696418,530.022535 C964.757813,531.653767 963.07239,532.630363 961.194679,532.630363 L930.005242,532.630363 C928.127392,532.630363 926.442063,531.653794 925.503565,530.022426 C924.565479,528.391774 924.565479,526.440346 925.503561,524.809615 L941.09828,497.700352 C942.036694,496.069066 943.722182,495.092409 945.59996,495.092409 Z M945.60004,497.890835 C944.729775,497.890835 943.950434,498.342388 943.515341,499.098815 L927.920464,526.208156 C927.485371,526.964583 927.485371,527.867689 927.920464,528.624117 C928.355556,529.380544 929.134897,529.832097 930.005242,529.832097 L961.194679,529.832097 C962.064943,529.832097 962.844285,529.380544 963.279457,528.624117 C963.714549,527.867689 963.714549,526.964583 963.279536,526.208156 L947.684738,499.098815 C947.249646,498.342388 946.470225,497.890835 945.60004,497.890835 Z M914,433.993399 L886,433.993399 C883.948657,433.993399 882.257971,435.535012 882.026911,437.521084 L882,437.986799 L882,521.848185 C882,523.896143 883.544161,525.584038 885.533515,525.814718 L886,525.841584 L911.040647,525.84133 C910.103186,522.676779 909.6,519.326098 909.6,515.858086 C909.6,496.449743 925.359577,480.716172 944.8,480.716172 C945.201926,480.716172 945.602278,480.722897 946.00095,480.736241 L946,465.94 L914,465.940594 L914,433.993399 Z M945.59996,521.858338 C946.478672,521.858338 947.193546,522.575817 947.193546,523.457729 C947.193546,524.339641 946.478592,525.057119 945.59996,525.057119 C944.721249,525.057119 944.006374,524.339641 944.006374,523.457729 C944.006374,522.575817 944.721249,521.858338 945.59996,521.858338 Z M946.79503,507.463984 L946.79503,519.459173 L944.404731,519.459173 L944.404731,507.463984 L946.79503,507.463984 Z M917.999,435.219 L918,461.947195 L944.771,461.947 L917.999,435.219 Z" id="icon-alerte"></path>
        </g>
        </g>
        </svg>
