<svg width="16" height="16" viewBox="0 0 16 16" fill="none" xmlns="http://www.w3.org/2000/svg">
<path id="Icon" d="M4.46111 4.38889C4.46111 4.74787 4.75213 5.03889 5.11111 5.03889C5.4701 5.03889 5.76111 4.74787 5.76111 4.38889H4.46111ZM5.76111 1.5C5.76111 1.14101 5.4701 0.85 5.11111 0.85C4.75213 0.85 4.46111 1.14101 4.46111 1.5H5.76111ZM10.2389 4.38889C10.2389 4.74787 10.5299 5.03889 10.8889 5.03889C11.2479 5.03889 11.5389 4.74787 11.5389 4.38889H10.2389ZM11.5389 1.5C11.5389 1.14101 11.2479 0.85 10.8889 0.85C10.5299 0.85 10.2389 1.14101 10.2389 1.5H11.5389ZM2.94444 3.59444H13.0556V2.29444H2.94444V3.59444ZM13.85 4.38889V13.0556H15.15V4.38889H13.85ZM13.0556 13.85H2.94444V15.15H13.0556V13.85ZM2.15 13.0556V4.38889H0.85V13.0556H2.15ZM2.94444 13.85C2.50568 13.85 2.15 13.4943 2.15 13.0556H0.85C0.85 14.2123 1.78771 15.15 2.94444 15.15V13.85ZM13.85 13.0556C13.85 13.4943 13.4943 13.85 13.0556 13.85V15.15C14.2123 15.15 15.15 14.2123 15.15 13.0556H13.85ZM13.0556 3.59444C13.4943 3.59444 13.85 3.95013 13.85 4.38889H15.15C15.15 3.23216 14.2123 2.29444 13.0556 2.29444V3.59444ZM2.94444 2.29444C1.78771 2.29444 0.85 3.23216 0.85 4.38889H2.15C2.15 3.95013 2.50568 3.59444 2.94444 3.59444V2.29444ZM5.76111 4.38889V1.5H4.46111V4.38889H5.76111ZM11.5389 4.38889V1.5H10.2389V4.38889H11.5389ZM3.5 7.65H5.5V6.35H3.5V7.65ZM3.5 10.15H5.5V8.85H3.5V10.15ZM3.5 12.65H5.5V11.35H3.5V12.65ZM7 7.65H9V6.35H7V7.65ZM7 10.15H9V8.85H7V10.15ZM7 12.65H9V11.35H7V12.65ZM10.5 7.65H12.5V6.35H10.5V7.65ZM10.5 10.15H12.5V8.85H10.5V10.15ZM10.5 12.65H12.5V11.35H10.5V12.65Z" fill="black"/>
</svg>
