<svg width="16" height="16" viewBox="0 0 16 16" fill="none" xmlns="http://www.w3.org/2000/svg">
<path fill-rule="evenodd" clip-rule="evenodd" d="M6.60635 2.87202C6.34073 2.87202 6.09268 3.00477 5.94534 3.22579L5.35851 4.10605C4.97006 4.68873 4.31611 5.03872 3.61582 5.03872H2.94442C2.50567 5.03872 2.14998 5.3944 2.14998 5.83318V12.3333C2.14998 12.7721 2.50567 13.1277 2.94442 13.1277H13.0555C13.4943 13.1277 13.85 12.7721 13.85 12.3333V5.83318C13.85 5.3944 13.4943 5.03872 13.0555 5.03872H12.3841C11.6838 5.03872 11.0299 4.68873 10.6414 4.10605L10.0546 3.22579C9.90727 3.00477 9.65922 2.87202 9.3936 2.87202H6.60635ZM4.86367 2.50469C5.25211 1.92201 5.90606 1.57202 6.60635 1.57202H9.3936C10.0939 1.57202 10.7478 1.92201 11.1363 2.50469L11.7231 3.38495C11.8705 3.60597 12.1185 3.73872 12.3841 3.73872H13.0555C14.2123 3.73872 15.15 4.67645 15.15 5.83318V12.3333C15.15 13.49 14.2123 14.4277 13.0555 14.4277H2.94442C1.78768 14.4277 0.849976 13.49 0.849976 12.3333V5.83318C0.849976 4.67645 1.78768 3.73872 2.94442 3.73872H3.61582C3.88144 3.73872 4.12949 3.60597 4.27684 3.38495L4.86367 2.50469ZM7.99998 7.20541C7.16235 7.20541 6.48331 7.88445 6.48331 8.72211C6.48331 9.55977 7.16235 10.2388 7.99998 10.2388C8.8376 10.2388 9.51664 9.55977 9.51664 8.72211C9.51664 7.88445 8.8376 7.20541 7.99998 7.20541ZM5.18331 8.72211C5.18331 7.1665 6.44437 5.90542 7.99998 5.90542C9.55559 5.90542 10.8166 7.1665 10.8166 8.72211C10.8166 10.2777 9.55559 11.5388 7.99998 11.5388C6.44437 11.5388 5.18331 10.2777 5.18331 8.72211Z" fill="white"/>
</svg>
