<svg width="25px" height="22px" viewBox="0 0 25 22" version="1.1" xmlns="http://www.w3.org/2000/svg" xmlns:xlink="http://www.w3.org/1999/xlink">
<g id="Messagerie" stroke="none" stroke-width="1" fill="none" fill-rule="evenodd">
<g id="Modale-envoyer-un-message2" transform="translate(-336.000000, -625.000000)" fill="#000000" fill-rule="nonzero">
<g id="modale" transform="translate(312.000000, 250.000000)">
<g id="CO-Budé" transform="translate(24.000000, 124.000000)">
<g id="ligne-03" transform="translate(0.000000, 251.000000)">
<path d="M12.5000262,0 C14.2172846,0 15.6142532,1.37397231 15.6142532,3.06278584 C15.6142532,3.95638448 15.2199905,4.78623744 14.5489953,5.30855884 L14.538948,5.3175041 C14.4417165,5.40263278 14.3389657,5.48178959 14.2312988,5.55438381 L14.275,5.522 L14.502238,5.60015992 C15.1864765,5.85069055 15.8101858,6.23032391 16.3051963,6.72823898 L16.48,6.894 L16.5627266,6.73058065 C17.0991851,5.74699326 18.1459364,5.1121228 19.3074918,5.1121228 C21.0247501,5.1121228 22.4217187,6.48609511 22.4217187,8.17490864 C22.4217187,9.06866299 22.0272801,9.89866021 21.3560607,10.4209861 L21.3460112,10.4299329 C21.2487468,10.5150616 21.1459625,10.5942154 21.0382621,10.666803 L21.081,10.635 L21.2793776,10.7016747 C23.3067872,11.4291659 24.7630447,13.2290367 24.9974588,15.3836249 C25.010944,15.5073241 24.9703351,15.6308573 24.8857307,15.7235586 C24.8011182,15.8162137 24.6804338,15.8691325 24.5537433,15.8691325 L18.697,15.825 L17.633,15.825 L17.6795401,16.1235333 C17.7048134,16.3284417 17.7175854,16.5353342 17.7175854,16.7435062 C17.7175854,19.573009 15.37705,21.875 12.499976,21.875 C9.62294436,21.875 7.28241687,19.5730013 7.28241687,16.7435062 C7.28241687,16.4470587 7.30831731,16.1532061 7.39678399,15.9079516 L7.404,15.869 L0.446258892,15.8691325 C0.31963998,15.8691325 0.198959879,15.8162303 0.114281267,15.7236186 C0.0296510912,15.6310051 -0.010947285,15.5074733 0.00254347354,15.3837237 C0.216769846,13.4146879 1.45144596,11.741888 3.20194202,10.9660783 C3.44626132,10.8487524 3.69998828,10.7487349 3.96179036,10.6668524 L3.91,10.683 L3.77239548,10.5842662 C3.02714014,10.0091061 2.57838395,9.12831409 2.57838395,8.17495804 C2.57838395,6.48610286 3.97529445,5.1121722 5.69256068,5.1121722 C6.83164653,5.1121722 7.86033957,5.72272034 8.34838019,6.66386717 C8.39848562,6.74860778 8.44447163,6.83600967 8.48612171,6.92575064 L8.465,6.884 L8.65299295,6.70837537 C9.16993472,6.24512355 9.76402446,5.88666994 10.4037989,5.68280679 C10.523595,5.63567668 10.6454116,5.5929667 10.7688039,5.55438381 L10.717,5.571 L10.5794491,5.47177304 C9.83441756,4.89654378 9.3858495,4.01594103 9.3858495,3.06278584 C9.3858495,1.37393067 10.78276,0 12.5000262,0 Z M12.499976,12.4894211 C10.1152369,12.4894211 8.17496933,14.3977488 8.17496933,16.7434074 C8.17496933,19.0890659 10.1152369,20.9973936 12.499976,20.9973936 C14.8847249,20.9973936 16.8250329,19.0890564 16.8250329,16.7434074 C16.8250329,14.3977412 14.8847577,12.4894211 12.499976,12.4894211 Z M14.6942639,14.2087277 C15.0010983,14.2087277 15.2898185,14.3258939 15.5073793,14.5387435 C15.9571851,14.9786273 15.9595785,15.6971993 15.5127374,16.1406917 C15.3496197,16.3026226 15.2000274,16.4514004 15.012936,16.637792 L14.767161,16.8827655 C14.7221101,16.9276866 14.6747427,16.9749244 14.6246508,17.0248852 L14.1813455,17.4670651 C13.9697681,17.6780603 13.815665,17.8316076 13.67267,17.9738501 L13.5034404,18.1420679 C13.475135,18.1701842 13.446532,18.1985866 13.4172606,18.2276442 C13.2382878,18.4052105 13.1744072,18.4685088 13.0591084,18.5825145 C12.9324264,18.7077759 12.8100807,18.828448 12.6909519,18.9456158 C12.4719666,19.1609462 12.1791872,19.2774943 11.8748877,19.2774943 C11.5706003,19.2774943 11.2778663,19.1609534 11.0588701,18.9456122 L9.49077918,17.4033345 C9.2729414,17.189134 9.15291044,16.90407 9.15291044,16.6009951 C9.15291044,16.2979277 9.27293578,16.0128636 9.49077542,15.7986099 C9.70864464,15.5843271 9.99857382,15.4662338 10.306793,15.4662338 C10.6149673,15.4662338 10.9049075,15.5843451 11.1228096,15.7986089 L11.840251,16.5664956 L13.8761761,14.5441286 C14.0925593,14.3290985 14.3816329,14.2099097 14.689794,14.2087277 Z M14.6931741,15.0861362 C14.6238444,15.0863894 14.5592063,15.1129969 14.5106272,15.1612823 L12.190579,17.4659111 C12.1070463,17.5488918 11.993268,17.595737 11.8743855,17.5960114 C11.7550295,17.5960114 11.641487,17.5497567 11.5577461,17.4674492 L10.4915897,16.4188928 C10.4421761,16.3702926 10.376724,16.3436426 10.306793,16.3436426 C10.2368904,16.3436426 10.1714024,16.3703072 10.1220466,16.4188928 C10.0725887,16.4675365 10.0454127,16.5320589 10.0454127,16.6008963 C10.0454127,16.6697258 10.0725831,16.7342505 10.1219964,16.7828504 L11.6901043,18.3251447 C11.7918987,18.4253478 11.957791,18.4253478 12.0596844,18.3251317 C12.0949663,18.2904306 12.1298169,18.2561316 12.1644339,18.2220391 L12.3709118,18.0183968 C12.7501087,17.6438565 13.1488392,17.2469564 13.830059,16.5673044 C13.952048,16.4455977 14.0600507,16.3378677 14.1580669,16.2401358 L14.4261553,15.9729552 C14.5081979,15.8912404 14.5842535,15.8155449 14.6583217,15.7418899 L14.8785636,15.5230674 C14.9796778,15.4226886 14.9793451,15.2599934 14.8779509,15.1606901 C14.8286925,15.1125367 14.7650883,15.0869917 14.6931741,15.0861362 Z M19.3079438,11.2375957 C17.982984,11.2377373 16.7431828,11.7575606 15.828806,12.6297596 L15.738,12.723 L15.959979,12.9058612 C16.5428915,13.4147946 17.0048496,14.0459224 17.3083544,14.7521993 L17.406,14.999 L23.04,15.035 L24.04,15.035 L23.9940534,14.831206 C23.4810208,12.7971273 21.6634687,11.3319668 19.5171023,11.2419838 L19.3079438,11.2375957 Z M5.69311314,11.2375957 C3.45519368,11.2378312 1.53521708,12.7315755 1.00574224,14.8316308 L0.969,14.99 L7.58523378,15.0204839 C7.88693809,14.1905235 8.40283536,13.451508 9.07247356,12.9230244 L9.224,12.809 L9.257,12.783 L9.08273079,12.6036331 C8.18148294,11.7265264 6.97683118,11.237733 5.69311314,11.2375957 Z M12.39,10.713 L7.692,10.713 L7.85746378,10.7746174 C8.67528667,11.1023805 9.40137194,11.6145012 9.94282954,12.2718979 C10.7179464,11.8414594 11.5926337,11.6119135 12.499976,11.6119135 C13.306519,11.6119135 14.0872867,11.7932911 14.7951741,12.1359008 L15.025,12.254 L15.1694422,12.1002722 C15.6604374,11.5935036 16.2375628,11.1890542 16.8797179,10.9343722 C17.0602012,10.8519497 17.2447127,10.777779 17.433131,10.7133352 L17.319,10.755 L12.39,10.713 Z M5.69251045,5.98958101 C4.46760472,5.98958101 3.47088618,6.96992199 3.47088618,8.17485924 C3.47088618,9.37956257 4.46721897,10.3597491 5.69185754,10.3600881 C6.91778739,10.3597975 7.91418495,9.37957728 7.91418495,8.17485924 C7.91418495,6.96988229 6.91747628,5.98958101 5.69251045,5.98958101 Z M19.3074416,5.98958101 C18.082526,5.98958101 17.0857671,6.96993168 17.0857671,8.17485924 C17.0857671,9.37956037 18.0821478,10.3597491 19.3068389,10.3600881 L19.4538999,10.3553925 C20.6108887,10.2809755 21.5291161,9.33138164 21.5291161,8.17485924 C21.5291161,6.96988229 20.5324074,5.98958101 19.3074416,5.98958101 Z M12.5005787,6.12552228 L12.2583175,6.13130735 C10.8984102,6.19655473 9.64769576,6.81068288 8.7849965,7.81917587 C8.79931795,7.9403336 8.80668719,8.05840874 8.80668719,8.17485924 C8.80668719,8.73620244 8.65147564,9.27545324 8.33997522,9.70029327 C8.29418454,9.77669707 8.24510705,9.85102674 8.19291382,9.9230284 L8.222,9.879 L13.584,9.922 L16.753,9.922 L16.6525163,9.77288795 C16.3544319,9.2960736 16.1932146,8.74691589 16.1932146,8.17485924 C16.1932146,8.05823515 16.2005601,7.94015912 16.2246743,7.851902 C15.3015633,6.75141511 13.9531641,6.12571782 12.5005787,6.12552228 Z M12.499976,0.877458213 C11.2750703,0.877458213 10.2783517,1.85779919 10.2783517,3.06273644 C10.2783517,4.26744698 11.2747417,5.24767472 12.4993733,5.24796528 L12.6463852,5.2432751 C13.8033705,5.16889791 14.7216505,4.21926576 14.7216505,3.06273644 C14.7216505,1.85775949 13.7249418,0.877458213 12.499976,0.877458213 Z" id="Combined-Shape"></path>
        </g>
        </g>
        </g>
        </g>
        </g>
        </svg>
