<svg width="15px" height="17px" viewBox="0 0 15 17" version="1.1" xmlns="http://www.w3.org/2000/svg" xmlns:xlink="http://www.w3.org/1999/xlink">
<g id="Messagerie" stroke="none" stroke-width="1" fill="none" fill-rule="evenodd">
<g id="Modale-envoyer-un-message3" transform="translate(-505.000000, -331.000000)" fill="#000000" fill-rule="nonzero">
<g id="modale" transform="translate(318.000000, 250.000000)">
<g id="contact-book" transform="translate(187.000000, 81.000000)">
<path d="M3.97058824,12.8520054 L11.9117647,12.8520054 C12.1391815,12.8530979 12.3302021,12.687483 12.3529412,12.4695 C12.3597457,12.352008 12.3597457,12.234242 12.3529412,12.11675 C12.3492712,10.3497273 11.2110082,8.76923969 9.49411765,8.14725 C10.2485616,7.52468282 10.5207372,6.5153726 10.1762244,5.61778928 C9.83171162,4.72020596 8.94339934,4.1242518 7.95,4.1242518 C6.95660066,4.1242518 6.06828838,4.72020596 5.72377561,5.61778928 C5.37926284,6.5153726 5.65143837,7.52468282 6.40588235,8.14725 C4.68204376,8.76366757 3.53584157,10.3454149 3.52941176,12.11675 C3.52260723,12.234242 3.52260723,12.352008 3.52941176,12.4695 C3.55215087,12.687483 3.74317144,12.8530979 3.97058824,12.8520054 L3.97058824,12.8520054 Z M6.43675822,6.4345 C6.434364,5.64226078 7.09823167,4.99771077 7.92061893,4.99380627 C8.74300619,4.98993709 9.41340702,5.62818096 9.41907587,6.42040474 C9.42474471,7.21262851 8.7635412,7.85971489 7.94117647,7.86675 C7.11934228,7.86675 6.45243146,7.22619681 6.45,6.4345 L6.43675822,6.4345 Z M7.94117647,8.71674944 C9.84483034,8.71570528 11.4063402,10.1691912 11.4705882,12.002 L4.41176471,12.002 C4.47601273,10.1691912 6.03752261,8.71570528 7.94117647,8.71674944 L7.94117647,8.71674944 Z" id="Shape"></path>
<path d="M2.20588235,17 L13.6764706,17 C14.4074357,17 15,16.4291631 15,15.725 L15,1.275 C15,0.570836944 14.4074357,0 13.6764706,0 L2.20588235,0 C1.47491724,0 0.882352941,0.570836944 0.882352941,1.275 L0.882352941,2.975 L0.441176471,2.975 C0.197521434,2.975 0,3.16527898 0,3.4 C0,3.63472102 0.197521434,3.825 0.441176471,3.825 L0.882352941,3.825 L0.882352941,6.375 L0.441176471,6.375 C0.197521434,6.375 0,6.56527898 0,6.8 C0,7.03472102 0.197521434,7.225 0.441176471,7.225 L0.882352941,7.225 L0.882352941,9.775 L0.441176471,9.775 C0.197521434,9.775 0,9.96527898 0,10.2 C0,10.434721 0.197521434,10.625 0.441176471,10.625 L0.882352941,10.625 L0.882352941,13.175 L0.441176471,13.175 C0.197521434,13.175 0,13.365279 0,13.6 C0,13.834721 0.197521434,14.025 0.441176471,14.025 L0.882352941,14.025 L0.882352941,15.725 C0.882352941,16.4291631 1.47491724,17 2.20588235,17 Z M1.76470588,10.625 L2.20588235,10.625 C2.44953739,10.625 2.64705882,10.434721 2.64705882,10.2 C2.64705882,9.96527898 2.44953739,9.775 2.20588235,9.775 L1.76470588,9.775 L1.76470588,7.225 L2.20588235,7.225 C2.44953739,7.225 2.64705882,7.03472102 2.64705882,6.8 C2.64705882,6.56527898 2.44953739,6.375 2.20588235,6.375 L1.76470588,6.375 L1.76470588,3.825 L2.20588235,3.825 C2.44953739,3.825 2.64705882,3.63472102 2.64705882,3.4 C2.64705882,3.16527898 2.44953739,2.975 2.20588235,2.975 L1.76470588,2.975 L1.76470588,1.275 C1.76470588,1.04027898 1.96222732,0.85 2.20588235,0.85 L13.6764706,0.85 C13.9201256,0.85 14.1176471,1.04027898 14.1176471,1.275 L14.1176471,15.725 C14.1176471,15.959721 13.9201256,16.15 13.6764706,16.15 L2.20588235,16.15 C1.96222732,16.15 1.76470588,15.959721 1.76470588,15.725 L1.76470588,14.025 L2.20588235,14.025 C2.44953739,14.025 2.64705882,13.834721 2.64705882,13.6 C2.64705882,13.365279 2.44953739,13.175 2.20588235,13.175 L1.76470588,13.175 L1.76470588,10.625 Z" id="Shape"></path>
        </g>
        </g>
        </g>
        </g>
        </svg>
