<svg xmlns="http://www.w3.org/2000/svg" width="19" height="19" viewBox="0 0 19 19">
<defs>
    <clipPath id="a"><path d="M19,0 L19,19 L0,19 L0,0 L19,0 Z"/></clipPath><clipPath id="b"><path d="M9.51958417,0 C10.9905068,0 12.4511968,0.342256693 13.7441469,0.989107215 C16.9370539,2.58740209 19,5.9265988 19,9.49652624 C19,12.4093647 17.6262862,15.2168934 15.3254344,17.0064279 C13.6728848,18.2920844 11.59459,19 9.47390334,19 C8.64251232,19 7.81843022,18.891765 7.02431475,18.6778545 C3.60227274,17.7567599 0.922818228,14.9203441 0.19813761,11.4513385 C-0.540429979,7.91724563 0.822685859,4.20215161 3.67134215,1.98662458 C5.31804455,0.705721599 7.39487761,0 9.51958417,0 Z M9.51994962,1.46263544 C7.7186633,1.46263544 5.96013423,2.05865938 4.56887901,3.14137526 C2.15802775,5.01647389 1.00394737,8.16077443 1.62922652,11.1518639 C2.24244592,14.0862762 4.50931121,16.4860953 7.40437922,17.2653144 C8.07460829,17.4455842 8.77114952,17.5373646 9.47390334,17.5373646 C11.2715352,17.5373646 13.0307952,16.938781 14.4286284,15.8516772 C16.3760934,14.3371182 17.538579,11.9614326 17.538579,9.49652624 C17.538579,6.4758184 15.7928406,3.65000674 13.0907284,2.29743461 C11.9995048,1.75150594 10.7650262,1.46263544 9.51994962,1.46263544 Z M9.49838827,6.97421143 C9.90184132,6.97421143 10.2292815,7.30184177 10.2292815,7.70552915 L10.2292815,13.4811108 C10.2292815,13.8851639 9.90220676,14.2124286 9.49838827,14.2124286 C9.09493521,14.2124286 8.76749506,13.8847982 8.76749506,13.4811108 L8.76749506,7.70552915 C8.76749506,7.30184177 9.09493521,6.97421143 9.49838827,6.97421143 Z M10.013668,4.99270607 C10.1525377,5.13165643 10.2292815,5.31814245 10.2292815,5.51194165 C10.2292815,5.70208426 10.1525377,5.89222686 10.013668,6.02752064 C9.87845273,6.16647101 9.69207497,6.24325937 9.49838827,6.24325937 C9.30470156,6.24325937 9.1183238,6.16647101 8.98310855,6.02752064 C8.84423884,5.89222686 8.76749506,5.70574084 8.76749506,5.51194165 C8.76749506,5.31814245 8.84423884,5.13165643 8.98310855,4.99636266 C9.25353904,4.72211851 9.74323749,4.72211851 10.013668,4.99270607 Z"/></clipPath>
</defs><g fill="#000" clip-path="url(#a)"><g clip-path="url(#b)"><polygon points="0 0 19 0 19 19 0 19 0 0"/></g></g>
</svg>
