<svg width="18" height="16" viewBox="0 0 18 16" fill="none" xmlns="http://www.w3.org/2000/svg">
<g id="16px/eye-off">
<path id="eye-off" d="M1.92629 0.926147L4.74731 3.74716M16.074 15.0738L13.2532 12.2531M10.4737 13.364C9.99653 13.4545 9.50404 13.5019 9.0005 13.5019C5.48114 13.5019 2.50203 11.1888 1.50049 7.99996C1.77314 7.13187 2.19235 6.32868 2.72912 5.61939M7.33281 6.33267C7.75952 5.90596 8.34901 5.64204 9.00014 5.64204C10.3024 5.64204 11.3581 6.69773 11.3581 7.99999C11.3581 8.65112 11.0942 9.2406 10.6675 9.66731M7.33281 6.33267L10.6675 9.66731M7.33281 6.33267L4.74731 3.74716M10.6675 9.66731L4.74731 3.74716M10.6675 9.66731L13.2532 12.2531M4.74731 3.74716C5.9733 2.95677 7.43333 2.49811 9.00048 2.49811C12.5198 2.49811 15.4989 4.81119 16.5005 8.00002C15.9449 9.76902 14.7807 11.2685 13.2532 12.2531" stroke="black" stroke-width="1.3" stroke-linecap="round" stroke-linejoin="round"/>
</g>
</svg>
