<svg xmlns="http://www.w3.org/2000/svg" width="19" height="11" viewBox="0 0 19 11"><defs><clipPath id="a"><path d="M19,0 L19,11 L0,11 L0,0 L19,0 Z"/></clipPath><clipPath id="b"><path d="M9.5,0 C11.4485077,0 13.360914,0.506297597 15.0304604,1.46415474 C16.6507594,2.39376252 18.005002,3.72265676 18.9468128,5.3070474 C19.0177291,5.42642252 19.0177291,5.57349923 18.9468128,5.69291347 C18.005002,7.27734324 16.6507594,8.60619836 15.0304604,9.53580613 C13.360914,10.4937024 11.4485077,11 9.5,11 C7.55149234,11 5.63908602,10.4937024 3.96949942,9.53580613 C2.3492004,8.60623748 0.99495783,7.27734324 0.0531871675,5.69291347 C-0.0177290558,5.57353836 -0.0177290558,5.42642252 0.0531871675,5.3070474 C0.99495783,3.72265676 2.3492004,2.39380164 3.96949942,1.46415474 C5.63904582,0.506297597 7.55149234,0 9.5,0 Z M9.5,1 C7.7228315,1 5.97894982,1.44662158 4.45688805,2.29154309 C3.04389796,3.07593225 1.85268825,4.18234163 1,5.49998139 C1.85268825,6.81765837 3.04389796,7.92406775 4.45688805,8.70845691 C5.97894982,9.55337842 7.7228315,10 9.5,10 C11.2771685,10 13.0210107,9.55337842 14.5431119,8.70845691 C15.956102,7.92406775 17.1472722,6.81765837 18,5.49998139 C17.1472722,4.1823044 15.9560625,3.07593225 14.5431119,2.29154309 C13.0210107,1.44662158 11.2771685,1 9.5,1 Z M9.49998022,2 C11.4298648,2 13,3.57009568 13,5.49998022 C13,7.42990432 11.4299043,9 9.49998022,9 C7.57005612,9 6,7.42990432 6,5.49998022 C6,3.57005612 7.57005612,2 9.49998022,2 Z M9.49998183,3 C8.12148989,3 7,4.12148989 7,5.49998183 C7,6.87851011 8.12148989,8 9.49998183,8 C10.8785101,8 12,6.87851011 12,5.49998183 C12,4.12148989 10.8785101,3 9.49998183,3 Z"/></clipPath></defs><g clip-path="url(#a)"><g clip-path="url(#b)"><polygon points="0 0 19 0 19 11 0 11 0 0"/></g></g></svg>