<svg width="24" height="24" viewBox="0 0 24 24" fill="none" xmlns="http://www.w3.org/2000/svg">
<g id="notes">
<path id="bg" d="M1.28804 5C0.576721 5 0 5.5317 0 6.1875V22.8125C0 23.4683 0.576721 24 1.28804 24H13.5245C14.2358 24 14.8125 23.4683 14.8125 22.8125V9.75L9.66033 5H1.28804Z" fill="#E2E5E7"/>
<g id="lignes">
<path d="M3.24375 13H10.0688C10.2033 13 10.3125 13.224 10.3125 13.5C10.3125 13.776 10.2033 14 10.0688 14H3.24375C3.1092 14 3 13.776 3 13.5C3 13.224 3.1092 13 3.24375 13Z" fill="#646464"/>
<path d="M3.20471 18.9585H6.47915C6.59212 18.9585 6.6838 19.1825 6.6838 19.4585C6.6838 19.7345 6.59212 19.9585 6.47915 19.9585H3.20471C3.09175 19.9585 3.00006 19.7345 3.00006 19.4585C3.00006 19.1825 3.09175 18.9585 3.20471 18.9585Z" fill="#646464"/>
<path d="M10.0688 15.979H3.24375C3.1092 15.979 3 16.203 3 16.479C3 16.755 3.1092 16.979 3.24375 16.979H10.0688C10.2033 16.979 10.3125 16.755 10.3125 16.479C10.3125 16.203 10.2033 15.979 10.0688 15.979Z" fill="#646464"/>
</g>
<g id="pencil">
<path id="Combined Shape" fill-rule="evenodd" clip-rule="evenodd" d="M20.1811 5.11463L21.6535 5.4091L23.44 3.62256L21.9087 2.09123L21.9086 2.0913L20.3774 0.560059L18.5908 2.34662L19.4415 4.5584L19.1013 4.89866L19.6117 5.00074L19.8669 5.66449L20.1811 5.11463Z" fill="#FF3E3A"/>
<path id="Combined Shape_2" fill-rule="evenodd" clip-rule="evenodd" d="M11.12 12.8798L11.9433 10.3413L13.121 10.879L13.3114 10.6886L13.391 11.0022L13.8218 11.1989L13.4929 11.4036L13.6586 12.0566L11.1201 12.8799L11.1204 12.8796L11.12 12.8798Z" fill="#373E9F"/>
<path id="Combined Shape_3" fill-rule="evenodd" clip-rule="evenodd" d="M15.2152 9.22219L15.6527 9.36804L15.2908 9.6004L15.6527 11.4099L13.6586 12.0566L12.8009 11.199L12.8011 11.1988L12.8009 11.1989L11.9433 10.3413L12.5901 8.34717L14.8871 9.11283L15.1423 8.85767L15.2152 9.22219Z" fill="#FFE7B5"/>
<path id="Combined Shape_4" fill-rule="evenodd" clip-rule="evenodd" d="M18.5893 2.34717L12.5895 8.34699L14.1206 9.87808L14.1225 9.87614L14.1214 9.87844L15.6527 11.4097L21.6535 5.40901L20.1221 3.87771L20.1199 3.87882L20.1204 3.87826L18.5893 2.34717Z" fill="#FF9A27"/>
</g>
</g>
</svg>
