<svg width="31.4px" height="31.4px" viewBox="0 0 31.4 31.4" version="1.1" xmlns="http://www.w3.org/2000/svg" xmlns:xlink="http://www.w3.org/1999/xlink">
<g id="TdB" stroke="none" stroke-width="1" fill="none" fill-rule="evenodd">
<g id="Dashboard-Elv." transform="translate(-465.300000, -921.300000)">
<rect fill="#FFFFFF" x="0" y="0" width="1300" height="1324"></rect>
<g id="W-Activités" transform="translate(445.000000, 371.000000)" stroke="#000000" stroke-linecap="round" stroke-width="1.4">
<g id="Notif-renvoi" transform="translate(0.000000, 527.000000)">
<g id="icon-renvoi-copy" transform="translate(21.000000, 24.000000)">
<polyline id="Stroke-1" points="10.5991367 20.0627087 7.97376069 17.3358995 10.7005931 14.7105458"></polyline>
<path d="M22.537855,9.58678529 C22.537855,9.58678529 21.8019136,17.2364832 16.0749792,17.3119376 C11.9670139,17.3662342 9.36483524,17.3534885 7.97376069,17.3358995" id="Stroke-2" stroke-linejoin="round"></path>
<path d="M15,0 C23.2788947,0 30,6.72130312 30,15.0001275 C30,23.2786969 23.2788947,30 15,30 C6.72136023,30 0,23.2786969 0,15.0001275 C0,6.72130312 6.72136023,0 15,0 Z" id="Stroke-3" stroke-linejoin="round"></path>
        </g>
        </g>
        </g>
        </g>
        </g>
        </svg>
