<svg width="20px" height="15px" viewBox="0 0 20 15" version="1.1" xmlns="http://www.w3.org/2000/svg" xmlns:xlink="http://www.w3.org/1999/xlink">
<g id="Messagerie" stroke="none" stroke-width="1" fill="none" fill-rule="evenodd">
<g id="version-finale-messagerie---Multi-messages" transform="translate(-268.000000, -218.000000)" fill="#000000" fill-rule="nonzero">
<g id="col-gauche" transform="translate(249.000000, 48.000000)">
<g id="Group-12" transform="translate(18.000000, 64.000000)">
<g id="Group-5" transform="translate(1.986262, 106.023223)">
<path d="M5.69139031,0 C6.08012235,0 6.44730781,0.183227814 6.67089594,0.495818448 L7.91798979,2.22656237 L14.8365128,2.22656237 C15.485179,2.22656237 16.0265362,2.73132628 16.0265362,3.37465216 L16.026,5.953 L17.4264502,5.95375355 C18.5434443,5.95375355 19.3202974,7.02579539 18.9233926,8.02212068 L18.8700767,8.14124282 L15.7321071,14.4436037 C15.6386962,14.6309912 15.4452894,14.759548 15.2218565,14.759548 L1.21874604,14.759548 C0.554225847,14.759548 8.4047709e-16,14.2427903 7.59880019e-16,13.5846652 L-7.63161211e-16,1.1480898 C-8.4194591e-16,0.504763909 0.541357222,0 1.19002339,0 Z M17.5161756,7.10081998 L17.4264502,7.09375353 L4.8262595,7.09375353 C4.63421242,7.09375353 4.46728666,7.19571473 4.39927742,7.3412724 L1.465,13.619 L14.868,13.619 L17.8495745,7.63313329 C17.9599469,7.41145699 17.8027774,7.14706011 17.5161756,7.10081998 Z M5.69139031,1.13999997 L1.19002339,1.13999997 C1.15382342,1.13999997 1.13999997,1.15288901 1.13999997,1.1480898 L1.139,11.624 L3.36646388,6.85867927 C3.60553372,6.34700687 4.11301888,6.00889947 4.68267075,5.9599106 L4.8262595,5.95375355 L14.886,5.953 L14.8865362,3.37465216 C14.8865362,3.37785164 14.8803925,3.37318967 14.8655707,3.36972619 L14.8365128,3.36656234 L7.91798979,3.36656234 C7.54738114,3.36656234 7.19711701,3.19181182 6.98365414,2.89325074 L5.74361567,1.15895585 C5.73717611,1.14995295 5.71723051,1.13999997 5.69139031,1.13999997 Z" id="icon-folder-inbox"></path>
        </g>
        </g>
        </g>
        </g>
        </g>
        </svg>
