<svg width="24" height="24" viewBox="0 0 24 24" fill="none" xmlns="http://www.w3.org/2000/svg">
<path fill-rule="evenodd" clip-rule="evenodd" d="M18.7235 19.0536C18.6323 19.2469 18.4356 19.3806 18.2077 19.3806H4.20459C3.54007 19.3806 2.98584 18.8639 2.98584 18.2058V5.76918C2.98584 5.12586 3.5272 4.62109 4.17586 4.62109H8.67723C9.06596 4.62109 9.43315 4.80432 9.65674 5.11691L10.9038 6.84766H17.8224C18.471 6.84766 19.0124 7.35242 19.0124 7.99575V10.5748H20.4123C21.574 10.5748 22.3677 11.7344 21.8559 12.7623L18.7235 19.0536ZM4.45135 18.2406H17.8548L20.8354 12.2542C20.9568 12.0104 20.7545 11.7148 20.4123 11.7148H7.8121C7.62005 11.7148 7.45313 11.8168 7.38512 11.9624L4.45135 18.2406ZM4.12584 16.2444V5.76918C4.12584 5.771 4.12781 5.77029 4.13221 5.7687C4.13947 5.76609 4.15333 5.76109 4.17586 5.76109H8.67723C8.70307 5.76109 8.72302 5.77105 8.72946 5.78005L9.96949 7.51434C10.183 7.81291 10.5332 7.98766 10.9038 7.98766H17.8224C17.8449 7.98766 17.8587 7.99265 17.866 7.99526C17.8704 7.99685 17.8724 7.99756 17.8724 7.99575V10.5748H7.8121C7.1853 10.5748 6.6113 10.9255 6.3523 11.4798L4.12584 16.2444Z" fill="black"/>
</svg>
