<svg width="32" height="32" viewBox="0 0 32 32" fill="none" xmlns="http://www.w3.org/2000/svg">
<g id="24px/help">
<path id="help" d="M16 4C9.38667 4 4 9.38667 4 16C4 22.6133 9.38667 28 16 28C22.6133 28 28 22.6133 28 16C28 9.38667 22.6133 4 16 4ZM16 26.2667C10.3333 26.2667 5.73333 21.6667 5.73333 16C5.73333 10.3333 10.3333 5.73333 16 5.73333C21.6667 5.73333 26.2667 10.3333 26.2667 16C26.2667 21.6667 21.6667 26.2667 16 26.2667ZM15.84 19.7867C15.5067 19.7867 15.2533 19.88 15.0533 20.0667C14.8667 20.2533 14.76 20.5067 14.76 20.8133C14.76 21.0933 14.8533 21.3333 15.04 21.5333C15.2267 21.7333 15.4933 21.8267 15.8267 21.8267C16.16 21.8267 16.44 21.7333 16.6267 21.5333C16.8133 21.3333 16.9067 21.1067 16.9067 20.8133C16.9067 20.52 16.8133 20.2667 16.6133 20.08C16.4133 19.8933 16.16 19.7867 15.8267 19.7867H15.84ZM16.0267 10.1867C15.0133 10.1867 14.2 10.4533 13.5733 10.9867C12.9467 11.52 12.64 12.2533 12.6267 13.1733H14.52C14.52 12.7467 14.6533 12.4 14.9333 12.1467C15.2133 11.8933 15.5733 11.7733 16.0133 11.7733C16.4533 11.7733 16.84 11.9067 17.08 12.16C17.32 12.4133 17.44 12.7867 17.44 13.28C17.44 13.6533 17.3333 13.9867 17.1333 14.3067C17 14.52 16.68 14.8667 16.1733 15.36C15.6667 15.8533 15.32 16.3067 15.16 16.72C14.9867 17.1333 14.9067 17.68 14.9067 18.3733H16.68C16.68 17.6267 16.8667 17.0533 17.2133 16.6667L18.1733 15.72C18.96 14.8933 19.36 14.0533 19.36 13.2133C19.36 12.2533 19.0667 11.52 18.48 10.9867C17.8933 10.4533 17.08 10.1867 16.0267 10.1867Z" fill="white"/>
</g>
</svg>
