<svg width="16" height="16" viewBox="0 0 16 16" fill="none" xmlns="http://www.w3.org/2000/svg">
<path fill-rule="evenodd" clip-rule="evenodd" d="M1.10569 7.2496C1.71566 3.64133 4.84076 1 8.50035 1C12.6424 1 16 4.35753 16 8.49952C16 12.6415 12.6424 15.999 8.50035 15.999C6.16595 16.0373 3.96005 14.9321 2.59312 13.0392C2.43288 12.8142 2.48562 12.502 2.71061 12.3418C2.9356 12.1815 3.24784 12.2343 3.40808 12.4593C4.58853 14.0872 6.48994 15.0356 8.50035 14.9991C11.6879 14.9996 14.4056 12.6883 14.9168 9.54195C15.4925 5.99868 13.0866 2.65989 9.54355 2.08418C6.00046 1.50847 2.66136 3.91381 2.08564 7.45709L2.39563 7.14461C2.59087 6.94937 2.90785 6.94937 3.10309 7.14461C3.29834 7.33984 3.29834 7.65682 3.10309 7.85206L1.85315 9.10198C1.75991 9.19598 1.63316 9.24897 1.50067 9.24947H1.45067C1.30193 9.23372 1.16793 9.15198 1.08569 9.02699L0.0857334 7.52708C-0.0690094 7.29785 -0.00851221 6.98687 0.220727 6.83213C0.449967 6.67739 0.760952 6.73788 0.915695 6.96712L1.10569 7.2496ZM10.9277 11.402L7.92787 9.15215C7.81988 9.06516 7.75038 8.91567 7.75038 8.74968V4.24997C7.75038 3.97374 7.97412 3.75 8.25036 3.75C8.5266 3.75 8.75034 3.97374 8.75034 4.24997V8.4997L11.5277 10.6021C11.7487 10.7678 11.7934 11.081 11.6277 11.302C11.462 11.523 11.1487 11.5677 10.9277 11.402Z" fill="black"/>
</svg>
