<svg width="24" height="24" viewBox="0 0 24 24" fill="none" xmlns="http://www.w3.org/2000/svg">
<path fill-rule="evenodd" clip-rule="evenodd" d="M6.00001 4.6501C4.70214 4.6501 3.65001 5.70223 3.65001 7.0001V17.0001C3.65001 18.298 4.70214 19.3501 6.00001 19.3501H10C11.2979 19.3501 12.35 18.298 12.35 17.0001V16.0001C12.35 15.6411 12.641 15.3501 13 15.3501C13.359 15.3501 13.65 15.6411 13.65 16.0001V17.0001C13.65 19.0159 12.0158 20.6501 10 20.6501H6.00001C3.98417 20.6501 2.35001 19.0159 2.35001 17.0001V7.0001C2.35001 4.98426 3.98417 3.3501 6.00001 3.3501H10C12.0158 3.3501 13.65 4.98426 13.65 7.0001V8.0001C13.65 8.35908 13.359 8.6501 13 8.6501C12.641 8.6501 12.35 8.35908 12.35 8.0001V7.0001C12.35 5.70223 11.2979 4.6501 10 4.6501H6.00001ZM16.5404 7.54048C16.7942 7.28664 17.2058 7.28664 17.4596 7.54048L21.4596 11.5405C21.7135 11.7943 21.7135 12.2059 21.4596 12.4597L17.4596 16.4597C17.2058 16.7136 16.7942 16.7136 16.5404 16.4597C16.2865 16.2059 16.2865 15.7943 16.5404 15.5405L19.4308 12.6501L7.00001 12.6501C6.64102 12.6501 6.35001 12.3591 6.35001 12.0001C6.35001 11.6411 6.64102 11.3501 7.00001 11.3501L19.4308 11.3501L16.5404 8.45972C16.2865 8.20588 16.2865 7.79432 16.5404 7.54048Z" fill="black"/>
</svg>
