<svg width="19" height="16" viewBox="0 0 19 16" fill="none" xmlns="http://www.w3.org/2000/svg">
<path d="M18.48 9.41156V9.30168C18.48 8.45263 18.1603 6.59472 15.5233 5.87552C15.8729 5.32614 16.0627 4.68685 16.0627 4.03758C16.0627 2.46934 15.0039 0.871132 12.9561 0.831177C11.7475 0.851154 10.7686 1.47046 10.2592 2.47933C10.0194 2.42938 9.75971 2.38943 9.48002 2.38943C9.21033 2.38943 8.97059 2.42938 8.73086 2.47933C8.22143 1.47046 7.23253 0.861143 6.0039 0.831177C3.97617 0.871132 2.91735 2.46934 2.91735 4.03758C2.91735 4.67687 3.10714 5.32614 3.45675 5.87552C0.809708 6.59472 0.500055 8.46262 0.500055 9.30168V9.41156C0.500055 9.95095 0.480078 11.0797 1.19927 11.6291C1.64877 11.9687 2.27807 12.2084 3.10714 12.3583V12.3982C3.10714 13.0175 3.07718 14.3061 3.88627 14.9254C5.1149 15.8743 7.31244 16.0042 9.5 16.0042C11.6876 16.0042 13.8751 15.8743 15.1137 14.9254C15.9128 14.3061 15.9028 13.0175 15.8929 12.3982V12.3583C16.7119 12.2084 17.3512 11.9687 17.8007 11.6291C18.5199 11.0797 18.4999 9.95095 18.4999 9.41156H18.48ZM12.9561 2.12972C14.3845 2.15969 14.7641 3.33837 14.7641 4.03758C14.7641 4.7368 14.3845 5.8955 13.0161 5.94544C12.9861 4.79673 12.4567 3.65801 11.4478 2.97877C11.6776 2.55924 12.1171 2.13971 12.9561 2.11973V2.12972ZM11.7275 6.05532C11.7275 6.91436 11.258 8.3927 9.49001 8.43265C7.72199 8.3927 7.25251 6.92435 7.25251 6.05532C7.25251 5.18629 7.72199 3.71794 9.47003 3.67798C11.248 3.70795 11.7175 5.18629 11.7175 6.05532H11.7275ZM6.0039 2.12972C6.85296 2.1497 7.30246 2.56923 7.5322 2.97877C6.53332 3.64802 6.00391 4.78674 5.96395 5.94544C4.58549 5.88551 4.2159 4.72681 4.2159 4.03758C4.2159 3.34835 4.59548 2.1497 6.0039 2.12972ZM3.29693 11.0797C2.58772 10.9398 2.18817 10.7501 1.99838 10.6002C1.91847 10.5403 1.7986 10.3105 1.80859 9.43153V9.31167C1.80859 7.69348 3.34687 7.1441 4.70536 6.9643C5.08493 7.1441 5.53443 7.24399 6.03387 7.25398C6.07383 7.25398 6.11378 7.24399 6.15374 7.234C6.2736 7.61357 6.4534 7.97317 6.68315 8.3028C4.49559 8.85218 3.62656 10.0608 3.29693 11.0797ZM14.3146 13.8965C13.2658 14.7056 10.6187 14.7056 9.49001 14.7056C8.36127 14.7056 5.72422 14.7056 4.6654 13.8965C4.47561 13.7467 4.38572 13.2572 4.3957 12.4182V12.2783C4.3957 10.6701 5.62433 9.68125 7.94174 9.39158C8.38125 9.60134 8.89068 9.72121 9.47003 9.74119C9.47003 9.74119 9.47003 9.74119 9.48002 9.74119C9.49001 9.74119 9.48002 9.74119 9.49001 9.74119C10.0694 9.7312 10.5788 9.60134 11.0183 9.39158C13.3357 9.68125 14.5643 10.6801 14.5643 12.2783V12.4182C14.5743 13.2473 14.4844 13.7467 14.2946 13.8965H14.3146ZM16.9916 10.6002C16.7919 10.7501 16.4023 10.9398 15.6931 11.0797C15.3634 10.0608 14.4944 8.86217 12.3069 8.3028C12.5366 7.97317 12.7164 7.61357 12.8363 7.234C12.8862 7.234 12.9262 7.25398 12.9861 7.25398C13.4855 7.25398 13.9251 7.13411 14.3046 6.9643C15.6631 7.1441 17.1914 7.69348 17.1914 9.31167V9.43153C17.2014 10.3105 17.0815 10.5403 17.0016 10.6002H16.9916Z" fill="black"/>
</svg>
