<svg width="15" height="10" viewBox="0 0 15 10" fill="none" xmlns="http://www.w3.org/2000/svg">
<g id="Group 20">
<path id="Line 7" d="M4.95477 0.926758H14" stroke="black" stroke-width="1.3" stroke-linecap="round"/>
<path id="Line 7_2" d="M4.95477 4.99951H14" stroke="black" stroke-width="1.3" stroke-linecap="round"/>
<path id="Line 8" d="M4.95477 9.07227H14" stroke="black" stroke-width="1.3" stroke-linecap="round"/>
<path id="Line 9 (Stroke)" fill-rule="evenodd" clip-rule="evenodd" d="M0 0.927312C0 0.439981 0.395046 0.0449219 0.882359 0.0449219C1.36967 0.0449219 1.76472 0.439981 1.76472 0.927312C1.76472 1.41464 1.36967 1.8097 0.882359 1.8097C0.395046 1.8097 0 1.41464 0 0.927312Z" fill="black"/>
<path id="Line 10 (Stroke)" fill-rule="evenodd" clip-rule="evenodd" d="M0 5.00007C0 4.51274 0.395046 4.11768 0.882359 4.11768C1.36967 4.11768 1.76472 4.51274 1.76472 5.00007C1.76472 5.4874 1.36967 5.88246 0.882359 5.88246C0.395046 5.88246 0 5.4874 0 5.00007Z" fill="black"/>
<path id="Line 11 (Stroke)" fill-rule="evenodd" clip-rule="evenodd" d="M0 9.07233C0 8.585 0.395046 8.18994 0.882359 8.18994C1.36967 8.18994 1.76472 8.585 1.76472 9.07233C1.76472 9.55966 1.36967 9.95472 0.882359 9.95472C0.395046 9.95472 0 9.55966 0 9.07233Z" fill="black"/>
</g>
</svg>
