<svg width="9px" height="13px" viewBox="0 0 9 13" version="1.1" xmlns="http://www.w3.org/2000/svg" xmlns:xlink="http://www.w3.org/1999/xlink">
<g id="TdB" stroke="none" stroke-width="1" fill="none" fill-rule="evenodd">
<g id="modale-consultation" transform="translate(-166.000000, -115.000000)" fill="#000000" fill-rule="nonzero">
<g id="Group-19" transform="translate(163.877958, 85.000000)">
<g id="pin-lieu" transform="translate(2.122042, 29.000000)">
<g id="lieu" transform="translate(0.000000, 1.000000)">
<path d="M4.5,0 C2.01587279,0.0028350776 0.00278418155,2.05272382 0,4.58226195 C0,6.17785737 0.730906939,8.06946382 2.17251267,10.2048032 C2.82125444,11.1673785 3.542209,12.0773643 4.32891343,12.9266031 C4.37390494,12.9735368 4.43559019,13 4.5,13 C4.56440981,13 4.62609506,12.9735368 4.67108657,12.9266031 C5.45767679,12.0772996 6.17858126,11.1673194 6.82735079,10.2048032 C8.26895652,8.06946382 9,6.17785737 9,4.58226195 C8.99721582,2.05272382 6.98412721,0.0028350776 4.5,0 L4.5,0 Z M4.5,12.4007629 C3.7127014,11.5269117 0.47789544,7.7453672 0.47789544,4.58226195 C0.47789544,2.32030775 2.27865299,0.486631576 4.5,0.486631576 C6.72134701,0.486631576 8.52210456,2.32030775 8.52210456,4.58226195 C8.52210456,7.7453672 5.28770823,11.5269117 4.5,12.4007629 L4.5,12.4007629 Z" id="Shape"></path>
<path d="M4.5,2.26881534 C3.58103411,2.26853425 2.75240199,2.83200907 2.40053761,3.69646249 C2.04867323,4.56091591 2.24288007,5.5560845 2.89258945,6.21786972 C3.54229884,6.87965494 4.51954349,7.07771106 5.36858373,6.71967426 C6.21762397,6.36163747 6.77123221,5.51802698 6.77123221,4.58226195 C6.76980334,3.30545522 5.75388468,2.27065417 4.5,2.26881534 L4.5,2.26881534 Z M4.5,6.40907702 C3.77432479,6.40935809 3.11995069,5.96444725 2.84205544,5.2818356 C2.56416019,4.59922395 2.71748032,3.81336428 3.23051256,3.29075471 C3.74354479,2.76814515 4.51523809,2.61172316 5.18570105,2.89443862 C5.856164,3.17715408 6.29333677,3.84332103 6.29333677,4.58226195 C6.29220889,5.59043655 5.49007508,6.40754466 4.5,6.40907702 L4.5,6.40907702 Z" id="Shape"></path>
        </g>
        </g>
        </g>
        </g>
        </g>
        </svg>
