<svg width="16" height="16" viewBox="0 0 16 16" fill="none" xmlns="http://www.w3.org/2000/svg">
<g id="16px/lock16">
<g id="16px/lock16_2">
<path d="M8 9.82999C7.65344 9.82999 7.37249 10.1109 7.37249 10.4575V12.0958C7.37249 12.4424 7.65344 12.7233 8 12.7233C8.34657 12.7233 8.62752 12.4424 8.62752 12.0958V10.4575C8.62752 10.1109 8.34657 9.82999 8 9.82999Z" fill="black"/>
<path fill-rule="evenodd" clip-rule="evenodd" d="M8 0C5.84377 0 4.0958 1.74796 4.0958 3.90417V6.55333H3.08497C1.83357 6.55333 0.819107 7.56778 0.819107 8.81917V13.7342C0.819107 14.9856 1.83357 16 3.08497 16H12.915C14.1664 16 15.1809 14.9856 15.1809 13.7342V8.81917C15.1809 7.56778 14.1664 6.55333 12.915 6.55333H5.35083V3.90417C5.35083 2.44109 6.5369 1.25502 8 1.25502C9.4631 1.25502 10.6492 2.44109 10.6492 3.90417C10.6492 4.25074 10.6492 5.55333 10.6492 6.55333C10.8715 6.55333 11.5 6.55333 11.9042 6.55333C11.9042 6 11.9042 4.02845 11.9042 3.90417C11.9042 1.74796 10.1562 0 8 0ZM2.07414 8.81917C2.07414 8.26091 2.5267 7.80835 3.08497 7.80835H12.915C13.4733 7.80835 13.9259 8.26091 13.9259 8.81917V13.7342C13.9259 14.2924 13.4733 14.745 12.915 14.745H3.08497C2.5267 14.745 2.07414 14.2924 2.07414 13.7342V8.81917Z" fill="black"/>
</g>
</g>
</svg>
