<svg width="24" height="24" viewBox="0 0 24 24" fill="none" xmlns="http://www.w3.org/2000/svg">
<g id="24px/lock-open">
<path id="24px/lock-open_2" fill-rule="evenodd" clip-rule="evenodd" d="M6.23967 5.76026C6.23967 2.57896 8.81865 0 12 0C15.1813 0 17.7603 2.57896 17.7603 5.76026C17.7603 6.18468 17.4162 6.52874 16.9918 6.52874C16.5674 6.52874 16.2233 6.18468 16.2233 5.76026C16.2233 3.42779 14.3325 1.53695 12 1.53695C9.66749 1.53695 7.77663 3.42779 7.77663 5.76026V9.98358H19.4877C21.2906 9.98358 22.7521 11.4451 22.7521 13.2479V20.7356C22.7521 22.5385 21.2906 24 19.4877 24H4.51223C2.70935 24 1.24783 22.5385 1.24783 20.7356V13.2479C1.24783 11.4451 2.70935 9.98358 4.51223 9.98358H6.23967V5.76026ZM4.51223 11.5205C3.55819 11.5205 2.78479 12.2939 2.78479 13.2479V20.7356C2.78479 21.6897 3.55819 22.4631 4.51223 22.4631H19.4877C20.4418 22.4631 21.2152 21.6897 21.2152 20.7356V13.2479C21.2152 12.2939 20.4418 11.5205 19.4877 11.5205H4.51223ZM12 14.9754C12.4244 14.9754 12.7685 15.3194 12.7685 15.7438V18.2397C12.7685 18.6642 12.4244 19.0082 12 19.0082C11.5756 19.0082 11.2315 18.6642 11.2315 18.2397V15.7438C11.2315 15.3194 11.5756 14.9754 12 14.9754Z" fill="black"/>
</g>
</svg>
