<svg width="15px" height="18px" viewBox="0 0 15 18" version="1.1" xmlns="http://www.w3.org/2000/svg" xmlns:xlink="http://www.w3.org/1999/xlink">
<g id="Messagerie" stroke="none" stroke-width="1" fill="none" fill-rule="evenodd">
<g id="version-finale-messagerie---Multi-messages" transform="translate(-272.000000, -112.000000)" fill="#000000">
<g id="col-gauche" transform="translate(249.000000, 48.000000)">
<g id="Group-12" transform="translate(18.000000, 64.000000)">
<g id="Group-2" transform="translate(5.000000, 0.000000)">
<path d="M8.3758125,0 C9.0946875,0 9.78290625,0.277353 10.284,0.768951 L14.2468125,4.656933 C14.7298125,5.130765 15,5.76558 15,6.426441 L15,15.46155 C15,16.86348 13.8085312,18 12.3387187,18 L2.66129063,18 C1.19149688,18 0,16.86348 0,15.46155 L0,2.538459 C0,1.136511 1.19149687,0 2.66129062,0 L8.3758125,0 Z M8.3758125,1.26302145 L2.52460878,1.26302145 C1.85651816,1.26302145 1.31493378,1.77962145 1.31493378,2.41686645 L1.31493378,15.6007884 C1.31493378,16.2379884 1.85651816,16.7545884 2.52460878,16.7545884 L12.4604542,16.7545884 C13.1285167,16.7545884 13.6701105,16.2379884 13.6701105,15.6007884 L13.6701105,6.426441 C13.6701105,6.126048 13.547298,5.837499 13.3277355,5.62212 L9.2431875,1.61254545 C9.015375,1.38909345 8.70253125,1.26302145 8.3758125,1.26302145 Z M10.40325,11.07693 C10.8040312,11.07693 11.1290625,11.38689 11.1290625,11.76921 C11.1290625,12.15162 10.8040312,12.46158 10.40325,12.46158 L4.59677813,12.46158 C4.19592187,12.46158 3.87096563,12.15162 3.87096563,11.76921 C3.87096563,11.38689 4.19592187,11.07693 4.59677813,11.07693 Z M7.5,7.38459 C7.900875,7.38459 8.2258125,7.69455 8.2258125,8.07696 C8.2258125,8.45928 7.900875,8.76924 7.5,8.76924 L4.59677813,8.76924 C4.19592187,8.76924 3.87096563,8.45928 3.87096563,8.07696 C3.87096563,7.69455 4.19592187,7.38459 4.59677813,7.38459 Z" id="icon-draft"></path>
        </g>
        </g>
        </g>
        </g>
        </g>
        </svg>
