<svg width="19px" height="19px" viewBox="0 0 19 19" version="1.1" xmlns="http://www.w3.org/2000/svg" xmlns:xlink="http://www.w3.org/1999/xlink">
<g id="Messagerie" stroke="none" stroke-width="1" fill="none" fill-rule="evenodd">
<g id="version-finale-messagerie---Multi-messages" transform="translate(-958.000000, -72.000000)" fill="#000000" fill-rule="nonzero">
<g id="Colonne-droite" transform="translate(478.000000, 48.000000)">
<g id="Group-9" transform="translate(469.000000, 18.000000)">
<g id="icon/edit" transform="translate(11.926627, 6.537966)">
<path d="M12.3020292,0.607955419 C13.091173,-0.181188343 14.3465806,-0.205235599 15.1060606,0.554244369 L17.5328137,2.98099754 C18.2922937,3.74047751 18.2682464,4.99588508 17.4791027,5.78502885 L6.97269695,16.2914346 L6.83125455,16.1499922 L6.80075875,16.1189816 C6.69180398,16.1914451 6.55925755,16.250857 6.40164793,16.2938638 L1.72120023,17.7391937 C0.686858943,18.0214336 -0.230320986,17.1045139 0.0516392178,16.0701064 L1.33712365,11.5213477 C1.47769348,11.0056491 1.83177557,10.7265567 2.2449656,10.6634446 Z M2.5535072,12.1625838 L1.40128906,16.3896454 L5.62739455,15.2364711 L2.5535072,12.1625838 Z M11.481,3.369 L3.63,11.221 L6.6360095,14.2278562 C6.71518301,14.3070297 6.78679635,14.3892235 6.85033332,14.4732614 L14.779,6.543 L11.481,3.369 Z M14.0974456,1.56285932 C13.8740691,1.33948286 13.5048316,1.34655558 13.2727305,1.57865669 L12.471,2.38 L15.768,5.554 L16.5084014,4.81432758 C16.7147135,4.60801548 16.7432254,4.29334869 16.5901299,4.06908537 L16.5241988,3.98961249 Z" id="Combined-Shape"></path>
        </g>
        </g>
        </g>
        </g>
        </g>
        </svg>
