<svg width="24" height="24" viewBox="0 0 24 24" fill="none" xmlns="http://www.w3.org/2000/svg">
<path fill-rule="evenodd" clip-rule="evenodd" d="M11.9887 2.12435L11.9921 1.7002H12.0079L12.01 1.89395L12.0132 1.70037C13.8936 1.73084 15.2029 2.55814 15.9988 3.68511C16.7503 4.74924 16.9894 5.99468 16.9894 6.90016C16.9894 7.80704 16.7497 9.0435 16.0035 10.1023C15.7282 10.4929 15.3913 10.8479 14.9902 11.1468C16.8087 11.4113 18.3552 11.9566 19.4996 12.8611C20.8224 13.9066 21.5084 15.3569 21.5084 17.0685V17.2978C21.5164 17.9944 21.4894 18.621 21.4004 19.134C21.3556 19.3923 21.288 19.6651 21.1774 19.9212C21.0697 20.1707 20.8857 20.4868 20.5614 20.7298L19.7818 19.6896L20.5736 20.7206C19.9582 21.1932 19.1914 21.495 18.449 21.7002C17.6918 21.9095 16.8693 22.0422 16.0772 22.1286C14.5038 22.3001 12.9299 22.3 12.0232 22.3H11.9926C11.0859 22.3 9.512 22.3001 7.93861 22.1286C7.14647 22.0422 6.32402 21.9095 5.56676 21.7002C4.8253 21.4953 4.05954 21.1939 3.44454 20.7224C3.13133 20.4841 2.94945 20.1776 2.84086 19.9326C2.72807 19.6782 2.6573 19.4062 2.60966 19.1463C2.51502 18.63 2.48359 18.0004 2.49158 17.2978V17.0685C2.49158 15.3537 3.18399 13.9042 4.50727 12.8603C5.6591 11.9518 7.21578 11.4054 9.04204 11.1424C8.64704 10.8456 8.31482 10.4936 8.04301 10.107C7.29728 9.04622 7.05795 7.80621 7.05795 6.90016C7.05795 5.99424 7.2972 4.75518 8.03978 3.69511C8.82553 2.57341 10.1193 1.74136 11.9793 1.70051L11.9887 2.12435ZM11.9921 3.00057C11.9921 3.00057 11.9921 3.00057 11.9921 3.00057C11.9886 3.00065 11.9851 3.00075 11.9816 3.00084C9.12745 3.07813 8.35795 5.48347 8.35795 6.90016C8.35795 8.3212 9.13218 10.737 12.0237 10.8001C14.9152 10.7212 15.6894 8.3212 15.6894 6.90016C15.6894 5.48401 14.9205 3.06427 12.0222 3.00077C12.0174 3.00066 12.0127 3.00057 12.0079 3.00048C12.0079 3.00048 12.0079 3.00048 12.0079 3.00048L11.9921 3.00057ZM11.9921 12.837C11.1389 12.8212 10.412 12.6317 9.7484 12.3633C5.86146 12.7896 3.79158 14.4159 3.79158 17.0685V17.3053C3.77578 18.6474 3.91798 19.4527 4.23399 19.6895C5.94046 21 10.1908 21 12.0079 21C13.825 21 18.0753 21.0001 19.7818 19.6896C20.0978 19.4527 20.2242 18.6474 20.2084 17.3053V17.0685C20.2084 14.4159 18.1543 12.7896 14.2516 12.3633C13.6038 12.6475 12.8611 12.8212 12.0237 12.837H11.9921Z" fill="black"/>
</svg>
