<svg width="24px" height="24px" viewBox="0 0 24 24" version="1.1" xmlns="http://www.w3.org/2000/svg" xmlns:xlink="http://www.w3.org/1999/xlink">
<g id="Messagerie" stroke="none" stroke-width="1" fill="none" fill-rule="evenodd">
<g id="Modale-envoyer-un-message3" transform="translate(-954.000000, -327.000000)" fill-rule="nonzero">
<g id="modale" transform="translate(318.000000, 250.000000)">
<g id="add-copy" transform="translate(636.000000, 77.000000)">
<path d="M9.02,21 L2.5,21 C1.122,21 0,19.879 0,18.5 L0,2.5 C0,1.121 1.122,0 2.5,0 L14.5,0 C15.878,0 17,1.121 17,2.5 L17,8.56 C17,8.836 16.776,9.06 16.5,9.06 C16.224,9.06 16,8.836 16,8.56 L16,2.5 C16,1.673 15.327,1 14.5,1 L2.5,1 C1.673,1 1,1.673 1,2.5 L1,18.5 C1,19.327 1.673,20 2.5,20 L9.02,20 C9.296,20 9.52,20.224 9.52,20.5 C9.52,20.776 9.296,21 9.02,21 Z" id="Path" fill="#000000"></path>
<path d="M13.5,9 L5.75,9 C5.474,9 5.25,8.776 5.25,8.5 C5.25,8.224 5.474,8 5.75,8 L13.5,8 C13.776,8 14,8.224 14,8.5 C14,8.776 13.776,9 13.5,9 Z M3.75,5.25 C4.16421356,5.25 4.5,4.91421356 4.5,4.5 C4.5,4.08578644 4.16421356,3.75 3.75,3.75 C3.33578644,3.75 3,4.08578644 3,4.5 C3,4.91421356 3.33578644,5.25 3.75,5.25 Z M3.75,9.225 C4.16421356,9.225 4.5,8.88921356 4.5,8.475 C4.5,8.06078644 4.16421356,7.725 3.75,7.725 C3.33578644,7.725 3,8.06078644 3,8.475 C3,8.88921356 3.33578644,9.225 3.75,9.225 Z M3.75,13.2 C4.16421356,13.2 4.5,12.8642136 4.5,12.45 C4.5,12.0357864 4.16421356,11.7 3.75,11.7 C3.33578644,11.7 3,12.0357864 3,12.45 C3,12.8642136 3.33578644,13.2 3.75,13.2 Z M9.5,13 L5.75,13 C5.474,13 5.25,12.776 5.25,12.5 C5.25,12.224 5.474,12 5.75,12 L9.5,12 C9.776,12 10,12.224 10,12.5 C10,12.776 9.776,13 9.5,13 Z M13,5 L5.75,5 C5.474,5 5.25,4.776 5.25,4.5 C5.25,4.224 5.474,4 5.75,4 L13,4 C13.276,4 13.5,4.224 13.5,4.5 C13.5,4.776 13.276,5 13,5 Z" id="Combined-Shape" fill="#000000"></path>
<path d="M17.5,11 C21.084,11 24,13.916 24,17.5 C24,21.084 21.084,24 17.5,24 C13.916,24 11,21.084 11,17.5 C11,13.916 13.916,11 17.5,11 Z M17.5,12 C14.467,12 12,14.468 12,17.5 C12,20.532 14.467,23 17.5,23 C20.533,23 23,20.532 23,17.5 C23,14.468 20.533,12 17.5,12 Z M20.5,17 C20.776,17 21,17.224 21,17.5 C21,17.776 20.776,18 20.5,18 L14.5,18 C14.224,18 14,17.776 14,17.5 C14,17.224 14.224,17 14.5,17 L20.5,17 Z" id="Combined-Shape" fill="#DA5656"></path>
        </g>
        </g>
        </g>
        </g>
        </svg>
