<svg width="26px" height="25px" viewBox="0 0 26 25" version="1.1" xmlns="http://www.w3.org/2000/svg" xmlns:xlink="http://www.w3.org/1999/xlink">
<g id="Messagerie" stroke="none" stroke-width="1" fill="none" fill-rule="evenodd">
<g id="Modale-envoyer-un-message3" transform="translate(-343.000000, -424.000000)" fill="#000000" fill-rule="nonzero">
<g id="modale" transform="translate(318.000000, 250.000000)">
<g id="Group-17" transform="translate(24.000000, 174.000000)">
<g id="ligne-01" transform="translate(1.000000, 0.000000)">
<path d="M15.5080396,-4.4408921e-16 C15.7183769,-4.4408921e-16 15.8888889,0.176113307 15.8888889,0.393360082 L15.8888889,2.49552881 C15.8888889,2.71277558 15.7183769,2.88888889 15.5080396,2.88888889 L13,2.888 L13.0003334,5.05555569 C13.0976955,5.05563633 13.1950327,5.09302911 13.2693175,5.16773398 L16.007,7.92055556 L23.9905252,7.92106763 C24.1159479,7.92106763 24.2315671,7.98296904 24.3019967,8.08364531 L24.3385487,8.14851905 L25.9667472,11.8327343 C26.0786787,12.0860079 25.8943262,12.371285 25.6187237,12.371285 L25.423,12.3705556 L25.423,23.0665556 L25.6187491,23.0673158 C25.8057146,23.0673158 25.9612134,23.244191 25.9934605,23.4774402 L25.9995964,23.5673158 C25.9995964,23.8434582 25.8290853,24.0673158 25.6187491,24.0673158 L0.381266129,24.0673158 C0.170929957,24.0673158 0.000418799971,23.8434582 0.000418799971,23.5673158 C0.000418799971,23.2911734 0.170929957,23.0673158 0.381266129,23.0673158 L0.814,23.0665556 L0.814,12.3705556 L0.381276285,12.371285 C0.105673764,12.371285 -0.0786786876,12.0860079 0.0332528017,11.8327343 L1.6614513,8.14851905 L1.66630073,8.13797722 C1.72958103,8.00569308 1.86282667,7.92106763 2.00947478,7.92106763 L9.99283481,7.92108029 L12.3187097,5.58039183 C12.2925642,5.52952977 12.2777778,5.47166533 12.2777778,5.41028631 L12.2777778,1.08971369 C12.2777778,0.936374473 12.3700622,0.804970285 12.5011934,0.749883056 C12.3693151,0.689628154 12.2777778,0.552535122 12.2777778,0.393360082 C12.2777778,0.176113307 12.4482898,0 12.658627,0 Z M13,5.98022219 L6.75637012,12.2591077 C6.68494747,12.3309337 6.58807791,12.371285 6.48707144,12.371285 L1.814,12.3705556 L1.814,23.0665556 L9.362,23.0665556 L9.36271759,21.8129106 C9.36271759,21.6278257 9.49326519,21.4734042 9.6668109,21.4376908 L9.74356492,21.4299095 L10.176,21.4295556 L10.1768473,18.1286699 C10.1768473,17.9171442 10.3473585,17.7456688 10.5576946,17.7456688 L15.4423409,17.7456688 C15.6526771,17.7456688 15.8231882,17.9171442 15.8231882,18.1286699 L15.823,21.4295556 L16.2564605,21.4299095 C16.4667966,21.4299095 16.6373078,21.601385 16.6373078,21.8129106 L16.637,23.0665556 L24.423,23.0665556 L24.423,12.3705556 L23.9905252,12.371285 C23.780189,12.371285 23.6096779,12.1998096 23.6096779,11.9882839 L23.6098242,11.9775636 C23.6154694,11.7709948 23.7837541,11.6052828 23.9905252,11.6052828 L25.0326761,11.6053211 L23.7429746,8.68708251 L16.768,8.68655556 L19.6706989,11.6053211 L22.3623115,11.6052828 C22.5726477,11.6052828 22.7431588,11.7767583 22.7431588,11.9882839 C22.7431588,12.1998096 22.5726477,12.371285 22.3623115,12.371285 L19.5003105,12.3710755 C19.403878,12.3678677 19.3120604,12.3279405 19.2436136,12.2591066 L13,5.98022219 Z M15.8755879,22.19595 L10.1243742,22.19595 L10.124,23.0665556 L15.875,23.0665556 L15.8755879,22.19595 Z M12.619,18.5115556 L10.9385039,18.5116837 L10.938,21.4295556 L12.619,21.4295556 L12.619,18.5115556 Z M15.061481,18.5116837 L13.619,18.5115556 L13.619,21.4295556 L15.061,21.4295556 L15.061481,18.5116837 Z M8.52240081,17.7456535 C8.73273698,17.7456535 8.90324814,17.9171289 8.90324814,18.1286546 L8.90324814,20.5848151 C8.90324814,20.7963407 8.73273698,20.9678162 8.52240081,20.9678162 L5.26600381,20.9678162 C5.05566764,20.9678162 4.88515648,20.7963407 4.88515648,20.5848151 L4.88530279,20.5740947 C4.89094796,20.3675259 5.05923266,20.201814 5.26600381,20.201814 L5.292,20.2015556 L5.292,18.5115556 L3.20441375,18.5116684 L3.20441375,20.2018523 L3.63785609,20.201814 C3.84819226,20.201814 4.01870342,20.3732894 4.01870342,20.5848151 C4.01870342,20.7963407 3.84819226,20.9678162 3.63785609,20.9678162 L2.8236045,20.9678162 C2.61326833,20.9678162 2.44275717,20.7963407 2.44275717,20.5848151 L2.44275717,18.1286546 C2.44275717,17.9171289 2.61326833,17.7456535 2.8236045,17.7456535 L8.52240081,17.7456535 Z M23.1764006,17.7456739 C23.3867367,17.7456739 23.5572479,17.9171493 23.5572479,18.128675 L23.5572479,20.5848355 C23.5572479,20.7963611 23.3867367,20.9678366 23.1764006,20.9678366 L17.4776043,20.9678366 C17.2672681,20.9678366 17.0967569,20.7963611 17.0967569,20.5848355 L17.0967569,18.128675 C17.0967569,17.9171493 17.2672681,17.7456739 17.4776043,17.7456739 L23.1764006,17.7456739 Z M8.14152822,18.5116684 L6.292,18.5115556 L6.292,20.2015556 L8.14152822,20.2018523 L8.14152822,18.5116684 Z M19.946,18.5115556 L17.8584135,18.5116888 L17.8584135,20.2018727 L19.946,20.2015556 L19.946,18.5115556 Z M22.795528,18.5116888 L20.946,18.5115556 L20.946,20.2015556 L22.795528,20.2018727 L22.795528,18.5116888 Z M8.52241096,13.652056 C8.73274714,13.652056 8.90325829,13.8235315 8.90325829,14.0350571 L8.90325829,16.4912176 C8.90325829,16.7027433 8.73274714,16.8742187 8.52241096,16.8742187 L2.82361466,16.8742187 C2.61327849,16.8742187 2.44276733,16.7027433 2.44276733,16.4912176 L2.44276733,14.0350571 C2.44276733,13.8235315 2.61327849,13.652056 2.82361466,13.652056 L8.52241096,13.652056 Z M23.1764006,13.652056 C23.3867367,13.652056 23.5572479,13.8235315 23.5572479,14.0350571 L23.5572479,16.4912176 C23.5572479,16.7027433 23.3867367,16.8742187 23.1764006,16.8742187 L17.4776043,16.8742187 C17.2672681,16.8742187 17.0967569,16.7027433 17.0967569,16.4912176 L17.0967569,14.0350571 C17.0967569,13.8235315 17.2672681,13.652056 17.4776043,13.652056 L23.1764006,13.652056 Z M5.292,14.4175556 L3.20442391,14.4180709 L3.20442391,16.1082548 L5.292,16.1075556 L5.292,14.4175556 Z M6.292,14.4175556 L6.292,16.1075556 L8.14153838,16.1082548 L8.14153838,14.4180709 L6.292,14.4175556 Z M19.946,14.4175556 L17.8584135,14.4180709 L17.8584135,16.1082548 L19.946,16.1075556 L19.946,14.4175556 Z M20.946,14.4175556 L20.946,16.1075556 L22.795528,16.1082548 L22.795528,14.4180709 L20.946,14.4175556 Z M12.9999924,9.96786124 C14.5591882,9.96786124 15.8231882,11.2390094 15.8231882,12.8070228 C15.8231882,14.3750363 14.5591882,15.6461844 12.9999924,15.6461844 C11.4408038,15.6461844 10.1768473,14.3750435 10.1768473,12.8070228 C10.1768473,11.2390021 11.4408038,9.96786124 12.9999924,9.96786124 Z M12.9999924,10.7338634 C11.861481,10.7338634 10.938542,11.6620485 10.938542,12.8070228 C10.938542,13.9519971 11.861481,14.8801822 12.9999924,14.8801822 C14.1385159,14.8801822 15.0614936,13.9519849 15.0614936,12.8070228 C15.0614936,11.6620607 14.1385159,10.7338634 12.9999924,10.7338634 Z M14.1547471,12.2263982 L14.1594609,12.2362196 C14.2461495,12.4234853 14.1693137,12.6472819 13.984427,12.7402481 L13.3808169,13.043766 L13.3808549,13.6257362 C13.3808549,13.8372619 13.2103438,14.0087373 13.0000076,14.0087373 C12.7896714,14.0087373 12.6191603,13.8372619 12.6191603,13.6257362 L12.6191603,12.807033 C12.6191603,12.6619629 12.7006625,12.5293438 12.8296875,12.4644665 L13.6437868,12.0551149 C13.8319172,11.9605177 14.0606819,12.0372039 14.1547471,12.2263982 Z M9.23114014,8.68708251 L2.25698751,8.68708251 L0.967286084,11.6053211 L6.32927384,11.6053211 L9.23114014,8.68708251 Z M13,1.08971369 L13,2.102 L15.1271777,2.10220805 L15.1271777,0.786733233 L12.8429187,0.786459094 C12.9377779,0.852682561 13,0.963803358 13,1.08971369 Z" id="Combined-Shape"></path>
        </g>
        </g>
        </g>
        </g>
        </g>
        </svg>
