<svg width="18" height="18" viewBox="0 0 18 18" fill="none" xmlns="http://www.w3.org/2000/svg">
<path id="Search" fill-rule="evenodd" clip-rule="evenodd" d="M12.9653 12.0224L17.8046 16.8618C18.0651 17.1222 18.0651 17.5442 17.8046 17.8047C17.6745 17.9348 17.5038 18 17.3333 18C17.1628 18 16.9921 17.9348 16.862 17.8047L12.0225 12.9652C10.7503 14.0262 9.11565 14.6665 7.33332 14.6665C3.28966 14.6665 0 11.3769 0 7.33327C0 3.28964 3.28966 0 7.33332 0C11.377 0 14.6666 3.28964 14.6666 7.33327C14.6666 9.11558 14.0263 10.7502 12.9653 12.0224ZM7.33332 1.33332C4.02466 1.33332 1.33333 4.02496 1.33333 7.33327C1.33333 10.6416 4.02466 13.3332 7.33332 13.3332C10.642 13.3332 13.3333 10.6416 13.3333 7.33327C13.3333 4.02496 10.642 1.33332 7.33332 1.33332Z" fill="black"/>
</svg>
