<svg width="18px" height="18px" viewBox="0 0 18 18" version="1.1" xmlns="http://www.w3.org/2000/svg" xmlns:xlink="http://www.w3.org/1999/xlink">
<g id="Messagerie" stroke="none" stroke-width="1" fill="none" fill-rule="evenodd">
<g id="version-finale-messagerie---Multi-messages" transform="translate(-269.000000, -146.000000)" fill="#000000" fill-rule="nonzero">
<g id="col-gauche" transform="translate(249.000000, 48.000000)">
<g id="Group-12" transform="translate(18.000000, 64.000000)">
<g id="Group-3" transform="translate(1.987408, 34.000000)">
<path d="M16.2794501,0.103185309 C17.4915508,-0.301028028 18.3242067,0.531480396 17.9201595,1.74367604 L12.8212709,17.0403769 C12.4042561,18.2912545 11.2585636,18.3622097 10.6903042,17.1723661 L8.861,13.342 L4.62739849,15.0566864 C3.42767177,15.4576333 2.61074292,14.6978322 2.91623218,13.5561645 L2.95483201,13.4277806 L4.681,9.161 L0.85083123,7.33279028 C-0.293255897,6.78657231 -0.271600088,5.70623102 0.843807791,5.25326915 L0.982902139,5.20199949 Z M16.651,2.134 L8.45218982,10.3342332 C8.70271409,10.6332276 8.91334009,10.9454612 9.05485024,11.241719 L11.6648671,16.706934 C11.8144057,17.0200438 11.6869836,17.0279353 11.7966997,16.6988308 L16.651,2.134 Z M5.657,9.628 L3.96763385,13.8012437 C3.85676838,14.1372149 3.88604899,14.166497 4.25396211,14.0438757 L8.394,12.365 L8.0803,11.7071777 C7.79816479,11.1165149 7.07884685,10.373506 6.46651227,10.0222909 L6.31597235,9.94296443 L5.657,9.628 Z M15.888,1.372 L1.32441444,6.22658198 C0.995313195,6.33627752 1.0032163,6.20877027 1.31621189,6.35820278 L6.78142644,8.968412 C7.07769511,9.10991346 7.38994289,9.32052668 7.68895221,9.57103665 L15.888,1.372 Z" id="icon-sent"></path>
        </g>
        </g>
        </g>
        </g>
        </g>
        </svg>
