<svg width="16" height="16" viewBox="0 0 16 16" fill="none" xmlns="http://www.w3.org/2000/svg">
<path fill-rule="evenodd" clip-rule="evenodd" d="M15.6382 1.98323C15.684 1.74602 15.5945 1.50297 15.4057 1.35216C15.217 1.20135 14.9602 1.16766 14.7389 1.2647L0.738928 7.40494C0.484232 7.51665 0.328825 7.77802 0.35233 8.05514C0.375834 8.33226 0.573042 8.56372 0.842913 8.63094L5.34213 9.75153V13.3824C5.34213 13.6593 5.51759 13.9058 5.77924 13.9965C6.0409 14.0872 6.33129 14.0022 6.50268 13.7847L8.12675 11.7236L12.2502 14.6693C12.4303 14.798 12.6635 14.8262 12.8691 14.7441C13.0746 14.6621 13.2243 14.481 13.2663 14.2637L15.6382 1.98323ZM6.14922 8.61283L3.00629 7.83004L14.1269 2.95265L12.1819 13.0229L8.86874 10.656L11.3149 7.96517C11.5564 7.69954 11.5368 7.28845 11.2712 7.04697C11.0056 6.80549 10.5945 6.82507 10.353 7.0907L6.64213 11.1727V9.24356C6.64213 8.94508 6.43885 8.68496 6.14922 8.61283Z" fill="black"/>
</svg>
