<svg width="16" height="16" viewBox="0 0 16 16" fill="none" xmlns="http://www.w3.org/2000/svg">
<path id="16px/stats" fill-rule="evenodd" clip-rule="evenodd" d="M9.51676 2.94405C9.51676 1.78732 10.4545 0.849609 11.6112 0.849609H13.0557C14.2124 0.849609 15.1501 1.78732 15.1501 2.94405V13.0552C15.1501 14.2119 14.2124 15.1496 13.0557 15.1496H11.6112C11.0512 15.1496 10.5426 14.9298 10.1668 14.5718C9.79098 14.9298 9.28231 15.1496 8.72232 15.1496H7.27788C6.71788 15.1496 6.20922 14.9298 5.83343 14.5718C5.45764 14.9298 4.94898 15.1496 4.38899 15.1496H2.94454C1.78781 15.1496 0.850098 14.2119 0.850098 13.0552V8.72183C0.850098 7.5651 1.78781 6.62739 2.94454 6.62739H4.38899C4.67019 6.62739 4.93844 6.6828 5.18343 6.78331V5.83294C5.18343 4.67621 6.12115 3.7385 7.27788 3.7385H8.72232C9.00352 3.7385 9.27178 3.79391 9.51676 3.89442V2.94405ZM10.8168 13.0552C10.8168 13.4939 11.1724 13.8496 11.6112 13.8496H13.0557C13.4944 13.8496 13.8501 13.4939 13.8501 13.0552V2.94405C13.8501 2.50529 13.4944 2.14961 13.0557 2.14961H11.6112C11.1724 2.14961 10.8168 2.50529 10.8168 2.94405V13.0552ZM9.51676 5.83294C9.51676 5.39418 9.16108 5.0385 8.72232 5.0385H7.27788C6.83912 5.0385 6.48343 5.39418 6.48343 5.83294V13.0552C6.48343 13.4939 6.83912 13.8496 7.27788 13.8496H8.72232C9.16108 13.8496 9.51676 13.4939 9.51676 13.0552V5.83294ZM5.18343 8.72183C5.18343 8.28307 4.82775 7.92739 4.38899 7.92739H2.94454C2.50578 7.92739 2.1501 8.28307 2.1501 8.72183V13.0552C2.1501 13.4939 2.50578 13.8496 2.94454 13.8496H4.38899C4.82775 13.8496 5.18343 13.4939 5.18343 13.0552V8.72183Z" fill="black"/>
</svg>
