<svg width="9px" height="17px" viewBox="0 0 9 17" version="1.1" xmlns="http://www.w3.org/2000/svg" xmlns:xlink="http://www.w3.org/1999/xlink">
<g id="TdB" stroke="none" stroke-width="1" fill="none" fill-rule="evenodd">
<g id="Dashboard-Dir.-app-STATS" transform="translate(-1202.000000, -592.000000)" fill="#FF9B30" fill-rule="nonzero">
<g id="W-Statistiques" transform="translate(930.500000, 371.000000)">
<g id="bloc-stats-copy" transform="translate(0.500000, 171.000000)">
<path d="M276.906256,60.5517207 L276.906256,57.0344805 L274.093744,57.0344805 L274.093744,60.5517207 L271,60.5517207 L275.5,67 L280,60.5517207 L276.906256,60.5517207 Z M274.65624,55.8620781 L276.34376,55.8620781 C276.653125,55.8620781 276.906256,55.5982793 276.906256,55.275877 C276.906256,54.9534746 276.653125,54.6896758 276.34376,54.6896758 L274.65624,54.6896758 C274.346875,54.6896758 274.093744,54.9534746 274.093744,55.275877 C274.093744,55.5982793 274.346875,55.8620781 274.65624,55.8620781 M274.65624,53.5172402 L276.34376,53.5172402 C276.653125,53.5172402 276.906256,53.2534414 276.906256,52.9310391 C276.906256,52.6086367 276.653125,52.3448379 276.34376,52.3448379 L274.65624,52.3448379 C274.346875,52.3448379 274.093744,52.6086367 274.093744,52.9310391 C274.093744,53.2534414 274.346875,53.5172402 274.65624,53.5172402 M274.65624,51.1724023 L276.34376,51.1724023 C276.653125,51.1724023 276.906256,50.9086035 276.906256,50.5862012 C276.906256,50.2637988 276.653125,50 276.34376,50 L274.65624,50 C274.346875,50 274.093744,50.2637988 274.093744,50.5862012 C274.093744,50.9086035 274.346875,51.1724023 274.65624,51.1724023" id="icon-down" transform="translate(275.500000, 58.500000) scale(1, -1) rotate(-180.000000) translate(-275.500000, -58.500000) "></path>
        </g>
        </g>
        </g>
        </g>
        </svg>
