<svg width="20px" height="19px" viewBox="0 0 20 19" version="1.1" xmlns="http://www.w3.org/2000/svg" xmlns:xlink="http://www.w3.org/1999/xlink">
    <g id="Messagerie" stroke="none" stroke-width="1" fill="none" fill-rule="evenodd">
        <g id="version-finale-messagerie---Multi-messages" transform="translate(-953.000000, -72.000000)" fill="#ffffff" fill-rule="nonzero">
            <g id="Colonne-droite" transform="translate(478.000000, 48.000000)">
                <g id="Group-9" transform="translate(469.000000, 18.000000)">
                    <g id="icon/trash" transform="translate(6.900000, 6.125000)">
                        <path d="M10.9513302,0 C12.3276806,0 13.4639981,1.00163031 13.564456,2.28232805 L13.5716745,2.46710526 L13.5705352,3.45271382 L17.4309859,3.45394737 C17.8557007,3.45394737 18.2,3.78531556 18.2,4.19407895 C18.2,4.56196599 17.9211175,4.86716294 17.555724,4.92452345 L17.4309859,4.93421053 L16.3479577,4.93297697 L16.3486698,16.2828947 C16.3486698,17.5885319 15.2749137,18.6495093 13.9232282,18.7432642 L13.7283255,18.75 L4.47167449,18.75 C3.09532406,18.75 1.95900662,17.7483697 1.85854873,16.467672 L1.8513302,16.2828947 L1.85076056,4.93297697 L0.769014085,4.93421053 C0.344299333,4.93421053 0,4.60284233 0,4.19407895 C0,3.8261919 0.27888246,3.52099496 0.644276006,3.46363444 L0.769014085,3.45394737 L4.6281831,3.45271382 L4.62832551,2.46710526 C4.62832551,1.16146814 5.70208156,0.100490688 7.05376712,0.00673578953 L7.2486698,0 L10.9513302,0 Z M3.38878873,4.93297697 L3.38935837,16.2828947 C3.38935837,16.7811275 3.79774252,17.2004055 4.33487181,17.2619617 L4.47167449,17.2697368 L13.7283255,17.2697368 C14.2849704,17.2697368 14.7361734,16.8887844 14.8022955,16.4056467 L14.8106416,16.2828947 L14.8099296,4.93297697 L3.38878873,4.93297697 Z M7.2486698,7.77138158 C7.63091307,7.77138158 7.94801986,8.03978982 8.00761878,8.39145997 L8.01768388,8.51151316 L8.01768388,13.6924342 C8.01768388,14.1011976 7.67338455,14.4325658 7.2486698,14.4325658 C6.86642652,14.4325658 6.54931973,14.1641576 6.48972081,13.8124874 L6.47965571,13.6924342 L6.47965571,8.51151316 C6.47965571,8.10274977 6.82395505,7.77138158 7.2486698,7.77138158 Z M10.9513302,7.77138158 C11.3335735,7.77138158 11.6506803,8.03978982 11.7102792,8.39145997 L11.7203443,8.51151316 L11.7203443,13.6924342 C11.7203443,14.1011976 11.376045,14.4325658 10.9513302,14.4325658 C10.5690869,14.4325658 10.2519801,14.1641576 10.1923812,13.8124874 L10.1823161,13.6924342 L10.1823161,8.51151316 C10.1823161,8.10274977 10.5266155,7.77138158 10.9513302,7.77138158 Z M10.9513302,1.48026316 L7.2486698,1.48026316 C6.69202492,1.48026316 6.24082194,1.86121555 6.17469985,2.34435329 L6.16635368,2.46710526 L6.16621127,3.45271382 L12.032507,3.45271382 L12.0336463,2.46710526 C12.0336463,1.96887252 11.6252622,1.54959453 11.0881329,1.48803834 L10.9513302,1.48026316 Z"></path>
                    </g>
                </g>
            </g>
        </g>
    </g>
</svg>
