<svg xmlns="http://www.w3.org/2000/svg" width="20" height="20" viewBox="0 0 20 20">
  <path d="M11.4241002,2.5 C12.4828313,2.5 13.3569216,3.30130425 13.4341969,4.32586244 L13.4397496,4.47368421 L13.4388732,5.26217105 L16.4084507,5.26315789 C16.7351544,5.26315789 17,5.52825245 17,5.85526316 C17,6.14957279 16.785475,6.39373035 16.5044031,6.43961876 L16.4084507,6.44736842 L15.5753521,6.44638158 L15.5758998,15.5263158 C15.5758998,16.5708255 14.7499336,17.4196074 13.7101755,17.4946114 L13.5602504,17.5 L6.43974961,17.5 C5.38101851,17.5 4.50692817,16.6986957 4.42965287,15.6741376 L4.42410016,15.5263158 L4.42366197,6.44638158 L3.5915493,6.44736842 C3.26484564,6.44736842 3,6.18227387 3,5.85526316 C3,5.56095352 3.21452497,5.31679597 3.49559693,5.27090755 L3.5915493,5.26315789 L6.56014085,5.26217105 L6.56025039,4.47368421 C6.56025039,3.42917451 7.38621659,2.58039255 8.42597471,2.50538863 L8.57589984,2.5 L11.4241002,2.5 Z M5.60676056,6.44638158 L5.60719875,15.5263158 C5.60719875,15.924902 5.9213404,16.2603244 6.33451677,16.3095693 L6.43974961,16.3157895 L13.5602504,16.3157895 C13.9884388,16.3157895 14.335518,16.0110276 14.3863811,15.6245174 L14.3928013,15.5263158 L14.3922535,6.44638158 L5.60676056,6.44638158 Z M8.57589984,8.71710526 C8.86993313,8.71710526 9.11386143,8.93183185 9.15970676,9.21316798 L9.16744914,9.30921053 L9.16744914,13.4539474 C9.16744914,13.7809581 8.9026035,14.0460526 8.57589984,14.0460526 C8.28186655,14.0460526 8.03793826,13.831326 7.99209293,13.5499899 L7.98435055,13.4539474 L7.98435055,9.30921053 C7.98435055,8.98219982 8.24919619,8.71710526 8.57589984,8.71710526 Z M11.4241002,8.71710526 C11.7181334,8.71710526 11.9620617,8.93183185 12.0079071,9.21316798 L12.0156495,9.30921053 L12.0156495,13.4539474 C12.0156495,13.7809581 11.7508038,14.0460526 11.4241002,14.0460526 C11.1300669,14.0460526 10.8861386,13.831326 10.8402932,13.5499899 L10.8325509,13.4539474 L10.8325509,9.30921053 C10.8325509,8.98219982 11.0973965,8.71710526 11.4241002,8.71710526 Z M11.4241002,3.68421053 L8.57589984,3.68421053 C8.14771148,3.68421053 7.80063226,3.98897244 7.74976912,4.37548263 L7.74334898,4.47368421 L7.74323944,5.26217105 L12.2557746,5.26217105 L12.256651,4.47368421 C12.256651,4.07509801 11.9425094,3.73967562 11.529333,3.69043067 L11.4241002,3.68421053 Z"/>
</svg>
