<svg width="9px" height="9px" viewBox="0 0 9 9" version="1.1" xmlns="http://www.w3.org/2000/svg" xmlns:xlink="http://www.w3.org/1999/xlink">
<g id="Messagerie" stroke="none" stroke-width="1" fill="none" fill-rule="evenodd">
<g id="Modale-envoyer-un-message3" transform="translate(-927.000000, -327.000000)" fill="#000000" fill-rule="nonzero">
<g id="modale" transform="translate(318.000000, 250.000000)">
<g id="people" transform="translate(603.500000, 77.000000)">
<path d="M5.94627987,8.72775363 L13.8874563,8.72775363 C14.1148731,8.72884608 14.3058937,8.56323125 14.3286328,8.3452482 C14.3354373,8.22775622 14.3354373,8.10999018 14.3286328,7.9924982 C14.3249629,6.22547553 13.1866998,4.64498789 11.4698093,4.0229982 C12.2242533,3.40043102 12.4964288,2.3911208 12.151916,1.49353748 C11.8074033,0.595954159 10.919091,0 9.92569163,0 C8.93229229,0 8.04398001,0.595954159 7.69946725,1.49353748 C7.35495448,2.3911208 7.62713,3.40043102 8.38157399,4.0229982 C6.6577354,4.63941577 5.51153321,6.22116307 5.5051034,7.9924982 C5.49829887,8.10999018 5.49829887,8.22775622 5.5051034,8.3452482 C5.52784251,8.56323125 5.71886308,8.72884608 5.94627987,8.72775363 L5.94627987,8.72775363 Z M8.41244985,2.3102482 C8.41005564,1.51800898 9.0739233,0.873458967 9.89631056,0.869554468 C10.7186978,0.865685287 11.3890987,1.50392916 11.3947675,2.29615294 C11.4004363,3.08837671 10.7392328,3.73546309 9.91686811,3.7424982 C9.09503391,3.7424982 8.4281231,3.10194501 8.42569163,2.3102482 L8.41244985,2.3102482 Z M9.91686811,4.59249764 C11.820522,4.59145348 13.3820319,6.0449394 13.4462799,7.8777482 L6.38745634,7.8777482 C6.45170436,6.0449394 8.01321424,4.59145348 9.91686811,4.59249764 L9.91686811,4.59249764 Z" id="icon-people"></path>
        </g>
        </g>
        </g>
        </g>
        </svg>
