<svg width="4" height="14" viewBox="0 0 4 14" fill="none" xmlns="http://www.w3.org/2000/svg">
<g id="16px/more">
<path d="M2 3C1.17157 3 0.499995 2.32843 0.499995 1.5C0.499995 0.671573 1.17157 -1.01779e-07 2 -6.55671e-08C2.82843 -2.93554e-08 3.5 0.671573 3.5 1.5C3.5 2.32843 2.82843 3 2 3Z" fill="black"/>
<path d="M2 8.5C1.17157 8.5 0.499995 7.82843 0.499995 7C0.499995 6.17157 1.17157 5.5 2 5.5C2.82843 5.5 3.5 6.17157 3.5 7C3.5 7.82843 2.82843 8.5 2 8.5Z" fill="black"/>
<path d="M2 14C1.17157 14 0.499995 13.3284 0.499995 12.5C0.499995 11.6716 1.17157 11 2 11C2.82843 11 3.5 11.6716 3.5 12.5C3.5 13.3284 2.82843 14 2 14Z" fill="black"/>
</g>
</svg>
