<?xml version="1.0" standalone="no"?>
<!DOCTYPE svg PUBLIC "-//W3C//DTD SVG 20010904//EN"
 "http://www.w3.org/TR/2001/REC-SVG-20010904/DTD/svg10.dtd">
<svg version="1.0" xmlns="http://www.w3.org/2000/svg"
 width="300.000000pt" height="300.000000pt" viewBox="0 0 300.000000 300.000000"
 preserveAspectRatio="xMidYMid meet">
<metadata>
Created by potrace 1.11, written by Peter Selinger 2001-2013
</metadata>
<g transform="translate(0.000000,300.000000) scale(0.100000,-0.100000)"
fill="#000000" stroke="none">
<path d="M1706 2843 c-56 -87 -80 -136 -121 -243 -55 -142 -76 -260 -82 -470
-3 -102 -3 -182 1 -179 3 3 10 69 16 146 18 258 81 498 184 708 28 58 50 105
49 105 -2 0 -23 -30 -47 -67z"/>
<path d="M2471 2617 c-20 -65 -86 -187 -131 -239 -79 -91 -221 -171 -385 -217
-146 -41 -224 -80 -276 -139 -157 -178 -158 -446 -3 -612 l44 -47 -10 -59
c-25 -154 52 -303 193 -374 69 -34 124 -38 265 -18 171 23 332 -26 446 -137
31 -30 59 -55 62 -55 13 0 -5 255 -21 320 -26 102 -105 256 -175 338 l-61 73
31 35 c36 42 98 162 134 262 71 197 74 435 9 662 -19 66 -74 199 -95 229 -14
20 -15 20 -27 -22z"/>
<path d="M638 2465 c225 -103 498 -318 665 -525 96 -119 97 -109 2 25 -165
232 -389 410 -633 501 -81 31 -103 30 -34 -1z"/>
<path d="M1512 1910 c0 -14 2 -19 5 -12 2 6 2 18 0 25 -3 6 -5 1 -5 -13z"/>
<path d="M975 1826 c-27 -8 -99 -35 -160 -59 -160 -66 -329 -85 -458 -51 -61
16 -160 61 -209 95 -38 27 -41 24 -33 -28 18 -123 87 -291 170 -419 130 -199
365 -375 574 -428 l43 -12 -1 -111 c-4 -217 74 -421 223 -588 l35 -40 1 40 c1
58 26 158 55 215 37 73 146 178 242 233 134 77 181 136 203 255 21 116 -16
229 -103 316 -48 48 -48 48 -42 100 9 69 -16 181 -56 256 -68 128 -220 227
-361 236 -45 2 -92 -1 -123 -10z"/>
</g>
</svg>
