<svg xmlns="http://www.w3.org/2000/svg" width="22.991" height="18" viewBox="0 0 22.991 18"><path fill="#306CD3" d="M28.6638381,18.2826087 L12.8537181,18.2826087 C12.6796972,18.2826087 12.5270448,18.4009797 12.461517,18.5743879 C11.958416,20.2341662 11.5118699,21.655637 11.0821213,22.9795757 C11.0070304,23.2109102 10.8987433,23.5408354 10.7855285,23.8845382 L10.6879397,24.1805367 C10.5904629,24.4759529 10.4952997,24.7636882 10.420252,24.9903326 L10.3525688,25.1946352 C10.3127959,25.3146237 10.2846005,25.3995481 10.2732572,25.4335832 L10.2695407,25.4444908 C9.93163405,26.4744346 9.89219474,26.6843138 9.94020767,26.7935706 C9.95398387,26.8249194 9.97681573,26.8653478 9.99169426,26.8957036 C10.0820139,27.0095128 10.2140981,27.076087 10.3332642,27.076087 L26.1433842,27.076087 C26.2916772,27.076087 26.4776947,26.937186 26.5374902,26.7781659 L29.0511674,18.8558264 C29.1373899,18.5298868 28.9384967,18.2826087 28.6638381,18.2826087 Z M14.925,12.97 L9.916,12.97 L9.916,20.255 L10.6323266,18.0121296 C10.9037966,17.0816949 11.737621,16.4339257 12.6853759,16.3648231 L12.8537181,16.3586957 L25.139,16.358 L25.139,15.279 L17.0697501,15.2798913 C16.377989,15.2798913 15.7354437,14.8636529 15.3860339,14.2132285 L15.315736,14.0703337 L14.925,12.97 Z M26.1433842,29 L10.3332642,29 C9.59653407,29 8.94534725,28.6641504 8.4658994,28.0596404 C8.38841352,27.9556626 8.32117957,27.8447555 8.26340747,27.7280993 C8.06448558,27.3264268 8,26.9357897 8,26.6521739 L8,12.8858696 C8,11.8253132 8.81888878,11 9.87499988,11 L14.9159077,11 C15.6770459,11 16.4146488,11.5018933 16.6699218,12.2095576 L17.059,13.309 L25.1352026,13.3097826 C26.1410064,13.3097826 26.931486,14.0583498 27.0044891,15.0458058 L27.0099957,15.1956522 L27.009,16.312 L28.6638381,16.3125 C30.2246657,16.3125 31.2747475,17.7318132 30.9232382,19.2542447 L30.8818389,19.4120515 L28.363,27.351 C28.0773369,28.3317322 27.1594385,29 26.1433842,29 Z" transform="translate(-8 -11)"/></svg>