<svg width="102px" height="121px" viewBox="0 0 102 121" version="1.1" xmlns="http://www.w3.org/2000/svg" xmlns:xlink="http://www.w3.org/1999/xlink">
<g id="Page-1" stroke="none" stroke-width="1" fill="none" fill-rule="evenodd">
<g id="version-finale-add-file" transform="translate(-878.000000, -397.000000)" fill="#D4D4D4" fill-rule="nonzero">
<path d="M918,397 L917.999889,397.040096 C918.371572,397.115452 918.725945,397.297027 919.014214,397.58482 L949.414214,427.934655 C949.702485,428.222451 949.884361,428.576244 949.95984,428.947318 L950,428.947195 L950.000778,448.097079 C966.975137,450.606721 980,465.213853 980,482.858086 C980,502.266429 964.240423,518 944.8,518 C930.334856,518 917.907608,509.289133 912.494162,496.835097 L886,496.834983 C881.581722,496.834983 878,493.259172 878,488.848185 L878,404.986799 C878,400.575812 881.581722,397 886,397 L918,397 Z M944.8,451.310231 C927.347802,451.310231 913.2,465.434687 913.2,482.858086 C913.2,486.347224 913.767361,489.704066 914.815002,492.841676 L915.037469,493.484579 C915.042609,493.498927 915.04776,493.51327 915.05292,493.527608 C915.123819,493.724592 915.19652,493.920393 915.271101,494.115267 L915.05292,493.527608 C915.137048,493.761355 915.223862,493.993823 915.313324,494.224975 L915.555102,494.830844 C915.570498,494.868288 915.585964,494.905696 915.601501,494.943067 L915.555019,494.830643 C915.736111,495.271066 915.926896,495.706495 916.127107,496.136665 C916.141751,496.168129 916.156409,496.199487 916.171117,496.230816 L916.127107,496.136665 C916.221555,496.339594 916.318101,496.541353 916.416716,496.741914 L916.171117,496.230816 C921.212197,506.968852 932.13615,514.405941 944.8,514.405941 C962.252198,514.405941 976.4,500.281485 976.4,482.858086 C976.4,467.1882 964.956606,454.186652 949.957774,451.728382 L949.265052,451.622724 C949.22806,451.617501 949.191047,451.612342 949.154014,451.607247 C948.944595,451.578434 948.734545,451.551673 948.523862,451.52698 L949.154014,451.607247 C948.866168,451.567643 948.577084,451.53191 948.286818,451.500102 C948.10519,451.480199 947.923098,451.461832 947.740557,451.445016 L948.286818,451.500102 C948.034703,451.472475 947.781696,451.447808 947.527833,451.426138 L947.740557,451.445016 C947.438614,451.417199 947.13544,451.393624 946.831096,451.374349 L947.527833,451.426138 C947.270045,451.404133 947.011375,451.385218 946.751858,451.36943 L946.831096,451.374349 C946.600638,451.359754 946.36951,451.347625 946.137736,451.337989 L946.751858,451.36943 C946.106283,451.330155 945.455472,451.310231 944.8,451.310231 Z M947.957333,466.485149 L947.957333,480.027981 L961.2,480.027981 L961.2,484.75061 L947.957333,484.75061 L947.957333,498.432343 L943.104,498.432343 L943.104,484.75061 L930,484.75061 L930,480.027981 L943.104,480.027981 L943.104,466.485149 L947.957333,466.485149 Z M914,400.993399 L886,400.993399 C883.948657,400.993399 882.257971,402.535012 882.026911,404.521084 L882,404.986799 L882,488.848185 C882,490.896143 883.544161,492.584038 885.533515,492.814718 L886,492.841584 L911.040647,492.84133 C910.103186,489.676779 909.6,486.326098 909.6,482.858086 C909.6,463.449743 925.359577,447.716172 944.8,447.716172 C945.201926,447.716172 945.602278,447.722897 946.00095,447.736241 L946,432.94 L914,432.940594 L914,400.993399 Z M917.999,402.219 L918,428.947195 L944.771,428.947 L917.999,402.219 Z" id="icon-add-file"></path>
        </g>
        </g>
        </svg>
