<svg xmlns="http://www.w3.org/2000/svg" width="20" height="16" viewBox="0 0 20 16">
  <path fill="#000000" d="M25,9 C26.1045695,9 27,9.8954305 27,11 L27,23 C27,24.1045695 26.1045695,25 25,25 L9,25 C7.8954305,25 7,24.1045695 7,23 L7,11 C7,9.8954305 7.8954305,9 9,9 L25,9 Z M13,10 L9,10 C8.48716416,10 8.06449284,10.3860402 8.00672773,10.8833789 L8,11 L8,23 C8,23.5128358 8.38604019,23.9355072 8.88337887,23.9932723 L9,24 L13,24 L13,10 Z M25,10 L14,10 L14,24 L25,24 C25.5128358,24 25.9355072,23.6139598 25.9932723,23.1166211 L26,23 L26,11 C26,10.4871642 25.6139598,10.0644928 25.1166211,10.0067277 L25,10 Z M12,19 L12,20 L9,20 L9,19 L12,19 Z M12,17 L12,18 L9,18 L9,17 L12,17 Z M12,15 L12,16 L9,16 L9,15 L12,15 Z M12,13 L12,14 L9,14 L9,13 L12,13 Z" transform="translate(-7 -9)"/>
</svg>
