<svg xmlns="http://www.w3.org/2000/svg" width="16" height="16" viewBox="0 0 16 16">
  <path fill="#FFF" d="M16,8 C16,12.418278 12.418278,16 8,16 C4.2724501,16 1.14033727,13.4506308 0.252127147,10.0003581 L1.29018925,10.0010432 C2.15107217,12.8919961 4.82936074,15 8,15 C11.8659932,15 15,11.8659932 15,8 L16,8 L16,8 Z M8,0 C11.7279108,0 14.8602692,2.54986283 15.7481308,6.00064404 L14.7101075,5.99995367 C13.8495435,3.10848853 11.1710037,1 8,1 C4.13400675,1 1,4.13400675 1,8 L0,8 C0,3.581722 3.581722,0 8,0 Z M0,10 L4,10 L4,11 L0,11 L0,10 Z M1,10 L1,14 L0,14 L0,10 L1,10 Z M12,6 L12,5 L15,5 L15,2 L16,2 L16,6 L12,6 Z"/>
</svg>
