<?xml version="1.0" encoding="UTF-8"?>
<svg width="18px" height="17px" viewBox="0 0 18 17" version="1.1" xmlns="http://www.w3.org/2000/svg" xmlns:xlink="http://www.w3.org/1999/xlink">
    <title>229B188A-39F1-48FF-8095-72C5A0C80AD3</title>
    <g id="Plateforme" stroke="none" stroke-width="1" fill="none" fill-rule="evenodd">
        <g id="actions_commu" transform="translate(-228.000000, -137.000000)" fill="#0B3C5F" fill-rule="nonzero">
            <g id="Actions" transform="translate(14.000000, 12.000000)">
                <g id="move" transform="translate(19.000000, 117.000000)">
                    <g id="icon/out" transform="translate(195.000000, 8.000000)">
                        <path d="M3.13043478,10.2218804 L2.56856113,10.8181818 L0.417468782,8.53528516 L-1.42774681e-13,8.11354632 L0.417468782,7.69198756 L2.56856113,5.40909091 L3.13043478,6.00539236 L1.507,7.727 L6.26,7.727 L6.26086957,1.54545455 C6.26086957,0.739341956 6.88594061,0.0773791848 7.68362027,0.00631576758 L7.82608696,0 L16.4347826,0 C16.4458652,0 16.456921,0.000113728397 16.4679487,0.000340067682 C16.5018836,0.00105694073 16.5359836,0.00292759713 16.5698819,0.00592173891 C17.3708082,0.0730239362 18,0.736689179 18,1.54545455 L18,1.54545455 L18,13.5870087 C18,14.2980456 17.5367312,14.9229352 16.8647809,15.118272 L16.8647809,15.118272 L10.6039113,16.9383154 C9.77272609,17.1799421 8.90640053,16.6902493 8.66891904,15.8445559 C8.62896509,15.7022762 8.60869565,15.5550251 8.60869565,15.407052 L8.60869565,15.407052 L8.608,14.681 L7.82608696,14.6818182 C7.00966602,14.6818182 6.33923825,14.0646394 6.2672661,13.2770315 L6.26086957,13.1363636 L6.26,8.511 L1.518,8.511 L3.13043478,10.2218804 Z M16.621037,0.795741676 C16.4931222,0.763630375 16.3555157,0.764085457 16.2197835,0.803664644 L16.2197835,0.803664644 L9.9589139,2.62931842 C9.62293877,2.72728793 9.39130435,3.04069586 9.39130435,3.39731022 L9.39130435,3.39731022 L9.391,14.652 L9.39390763,14.6818182 L9.39390763,14.6818182 L9.391,14.681 L9.39130435,15.4283436 C9.39130435,15.4654509 9.39383803,15.5024676 9.39886883,15.5391275 L9.42141604,15.6477698 C9.54015679,16.0719199 9.97331957,16.3175211 10.3889122,16.1963354 L10.3889122,16.1963354 L16.6497818,14.3706816 C16.9857569,14.2727121 17.2173913,13.9593041 17.2173913,13.6026898 L17.2173913,13.6026898 L17.2173913,1.57165644 C17.2173913,1.49744183 17.2072566,1.42358935 17.1872796,1.35223022 C17.1082222,1.06983163 16.8897853,0.866581628 16.6299533,0.798036835 L16.6301235,0.796992532 Z M13.558,0.772 L7.82608696,0.772727273 C7.39386411,0.772727273 7.04347826,1.11868906 7.04347826,1.54545455 L7.04347826,1.54545455 L7.04347826,13.1363636 C7.04347826,13.5631291 7.39386411,13.9090909 7.82608696,13.9090909 L7.82608696,13.9090909 L8.608,13.909 L8.60869565,3.41299132 C8.60869565,2.74935687 9.01225429,2.1607663 9.61238256,1.92642095 L9.74391476,1.88172795 L13.558,0.772 Z"></path>
                    </g>
                </g>
            </g>
        </g>
    </g>
</svg>