<?xml version="1.0" encoding="UTF-8"?>
<svg width="15px" height="15px" viewBox="0 0 15 15" version="1.1" xmlns="http://www.w3.org/2000/svg" xmlns:xlink="http://www.w3.org/1999/xlink">
    <title>5C8DFF0B-6F37-4248-B190-F3B2F67248DF</title>
    <g id="Plateforme" stroke="none" stroke-width="1" fill="#000">
        <g id="M1.7_EspaceCaDyCo_optionsDossier" transform="translate(-266.000000, -243.000000)" >
            <g id="Actions" transform="translate(90.000000, 65.000000)">
                <g id="download" transform="translate(19.000000, 169.000000)">
                    <g id="icon/download" transform="translate(157.500000, 9.000000)">
                        <path d="M1,8 L1,13 C1,13.2454599 1.17687516,13.4496084 1.41012437,13.4919443 L1.5,13.5 L12.5,13.5 C12.7454599,13.5 12.9496084,13.3231248 12.9919443,13.0898756 L13,13 L13,8 L14,8 L14,13 C14,13.7796961 13.4051119,14.4204487 12.64446,14.4931334 L12.5,14.5 L1.5,14.5 C0.720303883,14.5 0.0795513218,13.9051119 0.00686657806,13.14446 L0,13 L0,8 L1,8 Z M7.5,2.27373675e-13 L7.5,8.208 L8.73863131,7 L9.5,7.64657977 L7.03597421,10 L4.5,7.69296354 L5.23612667,7.02257931 L6.5,8.174 L6.5,2.27373675e-13 L7.5,2.27373675e-13 Z"></path>
                    </g>
                </g>
            </g>
        </g>
    </g>
</svg>
