<?xml version="1.0" encoding="UTF-8"?>
<svg width="27px" height="26px" viewBox="0 0 27 26" version="1.1" xmlns="http://www.w3.org/2000/svg" xmlns:xlink="http://www.w3.org/1999/xlink">
    <title>C9157AB8-FCE2-4C6A-B0E4-FC32C5A1B62C</title>
    <g id="Plateforme" stroke="none" stroke-width="1" fill="none" fill-rule="evenodd">
        <g id="1.2_EspaceCaDyCo_survols" transform="translate(-535.000000, -152.000000)">
            <g id="Content" transform="translate(80.000000, 94.000000)">
                <g id="btn_ajout" transform="translate(456.000000, 58.000000)">
                    <g id="icon/dossier_ajout" transform="translate(0.000000, 0.500000)">
                        <g id="icon/dossier" fill-rule="nonzero">
                            <g id="icon/dossier_neutre">
                                <path d="M23.8719138,8.91308056 C23.8904808,7.4816338 23.0194694,5.94756193 21.9156707,5.65241827 C19.6740257,5.05306444 15.2398297,5.84594956 11.2174364,5.65241827 C7.30827789,5.46438475 3.49590915,4.21682407 1.47542895,5.26038839 C1.14054699,5.43337537 0.921552324,6.34060455 0.704197343,6.6131784 C0.183596719,7.26596673 4.0388745e-14,7.98511416 4.0388745e-14,8.90256727 L4.0388745e-14,19.7090209 C4.0388745e-14,21.1848839 1.20068492,22.3855688 2.67654791,22.3855688 L21.1953659,22.3855688 C22.6712288,22.3855688 23.8719138,21.1848839 23.8719138,19.7090209 C23.8719138,19.7090209 23.7319134,19.7081046 23.8719138,8.91308056 Z M23.1485224,19.7090209 C23.1485224,20.7860059 22.2723509,21.6621775 21.1953659,21.6621775 L2.67654791,21.6621775 C1.5995629,21.6621775 0.723391326,20.7860059 0.723391326,19.7090209 L0.723391326,8.52056842 C0.723391326,7.44358342 1.5995629,6.56741184 2.67654791,6.56741184 L21.1953659,6.56741184 C22.2723509,6.56741184 23.1485224,7.44358342 23.1485224,8.52056842 L23.1485224,19.7090209 Z M21.1953659,5.84402052 L2.79050615,5.20970277 C2.02062488,5.20970277 2.52651655,3.77237244 2.03774514,4.29446807 C2.03774514,4.29446807 14.0555417,5.74081669 14.1549357,5.74081669 C14.1549357,5.74081669 14.8649684,5.06188981 14.8649684,6.13887482 L22.200928,6.0551061 C21.7121566,5.53301047 21.9652471,5.84402052 21.1953659,5.84402052 Z" id="Shape" stroke="#0B3C5F" stroke-width="0.5" fill="#0B3C5F"></path>
                                <path d="M21.1953659,5.54829502 L2.44993352,5.54829502 C1.42623834,5.56106716 1.25546976,5.81525463 0.704197343,6.38028547 L0.723391326,2.21056309 C0.723391326,0.991642226 1.5995629,1.91846539e-13 2.67654791,1.91846539e-13 L6.92044369,1.91846539e-13 C7.7364291,1.91846539e-13 8.40426398,0.354945475 9.0220884,1.11701663 C9.02334227,1.11854492 9.02459615,1.12012779 9.02589826,1.1216015 L10.901652,3.36518658 C10.9699401,3.44689554 11.0649455,3.4932355 11.1643395,3.4932355 L21.1953659,3.4932355 C22.2723509,3.4932355 23.1485224,4.48487772 23.1485224,5.70379858 L23.262336,6.54190219 C22.6806812,5.72879705 21.9652471,5.54829502 21.1953659,5.54829502 Z" id="Path" fill="#B3C3CE"></path>
                            </g>
                        </g>
                        <g id="icon/add_element_ON" transform="translate(11.000000, 10.000000)">
                            <circle id="Oval" fill="#27AAE1" cx="7.5" cy="7.5" r="7.5"></circle>
                            <polygon id="+" fill="#FFFFFF" points="8.12533333 11.4293333 8.12533333 8.01466667 11.436 8.01466667 11.436 6.836 8.12533333 6.836 8.12533333 3.456 6.912 3.456 6.912 6.836 3.636 6.836 3.636 8.01466667 6.912 8.01466667 6.912 11.4293333"></polygon>
                        </g>
                    </g>
                </g>
            </g>
        </g>
    </g>
</svg>