<svg width="24" height="24" viewBox="0 0 24 24" fill="none" xmlns="http://www.w3.org/2000/svg">
<g id="24px/lock-open">
<path id="24px/lock-open_2" fill-rule="evenodd" clip-rule="evenodd" d="M7.12777 6.72232C7.12777 4.03147 9.30914 1.8501 12 1.8501C14.6908 1.8501 16.8722 4.03147 16.8722 6.72232C16.8722 7.08131 16.5812 7.37232 16.2222 7.37232C15.8632 7.37232 15.5722 7.08131 15.5722 6.72232C15.5722 4.74944 13.9729 3.1501 12 3.1501C10.0271 3.1501 8.42777 4.74944 8.42777 6.72232V10.2945H18.3333C19.8582 10.2945 21.0944 11.5307 21.0944 13.0557V19.389C21.0944 20.9139 19.8582 22.1501 18.3333 22.1501H5.66666C4.14174 22.1501 2.90555 20.9139 2.90555 19.389V13.0557C2.90555 11.5307 4.14174 10.2945 5.66666 10.2945H7.12777V6.72232ZM5.66666 11.5945C4.85971 11.5945 4.20555 12.2487 4.20555 13.0557V19.389C4.20555 20.1959 4.85971 20.8501 5.66666 20.8501H18.3333C19.1403 20.8501 19.7944 20.1959 19.7944 19.389V13.0557C19.7944 12.2487 19.1403 11.5945 18.3333 11.5945H5.66666ZM12 14.5168C12.359 14.5168 12.65 14.8078 12.65 15.1668V17.2779C12.65 17.6369 12.359 17.9279 12 17.9279C11.641 17.9279 11.35 17.6369 11.35 17.2779V15.1668C11.35 14.8078 11.641 14.5168 12 14.5168Z" fill="black"/>
</g>
</svg>
