<svg xmlns="http://www.w3.org/2000/svg" width="20" height="16" viewBox="0 0 20 16">
  <path fill="#FFF" d="M18,0 C19.1045695,0 20,0.8954305 20,2 L20,14 C20,15.1045695 19.1045695,16 18,16 L2,16 C0.8954305,16 0,15.1045695 0,14 L0,2 C0,0.8954305 0.8954305,0 2,0 L18,0 Z M6,1 L2,1 C1.48716416,1 1.06449284,1.38604019 1.00672773,1.88337887 L1,2 L1,14 C1,14.5128358 1.38604019,14.9355072 1.88337887,14.9932723 L2,15 L6,15 L6,1 Z M18,1 L7,1 L7,15 L18,15 C18.5128358,15 18.9355072,14.6139598 18.9932723,14.1166211 L19,14 L19,2 C19,1.48716416 18.6139598,1.06449284 18.1166211,1.00672773 L18,1 Z M5,10 L5,11 L2,11 L2,10 L5,10 Z M5,8 L5,9 L2,9 L2,8 L5,8 Z M5,6 L5,7 L2,7 L2,6 L5,6 Z M5,4 L5,5 L2,5 L2,4 L5,4 Z"/>
</svg>
