<?xml version="1.0" encoding="UTF-8"?>
<svg width="25px" height="30px" viewBox="0 0 25 30" version="1.1" xmlns="http://www.w3.org/2000/svg" xmlns:xlink="http://www.w3.org/1999/xlink">
    <title>EE42D9B6-C7F9-4629-B363-B7EB565D21D2</title>
    <g id="Page-1" stroke="none" stroke-width="1" fill="none" fill-rule="evenodd">
        <g id="modale-selection" transform="translate(-142.000000, -451.000000)" fill="#000000" fill-rule="nonzero">
            <g id="importer" transform="translate(142.666000, 430.000000)">
                <path d="M3.33495464,32.711498 L15.1306703,32.711498 C15.4200585,32.711498 15.6549243,32.4678111 15.6549243,32.1667433 C15.6549243,31.8656756 15.4200585,31.6219887 15.1306703,31.6219887 L3.33495464,31.6219887 C3.04521691,31.6219887 2.81070061,31.8656756 2.81070061,32.1667433 C2.81070061,32.4678111 3.04556641,32.711498 3.33495464,32.711498 Z M3.33495464,29.6448926 L15.1306703,29.6448926 C15.4200585,29.6448926 15.6549243,29.4012057 15.6549243,29.100138 C15.6549243,28.7990703 15.4200585,28.5553834 15.1306703,28.5553834 L3.33495464,28.5553834 C3.04521691,28.5553834 2.81070061,28.7990703 2.81070061,29.100138 C2.81070061,29.4012057 3.04556641,29.6448926 3.33495464,29.6448926 Z M3.33495464,35.4592402 L13.0336542,35.4592402 C13.3230424,35.4592402 13.5579082,35.2155533 13.5579082,34.9144856 C13.5579082,34.6134179 13.3230424,34.369731 13.0336542,34.369731 L3.33495464,34.369731 C3.04521691,34.369731 2.81070061,34.6134179 2.81070061,34.9144856 C2.81070061,35.2155533 3.04556641,35.4592402 3.33495464,35.4592402 Z M9.53862733,37.1185628 L3.33495464,37.1185628 C3.04521691,37.1185628 2.81070061,37.3626129 2.81070061,37.6633174 C2.81070061,37.964022 3.04521691,38.2080721 3.33495464,38.2080721 L9.53862733,38.2080721 C9.82836506,38.2080721 10.0628814,37.964022 10.0628814,37.6633174 C10.0628814,37.3626129 9.82836506,37.1185628 9.53862733,37.1185628 Z M7.80754052,39.8663051 L3.33495464,39.8663051 C3.04521691,39.8663051 2.81070061,40.1103552 2.81070061,40.4110597 C2.81070061,40.7117643 3.04521691,40.9558143 3.33495464,40.9558143 L7.80754052,40.9558143 C8.09727825,40.9558143 8.33179455,40.7117643 8.33179455,40.4110597 C8.33179455,40.1103552 8.09727825,39.8663051 7.80754052,39.8663051 Z M18.9475892,43.5706365 L17.2063668,45.3799482 L17.2063668,40.0969179 C17.2063668,39.7962134 16.971501,39.5521633 16.6821127,39.5521633 C16.3927245,39.5521633 16.1578587,39.7962134 16.1578587,40.0969179 L16.1578587,45.3784955 L14.4173353,43.5699102 C14.2125268,43.3570927 13.8808487,43.3570927 13.6760401,43.5699102 C13.4712316,43.7827276 13.4712316,44.1273757 13.6760401,44.3401932 L16.3081449,47.0759509 C16.3581238,47.1286105 16.4175392,47.170375 16.4842942,47.1987023 C16.4863912,47.1994286 16.4877892,47.1994286 16.4898863,47.200155 C16.5500007,47.2248505 16.6139597,47.2390141 16.6824622,47.2390141 L16.6824622,47.2390141 C16.6831613,47.2390141 16.6831613,47.2390141 16.6831613,47.2390141 C16.6831613,47.2390141 16.6831613,47.2390141 16.6838603,47.2390141 C16.7499163,47.2390141 16.8135258,47.2248505 16.8722422,47.2008813 C16.8757372,47.1994286 16.8792323,47.1994286 16.8830768,47.1972496 C16.9459873,47.170375 17.0026067,47.1311527 17.0504886,47.082488 C17.0511876,47.0810353 17.0525856,47.0810353 17.0539836,47.0795826 L19.6888844,44.3409195 C19.8936929,44.1281021 19.8936929,43.783454 19.6888844,43.5706365 C19.4840758,43.357819 19.1523977,43.357819 18.9475892,43.5706365 Z M18.466324,36.0301431 L18.466324,26.703944 C18.466324,26.5601288 18.4118015,26.4224875 18.3139408,26.3204368 L13.3915449,21.1612474 C13.2933347,21.0581072 13.1594752,21 13.0196741,21 L0.52425403,21 C0.234516303,21 0,21.2436869 0,21.5447546 L0,46.5148536 C0,46.8155582 0.234516303,47.0596083 0.52425403,47.0596083 L10.273981,47.0596083 C11.5213561,49.406048 13.9259346,51 16.6828117,51 C20.7178203,51 24,47.5887466 24,43.3959519 C23.9996505,39.8437886 21.6398084,36.8610755 18.466324,36.0301431 Z M13.5439281,22.867782 L16.6838603,26.1591894 L13.5439281,26.1591894 L13.5439281,22.867782 Z M9.80564738,45.970099 L1.04850806,45.970099 L1.04850806,22.0895092 L12.4954201,22.0895092 L12.4954201,26.7043072 C12.4954201,27.0053749 12.7302859,27.2490618 13.0196741,27.2490618 L17.4178159,27.2490618 L17.4178159,35.8311261 C17.1756105,35.8060674 16.9302597,35.7926301 16.6824622,35.7926301 C12.6474537,35.7926301 9.36457499,39.2035203 9.36457499,43.396315 C9.36457499,44.3002445 9.52534623,45.1642254 9.80564738,45.970099 Z M16.6824622,49.9104908 C13.2255312,49.9104908 10.4130831,46.9880638 10.4130831,43.3959519 C10.4130831,39.8038399 13.2255312,36.881413 16.6824622,36.881413 C20.1393933,36.881413 22.9511424,39.8038399 22.9511424,43.3959519 C22.9511424,46.9880638 20.1393933,49.9104908 16.6824622,49.9104908 Z" id="icon/download-doc"></path>
            </g>
        </g>
    </g>
</svg>