<svg width="20px" height="20px" viewBox="0 0 20 20" version="1.1" xmlns="http://www.w3.org/2000/svg" xmlns:xlink="http://www.w3.org/1999/xlink">
<g id="Page-1" stroke="none" stroke-width="1" fill="none" fill-rule="evenodd">
<g id="version-finale-messagerie-copy-3" transform="translate(-976.000000, -70.000000)">
<g id="Filtre-non-lu" transform="translate(976.000000, 70.000000)">
        <path id="Oval-2" stroke="#000000" stroke-width="1.5" d="M19.25,10 C19.25,15.384 15.384,19.25 10,19.25 C4.616,19.25 0.75,15.384 0.75,10 C0.75,4.616 4.616,0.75 10,0.75 C15.384,0.75 19.25,4.616 19.25,10 Z"></path>
<path d="M14.3055556,10 L5.69444444,10 C5.3125,10 5,10.225 5,10.5 C5,10.775 5.3125,11 5.69444444,11 L14.3055556,11 C14.6875,11 15,10.775 15,10.5 C15,10.225 14.6875,10 14.3055556,10 Z M15.1666667,13 L4.83333333,13 C4.375,13 4,13.225 4,13.5 C4,13.775 4.375,14 4.83333333,14 L15.1666667,14 C15.625,14 16,13.775 16,13.5 C16,13.225 15.625,13 15.1666667,13 Z M13.4444444,7 L6.55555556,7 C6.25,7 6,7.225 6,7.5 C6,7.775 6.25,8 6.55555556,8 L13.4444444,8 C13.75,8 14,7.775 14,7.5 C14,7.225 13.75,7 13.4444444,7 Z" id="Combined-Shape" fill="#000000" fill-rule="nonzero" transform="translate(10.000000, 10.500000) scale(1, -1) translate(-10.000000, -10.500000) "></path>
        </g>
        </g>
        </g>
        </svg>
