<?xml version="1.0" encoding="UTF-8"?>
<svg width="26px" height="25px" viewBox="0 0 26 25" version="1.1" xmlns="http://www.w3.org/2000/svg" xmlns:xlink="http://www.w3.org/1999/xlink">
    <title>7CC4E587-A652-4AC8-A1D4-222024FFA519</title>
    <g id="Plateforme" stroke="none" stroke-width="1" fill="none" fill-rule="evenodd">
        <g id="1.2_EspaceCaDyCo_survols" transform="translate(-696.000000, -152.000000)">
            <g id="Content" transform="translate(80.000000, 94.000000)">
                <g id="btn_ajout" transform="translate(456.000000, 58.000000)">
                    <g id="icon/fichier_ajout" transform="translate(160.000000, 0.000000)">
                        <path d="M10,8 L18,8 L18,23 C18,24.1045695 17.1045695,25 16,25 L2,25 C0.8954305,25 0,24.1045695 0,23 L0,2 C0,0.8954305 0.8954305,0 2,0 L10,0 L10,8 Z M9,1 L2,1 C1.48716416,1 1.06449284,1.38604019 1.00672773,1.88337887 L1,2 L1,23 C1,23.5128358 1.38604019,23.9355072 1.88337887,23.9932723 L2,24 L16,24 C16.5128358,24 16.9355072,23.6139598 16.9932723,23.1166211 L17,23 L17,9 L9,9 L9,1 Z" id="Combined-Shape" fill="#0B3C5F" fill-rule="nonzero"></path>
                        <polygon id="Rectangle" fill="#B3C3CE" fill-rule="nonzero" points="10 0 18 8 10 8"></polygon>
                        <g id="icon/add_element_ON" transform="translate(11.000000, 10.000000)">
                            <circle id="Oval" fill="#27AAE1" cx="7.5" cy="7.5" r="7.5"></circle>
                            <polygon id="+" fill="#FFFFFF" points="8.12533333 11.4293333 8.12533333 8.01466667 11.436 8.01466667 11.436 6.836 8.12533333 6.836 8.12533333 3.456 6.912 3.456 6.912 6.836 3.636 6.836 3.636 8.01466667 6.912 8.01466667 6.912 11.4293333"></polygon>
                        </g>
                    </g>
                </g>
            </g>
        </g>
    </g>
</svg>