<?xml version="1.0" encoding="UTF-8"?>
<svg width="13px" height="15px" viewBox="0 0 13 15" version="1.1" xmlns="http://www.w3.org/2000/svg" xmlns:xlink="http://www.w3.org/1999/xlink">
    <title>3EFB8714-EC7F-4F5F-B5E4-9E4408C9228D</title>
    <g id="Plateforme" stroke="none" stroke-width="1" fill="none" fill-rule="evenodd">
        <g id="M1.7_EspaceCaDyCo_optionsDossier" transform="translate(-267.000000, -136.000000)" fill="#0B3C5F" fill-rule="nonzero">
            <g id="Actions" transform="translate(90.000000, 65.000000)">
                <g id="duplicate" transform="translate(19.000000, 63.000000)">
                    <g id="icon/dupicate" transform="translate(158.000000, 8.000000)">
                        <path d="M11,0 C12.1045695,0 13,0.8954305 13,2 L13,2 L13,10 C13,11.1045695 12.1045695,12 11,12 L11,12 L10,12 L10,13 C10,14.0543618 9.18412221,14.9181651 8.14926234,14.9945143 L8,15 L2,15 C0.945638205,15 0.0818348781,14.1841222 0.00548573643,13.1492623 L0,13 L0,5 C0,3.9456382 0.815877791,3.08183488 1.85073766,3.00548574 L2,3 L3,3 L3,2 C3,0.945638205 3.81587779,0.0818348781 4.85073766,0.00548573643 L5,0 Z M3,4 L2,4 C1.48716416,4 1.06449284,4.38604019 1.00672773,4.88337887 L1,5 L1,13 C1,13.5128358 1.38604019,13.9355072 1.88337887,13.9932723 L2,14 L8,14 C8.51283584,14 8.93550716,13.6139598 8.99327227,13.1166211 L9,13 L9,12 L5,12 C3.9456382,12 3.08183488,11.1841222 3.00548574,10.1492623 L3,10 L3,4 Z M4,10 C4,10.5522847 4.44771525,11 5,11 L5,11 L11,11 C11.5522847,11 12,10.5522847 12,10 L12,10 L12,2 C12,1.44771525 11.5522847,1 11,1 L11,1 L5,1 C4.44771525,1 4,1.44771525 4,2 L4,2 Z"></path>
                    </g>
                </g>
            </g>
        </g>
    </g>
</svg>