<svg xmlns="http://www.w3.org/2000/svg" width="18" height="18" viewBox="0 0 18 18"><defs><clipPath id="a"><path d="M18,0 L18,18 L0,18 L0,0 L18,0 Z"/></clipPath><clipPath id="b"><path d="M10.188675,0 L11.249325,1.060425 L10.06065,2.25 L12.75075,2.25 C14.407425,2.25 15.75,3.59415 15.75,5.250825 L15.75,12.10635 C17.041275,12.440925 18,13.60395 18,15.000075 C18,16.65675 16.65675,18 15.000075,18 C13.3434,18 11.999925,16.65675 11.999925,15.000075 C11.999925,13.60395 12.958875,12.440925 14.249925,12.10635 L14.249925,5.250825 C14.249925,4.422375 13.5792,3.75075 12.75075,3.75075 L10.06065,3.750075 L11.25,4.939425 L10.189575,6.0003 L7.71975,3.530475 C7.4268,3.2373 7.4268,2.7621 7.71975,2.469825 L10.188675,0 Z M2.999925,0 C4.6566,0 6.000075,1.343475 6.000075,2.999925 C6.000075,4.39605 5.042025,5.559075 3.750075,5.89365 L3.750075,12.749175 C3.750075,13.577625 4.4208,14.24925 5.24925,14.24925 L7.93935,14.249925 L6.75,13.060575 L7.81065,11.999925 L10.28025,14.46975 C10.5732,14.7627 10.5732,15.238125 10.28025,15.530175 L7.811325,18 L6.750675,16.93935 L7.93935,15.75 L5.24925,15.75 C3.592575,15.75 2.25,14.40585 2.25,12.749175 L2.25,5.89365 C0.95805,5.559075 0,4.39605 0,2.999925 C0,1.343475 1.34325,0 2.999925,0 Z M15.000075,13.5 C14.171625,13.5 13.5,14.171625 13.5,15.000075 C13.5,15.828525 14.171625,16.499925 15.000075,16.499925 C15.828525,16.499925 16.499925,15.828525 16.499925,15.000075 C16.499925,14.171625 15.828525,13.5 15.000075,13.5 Z M2.999925,1.49985 C2.171475,1.49985 1.500075,2.1717 1.500075,2.999925 C1.500075,3.828375 2.171475,4.5 2.999925,4.5 C3.828375,4.5 4.5,3.828375 4.5,2.999925 C4.5,2.1717 3.828375,1.49985 2.999925,1.49985 Z"/></clipPath></defs><g clip-path="url(#a)"><g clip-path="url(#b)"><polygon fill="#093B60" points="0 0 18 0 18 18 0 18 0 0"/></g></g></svg>