<?xml version="1.0" encoding="UTF-8"?>
<svg width="18px" height="14px" viewBox="0 0 18 14" version="1.1" xmlns="http://www.w3.org/2000/svg" xmlns:xlink="http://www.w3.org/1999/xlink">
    <title>B993F1B0-4181-467D-934D-72FE6528F26A</title>
    <g id="Plateforme" stroke="none" stroke-width="1" fill="none" fill-rule="evenodd">
        <g id="3-Messagerie" transform="translate(-1013.000000, -103.000000)" fill="#0B3C5F" fill-rule="nonzero">
            <g id="Group-2" transform="translate(867.000000, 91.000000)">
                <g id="answer-all" transform="translate(139.000000, 2.000000)">
                    <g id="icon/answer_all" transform="translate(7.000000, 10.000000)">
                        <path d="M8.94686649,0.257555848 C9.19209809,0.00919842313 9.58038147,-0.073587385 9.90735695,0.0712877792 C10.2547684,0.216162943 10.4591281,0.547306176 10.4591281,0.899145861 L10.4591281,0.899145861 L10.4591281,3.27923784 C14.7711172,3.90013141 18,7.68758213 18,12.1166229 C18,12.5512484 17.979564,12.9651774 17.9182561,13.3791064 C17.8773842,13.6895532 17.6730245,13.9172142 17.366485,13.9793035 C17.3256131,14 17.2643052,14 17.2234332,14 C16.9782016,14 16.753406,13.8758213 16.6307902,13.6481603 C15.3024523,11.4543364 13.013624,10.0469777 10.479564,9.88140604 L10.479564,9.88140604 L10.479564,12.5305519 C10.479564,12.903088 10.2547684,13.2135348 9.92779292,13.35841 C9.60081744,13.5032852 9.21253406,13.4204993 8.96730245,13.1721419 L8.96730245,13.1721419 L3.30653951,7.45992116 C3.10217984,7.25295664 3,7.00459921 3,6.71484888 C3,6.42509855 3.10217984,6.17674113 3.30653951,5.96977661 L3.30653951,5.96977661 Z M6.90735695,0.0712877792 C7.0661851,0.137521217 7.19511402,0.242686511 7.28828549,0.370962588 L1.559,6.19 L1.04223433,6.71484888 L1.04223433,6.73554534 L6.4373297,12.1994087 L6.437,12.192 L7.2983522,13.068556 C7.22673482,13.1623975 7.13658326,13.2423096 7.03283211,13.3041279 L6.92779292,13.35841 C6.63714805,13.4871879 6.29806237,13.4360856 6.05406421,13.2487103 L5.96730245,13.1721419 L0.30653951,7.45992116 C0.102179837,7.25295664 -2.62012634e-14,7.00459921 -2.62012634e-14,6.71484888 C-2.62012634e-14,6.47339028 0.0709582198,6.26067674 0.212874659,6.07670828 L0.30653951,5.96977661 L5.94686649,0.257555848 C6.19209809,0.00919842313 6.58038147,-0.073587385 6.90735695,0.0712877792 Z M9.4373297,1.25098555 L4.04223433,6.71484888 L4.04223433,6.73554534 L9.4373297,12.1994087 L9.4373297,9.73653088 C9.4373297,9.48817346 9.53950954,9.23981603 9.72343324,9.07424442 C9.90735695,8.9086728 10.1321526,8.80519054 10.3773842,8.82588699 C13.013624,8.9500657 15.4250681,10.2539422 16.9986376,12.3649803 L16.9986376,12.3649803 L16.9986376,12.1166229 C16.9986376,8.18429698 14.0967302,4.8107753 10.2343324,4.29336399 C9.78474114,4.23127464 9.4373297,3.83804205 9.4373297,3.38272011 L9.4373297,3.38272011 L9.4373297,1.25098555 Z"></path>
                    </g>
                </g>
            </g>
        </g>
    </g>
</svg>