<?xml version="1.0" encoding="UTF-8"?>
<svg width="34px" height="34px" viewBox="0 0 34 34" version="1.1" xmlns="http://www.w3.org/2000/svg" xmlns:xlink="http://www.w3.org/1999/xlink">
    <title>208A585D-4B3E-47E6-8F9B-9BC4BA1F8E91</title>
    <g id="Plateforme" stroke="none" stroke-width="1" fill="none" fill-rule="evenodd">
        <g id="T1_EspaceCaDyCo" transform="translate(-23.000000, -248.000000)" fill-rule="nonzero">
            <g id="menu" transform="translate(22.000000, 110.000000)">
                <g id="icon/cadyco-messagerie" transform="translate(1.000000, 138.000000)">
                    <g id="icon/cadyco-messagerie_sansNotif" transform="translate(0.096296, 0.749471)">
                        <path d="M16.5765017,0 C25.6616132,0.00884167578 33.0179423,7.25901581 32.9999671,16.1802667 C32.9999671,25.1280426 25.5895806,32.4047417 16.4774569,32.4047417 C14.6046093,32.4135834 12.7497699,32.0952831 10.9849713,31.4675241 L10.9849713,31.4675241 L2.16998203,32.9882923 C1.99890461,33.0148174 1.81882311,32.997134 1.65674976,32.9264006 C1.20654602,32.7407254 0.990448228,32.2190665 1.18853787,31.7681411 L1.18853787,31.7681411 L3.59262584,26.2863021 C1.26957455,23.4304408 0,19.8849288 0,16.2333167 C0,7.28554084 7.41035356,0.00884167578 16.5224773,0.00884167578 C16.5494895,0.00884167578 16.5674976,0.00884167578 16.5765017,0 Z M16.5314813,1.76829876 C8.41880994,1.76829876 1.80981903,8.2492835 1.80981903,16.2244751 C1.80981903,18.0193352 2.15197388,19.7965121 2.81827541,21.4675888 C3.41254435,22.961832 4.25892738,24.3411334 5.32140821,25.552443 C5.54651008,25.8088516 5.60053452,26.1713603 5.4654734,26.480819 L5.4654734,26.480819 L3.5025851,30.9635486 L10.9219427,29.6903473 C11.0840161,29.6638222 11.2460894,29.6726639 11.3991587,29.7345556 C13.0288962,30.3357896 14.7486745,30.6452482 16.486461,30.6452482 C24.5991323,30.6452482 31.2081233,24.1642999 31.2081233,16.1802667 L31.2081233,16.1802667 L31.2081233,16.1272166 C31.1991192,8.17855009 24.6261446,1.7506518 16.5314813,1.76829876 Z" id="Shape" fill="#F5F5F5"></path>
                        <path d="M20.8303474,16.3176312 C21.3833696,16.3176312 21.8358424,16.7701039 21.8358424,17.3231261 C21.8358424,17.8761483 21.3833696,18.3286211 20.8303474,18.3286211 L20.8303474,18.3286211 L8.36221022,18.3286211 C7.809188,18.3286211 7.35671528,17.8761483 7.35671528,17.3231261 C7.35671528,16.7701039 7.809188,16.3176312 8.36221022,16.3176312 L8.36221022,16.3176312 Z M13.7918829,11.2901565 C14.3449051,11.2901565 14.7973778,11.7426292 14.7973778,12.2956514 C14.7973778,12.8486737 14.3449051,13.3011464 13.7918829,13.3011464 L13.7918829,13.3011464 L8.36221022,13.3011464 C7.809188,13.3011464 7.35671528,12.8486737 7.35671528,12.2956514 C7.35671528,11.7426292 7.809188,11.2901565 8.36221022,11.2901565 L8.36221022,11.2901565 Z" id="Combined-Shape" fill="#FBDC47"></path>
                    </g>
                </g>
            </g>
        </g>
    </g>
</svg>