<svg width="25" height="24" viewBox="0 0 25 24" fill="none" xmlns="http://www.w3.org/2000/svg">
<path d="M16.6679 0.973042C16.9182 0.931489 17.175 0.989834 17.3817 1.13524C17.5884 1.28065 17.7281 1.5012 17.7702 1.74838L20.136 15.6357C20.2197 16.1485 19.8687 16.6319 19.35 16.7181C18.8959 16.7936 18.4623 16.5398 18.3003 16.1321L18.1326 15.999C17.1681 15.2642 13.1168 12.6181 6.14103 13.7623L5.59412 10.8394L5.88316 8.2919C13.9151 6.77361 15.8688 1.80987 15.8688 1.80987L15.8717 1.83078C15.8853 1.66143 15.945 1.4973 16.0466 1.35665C16.1694 1.18649 16.3451 1.0623 16.5452 1.00166L16.6679 0.973042Z" fill="#C4DAFF"/>
<path d="M7.29108 7.95947L8.1837 13.5421L5.39329 14.0363L6.86606 21.6407C6.9251 22.0166 6.81364 22.3971 6.57119 22.6687L6.47421 22.7652C6.16531 23.0382 5.7438 23.1141 5.36847 22.9643C4.99314 22.8144 4.721 22.4616 4.65457 22.0388L3.17953 14.4289L2.08709 14.6229C1.44632 14.7364 0.839416 14.2815 0.731494 13.6069L0.229648 10.468C0.12177 9.79328 0.553765 9.15426 1.19454 9.04067L7.29108 7.95947Z" fill="#306CD3"/>
<path fill-rule="evenodd" clip-rule="evenodd" d="M19.3109 4.6279C19.342 4.70174 19.4075 4.74867 19.4793 4.7486C19.5359 4.74855 19.5893 4.71908 19.6244 4.66855L20.7196 3.10909C20.7614 3.04956 20.7722 2.96911 20.7479 2.89807C20.7236 2.82702 20.6679 2.77617 20.6017 2.76466C20.5356 2.75315 20.4692 2.78273 20.4274 2.84227L19.3334 4.40246C19.2885 4.4664 19.2797 4.55406 19.3109 4.6279ZM21.9017 12.6436C21.9312 12.6647 21.9653 12.6759 22.0001 12.6759C22.0836 12.676 22.1571 12.613 22.1801 12.5215C22.2031 12.4299 22.1701 12.3321 22.0993 12.2817L20.6116 11.2263C20.524 11.1656 20.4099 11.1967 20.3558 11.296C20.3017 11.3953 20.3277 11.5257 20.4142 11.5885L21.9017 12.6436ZM21.6347 6.36993C21.546 6.37 21.4694 6.29899 21.4515 6.19993C21.4335 6.10088 21.479 6.00106 21.5604 5.96096L23.1687 5.1685C23.23 5.13817 23.3009 5.14745 23.3546 5.19285C23.4083 5.23825 23.4367 5.31287 23.429 5.3886C23.4214 5.46433 23.3789 5.52967 23.3176 5.56L21.7089 6.35295C21.6854 6.36432 21.6602 6.3701 21.6347 6.36993ZM23.8064 9.4091H23.8194C23.9177 9.4053 23.9966 9.31529 23.9999 9.20318C24.0032 9.09107 23.9298 8.99521 23.8319 8.98388L22.0839 8.8478C21.983 8.84361 21.8975 8.93148 21.8906 9.04631C21.8837 9.16115 21.958 9.26149 22.0584 9.27302L23.8064 9.4091Z" fill="#306CD3"/>
<path d="M19.4793 4.7486L19.4791 4.4986H19.4791L19.4793 4.7486ZM19.3109 4.6279L19.0805 4.72501L19.3109 4.6279ZM19.6244 4.66855L19.4198 4.52487L19.4191 4.52588L19.6244 4.66855ZM20.7196 3.10909L20.9242 3.25277L20.9242 3.25273L20.7196 3.10909ZM20.7479 2.89807L20.9844 2.81712L20.9844 2.81712L20.7479 2.89807ZM20.6017 2.76466L20.6446 2.51836L20.6017 2.76466ZM20.4274 2.84227L20.2228 2.69862L20.2227 2.69874L20.4274 2.84227ZM19.3334 4.40246L19.538 4.54618L19.5381 4.54598L19.3334 4.40246ZM22.0001 12.6759L22.0005 12.4259H22.0004L22.0001 12.6759ZM21.9017 12.6436L22.0468 12.4401L22.0463 12.4397L21.9017 12.6436ZM22.1801 12.5215L21.9377 12.4605L21.9377 12.4605L22.1801 12.5215ZM22.0993 12.2817L22.2441 12.0779L22.2439 12.0778L22.0993 12.2817ZM20.6116 11.2263L20.7563 11.0224L20.754 11.0208L20.6116 11.2263ZM20.3558 11.296L20.1363 11.1764L20.1363 11.1764L20.3558 11.296ZM20.4142 11.5885L20.2674 11.7909L20.2696 11.7924L20.4142 11.5885ZM21.4515 6.19993L21.6975 6.15528L21.6975 6.15528L21.4515 6.19993ZM21.6347 6.36993L21.6364 6.11993L21.6345 6.11993L21.6347 6.36993ZM21.5604 5.96096L21.6709 6.18525L21.6709 6.18522L21.5604 5.96096ZM23.1687 5.1685L23.2792 5.39275L23.2795 5.39259L23.1687 5.1685ZM23.3546 5.19285L23.1932 5.38376L23.1932 5.38376L23.3546 5.19285ZM23.3176 5.56L23.4281 5.78424L23.4284 5.78409L23.3176 5.56ZM21.7089 6.35295L21.8179 6.57793L21.8194 6.57719L21.7089 6.35295ZM23.8194 9.4091V9.65929L23.829 9.65891L23.8194 9.4091ZM23.8064 9.4091L23.787 9.65834L23.7967 9.6591H23.8064V9.4091ZM23.8319 8.98388L23.8607 8.73536L23.8513 8.73463L23.8319 8.98388ZM22.0839 8.8478L22.1033 8.59839L22.0943 8.59801L22.0839 8.8478ZM21.8906 9.04631L22.1401 9.06129V9.06129L21.8906 9.04631ZM22.0584 9.27302L22.0299 9.52155L22.039 9.52226L22.0584 9.27302ZM19.4791 4.4986C19.522 4.49855 19.539 4.52561 19.5412 4.53079L19.0805 4.72501C19.1449 4.87787 19.293 4.9988 19.4796 4.9986L19.4791 4.4986ZM19.4191 4.52588C19.4258 4.5162 19.4457 4.49863 19.4791 4.4986L19.4795 4.9986C19.626 4.99848 19.7527 4.92196 19.8297 4.81122L19.4191 4.52588ZM20.515 2.96541L19.4198 4.52487L19.829 4.81223L20.9242 3.25277L20.515 2.96541ZM20.5113 2.97902C20.5106 2.97677 20.5106 2.9755 20.5107 2.97472C20.5108 2.97398 20.5114 2.97058 20.515 2.96545L20.9242 3.25273C21.0137 3.12529 21.0336 2.96094 20.9844 2.81712L20.5113 2.97902ZM20.5589 3.01095C20.5228 3.00467 20.5123 2.98178 20.5113 2.97902L20.9844 2.81712C20.9348 2.67227 20.8129 2.54767 20.6446 2.51836L20.5589 3.01095ZM20.632 2.98591C20.6282 2.99129 20.6204 2.99929 20.6071 3.00522C20.5935 3.01129 20.5764 3.014 20.5589 3.01095L20.6446 2.51836C20.4733 2.48854 20.3143 2.56825 20.2228 2.69862L20.632 2.98591ZM19.5381 4.54598L20.6321 2.98579L20.2227 2.69874L19.1287 4.25893L19.5381 4.54598ZM19.5412 4.53079C19.5426 4.53395 19.5425 4.53569 19.5424 4.53637C19.5423 4.53702 19.5419 4.54064 19.538 4.54618L19.1289 4.25873C19.0329 4.39531 19.0169 4.57426 19.0805 4.72501L19.5412 4.53079ZM22.0004 12.4259C22.0197 12.4259 22.0359 12.4323 22.0468 12.4401L21.7566 12.8472C21.8265 12.8971 21.9109 12.9258 21.9999 12.9259L22.0004 12.4259ZM21.9377 12.4605C21.9381 12.4586 21.9405 12.4514 21.95 12.4433C21.9598 12.4349 21.9775 12.4259 22.0005 12.4259L21.9998 12.9259C22.2176 12.9262 22.3766 12.765 22.4226 12.5824L21.9377 12.4605ZM21.9544 12.4855C21.9423 12.4769 21.9387 12.4682 21.938 12.466C21.9372 12.4637 21.9372 12.4622 21.9377 12.4605L22.4226 12.5824C22.4679 12.4022 22.408 12.1944 22.2441 12.0779L21.9544 12.4855ZM20.467 11.4302L21.9546 12.4856L22.2439 12.0778L20.7563 11.0224L20.467 11.4302ZM20.5753 11.4156C20.5718 11.422 20.5603 11.436 20.5368 11.4424C20.5122 11.4491 20.4865 11.4437 20.4693 11.4318L20.754 11.0208C20.5309 10.8663 20.2535 10.9612 20.1363 11.1764L20.5753 11.4156ZM20.561 11.3861C20.5753 11.3964 20.5774 11.4066 20.5774 11.4069C20.5775 11.4075 20.5782 11.4103 20.5753 11.4156L20.1363 11.1764C20.0274 11.3762 20.0704 11.6479 20.2674 11.7908L20.561 11.3861ZM22.0463 12.4397L20.5589 11.3846L20.2696 11.7924L21.757 12.8475L22.0463 12.4397ZM21.2055 6.24458C21.2408 6.43936 21.4031 6.62011 21.6349 6.61993L21.6345 6.11993C21.6591 6.11991 21.6772 6.13014 21.6866 6.13884C21.6956 6.14716 21.6972 6.15408 21.6975 6.15528L21.2055 6.24458ZM21.45 5.73667C21.2542 5.83309 21.1706 6.05211 21.2055 6.24458L21.6975 6.15528C21.6976 6.15634 21.6978 6.15837 21.6961 6.16207C21.6945 6.16567 21.688 6.17682 21.6709 6.18525L21.45 5.73667ZM23.0582 4.94424L21.4499 5.73671L21.6709 6.18522L23.2792 5.39275L23.0582 4.94424ZM23.516 5.00194C23.389 4.89458 23.2116 4.86835 23.0579 4.94441L23.2795 5.39259C23.2661 5.39925 23.2492 5.40241 23.232 5.40016C23.2149 5.39792 23.2017 5.39096 23.1932 5.38376L23.516 5.00194ZM23.6778 5.41366C23.6928 5.26391 23.6385 5.10551 23.516 5.00194L23.1932 5.38376C23.1851 5.3769 23.1821 5.37067 23.1811 5.36822C23.1802 5.36571 23.1802 5.36429 23.1803 5.36354L23.6778 5.41366ZM23.4284 5.78409C23.5767 5.71074 23.6627 5.56359 23.6778 5.41366L23.1803 5.36354C23.1804 5.36278 23.1808 5.35974 23.1838 5.35506C23.1869 5.35037 23.1938 5.34232 23.2068 5.33591L23.4284 5.78409ZM21.8194 6.57719L23.4281 5.78424L23.2071 5.33576L21.5984 6.12871L21.8194 6.57719ZM21.633 6.61992C21.6977 6.62036 21.7608 6.60563 21.8179 6.57792L21.5999 6.12798C21.6101 6.12302 21.6226 6.11984 21.6364 6.11994L21.633 6.61992ZM23.8194 9.1591H23.8064V9.6591H23.8194V9.1591ZM23.75 9.1958C23.75 9.19558 23.7502 9.18998 23.7573 9.18195C23.7647 9.17351 23.7824 9.16034 23.8097 9.15929L23.829 9.65891C24.0856 9.64899 24.2434 9.42534 24.2498 9.21055L23.75 9.1958ZM23.8032 9.23222C23.7766 9.22915 23.7611 9.21524 23.7554 9.20776C23.7498 9.20055 23.75 9.19599 23.75 9.1958L24.2498 9.21055C24.2561 8.99643 24.1132 8.76478 23.8607 8.73554L23.8032 9.23222ZM22.0645 9.09705L23.8125 9.23313L23.8513 8.73463L22.1033 8.59855L22.0645 9.09705ZM22.1401 9.06129C22.1401 9.06155 22.1396 9.06811 22.1311 9.07685C22.1221 9.08613 22.1018 9.09876 22.0735 9.09758L22.0943 8.59801C21.8284 8.58698 21.6542 8.81124 21.641 9.03133L22.1401 9.06129ZM22.0869 9.02465C22.1141 9.02778 22.1297 9.04231 22.1352 9.04967C22.1404 9.05676 22.1401 9.06112 22.1401 9.06129L21.641 9.03133C21.6279 9.24985 21.7706 9.49163 22.0299 9.52139L22.0869 9.02465ZM23.8258 9.15985L22.0778 9.02377L22.039 9.52226L23.787 9.65834L23.8258 9.15985Z" fill="#306CD3"/>
</svg>
