<svg width="24" height="24" viewBox="0 0 24 24" fill="none" xmlns="http://www.w3.org/2000/svg">
<path d="M10.3188 14.8843V16.1014C10.3188 17.0298 11.0715 17.7825 12 17.7825C12.9284 17.7825 13.6811 17.0298 13.6811 16.1014V14.8843H10.3188Z" fill="#FDB441"/>
<path d="M18.8591 13.4483V9.25715C18.8591 6.04901 16.6565 3.35564 13.6811 2.6059V2.15188C13.6811 1.22336 12.9285 0.470703 12 0.470703C11.0715 0.470703 10.3189 1.22336 10.3189 2.15183V2.60586C7.34349 3.35555 5.1409 6.04896 5.1409 9.2571V13.4483C5.1409 14.2415 4.49789 14.8845 3.70471 14.8845H20.2953C19.5021 14.8845 18.8591 14.2415 18.8591 13.4483Z" fill="#FDCB50"/>
<path d="M20.2955 14.8844H3.70447C4.10117 14.8844 4.46023 14.724 4.72 14.4637C4.97976 14.204 5.1407 13.8449 5.1407 13.4482V9.25714C5.1407 7.54843 5.76564 5.98561 6.79953 4.78467C6.79717 4.86279 6.79623 4.94137 6.79623 5.02043C6.79623 9.70326 10.5925 13.4995 15.2753 13.4995C16.5562 13.4995 17.7708 13.2153 18.8593 12.707V13.4482C18.8593 14.2416 19.5021 14.8844 20.2955 14.8844Z" fill="#FDB441"/>
<path d="M11.9919 23.9999C9.19186 23.9999 6.5753 22.4937 5.1633 20.0692C5.03252 19.8445 5.10857 19.5565 5.33314 19.4257C5.55779 19.2949 5.84589 19.3709 5.97662 19.5955C7.22066 21.7317 9.52561 23.0588 11.9919 23.0588C14.4707 23.0588 16.7815 21.7216 18.0224 19.5692C18.1521 19.344 18.4399 19.2666 18.665 19.3965C18.8902 19.5263 18.9675 19.8141 18.8377 20.0392C17.4294 22.4823 14.8062 23.9999 11.9919 23.9999Z" fill="#FDCB50"/>
<path d="M11.995 21.1265C10.2138 21.1265 8.54871 20.1673 7.64951 18.6232C7.51873 18.3986 7.59478 18.1105 7.81934 17.9797C8.04405 17.8489 8.33205 17.9249 8.46282 18.1495C9.19407 19.4053 10.5475 20.1854 11.995 20.1854C13.4498 20.1854 14.8067 19.3993 15.5362 18.1341C15.6659 17.9089 15.9536 17.8316 16.1789 17.9614C16.404 18.0912 16.4814 18.379 16.3515 18.6041C15.4546 20.1601 13.7852 21.1265 11.995 21.1265Z" fill="#FDCB50"/>
</svg>
