<svg width="26px" height="18px" viewBox="0 0 26 18" version="1.1" xmlns="http://www.w3.org/2000/svg" xmlns:xlink="http://www.w3.org/1999/xlink">
<g id="Page-1" stroke="none" stroke-width="1" fill="none" fill-rule="evenodd">
<g id="version-finale-messagerie-copy-2" transform="translate(-1198.000000, -425.000000)">
<g id="Fichier" transform="translate(1044.000000, 412.000000)">
<g id="icon/FolderSave" transform="translate(154.500000, 13.000000)">
<path d="M5.04102217,0 L10.1055545,0 C10.437248,0 10.743618,0.182553999 10.9091256,0.478703364 L11.7426779,1.65197857 C11.9081855,1.94812793 12.2146006,2.13068193 12.5462489,2.13068193 L24.8823529,2.13068193 L24.8823529,15.526129 C24.8823529,16.2296469 24.3288068,16.8 23.6460202,16.8 L4.94221503,16.8 C4.25942838,16.8 3.70588235,16.2296469 3.70588235,15.526129 L3.70588235,3.61664725 C3.70588235,2.63198322 3.85352779,1.65319 4.14361828,0.714979864 L4.14361828,0.714979864 C4.24988682,0.29391287 4.61879692,0 5.04102217,0 Z" id="Path" fill="#F6C358" fill-rule="nonzero"></path>
<rect id="Rectangle" fill="#EBF0F3" fill-rule="nonzero" x="6.05882353" y="2.4" width="16.4705882" height="7.2"></rect>
<path d="M23.9551054,1.2 L18.851468,1.2 C18.4885279,1.2 18.1589152,1.42241496 18.0081047,1.76912203 L17.13476,3.77655599 C16.9839042,4.12326307 16.6543369,4.34567804 16.2913966,4.34567804 L3.70588235,4.34567804 L3.70588235,16.7015108 C3.70588235,17.4186245 4.2594272,18 4.9422124,18 L23.6460229,18 C24.3288081,18 24.8823529,17.4186245 24.8823529,16.7015108 L24.8823529,2.17386693 C24.8823529,1.63604351 24.467183,1.2 23.9551054,1.2 Z" id="Path" fill="#FCD462" fill-rule="nonzero"></path>
<g id="ArrowSave" transform="translate(0.000000, 6.964954)">
<path d="M0,5.21151625 C2.73485479,5.21151625 5.73485479,5.21151625 9,5.21151625 C12.2651452,5.21151625 13.2357334,5.21151625 11.9117647,5.21151625" id="Line" stroke="#4E4848" stroke-width="2"></path>
<polygon id="Triangle" fill="#4E4848" points="10.5882353 10.5502912 16.9158565 5.19320924 10.5882353 4.12954338e-05"></polygon>
        </g>
        </g>
        </g>
        </g>
        </g>
        </svg>
