<svg xmlns="http://www.w3.org/2000/svg" width="23" height="24.5" viewBox="0 0 23 24.5">
  <g fill="none" fill-rule="evenodd">
    <path fill="#646464" fill-rule="nonzero" d="M16.8505299,0 C17.5510555,0 18.1292618,0.530604084 18.1948621,1.21113741 L18.2010598,1.34040145 L18.201,2.5 L21.9300428,2.5 C22.4810989,2.5 22.9355686,2.92936892 22.9937154,3.48011112 L23,3.59987281 L23,23.3999315 C23,23.966624 22.5822675,24.4337724 22.0465386,24.4935402 L21.9300428,24.5 L1.06975818,24.5 C0.518702002,24.5 0.0644057861,24.0706311 0.00628209591,23.5197298 L0,23.3999315 L0,3.59987281 C0,3.03336298 0.417559137,2.56622674 0.953264851,2.50645973 L1.06975818,2.5 L4.5,2.5 L4.5,1.34040145 C4.5,0.599002266 5.10622138,0 5.85052989,0 C6.55105554,0 7.12926181,0.530604084 7.19486211,1.21113741 L7.20105978,1.34040145 L7.201,2.5 L15.5,2.5 L15.5,1.34040145 C15.5,0.599002266 16.1062214,0 16.8505299,0 Z M4.5,3.5 L1.06975818,3.5 C1.04591284,3.5 1.01859653,3.52195701 1.00642871,3.5586016 L1,3.59987281 L1,23.3999315 C1,23.4457041 1.02135434,23.4791063 1.04544499,23.4929467 L1.06975818,23.5 L21.9300428,23.5 C21.9539618,23.5 21.9813532,23.4779877 21.993554,23.4412744 L22,23.3999315 L22,3.59987281 C22,3.55431524 21.9785877,3.52091557 21.9544276,3.50706308 L21.9300428,3.5 L16.5,3.5 L16.5,4.11742007 C16.5,4.28053322 16.6193167,4.41881822 16.7795714,4.45084083 L16.8505299,4.45782152 L16.8505299,5.45782152 C16.1500042,5.45782152 15.571798,4.92721744 15.5061977,4.24668411 L15.5,4.11742007 L15.5,3.5 L5.5,3.5 L5.5,4.11742007 C5.5,4.28053322 5.61931672,4.41881822 5.77957141,4.45084083 L5.85052989,4.45782152 L5.85052989,5.45782152 C5.15000424,5.45782152 4.57179797,4.92721744 4.50619767,4.24668411 L4.5,4.11742007 L4.5,3.5 Z M20,7.5 L20,20.5 L3,20.5 L3,7.5 L20,7.5 Z M7,16.501 L3.87705976,16.501228 L3.87705976,19.4972193 L7,19.497 L7,16.501 Z M11,16.501 L8,16.501 L8,19.497 L11,19.497 L11,16.501 Z M15,16.501 L12,16.501 L12,19.497 L15,19.497 L15,16.501 Z M16,16.501 L16,19.497 L19.1223099,19.4972193 L19.1223099,16.501228 L16,16.501 Z M15,12.5 L12,12.5 L12,15.5 L15,15.5 L15,12.5 Z M7,12.501 L3.87705976,12.5017377 L3.87705976,15.497729 L7,15.497 L7,12.501 Z M11,12.501 L8,12.501 L8,15.497 L11,15.497 L11,12.501 Z M19.1223099,12.5017377 L16,12.501 L16,15.497 L19.1223099,15.497729 L19.1223099,12.5017377 Z M7,8.501 L3.87705976,8.50125512 L3.87705976,11.4972465 L7,11.497 L7,8.501 Z M11,8.501 L8,8.501 L8,11.497 L11,11.497 L11,8.501 Z M15,8.501 L12,8.501 L12,11.497 L15,11.497 L15,8.501 Z M19.1223099,8.50125512 L16,8.501 L16,11.497 L19.1223099,11.4972465 L19.1223099,8.50125512 Z M16.8505299,1 C16.6801782,1 16.5395675,1.11789586 16.5070766,1.27225333 L16.5,1.34040145 L16.5,2.5 L17.201,2.5 L17.2010598,1.34040145 C17.2010598,1.15398642 17.0452175,1 16.8505299,1 Z M5.85052989,1 C5.68017821,1 5.53956752,1.11789586 5.5070766,1.27225333 L5.5,1.34040145 L5.5,2.5 L6.201,2.5 L6.20105978,1.34040145 C6.20105978,1.15398642 6.04521753,1 5.85052989,1 Z"/>
    <rect width="4" height="4" x="11.5" y="12" stroke="red"/>
  </g>
</svg>
