<svg xmlns="http://www.w3.org/2000/svg" width="48" height="48" viewBox="0 0 48 48">
  <path fill="#316CD4" fill-rule="evenodd" d="M26.1104637,37.5498546 C26.1104637,36.1976196 25.0111432,35.0999756 23.6573701,35.0999756 L12.8503387,35.0999756 C11.4965655,35.0999756 10.3974813,36.1976196 10.3974813,37.5498546 C10.3974813,38.9018537 11.4965655,39.9997336 12.8503387,39.9997336 L23.6573701,39.9997336 C25.0111432,39.9997336 26.1104637,38.9018537 26.1104637,37.5498546 Z M21.1967161,35.0029998 L15.6311257,25.3780875 C15.291383,26.886758 13.9409175,28.0150756 12.3286753,28.0150756 C12.1422657,28.0150756 11.9596363,27.9999747 11.7814958,27.9709528 L15.8477766,35.0029998 L21.1967161,35.0029998 Z M12.2955988,21.3487526 C14.114569,21.3487526 15.5911976,22.8234462 15.5911976,24.6400328 C15.5911976,26.4566194 14.114569,27.931313 12.2955988,27.931313 C10.4766286,27.931313 9,26.4566194 9,24.6400328 C9,22.8234462 10.4766286,21.3487526 12.2955988,21.3487526 Z M32.5523446,19.2955072 C34.4568412,18.6426308 36.1361814,18.2585027 37.2655069,18.2011666 C37.3531596,18.1966835 37.4375046,18.194088 37.518542,18.1936161 L37.568393,18.1936161 C37.7574015,18.194324 37.926564,18.2065934 38.0737544,18.2301885 C38.4210574,18.2863449 38.6471588,18.4071518 38.7255973,18.5975642 C38.7879701,18.7488088 38.7534761,18.9342663 38.6329832,19.1463862 C38.6287305,19.1539366 38.6242415,19.161487 38.6197526,19.1692734 C38.5921101,19.2157558 38.5606874,19.2634179 38.5250121,19.3124957 C38.517688,19.3228775 38.5098914,19.3330234 38.5020948,19.3436412 C38.4238925,19.4476956 38.3284433,19.5569409 38.2164558,19.6706693 C38.2070053,19.6803432 38.1975549,19.6897813 38.1878682,19.6996912 C38.0980892,19.7891166 37.9983872,19.8816094 37.8894711,19.9759898 C37.7574015,20.090426 37.6118649,20.2081656 37.4530978,20.3285006 C37.4216752,20.3525676 37.3895437,20.3766346 37.3569398,20.4007016 C36.1175168,21.3211464 34.15112,22.3907121 31.8546671,23.3354599 C30.6981716,23.811137 29.578769,24.2056471 28.5574145,24.5076643 C28.2961103,24.5850562 28.0414214,24.6563134 27.7942928,24.7211999 L27.5778781,24.7771203 L27.2853875,24.8488494 L27.1703286,24.8759838 C27.0878737,24.8948599 27.0066001,24.913264 26.9265077,24.9307244 C26.3644438,25.053183 25.855066,25.1367096 25.413495,25.1784729 L25.1602236,25.1982928 C24.3184272,25.2492582 23.7677038,25.1258559 23.6356341,24.8054344 L23.6150794,24.740076 L23.6053928,24.6586729 L23.6051565,24.6456956 C23.5994862,24.1657713 23.6072828,24.1844115 23.616497,24.3238585 C23.6198046,24.3719925 23.6231123,24.4347555 23.6261837,24.4961027 L23.6498097,24.422486 L23.6937542,24.3217349 C23.8428346,24.0211334 24.1764346,23.6624879 24.6595875,23.2696295 L24.9024633,23.0787452 L25.1989704,22.8604905 L25.4418462,22.6915496 L25.8217532,22.4407337 L26.1274744,22.2489056 L26.4941509,22.0287633 L26.9170573,21.7862057 L27.2360091,21.6101863 L27.7416067,21.3426179 L28.0402401,21.1901936 L28.5049646,20.9608492 L28.5864745,20.9219173 L28.7450054,21.3494605 C29.1246761,22.3739596 30.3326765,22.8772431 31.4435737,22.4666884 C32.5542347,22.0561336 33.1429961,20.8884123 32.7630891,19.8639131 L32.5523446,19.2955072 Z M23.9961678,13.9332853 L23.9836459,13.9413076 L12.8713659,21.2977872 C14.481718,21.5573333 15.7133444,22.9534552 15.7133444,24.6346059 C15.7133444,24.7504579 15.7074378,24.86513 15.6960973,24.9779146 L23.0678999,19.9523947 C23.0678999,19.9523947 23.3577917,18.1884252 24.5537427,16.6370475 C25.4269618,15.5908409 26.726395,14.5307131 28.0305534,13.9929809 C29.4240183,13.4186762 30.8822186,13.246432 32.2721396,13.4224514 L28.8666796,8.61707378 C28.473542,8.06235303 27.7494033,7.85164881 27.1195326,8.10859942 L24.521375,9.16849122 C23.8915043,9.42544183 23.522229,10.0823294 23.6304364,10.753138 L23.9961678,13.9332853 Z M23.465054,24.2941287 C22.002601,20.2836699 24.0145961,15.7673322 28.0726078,14.0944398 C32.1577895,12.4099858 36.8090515,14.2296397 38.5788795,18.1570437 C38.5687203,18.1516169 38.5583248,18.1466619 38.5476931,18.141471 C38.3234818,18.0350571 37.993662,17.9767772 37.5745358,17.9744177 C36.0844403,17.9666313 33.3724051,18.651597 30.4231643,19.8648569 C27.4739235,21.0781168 25.0654831,22.4997215 24.0134148,23.5532426 C23.7433689,23.8236424 23.5590857,24.0749302 23.465054,24.2941287 Z"/>
</svg>
