<svg width="30px" height="25px" viewBox="0 0 30 25" version="1.1" xmlns="http://www.w3.org/2000/svg" xmlns:xlink="http://www.w3.org/1999/xlink">
    <g id="Page-1" stroke="none" stroke-width="1" fill="none" fill-rule="evenodd">
        <g id="Icon-MesDocuments" transform="translate(0.000000, 0.000000)" fill="#000" fill-rule="nonzero">
            <path d="M9.69576224,6.91911428e-06 C10.7053165,-0.00207301544 11.6608102,0.464877193 12.2939333,1.26843871 L13.496083,2.78794491 C13.6763635,3.01676856 13.946586,3.14882128 14.2317752,3.14821532 L23.588552,3.1482155 C25.0970324,3.14995432 26.3165317,4.40157957 26.3182181,5.94284449 L26.3170889,7.55519609 L27.8804107,7.55569173 C28.4659933,7.553174 29.0215268,7.80038035 29.4168782,8.22890974 L29.5761281,8.42346719 C29.9771643,8.96724079 30.1023427,9.67312338 29.9142776,10.325046 L26.5194996,22.2702854 C26.1435849,23.5745884 24.9760825,24.4732703 23.6448577,24.4784581 L2.99265545,24.4784581 C1.33901479,24.4764998 0.00189306077,23.1041513 0,21.4138963 L0,2.79434678 C0.00168640651,1.25338528 1.22118412,0.00175943872 2.72998437,6.91911428e-06 Z M9.69633292,1.53536653 L2.72998437,1.53536653 C2.05263572,1.53606479 1.50370486,2.09945644 1.50302853,2.79464888 L1.50302853,21.4138963 C1.50390765,22.2580786 2.170468,22.9421985 2.99298236,22.9431008 C3.65430858,22.9403174 4.23559136,22.4927361 4.42318344,21.841862 L7.83412069,9.84031066 C8.17617535,8.6530489 9.23652231,7.83664034 10.4428129,7.83176186 L24.8151896,7.83176186 L24.8151896,5.94284449 C24.8145132,5.24765205 24.2655824,4.6842604 23.5882337,4.68356625 L14.2317752,4.68356625 C13.4922434,4.68496313 12.7918407,4.34271243 12.3266809,3.75264481 L11.1248776,2.23357746 C10.7762139,1.79091287 10.2509381,1.53418228 9.69633292,1.53536653 Z M27.498474,9.37380777 L10.6854972,9.37380777 C10.0238553,9.37664474 9.44232612,9.82447966 9.25468268,10.4756763 L5.91996078,22.1944599 C5.84458445,22.4600354 5.73060628,22.7124218 5.5818731,22.9431008 L23.3378881,22.9431008 C23.9996873,22.940369 24.5814306,22.492542 24.7692548,21.8412323 L28.0877195,10.1797459 C28.1418017,9.98943656 28.1054,9.78409893 27.989471,9.62553752 C27.873542,9.46697612 27.6916246,9.37380777 27.498474,9.37380777 Z"></path>
        </g>
    </g>
</svg>
