<svg xmlns="http://www.w3.org/2000/svg" width="20" height="20" viewBox="0 0 20 20">
  <path d="M16,2 C16.5522847,2 17,2.44771525 17,3 L17,3 L17,13 C17,13.5522847 16.5522847,14 16,14 L16,14 L14,14 L14,14 L14,16 C14,16.5522847 13.5522847,17 13,17 L13,17 L4,17 C3.44771525,17 3,16.5522847 3,16 L3,16 L3,6 C3,5.44771525 3.44771525,5 4,5 L4,5 L6,5 L6,3 C6,2.44771525 6.44771525,2 7,2 L7,2 Z M13,6 L4,6 L4,16 L13,16 L13,6 Z M9,8.5 L9,10.5 L11,10.5 L11,11.5 L9,11.5 L9,13.5 L8,13.5 L8,11.5 L6,11.5 L6,10.5 L8,10.5 L8,8.5 L9,8.5 Z M16,3 L7,3 L7,5 L13,5 L13,5 L13.1166211,5.00672773 C13.6139598,5.06449284 14,5.48716416 14,6 L14,6 L14,13 L16,13 L16,3 Z"/>
</svg>
