<svg xmlns="http://www.w3.org/2000/svg" width="20" height="20" viewBox="0 0 20 20">
  <path d="M12.4039342,3.45639113 C13.0109679,2.84935747 13.9956101,2.84980358 14.603194,3.45738756 L14.603194,3.45738756 L16.5445966,5.39879009 C17.1521805,6.00637406 17.1526267,6.99101621 16.545593,7.59804987 L16.545593,7.59804987 L8.46374243,15.6799004 L8.46374243,15.6799004 L8.45409772,15.6704289 C8.35462619,15.7731516 8.21159262,15.8538227 8.02047219,15.9024865 L8.02047219,15.9024865 L4.37035676,16.9645077 C3.56313883,17.1700446 2.82939889,16.4365048 3.03471524,15.6292306 L3.03471524,15.6292306 L3.9733452,12.0799812 C4.03663432,11.8311375 4.16535957,11.6545214 4.33080946,11.5457459 L4.32208369,11.5382417 Z M4.93760361,12.6018185 L4.09858725,15.9007096 L7.39671349,15.0609284 L4.93760361,12.6018185 Z M11.869,5.543 L5.647,11.765 L5.71346127,11.8259608 L8.17257115,14.2850707 C8.19506241,14.307562 8.21681158,14.3303374 8.2377997,14.3533553 L14.457,8.133 L11.869,5.543 Z M13.8273364,4.23324521 C13.6486352,4.05454404 13.3590346,4.05441283 13.1804953,4.23295214 L13.1804953,4.23295214 L12.645,4.767 L15.233,7.357 L15.769032,6.82148886 C15.9252539,6.66526696 15.9446812,6.42401374 15.8273812,6.24642558 L15.7687389,6.17464774 Z"/>
</svg>
