<?xml version="1.0" encoding="UTF-8"?>
<svg width="46px" height="48px" viewBox="0 0 46 48" version="1.1" xmlns="http://www.w3.org/2000/svg" xmlns:xlink="http://www.w3.org/1999/xlink">
    <title>icon/fichier copy</title>
    <defs>
        <filter x="-4.3%" y="-3.7%" width="108.7%" height="107.9%" filterUnits="objectBoundingBox" id="filter-1">
            <feOffset dx="0" dy="2" in="SourceAlpha" result="shadowOffsetOuter1"></feOffset>
            <feGaussianBlur stdDeviation="2" in="shadowOffsetOuter1" result="shadowBlurOuter1"></feGaussianBlur>
            <feColorMatrix values="0 0 0 0 0   0 0 0 0 0   0 0 0 0 0  0 0 0 0.5 0" type="matrix" in="shadowBlurOuter1" result="shadowMatrixOuter1"></feColorMatrix>
            <feMerge>
                <feMergeNode in="shadowMatrixOuter1"></feMergeNode>
                <feMergeNode in="SourceGraphic"></feMergeNode>
            </feMerge>
        </filter>
    </defs>
    <g id="Page-1" stroke="none" stroke-width="1" fill="none" fill-rule="evenodd">
        <g id="Espace-selected" transform="translate(-688.000000, -397.000000)" fill="#080808" fill-rule="nonzero">
            <g id="Pannel-détails" filter="url(#filter-1)" transform="translate(670.000000, 110.000000)">
                <g id="icon/fichier-copy" transform="translate(27.000000, 296.000000)">
                    <path d="M15.1515152,0 L15.151,1.199 L3.03030303,1.2 C2.25327903,1.2 1.61286794,1.66324823 1.52534505,2.26005465 L1.51515152,2.4 L1.51515152,27.6 C1.51515152,28.215403 2.10006089,28.7226086 2.85360436,28.7919267 L3.03030303,28.8 L24.2424242,28.8 C25.0194482,28.8 25.6598593,28.3367518 25.7473822,27.7399454 L25.7575758,27.6 L25.757,10.799 L15.1515152,10.8 L13.6363636,10.8 L13.6363636,1.2 L15.1515152,1.2 L15.1515152,9.6 L27.2727273,9.6 L27.2727273,27.6 C27.2727273,28.9254834 25.9160144,30 24.2424242,30 L3.03030303,30 C1.35671288,30 0,28.9254834 0,27.6 L0,2.4 C0,1.0745166 1.35671288,0 3.03030303,0 L15.1515152,0 Z" id="Combined-Shape"></path>
                    <polygon id="Rectangle" points="14.5454545 0 27.2727273 10 14.5454545 10"></polygon>
                </g>
            </g>
        </g>
    </g>
</svg>