<svg width="20px" height="19px" viewBox="0 0 20 19" version="1.1" xmlns="http://www.w3.org/2000/svg" xmlns:xlink="http://www.w3.org/1999/xlink">
<g id="TdB" stroke="none" stroke-width="1" fill="none" fill-rule="evenodd">
<g id="Recherche-Default" transform="translate(-13.000000, -90.000000)">
<rect fill="#FFFFFF" x="0" y="0" width="1292" height="927"></rect>
<g id="select-services" transform="translate(-8.000000, 48.000000)" fill="#000000" fill-rule="nonzero">
<g id="label-recherche-récente" transform="translate(21.000000, 41.000000)">
<g id="history" transform="translate(0.000000, 1.250000)">
<path d="M9.90984002,10.189972 L13.6596672,13.0022918 C13.9359045,13.209466 14.3274489,13.1535321 14.5346269,12.8772998 C14.7418048,12.6010675 14.6858699,12.2095301 14.4096326,12.0023558 L10.9379176,9.37439925 L10.9379176,4.06223967 C10.9379176,3.7169493 10.658243,3.43727972 10.3129464,3.43727972 C9.96764986,3.43727972 9.68797525,3.7169493 9.68797525,4.06223967 L9.68797525,9.68687922 C9.68797525,9.89436593 9.77484624,10.081229 9.90984002,10.189972 Z" id="Path"></path>
<path d="M10.625432,0 C6.05095537,0 2.1445729,3.30166341 1.38210804,7.81199937 L1.14461898,7.458897 C0.951190398,7.17235286 0.562458313,7.09673271 0.27590902,7.29015781 C-0.0106402743,7.48358292 -0.0862617892,7.87230801 0.107166796,8.15885214 L1.35710919,10.033732 C1.45991695,10.189972 1.62740923,10.2921529 1.81333816,10.3118392 L1.87583528,10.3118392 C2.04145265,10.3112142 2.19988285,10.2449685 2.31643998,10.127476 L3.87886797,8.56507611 C4.12291922,8.32102925 4.12291922,7.92480464 3.87886797,7.68075778 C3.63481672,7.43671092 3.23858498,7.43671092 2.99453373,7.68075778 L2.60705158,8.07135775 C3.32670592,3.64226659 7.50057606,0.635584269 11.9294344,1.35522565 C16.3582928,2.07486703 19.3656542,6.24834958 18.6459999,10.6774407 C18.0069669,14.6103137 14.6099359,17.4995036 10.625432,17.4988786 C8.11242286,17.5445007 5.7356574,16.3589516 4.2601004,14.324082 C4.05979713,14.0428501 3.66950262,13.9769168 3.38826558,14.1772165 C3.10702854,14.3775161 3.04109408,14.7678036 3.24139735,15.0490356 C4.9500686,17.415134 7.70744152,18.7966079 10.625432,18.7487985 C15.8030059,18.7487985 20,14.55188 20,9.37439925 C20,4.19691854 15.8030059,0 10.625432,0 Z" id="Path"></path>
        </g>
        </g>
        </g>
        </g>
        </g>
        </svg>
