<?xml version="1.0" encoding="UTF-8"?>
<svg width="8px" height="17px" viewBox="0 0 8 17" version="1.1" xmlns="http://www.w3.org/2000/svg" xmlns:xlink="http://www.w3.org/1999/xlink">
    <title>24115AD6-79B2-4AB3-B892-DECE65ED461F</title>
    <g id="Plateforme" stroke="none" stroke-width="1" fill="none" fill-rule="evenodd">
        <g id="3-Messagerie" transform="translate(-364.000000, -205.000000)" stroke="#000000">
            <g id="icon/pj" transform="translate(364.500000, 206.000000)">
                <path d="M4.00390625,4 L4.00390625,11.4744873 C4.00390625,12.0267721 3.556191,12.4744873 3.00390625,12.4744873 C2.4516215,12.4744873 2.00390625,12.0267721 2.00390625,11.4744873 L2.00390625,2 C2.00390625,0.8954305 2.89933675,2.02906125e-16 4.00390625,0 C5.10847575,-2.02906125e-16 6.00390625,0.8954305 6.00390625,2 L6.00390625,12 C6.00390625,13.6568542 4.6607605,15 3.00390625,15 L3,15 C1.34314575,15 1.57258099e-13,13.6568542 1.5720758e-13,12 L1.5720758e-13,4 L1.5720758e-13,4" transform="translate(3.001953, 7.500000) scale(-1, 1) translate(-3.001953, -7.500000) "></path>
            </g>
        </g>
    </g>
</svg>
