<?xml version="1.0" encoding="UTF-8"?>
<svg width="16px" height="16px" viewBox="0 0 16 16" version="1.1" xmlns="http://www.w3.org/2000/svg" xmlns:xlink="http://www.w3.org/1999/xlink">
    <title>icon/link copy</title>
    <g id="Page-1" stroke="none" stroke-width="1" fill="none" fill-rule="evenodd">
        <g id="preferences" transform="translate(-873.000000, -478.000000)" fill="#000000" fill-rule="nonzero">
            <path d="M878.780036,485.138315 L875.079493,488.938661 C874.452405,489.583628 874.452405,490.632114 875.079493,491.277907 L875.648621,491.861685 C876.258,492.487635 877.318173,492.486808 877.925941,491.861685 L879.674381,490.066526 C879.989133,489.743217 880.498692,489.743217 880.812638,490.066526 C881.12739,490.38901 881.12739,490.912427 880.812638,491.235736 L879.064198,493.030895 C878.45643,493.655191 877.648219,494 876.787684,494 C875.927148,494 875.118937,493.656017 874.510364,493.030068 L873.941236,492.447117 C872.686255,491.157184 872.686255,489.058559 873.941236,487.769451 L877.641779,483.968278 C878.250352,483.343983 879.058563,483 879.918293,483 C880.778024,483 881.58704,483.343983 882.195613,483.969932 L882.763936,484.552883 C883.078688,484.876194 883.078688,485.39961 882.763936,485.72292 C882.44999,486.046231 881.940431,486.046231 881.625679,485.72292 L881.056551,485.138315 C880.448782,484.513194 879.388609,484.513194 878.780036,485.138315 Z M884.077829,488.031795 C883.432578,488.655216 882.575658,489 881.66326,489 C880.750862,489 879.894795,488.655216 879.249544,488.030141 C878.916677,487.706854 878.916677,487.185131 879.250397,486.861019 C879.583265,486.538559 880.123534,486.538559 880.457255,486.861846 C881.101653,487.48692 882.22572,487.48692 882.870118,486.861019 L886.793686,483.061786 C887.115458,482.749248 887.292987,482.334185 887.292987,481.892664 C887.292987,481.450316 887.115458,481.035253 886.793686,480.723542 L886.190257,480.138981 C885.867632,479.825616 885.439172,479.653638 884.982546,479.653638 C884.526773,479.653638 884.098313,479.825616 883.775688,480.138981 L882.081478,481.779389 C881.747757,482.103503 881.207487,482.103503 880.873767,481.779389 C880.540899,481.456931 880.540899,480.933554 880.87462,480.610267 L882.56883,478.969032 C883.213227,478.343957 884.071001,478 884.982546,478 C885.894944,478 886.751864,478.343957 887.397115,478.969032 L888.000544,479.55442 C888.645795,480.178668 889,481.008795 889,481.892664 C889,482.775706 888.645795,483.605832 888.000544,484.230907 L884.077829,488.031795 Z" id="icon/link-copy"></path>
        </g>
    </g>
</svg>