<?xml version="1.0" encoding="UTF-8"?>
<svg width="26px" height="25px" viewBox="0 0 26 25" version="1.1" xmlns="http://www.w3.org/2000/svg" xmlns:xlink="http://www.w3.org/1999/xlink">
    <title>C618F615-6197-465F-8464-8A41F616670D</title>
    <g id="Plateforme" stroke="none" stroke-width="1" fill="none" fill-rule="evenodd">
        <g id="Prive2_TableauDeBord_post" transform="translate(-876.000000, -278.000000)">
            <g id="Flux_actu" transform="translate(563.000000, 258.000000)">
                <g id="icon/cadyco-commu" transform="translate(313.000000, 20.000000)">
                    <g id="icon/cadyco-commu-black" transform="translate(0.742857, 0.000000)">
                        <path d="M12.2571429,0 C19.0265759,0 24.5142857,5.59644063 24.5142857,12.5 C24.5142857,19.4035594 19.0265759,25 12.2571429,25 C5.48770978,25 0,19.4035594 0,12.5 C0,5.59644063 5.48770978,0 12.2571429,0 Z M12.2571429,1.20967742 C6.14281621,1.20967742 1.18617512,6.26452702 1.18617512,12.5 C1.18617512,18.735473 6.14281621,23.7903226 12.2571429,23.7903226 C18.3714695,23.7903226 23.3281106,18.735473 23.3281106,12.5 C23.3281106,6.26452702 18.3714695,1.20967742 12.2571429,1.20967742 Z" id="Oval" fill="#000000" fill-rule="nonzero"></path>
                        <path d="M10.5002269,12.9505355 C10.9865715,13.3712396 11.6149267,13.6244238 12.3006372,13.6244238 C12.9479058,13.6244238 13.5441097,13.3988747 14.0183441,13.0204247 L14.0296125,13.0204631 C14.8478137,13.3116619 15.3419251,13.9912695 15.5119467,15.0592861 L15.5416299,15.2780681 L15.5416299,16.1689101 C15.5416299,16.861955 14.992569,17.4242424 14.3158264,17.4242424 L10.1846001,17.4242424 C9.50815239,17.4242424 8.95909149,16.861955 8.95909149,16.1689101 L8.95909149,15.2780681 C9.01095777,14.1365309 9.52466958,13.3606866 10.5002269,12.9505355 Z M12.3150862,8.49800554 L12.5094101,8.50797089 L12.7317473,8.54088674 L12.9278405,8.59041152 L13.1345493,8.66500066 L13.3144242,8.75015912 L13.5013762,8.86128789 L13.6939308,9.00533251 L13.8699724,9.16900585 L14.0280264,9.3511 L14.1663237,9.54950108 L14.2727743,9.7412586 L14.3535706,9.92546661 L14.3983919,10.0513924 C14.470047,10.2742539 14.5089708,10.5119124 14.5089708,10.7592343 C14.5089708,10.8911997 14.4977654,11.0207493 14.4765343,11.1466751 L14.4550083,11.2571999 L14.4287642,11.3647049 C14.3158264,11.7814378 14.089066,12.1498538 13.7850478,12.4325074 L13.5240817,12.6414778 L13.5028506,12.6556709 C13.1569599,12.8863838 12.7441322,13.0204631 12.3006372,13.0204631 C11.6790366,13.0204631 11.117296,12.7568343 10.7156735,12.3328539 L10.5652863,12.1567993 L10.4346558,11.9674577 L10.3491415,11.8167695 L10.3317437,11.7826457 C10.2170366,11.5522347 10.1400737,11.2991752 10.1085219,11.0319226 L10.0928934,10.7752393 L10.0925985,10.7592343 L10.0925985,10.7592343 C10.0925985,9.51114958 11.0822056,8.49800554 12.3006372,8.49800554 L12.3150862,8.49800554 Z" id="Combined-Shape" fill="#000000"></path>
                        <path d="M18.8127621,11.1669078 C19.5561469,11.6065912 20.0571429,12.4291856 20.0571429,13.3707603 L20.0571429,14.1655726 C20.0571429,14.7798006 19.570301,15.2780681 18.9708161,15.2780681 L16.284487,15.2780681 L16.2600653,15.093142 C16.1048497,14.069592 15.6564754,13.3973811 14.9149425,13.0765093 L14.7724697,13.0204631 L14.760848,13.0207066 C15.2551195,12.6263959 15.6169501,12.0660136 15.7660933,11.4217792 C16.1547412,11.7023189 16.6289033,11.8668982 17.1399251,11.8668982 C17.7910134,11.8668982 18.381652,11.5999476 18.8127621,11.1669078 Z M5.5803292,11.0361503 C6.01822149,11.5452892 6.65987375,11.8668982 7.37406575,11.8668982 C7.9187035,11.8668982 8.42087896,11.6799724 8.82309113,11.3656109 C8.95602255,11.9965209 9.29211786,12.550474 9.75768579,12.9518978 C8.83309777,13.3392869 8.32344408,14.0559724 8.22826065,15.1008783 L8.21623435,15.2780681 L5.54346958,15.2780681 C4.94368984,15.2780681 4.45714286,14.7798006 4.45714286,14.1655726 L4.45714286,12.8788343 C4.45714286,12.069829 4.91538165,11.3698386 5.5803292,11.0361503 Z M7.37406575,7.57575758 C8.36780111,7.57575758 9.17428959,8.40197579 9.17428959,9.41934756 C9.17428959,10.0371993 8.87705362,10.5843877 8.42087896,10.9189819 L8.24306815,11.0340364 L8.05523153,11.1264424 L7.85618958,11.1961999 L7.66304517,11.2393831 L7.44660548,11.2614276 L7.37406575,11.2629375 L7.13374103,11.2466306 L6.99603349,11.2221702 L6.84535136,11.1820068 L6.7002719,11.1294622 L6.56108997,11.0645365 L6.42839534,10.9881354 L6.30277775,10.9008631 L6.24291773,10.8531502 C5.83480802,10.5149322 5.57384191,9.99824387 5.57384191,9.41934756 C5.57384191,8.40197579 6.38062527,7.57575758 7.37406575,7.57575758 Z M17.1399251,7.57575758 C18.1336604,7.57575758 18.9401489,8.40197579 18.9401489,9.41934756 C18.9401489,10.0371993 18.642913,10.5843877 18.1870332,10.9189819 L18.0092224,11.0340364 L17.8210909,11.1264424 L17.6220489,11.1961999 L17.4291994,11.2393831 L17.2124648,11.2614276 L16.9093313,11.2481405 L16.7621877,11.2221702 L16.6115056,11.1820068 L16.4661312,11.1294622 L16.3269493,11.0645365 L16.1942547,10.9881354 L16.0686371,10.9008631 L16.0087771,10.8531502 C15.6009622,10.5149322 15.3397012,9.99824387 15.3397012,9.41934756 C15.3397012,8.40197579 16.1464846,7.57575758 17.1399251,7.57575758 Z" id="Combined-Shape" fill="#000000"></path>
                    </g>
                </g>
            </g>
        </g>
    </g>
</svg>
