<?xml version="1.0" encoding="UTF-8"?>
<svg width="20px" height="14px" viewBox="0 0 20 14" version="1.1" xmlns="http://www.w3.org/2000/svg" xmlns:xlink="http://www.w3.org/1999/xlink">
    <title>CCD77EB0-8B27-4E87-8A21-602ADAB92D05</title>
    <g id="Plateforme" stroke="none" stroke-width="1" fill="none" fill-rule="evenodd">
        <g id="M1.6_EspaceCaDyCo_Dossier" transform="translate(-181.000000, -73.000000)" fill="#0B3C5F">
            <g id="Content" transform="translate(0.000000, 65.000000)">
                <g id="icon/list" transform="translate(181.000000, 8.000000)">
                    <path d="M1.75,10 C2.71649831,10 3.5,10.7835017 3.5,11.75 C3.5,12.7164983 2.71649831,13.5 1.75,13.5 C0.783501688,13.5 0,12.7164983 0,11.75 C0,10.7835017 0.783501688,10 1.75,10 Z M20,11 L20,13 L6,13 L6,11 L20,11 Z M1.75,5 C2.71649831,5 3.5,5.78350169 3.5,6.75 C3.5,7.71649831 2.71649831,8.5 1.75,8.5 C0.783501688,8.5 0,7.71649831 0,6.75 C0,5.78350169 0.783501688,5 1.75,5 Z M20,6 L20,8 L6,8 L6,6 L20,6 Z M1.75,0 C2.71649831,0 3.5,0.783501688 3.5,1.75 C3.5,2.71649831 2.71649831,3.5 1.75,3.5 C0.783501688,3.5 0,2.71649831 0,1.75 C0,0.783501688 0.783501688,0 1.75,0 Z M20,1 L20,3 L6,3 L6,1 L20,1 Z"></path>
                </g>
            </g>
        </g>
    </g>
</svg>