<?xml version="1.0" encoding="UTF-8"?>
<svg width="23px" height="10px" viewBox="0 0 23 10" version="1.1" xmlns="http://www.w3.org/2000/svg" xmlns:xlink="http://www.w3.org/1999/xlink">
    <title>5218CC9C-5640-4BC2-A3DF-5CEAE71C7FC3</title>
    <g id="Page-1" stroke="none" stroke-width="1" fill="none" fill-rule="evenodd">
        <g id="Edition" transform="translate(-906.000000, -1204.000000)" fill="#306CD3" fill-rule="nonzero">
            <g id="contenu1" transform="translate(268.000000, 170.000000)">
                <g id="ajouts-pj" transform="translate(401.000000, 1021.000000)">
                    <path d="M256.601088,13 C257.734059,13 258.589,13.2689655 259.15201,13.8068966 C259.71502,14.3448276 260,15.1103448 260,16.0965517 C260,17.1103448 259.694167,17.9103448 259.075552,18.4827586 C258.456936,19.0551724 257.518586,19.3448276 256.253551,19.3448276 L256.253551,19.3448276 L254.515866,19.3448276 L254.515866,23 L250.630402,23 C250.887579,22.9310345 251.123905,22.8275862 251.339377,22.7172414 C251.937141,22.4 252.39589,21.937931 252.722575,21.337931 C253.04926,20.737931 253.209127,20.1103448 253.209127,19.462069 C253.209127,18.537931 252.896343,17.7655172 252.263826,17.1586207 C251.631309,16.5517241 250.80417,16.2413793 249.789362,16.2413793 C249.490481,16.2413793 249.184648,16.2275862 248.878815,16.3034483 C248.572983,16.3793103 248.128135,16.5241379 247.815352,16.6689655 L247.815352,16.6689655 L248.190692,15.137931 L252.778181,15.137931 L252.778181,13 Z M240.058326,13 L240.058326,17.2758621 L243.533696,17.2758621 L243.533696,13 L246.022061,13 L244.784829,18.4413793 L247.530372,18.8275862 C247.759746,18.3724138 248.232396,18.0551724 248.781505,18.0551724 C249.546086,18.0551724 250.178604,18.6758621 250.178604,19.4413793 C250.178604,20.2068966 249.553037,20.8275862 248.781505,20.8275862 C248.239347,20.8275862 247.766697,20.5172414 247.537322,20.062069 L247.537322,20.062069 L244.784829,20.4551724 C244.923844,20.9241379 245.083711,21.2758621 245.292233,21.5931034 C245.500756,21.9103448 245.771834,22.1931034 246.10547,22.4413793 C246.432155,22.6827586 246.835298,22.862069 247.300997,23 L247.300997,23 L243.533696,23 L243.533696,19.3448276 L240.058326,19.3448276 L240.058326,23 L237,23 L237,13 L240.058326,13 Z M255.433364,15.0689655 L254.515866,15.0689655 L254.515866,17.2758621 L255.30825,17.2758621 C255.912965,17.2758621 256.33696,17.1793103 256.580236,16.9724138 C256.823512,16.7655172 256.948625,16.5103448 256.948625,16.1862069 C256.948625,15.8689655 256.844364,15.6137931 256.628891,15.3931034 C256.420369,15.1724138 256.017226,15.0689655 255.433364,15.0689655 L255.433364,15.0689655 Z" id="icon/h5p"></path>
                </g>
            </g>
        </g>
    </g>
</svg>