<svg xmlns="http://www.w3.org/2000/svg" width="15" height="14" viewBox="0 0 15 14">
  <path fill="#FFF" d="M0.776566757,14 C0.735694823,14 0.674386921,14 0.633514986,13.9793035 C0.326975477,13.9172142 0.122615804,13.6895532 0.0817438692,13.3791064 C0.0204359673,12.9651774 0,12.5512484 0,12.1166229 C0,7.68758213 3.22888283,3.90013141 7.54087193,3.27923784 L7.54087193,0.899145861 C7.54087193,0.547306176 7.74523161,0.216162943 8.09264305,0.0712877792 C8.41961853,-0.073587385 8.80790191,0.00919842313 9.05313351,0.257555848 L14.6934605,5.96977661 C14.8978202,6.17674113 15,6.42509855 15,6.71484888 C15,7.00459921 14.8978202,7.25295664 14.6934605,7.45992116 L9.03269755,13.1721419 C8.78746594,13.4204993 8.39918256,13.5032852 8.07220708,13.35841 C7.74523161,13.2135348 7.52043597,12.903088 7.52043597,12.5305519 L7.52043597,9.88140604 C4.98637602,10.0469777 2.69754768,11.4543364 1.36920981,13.6481603 C1.24659401,13.8758213 1.02179837,14 0.776566757,14 Z M8.5626703,1.25098555 L8.5626703,3.38272011 C8.5626703,3.83804205 8.21525886,4.23127464 7.76566757,4.29336399 C3.90326975,4.8107753 1.0013624,8.18429698 1.0013624,12.1166229 C1.0013624,12.1994087 1.0013624,12.2821945 1.0013624,12.3649803 C2.57493188,10.2539422 4.98637602,8.9500657 7.6226158,8.82588699 C7.86784741,8.80519054 8.09264305,8.9086728 8.27656676,9.07424442 C8.46049046,9.23981603 8.5626703,9.48817346 8.5626703,9.73653088 L8.5626703,12.1994087 L13.9577657,6.73554534 L13.9577657,6.71484888 L8.5626703,1.25098555 Z"/>
</svg>
