<svg xmlns="http://www.w3.org/2000/svg" width="8" height="17" viewBox="0 0 8 17">
  <path fill="#FFF" d="M5.00390625,0.5 C6.32938965,0.5 7.41394492,1.53153594 7.49858857,2.83562431 L7.50390625,3 L7.50390625,13 C7.50390625,14.8685634 6.03962865,16.3951264 4.19594145,16.4948211 L4.00390625,16.5 C2.1315668,16.5 0.604877891,15.0357224 0.505179007,13.1920352 L0.5,13 L0.5,5 L1.5,5 L1.5,13 C1.5,14.3254834 2.53153594,15.4100387 3.83562431,15.4946823 L4,15.5 C5.3292334,15.5 6.41393867,14.4684641 6.49858832,13.1643757 L6.50390625,13 L6.50390625,3 C6.50390625,2.17157288 5.83233337,1.5 5.00390625,1.5 C4.22421013,1.5 3.58345757,2.09488808 3.51077283,2.85553999 L3.50390625,3 L3.50390625,12.4744873 C3.50390625,12.7506297 3.72776388,12.9744873 4.00390625,12.9744873 C4.24936614,12.9744873 4.45351462,12.7976121 4.49585058,12.5643629 L4.50390625,12.4744873 L4.50390625,5 L5.50390625,5 L5.50390625,12.4744873 C5.50390625,13.3029144 4.83233337,13.9744873 4.00390625,13.9744873 C3.22421013,13.9744873 2.58345757,13.3795992 2.51077283,12.6189473 L2.50390625,12.4744873 L2.50390625,3 C2.50390625,1.61928813 3.62319438,0.5 5.00390625,0.5 Z" transform="matrix(-1 0 0 1 8.004 0)"/>
</svg>
