<?xml version="1.0" encoding="UTF-8"?>
<svg width="31px" height="22px" viewBox="0 0 31 22" version="1.1" xmlns="http://www.w3.org/2000/svg" xmlns:xlink="http://www.w3.org/1999/xlink">
    <title>B4884C83-12BB-41A9-B297-41C801A61AA9</title>
    <g id="Page-1" stroke="none" stroke-width="1" fill="none" fill-rule="evenodd">
        <g id="Edition" transform="translate(-938.000000, -21.000000)" fill="#646464" fill-rule="nonzero">
            <g id="Header" transform="translate(0.000000, 18.000000)">
                <g id="icon/edit-progression" transform="translate(938.000000, 3.000000)">
                    <path d="M31,16 L31,22 L10,22 L10,16 L31,16 Z M3,16 C4.65685425,16 6,17.3431458 6,19 C6,20.6568542 4.65685425,22 3,22 C1.34314575,22 0,20.6568542 0,19 C0,17.3431458 1.34314575,16 3,16 Z M30,17 L11,17 L11,21 L30,21 L30,17 Z M3,17 C1.8954305,17 1,17.8954305 1,19 C1,20.1045695 1.8954305,21 3,21 C4.1045695,21 5,20.1045695 5,19 C5,17.8954305 4.1045695,17 3,17 Z M31,8 L31,14 L10,14 L10,8 L31,8 Z M3,8 C4.65685425,8 6,9.34314575 6,11 C6,12.6568542 4.65685425,14 3,14 C1.34314575,14 0,12.6568542 0,11 C0,9.34314575 1.34314575,8 3,8 Z M30,9 L11,9 L11,13 L30,13 L30,9 Z M3,9 C1.8954305,9 1,9.8954305 1,11 C1,12.1045695 1.8954305,13 3,13 C4.1045695,13 5,12.1045695 5,11 C5,9.8954305 4.1045695,9 3,9 Z M31,0 L31,6 L10,6 L10,0 L31,0 Z M3,0 C4.65685425,0 6,1.34314575 6,3 C6,4.65685425 4.65685425,6 3,6 C1.34314575,6 0,4.65685425 0,3 C0,1.34314575 1.34314575,0 3,0 Z M30,1 L11,1 L11,5 L30,5 L30,1 Z M3,1 C1.8954305,1 1,1.8954305 1,3 C1,4.1045695 1.8954305,5 3,5 C4.1045695,5 5,4.1045695 5,3 C5,1.8954305 4.1045695,1 3,1 Z"></path>
                </g>
            </g>
        </g>
    </g>
</svg>