<svg xmlns="http://www.w3.org/2000/svg" width="100" height="100" viewBox="0 0 1396 1000">
    <path fill="#000000" d="M1256.769 510.068c-51.375-0.102-96.199-28.056-120.186-69.561l-0.357-0.67h-205.354c-0.005 0-0.012 0-0.018 0-22.048 0-40.513-15.341-45.304-35.931l-0.062-0.314-41.071-179.685-115.409 697.486c-3.926 22.105-22.995 38.674-45.934 38.674-21.758 0-40.035-14.907-45.174-35.066l-0.070-0.323-151.038-620.478-39.839 105.552c-6.881 17.702-23.761 30.031-43.529 30.084h-143.242c-24.612 41.628-69.268 69.108-120.342 69.108-76.951 0-139.333-62.382-139.333-139.333s62.382-139.333 139.333-139.333c68.752 0 125.874 49.796 137.266 115.29l0.12 0.832h94.36l82.142-216.341c6.893-17.674 23.782-29.969 43.542-29.969 21.804 0 40.111 14.969 45.205 35.191l0.069 0.322 132.454 545.421 117.771-706.419c3.561-21.554 21.599-37.938 43.642-38.911l0.098-0.003h1.335c22.054 0.125 40.462 15.58 45.119 36.242l0.059 0.311 85.119 374.156h151.038c11.901-65.995 68.898-115.409 137.436-115.409 77.065 0 139.538 62.473 139.538 139.538 0 77.012-62.387 139.452-139.379 139.538h-0.008z" />
</svg>
