<?xml version="1.0" encoding="UTF-8"?>
<svg width="54px" height="53px" viewBox="0 0 54 53" version="1.1" xmlns="http://www.w3.org/2000/svg" xmlns:xlink="http://www.w3.org/1999/xlink">
    <title>icon/cadyco-commu-black copy 7</title>
    <defs>
        <filter x="-4.3%" y="-3.7%" width="108.7%" height="107.9%" filterUnits="objectBoundingBox" id="filter-1">
            <feOffset dx="0" dy="2" in="SourceAlpha" result="shadowOffsetOuter1"></feOffset>
            <feGaussianBlur stdDeviation="2" in="shadowOffsetOuter1" result="shadowBlurOuter1"></feGaussianBlur>
            <feColorMatrix values="0 0 0 0 0   0 0 0 0 0   0 0 0 0 0  0 0 0 0.5 0" type="matrix" in="shadowBlurOuter1" result="shadowMatrixOuter1"></feColorMatrix>
            <feMerge>
                <feMergeNode in="shadowMatrixOuter1"></feMergeNode>
                <feMergeNode in="SourceGraphic"></feMergeNode>
            </feMerge>
        </filter>
    </defs>
    <g id="Page-1" stroke="none" stroke-width="1" fill="none" fill-rule="evenodd">
        <g id="Espace-selected" transform="translate(-684.000000, -461.000000)">
            <g id="Pannel-détails" filter="url(#filter-1)" transform="translate(670.000000, 110.000000)">
                <g id="icon/cadyco-commu-black-copy" transform="translate(23.000000, 360.000000)">
                    <path d="M18,0 C27.9411255,0 36,7.83501688 36,17.5 C36,27.1649831 27.9411255,35 18,35 C8.0588745,35 0,27.1649831 0,17.5 C0,7.83501688 8.0588745,0 18,0 Z M18,1.52173913 C8.9233202,1.52173913 1.56521739,8.67545019 1.56521739,17.5 C1.56521739,26.3245498 8.9233202,33.4782609 18,33.4782609 C27.0766798,33.4782609 34.4347826,26.3245498 34.4347826,17.5 C34.4347826,8.67545019 27.0766798,1.52173913 18,1.52173913 Z" id="Oval" fill="#000000" fill-rule="nonzero"></path>
                    <path d="M15.5753893,17.9833864 C16.3880298,18.643204 17.4380973,19.0403261 18.5840165,19.0403261 C19.6654562,19.0403261 20.6615942,18.6867055 21.4540093,18.0933421 L21.4732861,18.0930681 C22.8654319,18.5580912 23.6961223,19.6546522 23.9653573,21.3827512 L24,21.6339186 L24,23.0311242 C24,24.1181028 23.082471,25 21.9515746,25 L15.0479326,25 C13.917529,25 13,24.1181028 13,23.0311242 L13,21.6339186 C13.0866734,19.8435139 13.9451365,18.6266699 15.5753893,17.9833864 Z M18.608162,11 L18.9328943,11.0156298 L19.3044394,11.0672553 L19.6321283,11.1449305 L19.9775568,11.2619168 L20.2781436,11.3954802 L20.5905568,11.5697757 L20.9123326,11.7956967 L21.2065135,12.0524037 L21.4706357,12.338002 L21.7017426,12.6491762 L21.8796309,12.9499306 L22.0146486,13.2388443 L22.0895489,13.4363476 C22.2092909,13.7858859 22.2743359,14.1586319 22.2743359,14.5465341 C22.2743359,14.7535099 22.2556108,14.9566968 22.2201317,15.1542001 L22.1841598,15.3275483 L22.1403037,15.4961602 C21.9515746,16.1497683 21.5726381,16.7275957 21.0645971,17.1709124 L20.6284998,17.4986637 L20.5930207,17.5209243 C20.0150069,17.8827768 19.3251355,18.0930681 18.5840165,18.0930681 C17.5452672,18.0930681 16.6065493,17.67959 15.9354029,17.0146148 L15.6840926,16.7384891 L15.4657976,16.4415237 L15.3228957,16.2051829 L15.2938225,16.1516628 C15.1021368,15.7902838 14.9735251,15.3933827 14.9207992,14.974221 L14.8946826,14.5716364 L14.8941898,14.5465341 C14.8941898,12.5890253 16.5479102,11 18.5840165,11 L18.608162,11 Z" id="Combined-Shape" stroke="#000000" stroke-width="0.7"></path>
                    <path d="M29.9729544,14.5949188 C31.183898,15.2799341 32,16.5615149 32,18.0284639 L32,19.2667608 C32,20.2237121 31.2069544,21 30.230418,21 L25.8544973,21 L25.8147152,20.7118899 C25.5618753,19.1172255 24.8314919,18.0699384 23.6235651,17.5700285 L23.3914826,17.48271 L23.3725513,17.4830892 C24.1776996,16.8687635 24.7671069,15.9957024 25.0100551,14.9920019 C25.6431466,15.4290755 26.4155374,15.6854858 27.2479711,15.6854858 C28.3085674,15.6854858 29.2706936,15.2695836 29.9729544,14.5949188 Z M27.2479711,9 C28.8667255,9 30.1804624,10.2872265 30.1804624,11.8722653 C30.1804624,12.8348624 29.6962771,13.6873677 28.9536675,14.2086568 L28.6640209,14.3879087 L28.3575624,14.5318749 L28.0333311,14.6405552 L27.7191871,14.7078335 L27.3661353,14.7421783 L26.8723432,14.7214773 L26.6326522,14.6810162 L26.3871972,14.6184427 L26.1503883,14.5365796 L25.9236666,14.435427 L25.7075125,14.3163961 L25.5028865,14.1804281 L25.405377,14.1060927 C24.7410632,13.5791578 24.3154797,12.7741708 24.3154797,11.8722653 C24.3154797,10.2872265 25.629697,9 27.2479711,9 Z M6.82962481,14.3912021 C7.54293351,15.1844272 8.58815892,15.6854858 9.7515486,15.6854858 C10.6387413,15.6854858 11.4567647,15.3942602 12.1119519,14.9044931 C12.3284918,15.8874345 12.8759774,16.7504791 13.6343686,17.375887 C12.1282523,17.9794291 11.2980472,19.0960066 11.1429973,20.7239428 L11.123407,21 L6.76958199,21 C5.79256522,21 5,20.2237121 5,19.2667608 L5,17.262056 C5,16.0016467 5.74645234,14.9110797 6.82962481,14.3912021 Z M9.7515486,9 C11.370303,9 12.6840399,10.2872265 12.6840399,11.8722653 C12.6840399,12.8348624 12.1998546,13.6873677 11.4567647,14.2086568 L11.1671181,14.3879087 L10.8611399,14.5318749 L10.5369087,14.6405552 L10.2222843,14.7078335 L9.86971287,14.7421783 L9.7515486,14.7445307 L9.36006942,14.7191249 L9.13574944,14.6810162 L8.89029439,14.6184427 L8.65396585,14.5365796 L8.42724417,14.435427 L8.21109001,14.3163961 L8.00646408,14.1804281 L7.90895454,14.1060927 C7.24416044,13.5791578 6.81905728,12.7741708 6.81905728,11.8722653 C6.81905728,10.2872265 8.13327452,9 9.7515486,9 Z" id="Combined-Shape" stroke="#000000" stroke-width="0.7"></path>
                </g>
            </g>
        </g>
    </g>
</svg>