<?xml version="1.0" encoding="UTF-8"?>
<svg width="17px" height="9px" viewBox="0 0 17 9" version="1.1" xmlns="http://www.w3.org/2000/svg" xmlns:xlink="http://www.w3.org/1999/xlink">
    <title>567F4391-43CC-4CC0-891B-51810A1436FB</title>
    <g id="Page-1" stroke="none" stroke-width="1" fill="none" fill-rule="evenodd">
        <g id="Edition" transform="translate(-308.000000, -357.000000)" fill="#000000" fill-rule="nonzero">
            <g id="contenu1" transform="translate(268.000000, 214.000000)">
                <g id="aperçu" transform="translate(19.000000, 126.000000)">
                    <g id="icon/apercu" transform="translate(21.000000, 17.000000)">
                        <path d="M8.5316668,0 C11.6193176,0 14.605401,1.49299065 16.9008257,4.22663551 C17.0227066,4.37383178 17.0430201,4.60514019 16.9008257,4.77336449 C14.605401,7.50700935 11.6396311,9 8.5316668,9 C5.36276199,9 2.37667861,7.50700935 0.121880954,4.79439252 C0.0406269848,4.71028037 0,4.60514019 0,4.5 C0,4.39485981 0.0406269848,4.28971963 0.101567462,4.20560748 C2.35636512,1.49299065 5.3424485,0 8.5316668,0 Z M8.49103982,0.925233645 C6.58157153,0.925233645 5.03774611,2.52336449 5.03774611,4.5 C5.03774611,6.47663551 6.58157153,8.07476636 8.49103982,8.07476636 C10.4005081,8.07476636 11.9443335,6.47663551 11.9443335,4.5 C11.9443335,2.52336449 10.4005081,0.925233645 8.49103982,0.925233645 Z M5.50495644,1.34579439 C3.81893657,1.93457944 2.25479765,3.00700935 0.93442065,4.5 C2.25479765,5.99299065 3.81893657,7.06542056 5.50495644,7.65420561 C4.71273023,6.85514019 4.22520642,5.74065421 4.22520642,4.5 C4.22520642,3.25934579 4.71273023,2.14485981 5.50495644,1.34579439 Z M11.4771232,1.34579439 C12.2693494,2.14485981 12.7568732,3.25934579 12.7568732,4.5 C12.7568732,5.74065421 12.2693494,6.85514019 11.4771232,7.65420561 C13.1428296,7.0864486 14.7069685,6.01401869 16.047659,4.5 C14.7069685,3.00700935 13.1428296,1.93457944 11.4771232,1.34579439 Z M8.5,2 C8.90909091,2 9.29545455,2.09090909 9.63636364,2.27272727 C9.36363636,2.36363636 9.18181818,2.61363636 9.18181818,2.90909091 C9.18181818,3.29545455 9.47727273,3.59090909 9.86363636,3.59090909 C10.1818182,3.59090909 10.4772727,3.36363636 10.5227273,3.04545455 C10.8181818,3.45454545 11,3.95454545 11,4.5 C11,5.88636364 9.88636364,7 8.5,7 C7.11363636,7 6,5.88636364 6,4.5 C6,3.11363636 7.11363636,2 8.5,2 Z"></path>
                    </g>
                </g>
            </g>
        </g>
    </g>
</svg>