<svg width="23px" height="21px" viewBox="0 0 23 21" version="1.1" xmlns="http://www.w3.org/2000/svg" xmlns:xlink="http://www.w3.org/1999/xlink">
<g id="Page-1" stroke="none" stroke-width="1" fill="none" fill-rule="evenodd">
<g id="version-finale-messagerie-copy-3" transform="translate(-271.000000, -299.000000)" fill-rule="nonzero">
<g id="col-gauche" transform="translate(251.000000, 48.000000)">
<g id="icon/dossier_neutre" transform="translate(21.000000, 251.000000)">
<path d="M18.9929421,5.39760228 L1.99400916,4.81173937 C1.28293826,4.81173937 1.75018542,3.4842051 1.29875072,3.96641842 C1.29875072,3.96641842 12.3985212,5.30228208 12.4903225,5.30228208 C12.4903225,5.30228208 13.1461166,4.67521768 13.1461166,5.66993299 L19.9216905,5.59256328 C19.4702558,5.11034995 19.704013,5.39760228 18.9929421,5.39760228 Z" id="Shape" stroke="#000000" stroke-width="0.5" fill="#000000"></path>
<path d="M18.9929421,5.12446693 L1.67945249,5.12446693 C0.733956244,5.13626342 0.576232487,5.37103379 0.0670711572,5.89290255 L0.0847989333,2.04170063 C0.0847989333,0.915891778 0.894040735,0 1.88875605,0 L5.80846535,0 C6.56211855,0 7.17893826,0.327831585 7.74956775,1.03168897 C7.75072585,1.03310052 7.75188395,1.03456248 7.75308658,1.03592361 L9.48555355,3.10812372 C9.54862524,3.18359102 9.63637328,3.22639112 9.72817465,3.22639112 L18.9929421,3.22639112 C19.9876574,3.22639112 20.7968992,4.1422829 20.7968992,5.26809175 L20.9020187,6.04217355 C20.3647958,5.29118061 19.704013,5.12446693 18.9929421,5.12446693 Z" id="Path" fill="#B3C3CE"></path>
<rect id="Rectangle" stroke="#000000" stroke-width="1.5" x="0" y="5.61093726" width="21" height="14.5833333" rx="3"></rect>
        </g>
        </g>
        </g>
        </g>
        </svg>
