<?xml version="1.0" encoding="UTF-8"?>
<svg width="21px" height="15px" viewBox="0 0 21 15" version="1.1" xmlns="http://www.w3.org/2000/svg" xmlns:xlink="http://www.w3.org/1999/xlink">
    <title>8E380698-C8E5-4ABB-85D1-9291935630EB</title>
    <g id="Page-1" stroke="none" stroke-width="1" fill="none" fill-rule="evenodd">
        <g id="Edition" transform="translate(-818.000000, -1201.000000)" fill="#306CD3" fill-rule="nonzero">
            <g id="contenu1" transform="translate(268.000000, 170.000000)">
                <g id="ajouts-pj" transform="translate(401.000000, 1021.000000)">
                    <path d="M168.24,10 C169.212021,10 170,10.7879788 170,11.76 L170,23.24 C170,24.2120212 169.212021,25 168.24,25 L150.76,25 C149.787979,25 149,24.2120212 149,23.24 L149,11.76 C149,10.7879788 149.787979,10 150.76,10 L168.24,10 Z M168.24,11.76 L150.76,11.76 L150.76,23.24 L168.24,23.24 L168.24,11.76 Z M157.75,13.3333333 L162.125,17.5 L157.75,21.6666667 L157.75,13.3333333 Z" id="icon/play"></path>
                </g>
            </g>
        </g>
    </g>
</svg>