<?xml version="1.0" encoding="UTF-8"?>
<svg width="17px" height="19px" viewBox="0 0 17 19" version="1.1" xmlns="http://www.w3.org/2000/svg" xmlns:xlink="http://www.w3.org/1999/xlink">
    <title>DB6760DF-8B4F-4C4B-88FA-E87586395146</title>
    <g id="Page-1" stroke="none" stroke-width="1" fill="none" fill-rule="evenodd">
        <g id="Edition" transform="translate(-731.000000, -1199.000000)" fill="#306CD3" fill-rule="nonzero">
            <g id="contenu1" transform="translate(268.000000, 170.000000)">
                <g id="ajouts-pj" transform="translate(401.000000, 1021.000000)">
                    <path d="M77.1323874,13.8470408 C77.633648,13.8470408 78.04,14.2545876 78.04,14.7573222 L78.04,14.7573222 L78.04,16.3788368 C78.035665,20.1575489 74.9823871,23.2196691 71.2147532,23.2238494 L71.2147532,23.2238494 L70.9476126,23.2238494 L70.9476126,25.1794372 L72.3262761,25.1794372 C72.8275367,25.1794372 73.2338887,25.5869841 73.2338887,26.0897186 C73.2338887,26.5924531 72.8275367,27 72.3262761,27 L72.3262761,27 L67.7540264,27 C67.2527658,27 66.8464138,26.5924531 66.8464138,26.0897186 C66.8464138,25.5869841 67.2527658,25.1794372 67.7540264,25.1794372 L67.7540264,25.1794372 L69.1323874,25.1794372 L69.1323874,23.2238494 L68.8652468,23.2238494 C65.097682,23.2195023 62.0445014,20.1574797 62.04,16.3788368 L62.04,16.3788368 L62.04,14.7573222 C62.04,14.2545877 62.446352,13.8470408 62.9476126,13.8470408 C63.4488732,13.8470408 63.8552252,14.2545877 63.8552252,14.7573222 L63.8552252,14.7573222 L63.8552252,16.3788368 C63.8583932,19.1525651 66.0996504,21.4002768 68.8652468,21.4032866 L68.8652468,21.4032866 L71.2147532,21.4032866 C73.9803496,21.4002768 76.2216068,19.1525651 76.2247748,16.3788368 L76.2247748,16.3788368 L76.2247748,14.7573222 C76.2247748,14.2545876 76.6311268,13.8470408 77.1323874,13.8470408 Z M71.0096328,8 C72.7029662,8.00183954 74.0752267,9.37813508 74.0770608,11.0764477 L74.0770608,11.0764477 L74.0770608,16.3694305 C74.0752284,18.0671517 72.7038881,19.443203 71.0111455,19.4458782 L71.0111455,19.4458782 L69.0718799,19.4458782 C67.3780248,19.4447079 66.0049411,18.0682655 66.0029392,16.3694305 L66.0029392,16.3694305 L66.0029392,11.0764477 C66.0049411,9.37761264 67.3780248,8.00117031 69.0718799,8 L69.0718799,8 Z M71.0111455,9.82056278 L69.0718799,9.82056278 C68.3800622,9.82056278 67.8189991,10.3825963 67.8181644,11.0764477 L67.8181644,11.0764477 L67.819677,16.3694305 C67.8203442,17.0627593 68.3805839,17.6246463 69.0718799,17.6253154 L69.0718799,17.6253154 L71.0111455,17.6253154 C71.7024415,17.6246463 72.2626812,17.0627593 72.2633483,16.3694305 L72.2633483,16.3694305 L72.2633483,11.0764477 C72.2626812,10.3831189 71.7024415,9.82123185 71.0111455,9.82056278 L71.0111455,9.82056278 Z" id="icon/record"></path>
                </g>
            </g>
        </g>
    </g>
</svg>