<?xml version="1.0" encoding="UTF-8"?>
<svg width="19px" height="19px" viewBox="0 0 19 19" version="1.1" xmlns="http://www.w3.org/2000/svg" xmlns:xlink="http://www.w3.org/1999/xlink">
    <title>53366AC8-990E-4701-8E8C-B42DF0CA0A54</title>
    <g id="Plateforme" stroke="none" stroke-width="1" fill="none" fill-rule="evenodd">
        <g id="3-Messagerie" transform="translate(-201.000000, -101.000000)" fill="#0B3C5F" fill-rule="nonzero">
            <g id="col-gauche" transform="translate(80.000000, 64.000000)">
                <g id="icon/engrenage" transform="translate(121.000000, 37.000000)">
                    <path d="M12.2941176,0 L12.2948212,2.71255378 L12.3248997,2.72330576 L14.2417749,0.806746043 L18.193254,4.75822511 L16.5689463,6.38323135 C16.6233501,6.48943443 16.6750599,6.5970574 16.7239937,6.70602409 L19,6.70588235 L19,12.2941176 L16.7234916,12.2950938 C16.6747062,12.4036787 16.623164,12.5109288 16.5689463,12.6167686 L18.193254,14.2417749 L14.2417749,18.193254 L12.3248997,16.2766942 L12.2948212,16.2874462 L12.2941176,19 L6.70588235,19 L6.70629391,16.2878423 L6.67510034,16.2766942 L4.75822511,18.193254 L0.806746043,14.2417749 L2.43105375,12.6167686 C2.37664993,12.5105656 2.32494009,12.4029426 2.27600626,12.2939759 L0,12.2941176 L0,6.70588235 L2.27650841,6.70490617 C2.32529381,6.59632129 2.37683599,6.48907122 2.43105375,6.38323135 L0.806746043,4.75822511 L4.75822511,0.806746043 L6.67510034,2.72330576 L6.70629391,2.71215771 L6.70588235,0 L12.2941176,0 Z M11.0647059,1.22941176 L7.93417647,1.22941176 L7.93583713,3.57830498 L6.35610764,4.14287327 L4.75782353,2.54488235 L2.54488235,4.75782353 L3.93333123,6.14713021 L3.45984619,7.07554545 L3.07210116,7.93397689 L1.22941176,7.93417647 L1.22941176,11.0635882 L3.07157748,11.0645146 L3.39752266,11.7903349 L3.52525377,12.0562514 L3.93333123,12.8528698 L2.54488235,14.2410588 L4.75782353,16.454 L6.35610764,14.8571267 L7.93583713,15.421695 L7.93417647,17.7705882 L11.0647059,17.7705882 L11.0656346,15.4194338 L11.9088033,15.1198377 L12.6426532,14.8558877 L14.2410588,16.454 L16.454,14.2410588 L15.0666688,12.8528698 L15.5401538,11.9244546 L15.9278988,11.0660231 L17.7705882,11.0647059 L17.7705882,7.93529412 L15.9284225,7.93548541 L15.6024773,7.20966508 L15.4747462,6.94374861 L15.0666688,6.14713021 L16.454,4.75782353 L14.2410588,2.54488235 L12.6426532,4.14411227 L11.0656346,3.58056623 L11.0647059,1.22941176 Z M9.5,5.58823529 C11.660408,5.58823529 13.4117647,7.33959201 13.4117647,9.5 C13.4117647,11.660408 11.660408,13.4117647 9.5,13.4117647 C7.33959201,13.4117647 5.58823529,11.660408 5.58823529,9.5 C5.58823529,7.33959201 7.33959201,5.58823529 9.5,5.58823529 Z M9.5,6.81764706 C8.01857738,6.81764706 6.81764706,8.01857738 6.81764706,9.5 C6.81764706,10.9814226 8.01857738,12.1823529 9.5,12.1823529 C10.9814226,12.1823529 12.1823529,10.9814226 12.1823529,9.5 C12.1823529,8.01857738 10.9814226,6.81764706 9.5,6.81764706 Z"></path>
                </g>
            </g>
        </g>
    </g>
</svg>