<?xml version="1.0" encoding="UTF-8"?>
<svg width="20px" height="17px" viewBox="0 0 20 17" version="1.1" xmlns="http://www.w3.org/2000/svg" xmlns:xlink="http://www.w3.org/1999/xlink">
    <title>01658497-E21A-4724-9573-F211476BCC01</title>
    <g id="Page-1" stroke="none" stroke-width="1" fill="none" fill-rule="evenodd">
        <g id="Edition" transform="translate(-685.000000, -1200.000000)" fill="#306CD3" fill-rule="nonzero">
            <g id="contenu1" transform="translate(268.000000, 170.000000)">
                <g id="ajouts-pj" transform="translate(401.000000, 1021.000000)">
                    <path d="M35.5,24 C35.7761424,24 36,24.2238576 36,24.5 L36,25.5 C36,25.7761424 35.7761424,26 35.5,26 L16.5,26 C16.2238576,26 16,25.7761424 16,25.5 L16,24.5 C16,24.2238576 16.2238576,24 16.5,24 L35.5,24 Z M18.8082451,9 L22.5781014,9.00989282 L26.0501135,18.9719703 C26.4585875,18.9719703 26.7280629,19.0247315 26.8585477,19.1302555 C27.1195172,19.3478989 27.25,19.634788 27.25,19.9909315 C27.25,20.2877179 27.1620659,20.5300897 26.9861952,20.7180544 C26.8103244,20.906019 26.5124832,21 26.0926626,21 L23.7439486,21 C23.324128,21 23.0248685,20.906019 22.8461611,20.7180544 C22.6674537,20.5300897 22.5781014,20.2844204 22.5781014,19.9810388 C22.5781014,19.6842525 22.6674537,19.4418806 22.8461611,19.2539159 C23.0248685,19.0659513 23.324128,18.9719703 23.7439486,18.9719703 L24.1694402,18.9719703 L23.7524584,17.7353669 L19.5145613,17.7353669 L19.0890696,18.9719703 L19.5145613,18.9719703 C19.9343818,18.9719703 20.2336413,19.0659513 20.4123487,19.2539159 C20.5910561,19.4418806 20.6804085,19.6875501 20.6804085,19.9909315 C20.6804085,20.2877179 20.5910561,20.5300897 20.4123487,20.7180544 C20.2336413,20.906019 19.9343818,21 19.5145613,21 L17.1658472,21 C16.7460266,21 16.4467672,20.906019 16.2680598,20.7180544 C16.0893524,20.5300897 16,20.2844204 16,19.9810388 C16,19.6776572 16.0936072,19.4303389 16.2808245,19.2390767 C16.4680418,19.0478144 16.7772293,18.9587799 17.2083964,18.9719703 L19.9485628,11.0379225 L18.8082451,11.0379225 C18.3884245,11.0379225 18.089165,10.9439416 17.9104576,10.7559769 C17.7317502,10.5680123 17.6423979,10.3223428 17.6423979,10.0189612 C17.6423979,9.71557968 17.7317502,9.46991025 17.9104576,9.28194559 C18.089165,9.09398092 18.3884245,9 18.8082451,9 Z M31.3794849,11.6752205 C32.4044823,11.6752205 33.2000509,11.939853 33.7662144,12.4691259 C34.3323779,12.9983988 34.6154554,13.7217276 34.6154554,14.6391339 L34.6154554,18.7000802 L34.8971941,18.7000802 C35.2943135,18.7000802 35.577391,18.7914987 35.7464351,18.9743384 C35.9154793,19.1571782 36,19.3961493 36,19.691259 C36,19.9799533 35.9154793,20.2157168 35.7464351,20.3985565 C35.577391,20.5813962 35.2943135,20.6728148 34.8971941,20.6728148 L32.9652714,20.6728148 L32.9652714,20.2109062 C32.5520525,20.4739388 32.0959086,20.6712103 31.5968261,20.8027265 C31.0977436,20.9342428 30.6442829,21 30.2364305,21 C29.3509615,21 28.6318641,20.7193292 28.0791168,20.1579792 C27.5263695,19.5966291 27.25,18.9759457 27.25,18.2959102 C27.25,17.4683199 27.6028407,16.7000837 28.3085327,15.9911788 C29.0142246,15.2822739 29.9895675,14.9278268 31.2345906,14.9278268 C31.7336731,14.9278268 32.310561,14.9919801 32.9652714,15.1202887 L32.9652714,14.648757 C32.9652714,14.3536473 32.859285,14.1130723 32.6473091,13.9270249 C32.4353332,13.7409774 32.0315117,13.6479551 31.4358326,13.6479551 C30.947483,13.6479551 30.314248,13.7634311 29.5361085,13.9943865 C29.2463188,14.0777871 29.02093,14.1194868 28.8599356,14.1194868 C28.63991,14.1194868 28.4534276,14.0248606 28.300483,13.8356055 C28.1475383,13.6463503 28.0710672,13.4041715 28.0710672,13.1090617 C28.0710672,12.9422606 28.0978991,12.7979156 28.1515639,12.6760224 C28.2052287,12.5541293 28.2803583,12.4562955 28.3769549,12.382518 C28.4735515,12.3087406 28.6747915,12.2205298 28.9806807,12.1178829 C29.3885331,11.9831589 29.804429,11.8757021 30.2283809,11.7955092 C30.6523327,11.7153164 31.0360301,11.6752205 31.3794849,11.6752205 Z M31.1379945,16.9101844 C30.4671846,16.9101844 29.8902967,17.1058521 29.4073138,17.4971932 C29.1067909,17.747395 28.9565317,18.0008006 28.9565317,18.2574178 C28.9565317,18.4434652 29.0289781,18.5942256 29.173873,18.7097033 C29.442197,18.9214125 29.8097953,19.0272655 30.2766789,19.0272655 C30.6737984,19.0272655 31.1232342,18.9342432 31.625,18.7481956 C32.1267658,18.5621482 32.5735184,18.3087425 32.9652714,17.9879712 L32.9652714,17.1411387 C32.3051945,16.9871684 31.6961083,16.9101844 31.1379945,16.9101844 Z M21.625,11.6908491 L20.2123676,15.7073372 L23.0291225,15.7073372 L21.625,11.6908491 Z" id="icon/text"></path>
                </g>
            </g>
        </g>
    </g>
</svg>