<?xml version="1.0" encoding="UTF-8"?>
<svg width="13px" height="14px" viewBox="0 0 13 14" version="1.1" xmlns="http://www.w3.org/2000/svg" xmlns:xlink="http://www.w3.org/1999/xlink">
    <title>E521CF17-854E-481B-9A5A-B4B86C0EBA11</title>
    <g id="Plateforme" stroke="none" stroke-width="1" fill="none" fill-rule="evenodd">
        <g id="2.3_CatalogueIndicateurs_Modif" transform="translate(-595.000000, -290.000000)" fill="#0B3C5F">
            <g id="Row1" transform="translate(100.000000, 159.000000)">
                <g id="indic_edit" transform="translate(372.000000, 66.000000)">
                    <g id="btn_delete" transform="translate(113.000000, 56.000000)">
                        <g id="icon/trash" transform="translate(9.000000, 9.000000)">
                            <path d="M3.1,4 L3.1,12.6956522 C3.1,12.9090956 3.29456268,13.086616 3.5511368,13.1234299 L3.65,13.1304348 L11.35,13.1304348 C11.6200059,13.1304348 11.8445692,12.9766303 11.8911388,12.7738049 L11.9,12.6956522 L11.9,4 L13,4 L13,12.6956522 C13,13.3736488 12.3456231,13.9308249 11.508906,13.9940291 L11.35,14 L3.65,14 C2.79233427,14 2.08750645,13.482706 2.00755324,12.8212696 L2,12.6956522 L2,4 L3.1,4 Z M6,6 L6,11 L5,11 L5,6 L6,6 Z M8,6 L8,11 L7,11 L7,6 L8,6 Z M10,6 L10,11 L9,11 L9,6 L10,6 Z M14,2 L14,3 L1,3 L1,2 L14,2 Z M9,0 L9,1 L6,1 L6,0 L9,0 Z"></path>
                        </g>
                    </g>
                </g>
            </g>
        </g>
    </g>
</svg>
