<svg xmlns="http://www.w3.org/2000/svg" width="33" height="33" viewBox="0 0 33 33">
  <g fill="none">
    <path fill="#0B3C5F" d="M16.5765017,0 C25.6616132,0.00884167578 33.0179423,7.25901581 32.9999671,16.1802667 C32.9999671,25.1280426 25.5895806,32.4047417 16.4774569,32.4047417 C14.6046093,32.4135834 12.7497699,32.0952831 10.9849713,31.4675241 L10.9849713,31.4675241 L2.16998203,32.9882923 C1.99890461,33.0148174 1.81882311,32.997134 1.65674976,32.9264006 C1.20654602,32.7407254 0.990448228,32.2190665 1.18853787,31.7681411 L1.18853787,31.7681411 L3.59262584,26.2863021 C1.26957455,23.4304408 0,19.8849288 0,16.2333167 C0,7.28554084 7.41035356,0.00884167578 16.5224773,0.00884167578 C16.5494895,0.00884167578 16.5674976,0.00884167578 16.5765017,0 Z M16.5314813,1.76829876 C8.41880994,1.76829876 1.80981903,8.2492835 1.80981903,16.2244751 C1.80981903,18.0193352 2.15197388,19.7965121 2.81827541,21.4675888 C3.41254435,22.961832 4.25892738,24.3411334 5.32140821,25.552443 C5.54651008,25.8088516 5.60053452,26.1713603 5.4654734,26.480819 L5.4654734,26.480819 L3.5025851,30.9635486 L10.9219427,29.6903473 C11.0840161,29.6638222 11.2460894,29.6726639 11.3991587,29.7345556 C13.0288962,30.3357896 14.7486745,30.6452482 16.486461,30.6452482 C24.5991323,30.6452482 31.2081233,24.1642999 31.2081233,16.1802667 L31.2081233,16.1802667 L31.2081233,16.1272166 C31.1991192,8.17855009 24.6261446,1.7506518 16.5314813,1.76829876 Z"/>
    <path fill="#FBDC47" d="M20.9266434,16.0671026 C21.4796656,16.0671026 21.9321384,16.5195753 21.9321384,17.0725975 C21.9321384,17.6256197 21.4796656,18.0780924 20.9266434,18.0780924 L20.9266434,18.0780924 L8.45850621,18.0780924 C7.905484,18.0780924 7.45301128,17.6256197 7.45301128,17.0725975 C7.45301128,16.5195753 7.905484,16.0671026 8.45850621,16.0671026 L8.45850621,16.0671026 Z M13.8881789,11.0396279 C14.4412011,11.0396279 14.8936738,11.4921006 14.8936738,12.0451228 C14.8936738,12.598145 14.4412011,13.0506178 13.8881789,13.0506178 L13.8881789,13.0506178 L8.45850621,13.0506178 C7.905484,13.0506178 7.45301128,12.598145 7.45301128,12.0451228 C7.45301128,11.4921006 7.905484,11.0396279 8.45850621,11.0396279 L8.45850621,11.0396279 Z"/>
  </g>
</svg>
