<svg xmlns="http://www.w3.org/2000/svg" width="100" height="100" viewBox="0 0 1000 1000">
<path fill="#000000" d="M824.013 777.421v182.579h-824.013v-864.973c0.349-87.904 71.688-159.028 159.64-159.028 0.216 0 0.433 0 0.649 0.001h706.527c0.304-0.002 0.665-0.003 1.025-0.003 86.030 0 155.812 69.567 156.159 155.516v686.113zM696.32 62.976h-536.064c0 0 0 0-0.001 0-17.742 0-32.139 14.325-32.255 32.040v738.008h568.32zM896 91.546c-0.058-15.791-12.873-28.57-28.672-28.57-0.036 0-0.072 0-0.108 0h-34.605v587.469h63.386zM624.026 753.562h-424.038v-118.989h424.038v118.989zM624.026 586.957h-424.038v-119.091h424.038v119.091zM624.026 420.25h-424.038v-119.091h424.038v119.091zM624.026 253.542h-424.038v-119.091h424.038v119.091z" />
</svg>
