<svg xmlns="http://www.w3.org/2000/svg" width="48" height="48" viewBox="0 0 48 48">
  <path fill="#316CD4" d="M26.6864235,30.1306382 L26.6864235,31.1349816 L33.250966,37.1505179 C33.3323073,37.2437354 33.3774969,37.3625125 33.3774969,37.4873037 C33.3774969,37.7684597 33.1455236,38 32.8638418,38 L29.7261772,38 C29.5770515,38 29.4354575,37.9353491 29.3375467,37.822586 L24.1106163,33.2819913 L18.8821796,37.822586 C18.7842688,37.9353491 18.6426747,38 18.493549,38 L15.3604034,38 C15.0787216,38 14.8482546,37.7684597 14.8482546,37.4873037 C14.8482546,37.3625125 14.8934442,37.2437354 14.9747855,37.1490144 L21.5393281,31.1695623 L21.5393281,30.1306382 L26.6864235,30.1306382 Z M36,28.7519211 C36,28.0452723 35.4245858,27.4709322 34.7166154,27.4709322 L14.2833846,27.4709322 C13.5754142,27.4709322 13,28.0452723 13,28.7519211 C13,29.45857 13.5754142,30.0329101 14.2833846,30.0329101 L34.7166154,30.0329101 C35.4245858,30.0329101 36,29.45857 36,28.7519211 Z M34.6699194,13.118443 L14.3285742,13.118443 L14.3285742,27.3311059 L34.6699194,27.3311059 L34.6699194,13.118443 Z M17.5445674,24.1286335 C17.2749361,24.1286335 17.0550134,23.9091213 17.0550134,23.6399933 C17.0550134,23.3693618 17.2749361,23.1513532 17.5445674,23.1513532 L31.4027114,23.1513532 C31.6723427,23.1513532 31.8922654,23.3693618 31.8922654,23.6399933 C31.8922654,23.9091213 31.6723427,24.1286335 31.4027114,24.1286335 L17.5445674,24.1286335 Z M19.7453009,20.7833278 C19.4756697,20.7833278 19.2557469,20.5638156 19.2557469,20.2946876 C19.2557469,20.0255596 19.4756697,19.8060474 19.7453009,19.8060474 L29.2019779,19.8060474 C29.4716091,19.8060474 29.6915319,20.0255596 29.6915319,20.2946876 C29.6915319,20.5653191 29.4716091,20.7833278 29.2019779,20.7833278 L19.7453009,20.7833278 Z M17.5445674,17.4395256 C17.2749361,17.4395256 17.0550134,17.2200134 17.0550134,16.9508854 C17.0550134,16.6802539 17.2749361,16.4622452 17.5445674,16.4622452 C17.5445674,16.4622452 31.4027114,16.4622452 31.4027114,16.4622452 C31.6723427,16.4622452 31.8922654,16.6802539 31.8922654,16.9508854 C31.8922654,17.2200134 31.6723427,17.4395256 31.4027114,17.4395256 L17.5445674,17.4395256 Z M36,12.008854 C36,11.4510525 35.5465977,11 34.9892593,11 L14.0107407,11 C13.4534023,11 13,11.4510525 13,12.008854 C13,12.565152 13.4534023,13.0162045 14.0107407,13.0162045 L34.9892593,13.0162045 C35.5465977,13.0162045 36,12.565152 36,12.008854 Z"/>
</svg>
