<svg width="54px" height="49px" viewBox="0 0 54 49" version="1.1" xmlns="http://www.w3.org/2000/svg" xmlns:xlink="http://www.w3.org/1999/xlink">
<defs>
<filter x="-4.3%" y="-3.7%" width="108.7%" height="107.9%" filterUnits="objectBoundingBox" id="filter-v45mra06h4-1">
<feOffset dx="0" dy="2" in="SourceAlpha" result="shadowOffsetOuter1"></feOffset>
<feGaussianBlur stdDeviation="2" in="shadowOffsetOuter1" result="shadowBlurOuter1"></feGaussianBlur>
<feColorMatrix values="0 0 0 0 0   0 0 0 0 0   0 0 0 0 0  0 0 0 0.5 0" type="matrix" in="shadowBlurOuter1" result="shadowMatrixOuter1"></feColorMatrix>
<feMerge>
<feMergeNode in="shadowMatrixOuter1"></feMergeNode>
<feMergeNode in="SourceGraphic"></feMergeNode>
        </feMerge>
        </filter>
        </defs>
<g id="Page-1" stroke="none" stroke-width="1" fill="none" fill-rule="evenodd">
<g id="Accueil-Copy-4" transform="translate(-1207.000000, -593.000000)" fill-rule="nonzero" stroke="#000000">
<g id="Pannel-détails" filter="url(#filter-v45mra06h4-1)" transform="translate(670.000000, 110.000000)">
<g id="Members-section" transform="translate(23.000000, 360.000000)">
<g id="Member-ligne-over" transform="translate(55.392658, 133.472727)">
<g id="icon-message" transform="translate(485.361300, 14.350326) rotate(-346.000000) translate(-485.361300, -14.350326) translate(470.637650, 3.307589)">
<path d="M29.3954335,14.4800696 L26.0235078,1.25956282 C25.7918488,0.378195697 24.8652127,-0.175806496 23.9643164,0.0508307674 L1.28747186,5.59085267 C0.386575653,5.81748994 -0.179701965,6.72403896 0.0519570601,7.60540609 L3.39814299,20.8259129 C3.62980201,21.70728 4.5564381,22.2612821 5.45733431,22.0346448 L28.1341789,16.4946231 C29.060815,16.2679858 29.6270926,15.3614368 29.3954335,14.4800696 Z" id="mail" fill="#D8D8D8"></path>
<path d="M1.35308991,5.53709444 L24.0747981,0.050342002 C24.5799814,-0.0752757378 25.0932425,0.0412573681 25.4879999,0.321252611 L15.6415204,13.5910619 L0.247456309,6.39799862 C0.454906719,6.00334225 0.824428956,5.68856479 1.28913692,5.55427807 L1.35308991,5.53709444 L24.0747981,0.050342002 L1.35308991,5.53709444 Z" id="mail" fill="#FFFFFF"></path>
        </g>
        </g>
        </g>
        </g>
        </g>
        </g>
        </svg>
