<svg xmlns="http://www.w3.org/2000/svg" width="20" height="20" viewBox="0 0 20 20">
  <path d="M17.8782685,9.34311747 L12.1134493,3.14691886 C11.9711081,3.00871368 11.7813198,2.96264529 11.5915315,3.03174788 C11.4017432,3.10085047 11.2831255,3.26208984 11.2831255,3.4693976 L11.2831255,6.27956946 C10.595143,6.37170624 9.24290143,6.67115078 7.86693635,7.52341602 C6.11139469,8.62905741 4,10.9094428 4,15.5393161 C4,15.7235897 4.11861768,15.9078632 4.30840597,15.9769658 C4.35585304,16 4.42702365,16 4.47447072,16 C4.5930884,16 4.73542961,15.9539316 4.83032376,15.8617948 C4.85404729,15.8157264 8.0330011,12.5218365 11.1407843,12.1993577 L11.1407843,15.4011109 C11.1407843,15.5853845 11.259402,15.7466238 11.4254667,15.8157264 C11.5915315,15.884829 11.8050433,15.8387606 11.9473845,15.7235897 L17.854545,9.98807495 C18.0443332,9.80380139 18.0443332,9.52739104 17.8782685,9.34311747 Z M12.0897257,14.2954695 L12.0897257,11.7156396 C12.0897257,11.4622635 11.8762139,11.2549557 11.615255,11.2549557 C8.98194254,11.2549557 6.32490652,13.2358965 4.99638851,14.4106405 C5.5894769,7.52341602 11.5203609,7.17790309 11.7813198,7.17790309 C12.0422787,7.17790309 12.232067,6.97059533 12.232067,6.71721918 L12.232067,4.66717577 L16.8581565,9.64256202 L12.0897257,14.2954695 Z"/>
</svg>
