
<svg width="27px" height="30px" viewBox="0 0 27 30" version="1.1" xmlns="http://www.w3.org/2000/svg" xmlns:xlink="http://www.w3.org/1999/xlink">
    <g id="TdB" stroke="none" stroke-width="1" fill="none" fill-rule="evenodd">
        <g id="statistiques" transform="translate(-93.000000, -110.000000)" fill="#000000" fill-rule="nonzero">
            <path d="M119.946263,131.076261 C119.946263,131.070111 119.946263,131.070111 119.946263,131.063961 C119.946263,131.057811 119.946263,131.057811 119.946263,131.051661 C119.910621,129.729397 119.429442,128.450185 118.597776,127.441574 C117.76611,126.439114 116.613658,125.756458 115.360219,125.516605 C115.354278,125.516605 115.342397,125.516605 115.336457,125.510455 C115.330516,125.510455 115.318635,125.504305 115.312695,125.504305 L114.3741,125.375154 C114.362219,125.375154 114.350338,125.369004 114.338457,125.369004 L113.399863,125.276753 C113.382041,125.276753 113.36422,125.276753 113.352339,125.270603 L112.401864,125.221402 C112.384042,125.221402 112.372161,125.221402 112.35434,125.221402 L111.403864,125.221402 C111.397924,125.221402 111.397924,125.221402 111.391983,125.221402 C111.386043,125.221402 111.386043,125.221402 111.380102,125.221402 C111.213769,125.227552 111.053376,125.153752 110.946448,125.0246 C110.833579,124.895449 110.786055,124.723247 110.809817,124.551046 C110.809817,124.551046 110.809817,124.551046 110.809817,124.551046 C110.857341,124.206642 111.011793,123.886839 111.261293,123.622386 C111.267233,123.616236 111.273174,123.603936 111.285055,123.597786 C111.290995,123.591636 111.296936,123.585486 111.302876,123.579336 L111.736531,123.056581 C111.748412,123.04428 111.760293,123.03198 111.766233,123.01968 L111.97415,122.749077 C111.991971,122.724477 112.009792,122.693727 112.027614,122.669127 L112.211768,122.373924 C112.217709,122.367774 112.223649,122.355474 112.22959,122.349323 L112.401864,122.054121 C112.407804,122.04182 112.419685,122.02337 112.425625,122.01107 L112.586018,121.703567 C112.591959,121.691267 112.597899,121.672817 112.60384,121.660517 L112.752351,121.340713 C112.764232,121.316113 112.770173,121.291513 112.782054,121.266913 L112.906804,120.934809 C112.912744,120.922509 112.912744,120.916359 112.918685,120.904059 L113.031554,120.571956 C113.037494,120.559656 113.043435,120.541205 113.043435,120.528905 L113.144423,120.184502 C113.150363,120.159902 113.156303,120.135301 113.162244,120.110701 L113.245411,119.753998 C113.245411,119.747847 113.251351,119.735547 113.251351,119.729397 L113.322637,119.384994 C113.322637,119.372694 113.328577,119.360394 113.328577,119.348093 L113.387982,118.99139 C113.393922,118.96679 113.393922,118.942189 113.399863,118.917589 L113.435506,118.548585 C113.435506,118.536285 113.435506,118.530135 113.435506,118.517835 L113.459268,118.161132 C113.459268,118.136531 113.459268,118.111931 113.459268,118.093481 L113.459268,117.736777 C113.459268,117.712177 113.459268,117.693727 113.459268,117.669127 L113.411744,116.943419 C113.411744,116.906519 113.405803,116.875769 113.399863,116.838868 L113.340458,116.482165 C113.340458,116.469865 113.334518,116.451415 113.334518,116.439114 L113.186006,115.713407 C113.180065,115.688807 113.174125,115.658057 113.168184,115.633456 L113.067196,115.276753 C113.061256,115.264453 113.061256,115.252153 113.055315,115.233702 L112.942446,114.889299 C112.936506,114.876999 112.936506,114.870849 112.930566,114.858549 L112.805816,114.514145 C112.799875,114.489545 112.787994,114.464945 112.776113,114.446494 L112.627601,114.114391 C112.615721,114.089791 112.60384,114.071341 112.591959,114.04674 L112.419685,113.726937 C112.419685,113.720787 112.413744,113.714637 112.413744,113.714637 L112.241471,113.407134 C112.22959,113.382534 112.217709,113.364084 112.199887,113.339483 L112.003852,113.04428 C111.991971,113.02583 111.97415,113.00123 111.962269,112.98278 L111.742471,112.699877 C111.736531,112.693727 111.736531,112.687577 111.73059,112.681427 L111.510793,112.410824 C111.498912,112.398524 111.492971,112.386224 111.48109,112.373924 L111.249412,112.109471 C111.22565,112.084871 111.207829,112.060271 111.184067,112.04182 L110.934567,111.801968 C110.928626,111.795818 110.922686,111.789668 110.916745,111.783518 L110.667246,111.555966 C110.655365,111.543665 110.643484,111.531365 110.631603,111.525215 L110.370222,111.309963 C110.34646,111.291513 110.316758,111.273063 110.292996,111.254613 L109.984091,111.063961 C109.978151,111.063961 109.978151,111.057811 109.97221,111.057811 L109.698949,110.879459 C109.669246,110.861009 109.645484,110.848708 109.615782,110.830258 L109.318758,110.676507 C109.306877,110.670357 109.300937,110.664207 109.289056,110.664207 L108.992032,110.522755 C108.968271,110.510455 108.944509,110.498155 108.920747,110.492005 L108.611842,110.375154 C108.594021,110.369004 108.576199,110.362854 108.558378,110.356704 L108.249473,110.258303 C108.231652,110.252153 108.20789,110.246002 108.190069,110.239852 L107.869283,110.159902 C107.851462,110.153752 107.83364,110.153752 107.809878,110.147601 L107.489093,110.086101 C107.477212,110.086101 107.465331,110.079951 107.45345,110.079951 L107.132665,110.03075 C107.108903,110.0246 107.085141,110.0246 107.061379,110.0246 L106.740593,110 C106.716832,110 106.69307,110 106.669308,110 L106.348522,110 C106.32476,110 106.300998,110 106.277237,110 L105.956451,110.0246 C105.932689,110.0246 105.914868,110.03075 105.891106,110.03075 L105.558439,110.079951 C105.540618,110.079951 105.528737,110.086101 105.510916,110.086101 L105.202011,110.147601 C105.19013,110.147601 105.18419,110.153752 105.172309,110.153752 L104.851523,110.227552 C104.81588,110.233702 104.780238,110.246002 104.744595,110.258303 L104.43569,110.362854 C104.423809,110.369004 104.411928,110.369004 104.405988,110.375154 L104.097083,110.492005 C104.073321,110.504305 104.049559,110.510455 104.025798,110.522755 L103.728774,110.664207 C103.716893,110.670357 103.710953,110.676507 103.699072,110.676507 L103.402048,110.830258 C103.378286,110.842558 103.354524,110.854859 103.336703,110.867159 L103.05156,111.04551 C103.039679,111.051661 103.021858,111.063961 103.009977,111.070111 L102.736715,111.260763 C102.712953,111.273063 102.695132,111.291513 102.67731,111.309963 L102.41593,111.525215 C102.404049,111.537515 102.392168,111.543665 102.380287,111.555966 L102.130787,111.783518 C102.124846,111.789668 102.118906,111.795818 102.112965,111.801968 L101.863466,112.04182 C101.839704,112.066421 101.815942,112.084871 101.79812,112.109471 L101.566442,112.373924 C101.560502,112.380074 101.554561,112.386224 101.548621,112.392374 L101.316942,112.662977 C101.299121,112.681427 101.28724,112.699877 101.269418,112.724477 L101.061502,113.00738 C101.049621,113.01968 101.04368,113.03198 101.0318,113.04428 L100.835764,113.339483 C100.823883,113.357934 100.806062,113.382534 100.794181,113.407134 L100.621907,113.714637 C100.621907,113.720787 100.615966,113.726937 100.615966,113.726937 L100.443693,114.04674 C100.431812,114.071341 100.419931,114.089791 100.40805,114.114391 L100.241717,114.446494 C100.229836,114.471095 100.223895,114.495695 100.212014,114.514145 L100.087264,114.858549 C100.087264,114.864699 100.081324,114.870849 100.081324,114.876999 L99.9625145,115.221402 C99.956574,115.239852 99.9506336,115.264453 99.9446931,115.282903 L99.8437051,115.639606 C99.8437051,115.645756 99.8377646,115.651907 99.8377646,115.658057 L99.7486575,116.01476 C99.742717,116.03936 99.7367766,116.063961 99.7308361,116.082411 L99.6595504,116.451415 C99.6595504,116.463715 99.6595504,116.469865 99.6536099,116.482165 C99.6536099,116.494465 99.6476695,116.500615 99.6476695,116.512915 L99.6001457,116.869619 C99.6001457,116.894219 99.5942052,116.912669 99.5942052,116.937269 L99.5466814,117.662977 C99.5466814,117.687577 99.5466814,117.706027 99.5466814,117.730627 L99.5466814,118.087331 C99.5466814,118.111931 99.5466814,118.136531 99.5466814,118.154982 L99.5704433,118.511685 C99.5704433,118.523985 99.5704433,118.530135 99.5704433,118.542435 L99.6060862,118.911439 C99.6060862,118.936039 99.6120266,118.96064 99.6179671,118.98524 L99.7308361,119.692497 C99.7367766,119.723247 99.742717,119.753998 99.7486575,119.784748 L99.8377646,120.141451 C99.8437051,120.153752 99.8437051,120.166052 99.8496455,120.184502 L99.9506336,120.528905 C99.956574,120.541205 99.956574,120.559656 99.9625145,120.571956 L100.075383,120.904059 C100.081324,120.916359 100.081324,120.922509 100.087264,120.934809 L100.212014,121.266913 C100.223895,121.291513 100.229836,121.316113 100.241717,121.340713 L100.390229,121.660517 C100.396169,121.672817 100.402109,121.691267 100.41399,121.703567 L100.574383,122.01107 C100.580324,122.02337 100.592205,122.04182 100.598145,122.054121 L100.770419,122.349323 C100.776359,122.355474 100.7823,122.367774 100.78824,122.373924 L100.972395,122.669127 C100.990216,122.699877 101.008038,122.724477 101.025859,122.749077 L101.233776,123.01968 C101.239716,123.02583 101.245657,123.03198 101.245657,123.03813 L101.453573,123.296433 C101.465454,123.308733 101.477335,123.327183 101.489216,123.339483 L101.720894,123.597786 C101.726835,123.603936 101.726835,123.603936 101.732775,123.610086 C101.738716,123.616236 101.738716,123.622386 101.744656,123.622386 C101.988216,123.880689 102.142668,124.200492 102.184251,124.538745 C102.184251,124.538745 102.184251,124.538745 102.184251,124.538745 C102.208013,124.710947 102.154549,124.889299 102.04762,125.01845 C101.934751,125.153752 101.78624,125.221402 101.625847,125.215252 C101.619906,125.215252 101.619906,125.215252 101.613966,125.215252 C101.608025,125.215252 101.608025,125.215252 101.602085,125.215252 L100.651609,125.215252 C100.633788,125.215252 100.621907,125.215252 100.604086,125.215252 L99.6536099,125.264453 C99.6357885,125.264453 99.6179671,125.264453 99.6060862,125.270603 L98.6674915,125.362854 C98.6556106,125.362854 98.6437297,125.362854 98.6318487,125.369004 L97.6932541,125.498155 C97.6873136,125.498155 97.6754327,125.504305 97.6694922,125.504305 C97.6635517,125.504305 97.6516708,125.504305 97.6457303,125.510455 C96.3863502,125.750308 95.239839,126.432964 94.4081729,127.435424 C93.5765068,128.437884 93.0953285,129.723247 93.0596857,131.04551 C93.0596857,131.051661 93.0596857,131.051661 93.0596857,131.057811 C93.0596857,131.063961 93.0596857,131.063961 93.0596857,131.070111 L93.0001371,138.111931 C93.0001371,138.111931 93.0001371,138.118081 93.0001371,138.118081 C92.9943405,138.622386 93.1725547,139.089791 93.4992806,139.440344 C93.8378876,139.797048 94.3071849,140 94.7883631,140 L118.211645,140 C118.692824,140 119.15024,139.803198 119.488847,139.440344 C119.821513,139.089791 120.005668,138.610086 119.999867,138.118081 C119.999867,138.118081 119.999867,138.111931 119.999867,138.111931 L119.946263,131.076261 Z M97.9962182,127.583026 L98.887289,127.460025 L99.7843003,127.367774 L100.687252,127.324723 L101.613966,127.324723 C101.625847,127.324723 101.631787,127.324723 101.643668,127.324723 C102.374346,127.324723 103.075322,126.99877 103.568381,126.420664 C104.073321,125.830258 104.299059,125.04305 104.198071,124.261993 C104.198071,124.261993 104.198071,124.261993 104.198071,124.261993 C104.091143,123.487085 103.758476,122.773678 103.223834,122.201722 C103.223834,122.201722 103.223834,122.201722 103.223834,122.201722 L103.009977,121.96187 L102.825822,121.728167 L102.653548,121.500615 L102.505037,121.260763 L102.350584,120.99631 L102.213954,120.731857 L102.089204,120.467405 L101.982275,120.184502 L101.881287,119.889299 L101.79218,119.587946 L101.714954,119.298893 L101.613966,118.683887 L101.584263,118.364084 L101.566442,118.056581 L101.566442,117.767528 L101.608025,117.115621 L101.643668,116.826568 L101.703073,116.525215 L101.78624,116.211562 L101.875347,115.897909 L101.982275,115.590406 L102.089204,115.289053 L102.208013,115.0246 L102.356525,114.741697 L102.505037,114.471095 L102.665429,114.225092 L102.837703,113.99139 L103.033739,113.757688 L103.223834,113.542435 L103.43175,113.345633 L103.657488,113.142681 L103.871345,112.97048 L104.097083,112.816728 L104.328762,112.669127 L104.578261,112.539975 L104.827761,112.423124 L105.083202,112.324723 L105.326761,112.238622 L105.582201,112.183272 L105.855463,112.127921 L106.134665,112.091021 L106.384165,112.072571 L106.633665,112.072571 L106.883165,112.091021 L107.150486,112.127921 L107.423748,112.177122 L107.685129,112.238622 L107.940569,112.318573 L108.184128,112.410824 L108.433628,112.527675 L108.677187,112.650677 L109.146485,112.95818 L109.354401,113.124231 L109.580139,113.327183 L109.788056,113.523985 L109.96627,113.733087 L110.162305,113.97909 L110.352401,114.225092 L110.506853,114.458795 L110.655365,114.729397 L110.803876,115.0123 L110.922686,115.276753 L111.029614,115.571956 L111.130602,115.879459 L111.213769,116.174662 L111.3504,116.832718 L111.397924,117.115621 L111.439507,117.755228 L111.439507,118.04428 L111.421686,118.351784 L111.391983,118.671587 L111.344459,118.97294 L111.285055,119.286593 L111.213769,119.594096 L111.124662,119.883149 L111.023674,120.178352 L110.916745,120.461255 L110.791996,120.725707 L110.655365,120.99016 L110.500912,121.254613 L110.352401,121.494465 L110.192008,121.709717 L109.782115,122.201722 C109.247473,122.779828 108.908866,123.493235 108.807878,124.268143 C108.807878,124.268143 108.807878,124.268143 108.807878,124.268143 C108.700949,125.04305 108.932628,125.830258 109.431627,126.414514 C109.924687,126.99262 110.625662,127.318573 111.368221,127.318573 C111.380102,127.318573 111.386043,127.318573 111.397924,127.318573 L112.324637,127.318573 L113.227589,127.361624 L114.1246,127.453875 L115.015671,127.576876 C116.661182,127.896679 117.884919,129.378844 117.932443,131.107011 L117.985907,137.908979 L95.025982,137.908979 L95.0794463,131.107011 C95.12697,129.384994 96.3566478,127.902829 97.9962182,127.583026 Z" id="Shape"></path>
        </g>
    </g>
</svg>
