<svg xmlns="http://www.w3.org/2000/svg" width="24" height="24" viewBox="0 0 24 24"><defs><clipPath id="a"><path d="M24,0 L24,24 L0,24 L0,0 L24,0 Z"/></clipPath><clipPath id="b"><path d="M19.25,0 L24,4.957 L24,24 L0,24 L0,0 L19.25,0 Z"/></clipPath><clipPath id="c"><path d="M7.49991211,0 C8.11792969,0 8.61969727,0.501753858 8.61969727,1.11978383 L8.61969727,13.8802162 C8.61969727,14.4982461 8.11792969,15 7.49991211,15 C6.88186523,15 6.38009766,14.4982461 6.38009766,13.8802162 L6.38009766,1.11978383 C6.38009766,0.501753858 6.88186523,0 7.49991211,0 Z M4.30977539,2.39255177 C4.92779297,2.39255177 5.42956055,2.89430562 5.42956055,3.5123063 L5.42956055,11.4874593 C5.42956055,12.1054893 4.92779297,12.6072432 4.30977539,12.6072432 C3.69172852,12.6072432 3.18996094,12.1054893 3.18996094,11.4874593 L3.18996094,3.5123063 C3.18996094,2.89430562 3.69172852,2.39255177 4.30977539,2.39255177 Z M10.6900488,2.39255177 C11.3080957,2.39255177 11.8098633,2.89430562 11.8098633,3.5123063 L11.8098633,11.4874593 C11.8098633,12.1054893 11.3080957,12.6072432 10.6900488,12.6072432 C10.0720313,12.6072432 9.57026367,12.1054893 9.57026367,11.4874593 L9.57026367,3.5123063 C9.57026367,2.89430562 10.0720313,2.39255177 10.6900488,2.39255177 Z M1.11969727,4.78507424 C1.73768555,4.78507424 2.23942383,5.2867988 2.23942383,5.90477018 L2.23942383,9.09499545 C2.23942383,9.71296683 1.73768555,10.2146914 1.11969727,10.2146914 C0.501738281,10.2146914 0,9.71296683 0,9.09499545 L0,5.90477018 C0,5.2867988 0.501738281,4.78507424 1.11969727,4.78507424 Z M13.8801855,4.78507424 C14.4982324,4.78507424 15,5.28682809 15,5.90485807 L15,9.09490756 C15,9.71293754 14.4982324,10.2146914 13.8801855,10.2146914 C13.262168,10.2146914 12.7604004,9.71293754 12.7604004,9.09490756 L12.7604004,5.90485807 C12.7604004,5.28682809 13.262168,4.78507424 13.8801855,4.78507424 Z"/></clipPath></defs><g clip-path="url(#a)"><g clip-path="url(#b)"><polygon fill="#B27BD5" points="0 0 24 0 24 24 0 24 0 0"/></g><g clip-path="url(#c)" transform="translate(5 5)"><polygon fill="#FFF" points="0 0 15 0 15 15 0 15 0 0"/></g></g></svg>