<svg xmlns="http://www.w3.org/2000/svg" width="18" height="25" viewBox="0 0 18 25"><g fill="none"><path fill="#0B3C5F" d="M10,8 L18,8 L18,23 C18,24.1045695 17.1045695,25 16,25 L2,25 C0.8954305,25 0,24.1045695 0,23 L0,2 C0,0.8954305 0.8954305,0 2,0 L10,0 L10,8 Z M9,1 L2,1 C1.48716416,1 1.06449284,1.38604019 1.00672773,1.88337887 L1,2 L1,23 C1,23.5128358 1.38604019,23.9355072 1.88337887,23.9932723 L2,24 L16,24 C16.5128358,24 16.9355072,23.6139598 16.9932723,23.1166211 L17,23 L17,9 L9,9 L9,1 Z"/><polygon fill="#B3C3CE" points="10 0 18 8 10 8"/></g></svg>