<svg xmlns="http://www.w3.org/2000/svg" width="26" height="21" viewBox="0 0 26 21"><defs><clipPath id="a"><path d="M26,0 L26,21 L0,21 L0,0 L26,0 Z"/></clipPath><clipPath id="b"><path d="M7.85735853,0 C8.26460357,0 8.64075696,0.223947871 8.84396307,0.587248706 L9.8673779,2.02656247 C10.070584,2.38986331 10.4467929,2.61381118 10.8539824,2.61381118 L25.9999445,2.61381118 L25.9999445,19.0466578 C25.9999445,19.9096974 25.3203144,20.6093773 24.4820059,20.6093773 L1.51793856,20.6093773 C0.679630061,20.6093773 0,19.9096974 0,19.0466578 L0,4.43671713 C0,3.37977377 0.138788977,2.32834445 0.412089552,1.3109566 L0.537441303,0.877100583 C0.667915173,0.360557216 1.12085382,0 1.63925149,0 L7.85735853,0 Z"/></clipPath><clipPath id="c"><path d="M19.9853212,0 L19.9853212,8.69144089 L0,8.69144089 L0,0 L19.9853212,0 Z"/></clipPath><clipPath id="d"><path d="M24.8615461,0 C25.4902636,0 26,0.524774223 26,1.17203959 L26,18.6559208 C26,19.5189604 25.3203699,20.2186403 24.4820614,20.2186403 L1.51793856,20.2186403 C0.679630061,20.2186403 0,19.5189604 0,18.6559208 L0,3.78579361 L15.4522147,3.78579361 C15.8978247,3.78579361 16.3024602,3.51811931 16.4876776,3.10086065 L17.5599507,0.684932961 C17.7451126,0.267674293 18.1498036,0 18.5954136,0 Z"/></clipPath></defs><g clip-path="url(#a)"><g clip-path="url(#b)"><polygon fill="#F6C358" points="0 0 26 0 26 20.609 0 20.609 0 0"/></g><g clip-path="url(#c)" transform="translate(2.366 2.345)"><polygon fill="#EBF0F3" points="0 0 19.985 0 19.985 8.691 0 8.691 0 0"/></g><g clip-path="url(#d)" transform="translate(0 .781)"><polygon fill="#FCD361" points="0 0 26 0 26 20.219 0 20.219 0 0"/></g></g></svg>