<?xml version="1.0" encoding="UTF-8"?>
<svg width="26px" height="23px" viewBox="0 0 26 23" version="1.1" xmlns="http://www.w3.org/2000/svg" xmlns:xlink="http://www.w3.org/1999/xlink">
    <title>C3C0CB3A-C719-4348-82E5-6A90CDB4888E</title>
    <g id="Plateforme" stroke="none" stroke-width="1" fill="none" fill-rule="evenodd">
        <g id="1.2_EspaceCaDyCo_survols" transform="translate(-125.000000, -309.000000)" fill-rule="nonzero">
            <g id="Content" transform="translate(80.000000, 94.000000)">
                <g id="Tableau" transform="translate(0.000000, 99.000000)">
                    <g id="Row1" transform="translate(0.000000, 92.000000)">
                        <g id="icon/dossier_neutre" transform="translate(46.000000, 24.000000)">
                            <path d="M23.8719138,9.01624121 C23.8904808,7.56822678 23.0194694,6.01639945 21.9156707,5.71783977 C19.6740257,5.11154898 15.2398297,5.91361101 11.2174364,5.71783977 C7.30827789,5.52762994 3.49590915,4.2656299 1.47542895,5.32127252 C1.14054699,5.49626166 0.921552324,6.41399117 0.704197343,6.68971982 C0.183596719,7.35006357 4.0388745e-14,8.07753447 4.0388745e-14,9.00560624 L4.0388745e-14,19.9371346 C4.0388745e-14,21.4300793 1.20068492,22.6446611 2.67654791,22.6446611 L21.1953659,22.6446611 C22.6712288,22.6446611 23.8719138,21.4300793 23.8719138,19.9371346 C23.8719138,19.9371346 23.7319134,19.9362077 23.8719138,9.01624121 Z M23.1485224,19.9371346 C23.1485224,21.0265847 22.2723509,21.9128972 21.1953659,21.9128972 L2.67654791,21.9128972 C1.5995629,21.9128972 0.723391326,21.0265847 0.723391326,19.9371346 L0.723391326,8.61918611 C0.723391326,7.529736 1.5995629,6.64342355 2.67654791,6.64342355 L21.1953659,6.64342355 C22.2723509,6.64342355 23.1485224,7.529736 23.1485224,8.61918611 L23.1485224,19.9371346 Z M21.1953659,5.91165964 L2.79050615,5.27000026 C2.02062488,5.27000026 2.52651655,3.81603415 2.03774514,4.34417256 C2.03774514,4.34417256 14.0555417,5.80726132 14.1549357,5.80726132 C14.1549357,5.80726132 14.8649684,5.1204765 14.8649684,6.20992661 L22.200928,6.12518835 C21.7121566,5.59704994 21.9652471,5.91165964 21.1953659,5.91165964 Z" id="Shape" stroke="#0B3C5F" stroke-width="0.5" fill="#0B3C5F"></path>
                            <path d="M21.1953659,5.6125114 L2.44993352,5.6125114 C1.42623834,5.62543137 1.25546976,5.88256082 0.704197343,6.45413137 L0.723391326,2.23614831 C0.723391326,1.00311957 1.5995629,1.94066985e-13 2.67654791,1.94066985e-13 L6.92044369,1.94066985e-13 C7.7364291,1.94066985e-13 8.40426398,0.359053641 9.0220884,1.12994506 C9.02334227,1.13149104 9.02459615,1.13309224 9.02589826,1.134583 L10.901652,3.4041355 C10.9699401,3.48679017 11.0649455,3.53366646 11.1643395,3.53366646 L21.1953659,3.53366646 C22.2723509,3.53366646 23.1485224,4.53678603 23.1485224,5.76981477 L23.262336,6.61761865 C22.6806812,5.79510257 21.9652471,5.6125114 21.1953659,5.6125114 Z" id="Path" fill="#B3C3CE"></path>
                        </g>
                    </g>
                </g>
            </g>
        </g>
    </g>
</svg>