<svg xmlns="http://www.w3.org/2000/svg" width="24" height="24" viewBox="0 0 24 24"><defs><clipPath id="a"><path d="M24,0 L24,24 L0,24 L0,0 L24,0 Z"/></clipPath><clipPath id="b"><path d="M19.25,0 L24,4.957 L24,24 L0,24 L0,0 L19.25,0 Z"/></clipPath><clipPath id="c"><path d="M2.88,9.6 L2.88,12.48 L0,12.48 L0,9.6 L2.88,9.6 Z M14.4,9.6 L14.4,12.48 L4.8,12.48 L4.8,9.6 L14.4,9.6 Z M2.88,4.8 L2.88,7.68 L0,7.68 L0,4.8 L2.88,4.8 Z M14.4,4.8 L14.4,7.68 L4.8,7.68 L4.8,4.8 L14.4,4.8 Z M2.88,0 L2.88,2.88 L0,2.88 L0,0 L2.88,0 Z M14.4,0 L14.4,2.88 L4.8,2.88 L4.8,0 L14.4,0 Z"/></clipPath></defs><g clip-path="url(#a)"><g clip-path="url(#b)"><polygon fill="#8FB23F" points="0 0 24 0 24 24 0 24 0 0"/></g><g clip-path="url(#c)" transform="translate(4.8 5.76)"><polygon fill="#FFF" points="0 0 14.4 0 14.4 12.48 0 12.48 0 0"/></g></g></svg>