<svg xmlns="http://www.w3.org/2000/svg" width="24" height="24" viewBox="0 0 24 24"><defs><clipPath id="a"><path d="M24,0 L24,24 L0,24 L0,0 L24,0 Z"/></clipPath><clipPath id="b"><path d="M19.25,0 L24,4.957 L24,24 L0,24 L0,0 L19.25,0 Z"/></clipPath><clipPath id="c"><path d="M14,10 L14,13 L0,13 L0,10 L14,10 Z M8,5 L8,8 L0,8 L0,5 L8,5 Z M14,0 L14,3 L0,3 L0,0 L14,0 Z"/></clipPath></defs><g clip-path="url(#a)"><g clip-path="url(#b)"><polygon fill="#3999E5" points="0 0 24 0 24 24 0 24 0 0"/></g><g clip-path="url(#c)" transform="translate(5 6)"><polygon fill="#FFF" points="0 0 14 0 14 13 0 13 0 0"/></g></g></svg>