<svg xmlns="http://www.w3.org/2000/svg" width="22" height="22" viewBox="0 0 22 22"><defs><clipPath id="a"><path d="M22,0 L22,22 L0,22 L0,0 L22,0 Z"/></clipPath><clipPath id="b"><path d="M17.8518562,0 C18.0937161,0 18.2897988,0.169777526 18.2897988,0.379191136 L18.2897988,2.1537502 C18.7872723,2.25886581 19.2783411,2.38541689 19.7612398,2.53294134 L19.840067,2.57844285 L19.9013634,2.57844285 L19.9539148,2.63912338 L19.9977214,2.69980392 C19.99961,2.71999522 19.99961,2.74029316 19.9977214,2.76048446 C20.0007595,2.78568803 20.0007595,2.81110489 19.9977214,2.83630846 L19.9977214,13.2864778 C20,13.309193 20,13.3320148 19.9977214,13.3546945 C19.9997331,13.3748858 19.9997331,13.3951837 19.9977214,13.415375 C19.9551876,13.474136 19.894507,13.5214149 19.8225362,13.5518796 L19.8225362,13.6049528 L19.7612398,13.6428826 L19.6824126,13.6883841 L19.3671038,13.6883841 C16.2906671,12.7993983 12.9153439,13.1587891 10.1793421,14.6666667 L9.83775761,14.6666667 L9.75893041,14.6287369 C7.02346238,13.0916389 3.62711861,12.7201972 0.536148121,13.6201318 L0.220839325,13.6201318 L0.150757018,13.5822021 L0.0806747116,13.5367005 L0.0806747116,13.491199 C0.0596541251,13.4678795 0.042000117,13.4423915 0.0281232455,13.415375 C0.0177361198,13.3983475 0.00895017156,13.3805735 0.00184751248,13.3623018 C-0.000615837493,13.3395866 -0.000615837493,13.3167647 0.00184751248,13.2940495 L0.00184751248,2.79841423 C0.0124399174,2.76912263 0.0271379055,2.74111076 0.0456540861,2.71498294 C0.0438065737,2.69479164 0.0438065737,2.6744937 0.0456540861,2.65430241 L0.0894606598,2.59362187 L0.142012126,2.53294134 L0.20334954,2.53294134 L0.290921632,2.48743982 C0.77616052,2.33618283 1.27022641,2.20707229 1.77110757,2.10067695 L1.77110757,0.379191136 C1.77110757,0.169777526 1.96719023,0 2.20905014,0 C5.30260715,0.0236750067 8.19913721,1.31847748 10.0129429,3.48843759 C11.8443204,1.32032598 14.7497185,0.0273720048 17.8518562,0 Z M17.3964238,0.765954009 C14.5857826,0.943729848 12.0325614,2.22374433 10.4596303,4.23924813 L10.4596303,13.2257972 C12.182292,11.4214489 14.6968386,10.3218408 17.3964238,10.1923392 L17.3964238,0.765954009 Z M2.6557376,0.765989557 L2.6557376,10.1620523 C5.35109409,10.2892432 7.86120665,11.3897045 9.57500028,13.1954747 L9.57500028,4.23928367 C8.01689037,2.21379087 5.46005627,0.93032823 2.6557376,0.765989557 Z M1.74483184,2.88938171 C1.43539403,2.9601579 1.14340494,3.03598191 0.868987758,3.11688929 L0.868987758,12.7783894 C3.3103318,12.1979251 5.90284342,12.3149138 8.26117258,13.1120434 C6.6565464,11.7273399 4.48321484,10.9500816 2.21775398,10.9507215 L2.20900909,10.9431498 L2.18195329,10.9438252 C1.94009338,10.9434342 1.74438023,10.7733722 1.74483184,10.5639586 Z M18.2635641,2.88938171 L18.2635641,10.5639942 C18.2635641,10.7734078 18.0674814,10.9431853 17.8256215,10.9431853 C15.5541254,10.9463491 13.3759493,11.7258114 11.7646721,13.112079 C14.1212358,12.3197839 16.7091492,12.2028308 19.1481941,12.7783894 L19.1481941,3.11688929 C18.8503751,3.03093408 18.5555121,2.95511007 18.2635641,2.88938171 Z"/></clipPath></defs><g clip-path="url(#a)"><g clip-path="url(#b)" transform="translate(1 4.333)"><polygon points="0 0 20 0 20 14.667 0 14.667 0 0"/></g></g></svg>