<svg xmlns="http://www.w3.org/2000/svg" width="22" height="22" viewBox="0 0 22 22"><defs><clipPath id="a"><path d="M22,0 L22,22 L0,22 L0,0 L22,0 Z"/></clipPath><clipPath id="b"><path d="M16.411464,7.62627422 C16.6841061,7.62627422 16.9051662,7.8481208 16.9051662,8.12181602 L16.9051662,16.5044955 C16.9051662,16.7781534 16.6841432,17 16.4115011,17 L11.4748871,17 C11.215122,17 11.002597,16.7984161 10.9831517,16.542637 C10.9819642,16.531202 10.981222,16.5187613 10.981222,16.5044955 L10.981222,11.703655 C10.981222,10.8839103 10.3167799,10.2169551 9.50004112,10.2169551 C8.68330239,10.2169551 8.01886025,10.883873 8.01886025,11.703655 L8.01834072,16.5248233 L8.01693057,16.5430839 C7.99726263,16.7986768 7.78481185,17 7.52519514,17 L2.58858116,17 C2.31597619,17 2.09491605,16.7781534 2.09491605,16.5044955 L2.09491605,8.12181602 C2.09491605,7.84815805 2.31597619,7.62627422 2.58858116,7.62627422 C2.86118613,7.62627422 3.08224627,7.84815805 3.08224627,8.12181602 L3.08224627,16.0089537 L7.03153003,16.0089537 L7.03153003,11.7036177 C7.03153003,10.337451 8.13894597,9.22590876 9.50004112,9.22590876 C10.8611363,9.22590876 11.9685522,10.3373765 11.9685522,11.7036177 L11.9685522,16.0089164 L15.9177989,16.0089164 L15.9177989,8.12177877 C15.9177989,7.8481208 16.138859,7.62627422 16.411464,7.62627422 Z M9.20843619,0.0957076547 C9.38203353,-0.0319025516 9.6179745,-0.0319025516 9.79164606,0.0957076547 L18.7979264,6.71449073 C19.0179104,6.87618247 19.0657072,7.18623132 18.9045785,7.40699772 C18.8078717,7.53959911 18.6578759,7.60983739 18.5058762,7.60983739 C18.404642,7.60983739 18.3025171,7.57870906 18.2146423,7.51408451 L9.5,1.10962401 L0.785365719,7.51412176 C0.565418858,7.67573901 0.256483878,7.62783862 0.095392377,7.40703497 C-0.0656991241,7.18623132 -0.0179023369,6.87618247 0.202081634,6.71449073 Z"/></clipPath></defs><g clip-path="url(#a)"><g clip-path="url(#b)" transform="translate(2 3)"><polygon points="0 0 19 0 19 17 0 17 0 0"/></g></g></svg>