<svg xmlns="http://www.w3.org/2000/svg" width="22" height="22" viewBox="0 0 22 22"><defs><clipPath id="a"><path d="M22,0 L22,22 L0,22 L0,0 L22,0 Z"/></clipPath><clipPath id="b"><path d="M0.003,14.179 C0.00617239888,14.2006504 0.00714178203,14.2242563 0.00714178203,14.2608696 L0.00714178203,1.30434783 C0.00714178203,0.565217391 0.575806176,0 1.31944423,0 L6.13121987,0 C6.65614085,0 7.18106183,0.347826087 7.35603549,0.826086957 L7.74972623,1.91304348 C7.79346964,2.08695652 7.9684433,2.17391304 8.14341696,2.17391304 L15.8860014,2.17391304 C16.6296395,2.17391304 17.1983039,2.73913043 17.1983039,3.47826087 L17.1983039,5 L19.2542444,5 C20.47906,5 21.2664414,6.13043478 20.9164941,7.30434783 L18.5106063,14.7826087 C18.2918892,15.5217391 17.5919946,16 16.8483565,16 L1.75687838,16 C1.18821399,16 0.707036421,15.7391304 0.357089102,15.3043478 C0.011746352,14.8581236 -0.00642958216,14.2493075 0.00122344276,14.1838904 L0.003,14.179 Z M19.2542444,5.91304348 L4.1627662,5.91304348 C3.76907547,5.91304348 3.46287156,6.17391304 3.33164132,6.52173913 C2.69257737,8.60054348 2.20166006,10.1087593 1.83347491,11.215876 L1.70858197,11.5902445 C0.909384924,13.9786828 0.773120609,14.256897 0.968723145,14.6327674 L1.00051114,14.6901564 C1.01760826,14.719493 1.03647902,14.75 1.05698374,14.7826087 C1.2319574,15 1.49441789,15.1304348 1.75687838,15.1304348 L16.8483565,15.1304348 C17.1983039,15.1304348 17.5482512,14.8695652 17.6794814,14.5217391 L20.0853692,7.04347826 C20.2603429,6.39130435 19.7791653,5.91304348 19.2542444,5.91304348 Z M6.17496329,0.913043478 L1.31944423,0.913043478 C1.05698374,0.913043478 0.882010081,1.08695652 0.882010081,1.34782609 L0.882010081,11.2608696 L2.50051643,6.26086957 C2.71923351,5.52173913 3.41912815,5.04347826 4.1627662,5.04347826 L16.367179,5.04347826 L16.367179,3.52173913 C16.367179,3.30434783 16.1484619,3.08695652 15.9297448,3.08695652 L8.18716038,3.08695652 C7.6622394,3.08695652 7.18106183,2.73913043 6.96234476,2.26086957 L6.56865402,1.17391304 C6.52491061,1 6.34993695,0.913043478 6.17496329,0.913043478 Z"/></clipPath></defs><g clip-path="url(#a)"><g clip-path="url(#b)" transform="translate(1 3)"><polygon points="0 0 21 0 21 16 0 16 0 0"/></g></g></svg>