<svg xmlns="http://www.w3.org/2000/svg" width="22" height="22" viewBox="0 0 22 22"><defs><clipPath id="a"><path d="M22,0 L22,22 L0,22 L0,0 L22,0 Z"/></clipPath><clipPath id="b"><path d="M8.27553927,0.0796274205 C9.08882616,-0.0265424735 9.91207536,-0.0265424735 10.7253622,0.0796274205 C10.9001555,0.103424121 11.0468732,0.226983911 11.0994018,0.398137103 C11.0994018,0.398137103 11.1750895,0.644920467 11.2615897,0.926958597 L11.3492913,1.21291392 C11.4357915,1.49495205 11.5114792,1.74173542 11.5114792,1.74173542 C12.0114061,1.87261727 12.497748,2.05109252 12.9641654,2.27624592 L14.1342841,1.51475151 C14.2837188,1.41773419 14.4748141,1.41773419 14.6233431,1.51383625 C15.3143652,1.96048201 15.9456135,2.49499251 16.4998803,3.1054694 C16.6203337,3.23726651 16.6529376,3.42672486 16.5841071,3.5923865 C16.5841071,3.5923865 16.0461423,4.88930667 16.0452366,4.88930667 C16.3459173,5.31398625 16.6049374,5.76703881 16.8186743,6.24205756 L18.1998129,6.41961756 C18.3755119,6.44158374 18.5213239,6.56605879 18.5747581,6.73629673 C18.8201932,7.52707938 18.9623826,8.34623503 18.9995148,9.17454326 C19.0076658,9.35301851 18.912571,9.51959541 18.7549854,9.60196861 C18.7549854,9.60196861 17.5169417,10.24631 17.5169417,10.2453948 C17.4770925,10.7661764 17.386526,11.2814665 17.248865,11.783943 L18.1943789,12.8172689 C18.3139267,12.9481508 18.3474363,13.1385244 18.2795114,13.3032708 C17.9643401,14.0684262 17.5531683,14.788734 17.0550528,15.4468043 C16.9472787,15.5895845 16.767957,15.6554831 16.5949751,15.6152117 C16.5949751,15.6152117 15.2373837,15.3049394 15.2373837,15.3049394 C14.8751178,15.6774493 14.4784367,16.0133488 14.05368,16.3089771 L14.1206992,17.7138977 C14.1288501,17.8923729 14.0337554,18.0598651 13.8761697,18.1422383 C13.148921,18.5239007 12.3745776,18.8085459 11.5748757,18.9888517 C11.4018938,19.0282077 11.2225722,18.9613939 11.1157037,18.819529 C11.1157037,18.819529 10.2725299,17.6992535 10.2734356,17.6992535 C9.75901803,17.7495927 9.24097782,17.7495927 8.72746595,17.6992535 L7.88519778,18.819529 C7.77832935,18.9613939 7.59900774,19.0282077 7.42602579,18.9888517 C6.6254182,18.8085459 5.85198056,18.5239007 5.12382615,18.1422383 C4.96714616,18.0598651 4.8711457,17.8923729 4.88020235,17.7138977 C4.88020235,17.7138977 4.94722154,16.3089771 4.94722154,16.3089771 C4.52155913,16.0133488 4.124878,15.6774493 3.76351779,15.3049394 L2.40592642,15.6152117 C2.23294447,15.6554831 2.05362286,15.5895845 1.94584876,15.4468043 C1.44773318,14.788734 1.03656141,14.0684262 0.721390101,13.3032708 C0.652559584,13.1385244 0.686069178,12.9481508 0.806522581,12.8172689 C0.806522581,12.8172689 1.75203652,11.783943 1.75203652,11.783943 C1.61346982,11.2814665 1.52380901,10.7661764 1.48395977,10.24631 L0.245916139,9.60196861 C0.0883304835,9.51959541 -0.00766997348,9.35301851 0.000481008711,9.17454326 C0.0376132609,8.34623503 0.180708282,7.52707938 0.426143412,6.73629673 C0.478671964,6.56605879 0.625389644,6.44158374 0.801088593,6.41961756 C0.801088593,6.41961756 1.05476712,6.3870045 1.34468544,6.34973243 L1.6386304,6.31194269 C1.92854872,6.27467062 2.18222724,6.24205756 2.18222724,6.24205756 C2.39596411,5.76703881 2.65498421,5.31398625 2.95475922,4.88930667 L2.41588873,3.5923865 C2.34796388,3.42672486 2.38056781,3.23726651 2.50011555,3.1054694 C3.055288,2.49499251 3.68563063,1.96048201 4.37665278,1.51383625 C4.52608746,1.41773419 4.71718271,1.41773419 4.86571171,1.51475151 C4.86571171,1.51475151 6.03673616,2.27624592 6.03673616,2.27624592 C6.50224781,2.05109252 6.98858974,1.87261727 7.48851665,1.74173542 L7.90149975,0.398137103 C7.9540283,0.226983911 8.09984032,0.103424121 8.27553927,0.0796274205 Z M10.3214358,0.954613789 C9.77531999,0.902444099 9.22467586,0.902444099 8.67856005,0.954613789 L8.27735059,2.26160179 C8.22935037,2.41811086 8.10165165,2.53709436 7.94406599,2.57278942 C7.3436103,2.70824756 6.76307924,2.9215026 6.21605776,3.20797826 C6.07205708,3.2830294 5.89907512,3.27479208 5.76322542,3.18601208 C5.76322542,3.18601208 4.62480491,2.44648385 4.62389924,2.44648385 C4.17197256,2.76041725 3.75083848,3.11828301 3.36593099,3.51367434 L3.88940518,4.77489946 C3.95189604,4.92683224 3.93016009,5.09981595 3.83144264,5.22978254 C3.45740312,5.7240217 3.14857147,6.26493901 2.91219298,6.83880559 C2.84970212,6.98982311 2.71204109,7.095993 2.55173844,7.11704393 C2.55173844,7.11704393 1.2086377,7.28911238 1.2086377,7.29002764 C1.06192002,7.82453814 0.966825231,8.37186225 0.923353326,8.9246779 L2.1269817,9.55162943 C2.27098238,9.62668057 2.36426585,9.7731218 2.37151116,9.93695293 C2.39958677,10.5584129 2.50736087,11.1734661 2.6912108,11.7665531 C2.73921103,11.9230622 2.70117311,12.0942153 2.59158768,12.2141141 C2.59158768,12.2141141 1.67233802,13.2190671 1.67233802,13.2190671 C1.90056552,13.7233741 2.17498193,14.2047996 2.4937759,14.6569369 L3.81423501,14.3549019 C3.97272633,14.3182916 4.1375573,14.3704613 4.2480484,14.4912753 C4.66374849,14.9489041 5.13741112,15.3507023 5.65545132,15.6856866 C5.79220669,15.7735513 5.87190518,15.9291451 5.8637542,16.0929763 C5.8637542,16.0929763 5.79854634,17.459456 5.79945201,17.459456 C6.29485059,17.6983383 6.81198513,17.8887119 7.34270464,18.0278311 L8.16233118,16.9386744 C8.26014297,16.8077925 8.42044562,16.7400635 8.58165393,16.7611144 C9.19116627,16.8416571 9.80882958,16.8416571 10.4192476,16.7611144 C10.5804559,16.7400635 10.7398529,16.8077925 10.8385703,16.9386744 C10.8385703,16.9386744 11.2562851,17.4943666 11.4949792,17.811905 L11.6119393,17.9674988 C11.6405826,18.0056034 11.6572912,18.0278311 11.6572912,18.0278311 C12.1889164,17.8887119 12.7060509,17.6983383 13.2014495,17.459456 L13.1362416,16.0929763 C13.1289963,15.9291451 13.2077892,15.7735513 13.3445445,15.6856866 C13.8634904,15.3507023 14.3362474,14.9489041 14.7528531,14.4912753 C14.8624385,14.3704613 15.0281752,14.3182916 15.1857608,14.3549019 C15.1857608,14.3549019 16.50622,14.6569369 16.50622,14.6569369 C16.8250139,14.2047996 17.100336,13.7233741 17.3285635,13.2190671 L16.4093138,12.2141141 C16.2988227,12.0942153 16.2607848,11.9230622 16.3096907,11.7665531 C16.4935406,11.1734661 16.6004091,10.5584129 16.6284847,9.93695293 C16.63573,9.7731218 16.7299191,9.62668057 16.8739198,9.55162943 C16.8739198,9.55162943 17.6169761,9.16458283 17.9354288,8.99870571 L18.0600026,8.93381714 L18.0775482,8.9246779 C18.0340763,8.37186225 17.9380758,7.82453814 17.7922638,7.28911238 L16.4491631,7.11704393 C16.2879548,7.095993 16.1502937,6.98982311 16.0878029,6.83880559 C15.8514244,6.26493901 15.5425927,5.7240217 15.1694589,5.22978254 C15.0707414,5.09981595 15.0480998,4.92683224 15.1114963,4.77489946 C15.1114963,4.77489946 15.6349705,3.51367434 15.6349705,3.51367434 C15.250063,3.11828301 14.8280233,2.76041725 14.3760966,2.44648385 L13.2376761,3.18601208 C13.1009207,3.27479208 12.9279388,3.2830294 12.7839381,3.20797826 C12.2378223,2.9215026 11.6572912,2.70824756 11.0568355,2.57278942 C10.8983442,2.53709436 10.7715511,2.41811086 10.7235509,2.26160179 L10.3223415,0.954613789 Z M9.49999792,4.71723822 C12.1726144,4.71723822 14.342587,6.90928043 14.342587,9.61020593 C14.342587,12.3111314 12.1726144,14.5031736 9.49999792,14.5031736 C6.82738143,14.5031736 4.6583145,12.3111314 4.6583145,9.61020593 C4.6583145,6.90928043 6.82738143,4.71723822 9.49999792,4.71723822 Z M9.49999792,5.63249593 C7.32730834,5.63249593 5.56397919,7.41450269 5.56397919,9.61020593 C5.56397919,11.8059092 7.32730834,13.5879159 9.49999792,13.5879159 C11.6726875,13.5879159 13.4369223,11.8059092 13.4369223,9.61020593 C13.4369223,7.41450269 11.6726875,5.63249593 9.49999792,5.63249593 Z"/></clipPath></defs><g clip-path="url(#a)"><g clip-path="url(#b)" transform="translate(2 2)"><polygon points="0 0 19 0 19 19 0 19 0 0"/></g></g></svg>