<svg xmlns="http://www.w3.org/2000/svg" width="22" height="22" viewBox="0 0 22 22"><defs><clipPath id="a"><path d="M22,0 L22,22 L0,22 L0,0 L22,0 Z"/></clipPath><clipPath id="b"><path d="M14.4375,0 C18.2686005,0 22,2.7440557 22,6.52173913 C22,8.04110052 21.4058228,9.5132473 20.3242188,10.6796875 C20.1102142,11.5723505 20.3700409,12.5185122 21.01474,13.170856 C21.1376038,13.2951766 21.1743622,13.4821671 21.1078949,13.6447011 C21.0414276,13.8070652 20.8848267,13.9130435 20.7109375,13.9130435 C19.4854889,13.9130435 18.3045197,13.4268003 17.4270172,12.5699728 C16.6866455,12.8252378 15.7509003,12.9933763 14.8512421,13.0337976 C14.605011,16.4324049 11.4303589,19.1304348 7.5625,19.1304348 C6.54316713,19.1304348 5.42782591,18.9517663 4.57298278,18.6569293 C3.69548034,19.5137568 2.5145111,20 1.2890625,20 C1.11517334,20 0.958572398,19.8940217 0.892105113,19.7316576 C0.825637828,19.5691237 0.862396219,19.3821331 0.985260031,19.2578125 C1.62995912,18.6054687 1.88978578,17.659307 1.67578125,16.766644 C0.594177246,15.6002038 0,14.128057 0,12.6086957 C0,8.97299591 3.4645233,6.28498643 7.14859011,6.09799591 C7.39414977,2.69870922 10.5691376,0 14.4375,0 Z M7.5625,6.95652174 C3.92895508,6.95652174 0.859375,9.54483696 0.859375,12.6086957 C0.859375,13.9373302 1.39631654,15.2286005 2.37117005,16.2445652 C2.42068484,16.2960258 2.45677184,16.3592052 2.47624205,16.4283288 C2.72264098,17.3053669 2.61924743,18.2309783 2.2142334,19.0161345 C2.94923402,18.8322011 3.62380984,18.4320652 4.14262389,17.8581861 C4.26330566,17.7248641 4.45280455,17.6808763 4.61863707,17.7477921 C5.39274596,18.059443 6.54837038,18.2608696 7.5625,18.2608696 C11.1164856,18.2608696 14.0078125,15.7253737 14.0078125,12.6086957 C14.0078125,9.37075409 10.9936218,6.95652174 7.5625,6.95652174 Z M11,13.9130435 C11.2373352,13.9130435 11.4296875,14.1076766 11.4296875,14.3478261 C11.4296875,14.5879756 11.2373352,14.7826087 11,14.7826087 L3.8671875,14.7826087 C3.62985227,14.7826087 3.4375,14.5879756 3.4375,14.3478261 C3.4375,14.1076766 3.62985227,13.9130435 3.8671875,13.9130435 L11,13.9130435 Z M14.4375,0.869565217 C11.0454865,0.869565217 8.25704954,3.17951765 8.01014711,6.0996943 C9.13740541,6.16117526 10.232605,6.454144 11.207962,6.95652174 L18.1328125,6.95652174 C18.3701477,6.95652174 18.5625,7.15115487 18.5625,7.39130435 C18.5625,7.63145383 18.3701477,7.82608696 18.1328125,7.82608696 L12.5280762,7.82608696 C13.9138184,8.97350543 14.72435,10.5188519 14.8498993,12.1630435 C15.753418,12.1178669 16.7104798,11.9308763 17.3813629,11.6608356 C17.5471954,11.5939198 17.7366943,11.6380774 17.8573761,11.7712296 C18.3761902,12.3451087 19.050766,12.7454144 19.7857666,12.929178 C19.3807526,12.1440217 19.277359,11.2184103 19.5237579,10.3413723 C19.5432282,10.2724185 19.5793152,10.2092391 19.6288299,10.1576087 C20.6036835,9.141644 21.140625,7.85037365 21.140625,6.52173913 C21.140625,3.45788043 18.0710449,0.869565217 14.4375,0.869565217 Z M3.8671875,11.3043478 C4.10435485,11.3043478 4.296875,11.4991508 4.296875,11.7391304 C4.296875,11.97911 4.10435485,12.173913 3.8671875,12.173913 C3.63002015,12.173913 3.4375,11.97911 3.4375,11.7391304 C3.4375,11.4991508 3.63002015,11.3043478 3.8671875,11.3043478 Z M11,11.3043478 C11.2373352,11.3043478 11.4296875,11.498981 11.4296875,11.7391304 C11.4296875,11.9792799 11.2373352,12.173913 11,12.173913 L5.5859375,12.173913 C5.34860227,12.173913 5.15625,11.9792799 5.15625,11.7391304 C5.15625,11.498981 5.34860227,11.3043478 5.5859375,11.3043478 L11,11.3043478 Z M11,4.34782609 C11.2371673,4.34782609 11.4296875,4.54262909 11.4296875,4.7826087 C11.4296875,5.0225883 11.2371673,5.2173913 11,5.2173913 C10.7628327,5.2173913 10.5703125,5.0225883 10.5703125,4.7826087 C10.5703125,4.54262909 10.7628327,4.34782609 11,4.34782609 Z M18.1328125,4.34782609 C18.3701477,4.34782609 18.5625,4.54245922 18.5625,4.7826087 C18.5625,5.02275817 18.3701477,5.2173913 18.1328125,5.2173913 L12.71875,5.2173913 C12.4814148,5.2173913 12.2890625,5.02275817 12.2890625,4.7826087 C12.2890625,4.54245922 12.4814148,4.34782609 12.71875,4.34782609 L18.1328125,4.34782609 Z"/></clipPath></defs><g clip-path="url(#a)"><g clip-path="url(#b)" transform="translate(0 1)"><polygon points="0 0 22 0 22 20 0 20 0 0"/></g></g></svg>