<svg xmlns="http://www.w3.org/2000/svg" width="22" height="22" viewBox="0 0 22 22"><defs><clipPath id="a"><path d="M22,0 L22,22 L0,22 L0,0 L22,0 Z"/></clipPath><clipPath id="b"><path d="M15.2436064,0.000667178917 L15.4297601,0.00238239371 C19.0051699,0.0222939957 19.8319605,4.45859892 17.9138064,6.5254232 C20.069084,6.636291 22.0070811,8.29070618 21.9742667,10.7546475 C22.0918547,12.0250077 21.8419802,13.5940419 20.4786945,13.868822 C19.9269863,14.001712 19.2629449,14.1451154 18.6235602,14.2746603 C18.7630489,15.7880615 18.605481,17.7732084 16.929007,18.1139755 C13.0652238,19.2953415 8.97519711,19.2953415 5.11141389,18.1139755 C3.43280858,17.7734872 3.27994419,15.7906102 3.41524387,14.2819081 C2.76402688,14.1521243 2.08855737,14.0058935 1.52130555,13.868822 C0.158019779,13.5940419 -0.0918547019,12.0250077 0.0257332889,10.7546475 C-0.0073383335,8.29122389 1.93091596,6.63601224 4.0861936,6.5254232 C2.17171412,4.45859892 2.99483006,0.0222939957 6.57023991,0.00238239371 C7.94074834,-0.0407062547 9.19926338,0.818517623 9.75514739,2.17680898 C10.565924,1.91866549 11.4274682,1.91376523 12.2407003,2.16267174 C12.7966398,0.804116188 14.0593224,-0.0512329695 15.4297601,0.00238239371 Z M12.916427,10.2602424 C11.7149298,10.869515 10.3258953,10.869515 9.12439805,10.2602424 C6.5785813,10.5591554 4.26154669,11.2643845 4.14131297,14.5298872 C4.09721747,15.5652905 4.04577273,17.1024662 5.26942276,17.3334408 C9.03236598,18.4636035 13.0080549,18.4636035 16.7709981,17.3334408 C17.9946481,17.1024662 17.9432034,15.5652905 17.8992181,14.529927 C17.7604643,11.240172 15.4825645,10.573651 12.916427,10.2602424 Z M4.93870653,7.17852374 C2.87658064,7.37608666 0.793729854,8.10747962 0.760658232,10.7546475 C0.727586609,11.606864 0.665117989,12.8971358 1.67931441,13.0882872 C2.15503133,13.2015444 2.82362929,13.347138 3.49737173,13.48409 C3.95111439,11.1610034 6.02657918,9.71569989 8.24498687,9.61534542 C7.68732137,9.05036001 7.29412263,8.32110857 7.1137169,7.51722009 C6.37377189,7.64231737 5.61621308,7.52434901 4.93870653,7.17852374 Z M17.0612935,7.17852374 C16.3935426,7.51349552 15.6520559,7.63721169 14.9222577,7.5354193 C14.7402633,8.33217796 14.3489617,9.05463899 13.7957647,9.61526577 C16.0370653,9.73334157 18.0800464,11.1428839 18.5384926,13.4775192 C19.1974998,13.3442708 19.8524649,13.1975621 20.3206856,13.0882872 C21.334882,12.8971358 21.2724134,11.606864 21.2393418,10.7546475 C21.1749991,8.06574491 19.1586958,7.40045846 17.0612935,7.17852374 Z M11.0202104,2.76213043 C6.60294407,2.84655562 6.60364224,9.85838643 11.0202104,9.94201516 C15.4373666,9.85758997 15.4366684,2.84575916 11.0202104,2.76213043 Z M15.4297601,0.790881832 C14.3618878,0.732382662 13.3714456,1.39403376 12.9398711,2.45421741 C14.3927344,3.28397526 15.2279014,4.9938894 15.044145,6.76249073 C18.9125694,7.32853775 19.3413614,0.775669368 15.4297601,0.790881832 Z M6.74780702,0.789713534 L6.57023991,0.790881832 C2.63684812,0.768501191 3.11216083,7.40511777 6.99535724,6.74584463 C6.82015832,5.00020189 7.63589964,3.31293374 9.05998188,2.47540336 C8.62838335,1.41273092 7.64073167,0.744500822 6.57023991,0.790881832 Z"/></clipPath></defs><g clip-path="url(#a)"><g clip-path="url(#b)" transform="translate(0 2)"><polygon points="0 0 22 0 22 19 0 19 0 0"/></g></g></svg>