<svg xmlns="http://www.w3.org/2000/svg" width="22" height="22" viewBox="0 0 22 22"><defs><clipPath id="a"><path d="M22,0 L22,22 L0,22 L0,0 L22,0 Z"/></clipPath><clipPath id="b"><path d="M10.1959488,0.183123714 C10.7067174,-0.061041238 11.2933686,-0.061041238 11.8041371,0.183123714 L21.3631184,4.75237409 C21.7494497,4.92719602 22,5.32653796 22,5.7681886 C22,6.20983925 21.7494497,6.60918119 21.3626887,6.78400312 L18.3333118,8.23200627 L18.3333118,13.4579653 C18.3333118,15.613772 15.1121228,17.3028311 10.9999785,17.3028311 C9.23422415,17.3438332 7.48153226,16.9762565 5.86664089,16.2262795 L5.86664089,16.9729674 C6.58176839,17.1665781 7.04802139,17.8875834 6.95495126,18.6558537 C6.86188113,19.424124 6.23853469,20 5.49998926,20 C4.76144383,20 4.13809739,19.424124 4.04502726,18.6558537 C3.95195713,17.8875834 4.41821012,17.1665781 5.13333763,16.9729674 L5.13333763,15.7844937 C4.21337849,15.1424286 3.66668815,14.3423029 3.66668815,13.4579653 L3.66668815,8.23200627 L0.637311255,6.78400312 C0.250550292,6.60918119 0,6.20983925 0,5.7681886 C0,5.32653796 0.250550292,4.92719602 0.637311255,4.75237409 Z M5.50003223,17.6873042 C5.09500958,17.6873042 4.766686,18.0315862 4.766686,18.4562954 C4.766686,18.8810045 5.09500958,19.2252865 5.50003223,19.2252865 C5.90505487,19.2252865 6.23337845,18.8810045 6.23337845,18.4562954 C6.23337845,18.0316313 5.90505487,17.6873042 5.50003223,17.6873042 Z M17.6000086,8.58264138 L11.8040941,11.3532535 C11.2934115,11.5977789 10.7066314,11.5977789 10.1959059,11.3532535 L5.86668385,9.28395665 L5.86668385,15.3631188 C7.08806819,16.0724993 8.95144736,16.533885 11.0000215,16.533885 C14.5775926,16.533885 17.6000086,15.1254871 17.6000086,13.4579653 L17.6000086,8.58264138 Z M4.40003437,8.58264138 L4.40003437,13.4579653 C4.43917883,14.008384 4.70743221,14.5128444 5.1333806,14.837076 L5.1333806,8.93327649 L4.40003437,8.58264138 Z M11.49979,0.882907045 C11.1817789,0.733181979 10.8179203,0.733181979 10.4999092,0.882907045 L0.941271599,5.45251788 C0.816146843,5.50226103 0.733432161,5.62792555 0.733432161,5.7681886 C0.733432161,5.90849672 0.816189812,6.03411618 0.941271599,6.08385933 L5.49229787,8.25931093 L8.99067775,6.40223349 C8.86838893,6.21551646 8.80200234,5.99478125 8.80002578,5.76823366 C8.80002578,4.90583891 9.76656296,4.23029635 11.0000215,4.23029635 C12.23348,4.23029635 13.2000172,4.90583891 13.2000172,5.76823366 C13.2000172,6.63062842 12.23348,7.30617098 11.0000215,7.30617098 C10.5058818,7.31482196 10.0175859,7.19276201 9.58029379,6.95130049 L6.34668682,8.66802477 L10.5002959,10.6535152 C10.818307,10.8031051 11.1821227,10.8031051 11.5001768,10.6535152 L21.0587714,6.08385933 C21.1838961,6.03416124 21.2666108,5.90849672 21.2666108,5.76823366 C21.2666108,5.62792555 21.1838532,5.50230608 21.0587714,5.45256294 Z M11.0000215,4.99919742 C10.1603708,4.99919742 9.53337201,5.40525288 9.53337201,5.7681886 C9.53337201,6.13116939 10.1603708,6.53717979 11.0000215,6.53717979 C11.8396722,6.53717979 12.466671,6.13116939 12.466671,5.7681886 C12.466671,5.40520782 11.8396722,4.99919742 11.0000215,4.99919742 Z"/></clipPath></defs><g clip-path="url(#a)"><g clip-path="url(#b)" transform="translate(0 1)"><polygon points="0 0 22 0 22 20 0 20 0 0"/></g></g></svg>