<svg width="48" height="48" viewBox="0 0 48 48" fill="none" xmlns="http://www.w3.org/2000/svg">
<g id="color/24px/audio">
<g id="Group">
<path id="Combined Shape" fill-rule="evenodd" clip-rule="evenodd" d="M36 0H0V48H48V12L36 0Z" fill="#B27CD5"/>
<path id="Combined Shape_2" fill-rule="evenodd" clip-rule="evenodd" d="M24.9594 9.59961C26.2251 9.59961 27.2527 10.6272 27.2527 11.8929V38.0263C27.2527 39.292 26.2251 40.3196 24.9594 40.3196C23.6936 40.3196 22.666 39.292 22.666 38.0263V11.8929C22.666 10.6272 23.6936 9.59961 24.9594 9.59961ZM20.7195 16.7933C20.7195 15.5276 19.6919 14.5 18.4262 14.5C17.1604 14.5 16.1328 15.5276 16.1328 16.7933V33.1264C16.1328 34.3921 17.1604 35.4197 18.4262 35.4197C19.6919 35.4197 20.7195 34.3921 20.7195 33.1264V16.7933ZM14.186 21.6935C14.186 20.4279 13.1584 19.4004 11.8928 19.4004C10.6272 19.4004 9.59961 20.4279 9.59961 21.6935V28.2271C9.59961 29.4927 10.6272 30.5203 11.8928 30.5203C13.1584 30.5203 14.186 29.4927 14.186 28.2271V21.6935ZM33.7859 16.7933C33.7859 15.5276 32.7583 14.5 31.4925 14.5C30.2268 14.5 29.1992 15.5276 29.1992 16.7933V33.1264C29.1992 34.3921 30.2268 35.4197 31.4925 35.4197C32.7583 35.4197 33.7859 34.3921 33.7859 33.1264V16.7933ZM38.0257 19.4004C39.2915 19.4004 40.3191 20.428 40.3191 21.6937V28.2269C40.3191 29.4927 39.2915 30.5203 38.0257 30.5203C36.76 30.5203 35.7324 29.4927 35.7324 28.2269V21.6937C35.7324 20.428 36.76 19.4004 38.0257 19.4004Z" fill="white"/>
</g>
</g>
</svg>
