<svg width="24" height="24" viewBox="0 0 24 24" fill="none" xmlns="http://www.w3.org/2000/svg">
<g id="24px/folder">
<path id="24px/folder_2" fill-rule="evenodd" clip-rule="evenodd" d="M18.7234 19.0526C18.6322 19.2459 18.4355 19.3797 18.2076 19.3797H4.20449C3.53997 19.3797 2.98575 18.8629 2.98575 18.2048V5.76821C2.98575 5.12488 3.52711 4.62012 4.17577 4.62012H8.67714C9.06587 4.62012 9.43306 4.80335 9.65664 5.11594L10.9037 6.84668H17.8223C18.4709 6.84668 19.0123 7.35144 19.0123 7.99477V10.5739H20.4122C21.5739 10.5739 22.3677 11.7334 21.8558 12.7614L18.7234 19.0526ZM4.45126 18.2397H17.8547L20.8353 12.2533C20.9567 12.0094 20.7544 11.7139 20.4122 11.7139H7.81201C7.61996 11.7139 7.45304 11.8158 7.38503 11.9614L4.45126 18.2397ZM4.12575 16.2434V5.76821C4.12575 5.77002 4.12772 5.76931 4.13212 5.76772C4.13938 5.76511 4.15324 5.76012 4.17577 5.76012H8.67714C8.70298 5.76012 8.72292 5.77007 8.72936 5.77907L9.9694 7.51337C10.1829 7.81193 10.5331 7.98668 10.9037 7.98668H17.8223C17.8448 7.98668 17.8587 7.99167 17.8659 7.99429C17.8703 7.99587 17.8723 7.99658 17.8723 7.99477V10.5739H7.81201C7.18521 10.5739 6.6112 10.9245 6.35221 11.4788L4.12575 16.2434Z" fill="black"/>
</g>
</svg>
