<svg width="46" height="20" viewBox="0 0 46 20" fill="none" xmlns="http://www.w3.org/2000/svg">
<path id="h5p" fill-rule="evenodd" clip-rule="evenodd" d="M21.0607 11.6552C21.5195 10.7448 22.4648 10.1103 23.563 10.1103C25.0922 10.1103 26.3572 11.3517 26.3572 12.8828C26.3572 14.4138 25.1061 15.6552 23.563 15.6552C22.4787 15.6552 21.5334 15.0345 21.0746 14.1241L15.5697 14.9103C15.8477 15.8483 16.1674 16.5517 16.5845 17.1862C17.0015 17.8207 17.5437 18.3862 18.2109 18.8828C18.8643 19.3655 19.6706 19.7241 20.602 20H14.7634H13.0674V12.6897H6.11665V20H0V0H6.11665V8.55173H13.0674V0H14.7634H18.0441L15.5697 10.8828L21.0607 11.6552ZM44.3042 1.6138C43.1782 0.537933 41.4683 0 39.2023 0H33.1552H31.5565V4.27586H22.3815L21.6309 7.33793C22.2564 7.04828 23.1461 6.75862 23.7578 6.6069C24.2881 6.47535 24.8184 6.47859 25.3397 6.48178L25.3399 6.48179C25.4198 6.48227 25.4995 6.48276 25.5789 6.48276C27.6085 6.48276 29.2628 7.10345 30.5278 8.31724C31.7928 9.53104 32.4184 11.0759 32.4184 12.9241C32.4184 14.2207 32.0987 15.4759 31.4453 16.6759C30.7919 17.8759 29.8744 18.8 28.6789 19.4345C28.248 19.6552 27.7753 19.8621 27.261 20H33.1552H35.0319V12.6897H38.5073C41.0373 12.6897 42.914 12.1103 44.1513 10.9655C45.3885 9.82069 46.0002 8.22069 46.0002 6.19311C46.0002 4.22069 45.4302 2.68966 44.3042 1.6138ZM39.161 7.94557C38.6744 8.35937 37.8264 8.55247 36.617 8.55247H35.0322V4.13868H36.8672C38.035 4.13868 38.8412 4.34557 39.2583 4.78695C39.6892 5.22833 39.8978 5.73868 39.8978 6.37316C39.8978 7.02143 39.6475 7.53178 39.161 7.94557Z" fill="black"/>
</svg>
