
<svg width="30px" height="35px" viewBox="0 0 30 35" version="1.1" xmlns="http://www.w3.org/2000/svg" xmlns:xlink="http://www.w3.org/1999/xlink">
    <g id="Page-1" stroke="none" stroke-width="1" fill="none" fill-rule="evenodd">
        <g id="icon-file" transform="translate(-0.000000, 0.007805)" fill-rule="nonzero">
            <path d="M16.6666667,10.88 L30,10.88 L30,31.28 C30,32.7822145 28.5076158,34 26.6666667,34 L3.33333333,34 C1.49238417,34 0,32.7822145 0,31.28 L0,2.72 C0,1.21778548 1.49238417,0 3.33333333,0 L16.6666667,0 L16.6666667,10.88 Z M15,1.36 L3.33333333,1.36 C2.47860693,1.36 1.77415473,1.88501466 1.67787955,2.56139526 L1.66666667,2.72 L1.66666667,31.28 C1.66666667,31.9774567 2.31006698,32.5522898 3.13896478,32.6308503 L3.33333333,32.64 L26.6666667,32.64 C27.521393,32.64 28.2258453,32.1149853 28.3221205,31.4386047 L28.3333333,31.28 L28.3333333,12.24 L15,12.24 L15,1.36 Z" id="Shape" fill="#000000"></path>
            <polygon id="Path" fill="#C3C3C3" points="16.6666667 0 30 10.88 16.6666667 10.88"></polygon>
        </g>
    </g>
</svg>
