
<svg width="30px" height="34px" viewBox="0 0 30 34" version="1.1" xmlns="http://www.w3.org/2000/svg" xmlns:xlink="http://www.w3.org/1999/xlink">
    <g id="Page-1" stroke="none" stroke-width="1" fill="none" fill-rule="evenodd">
        <g id="image-icon" transform="translate(-0.000000, 0.000000)" fill-rule="nonzero">
            <path d="M26.0264862,10.9697813 C25.9321653,10.6849648 25.6434751,10.4775781 25.3016433,10.4775781 L4.69661672,10.4775781 C4.35485742,10.4775781 4.06623973,10.6849648 3.9718463,10.9697813 C3.94734171,11.0379805 3.93363944,11.1106289 3.93363944,11.186332 L3.93363944,29.5447383 C3.93363944,29.9279688 4.27278879,30.2386172 4.69117931,30.2386172 L25.3071532,30.2386172 C25.7255437,30.2386172 26.0646931,29.9279688 26.0646931,29.5447383 L26.0646931,11.186332 C26.0646931,11.1106289 26.0509908,11.0379805 26.0264862,10.9697813 Z M5.4541566,11.8802109 L24.5441759,11.8802109 L24.5441759,21.9276094 L21.2245288,18.5573594 C20.9576607,18.2864219 20.5072257,18.2510937 20.1938859,18.4766758 L14.0517158,22.8992656 L10.8047849,18.2967148 C10.7883277,18.2734727 10.7705655,18.251293 10.7514983,18.2302422 C10.6181005,18.0829531 10.4228613,17.9915781 10.2115273,17.9805547 C10.1971725,17.9798242 10.1828178,17.9794258 10.1683905,17.9794258 C10.1596907,17.9794258 10.1510633,17.9804883 10.1423635,17.9807539 C10.1298937,17.9811523 10.1174239,17.98175 10.1050266,17.9826133 C10.0881344,17.9839414 10.0713871,17.9858672 10.0547124,17.9882578 C10.0429676,17.989918 10.0312953,17.9915117 10.0196955,17.9937031 C10.0027308,17.9968242 9.98598357,18.0008086 9.96930884,18.0049258 C9.95836153,18.0077148 9.94726921,18.0102383 9.93646689,18.0134258 C9.91971967,18.0183398 9.90333494,18.0241836 9.88702272,18.0302266 C9.87672789,18.0340117 9.86636056,18.0375312 9.85628323,18.0416484 C9.839971,18.0483555 9.82423876,18.056125 9.80850652,18.0638945 C9.79893668,18.0686094 9.78929435,18.0729258 9.779942,18.0780391 C9.76420976,18.0867383 9.74905752,18.0964336 9.73397777,18.1061289 C9.72549541,18.1116406 9.71672305,18.1165547 9.70845819,18.1223984 C9.69258096,18.1335547 9.67750121,18.1459062 9.66249396,18.1582578 C9.65596907,18.1636367 9.64893668,18.1685508 9.64255679,18.1741289 C9.62167714,18.1926562 9.60166747,18.2122461 9.58303528,18.2330312 L5.4541566,22.8402305 L5.4541566,11.8802109 L5.4541566,11.8802109 Z M5.4542291,28.7959414 L5.4542291,25.0275859 L10.0955292,19.8484297 L13.230232,24.2919375 L14.9761479,26.7666992 L16.4077815,28.7959414 L5.4542291,28.7959414 Z M24.5443209,28.7959414 L24.5443209,28.7959414 L18.2116965,28.7959414 L14.877622,24.069875 L20.5738521,19.9683594 L24.5443209,23.9992187 L24.5443209,28.7959414 L24.5443209,28.7959414 Z" id="Shape" fill="#0B3C5F"></path>
            <path d="M16.4641856,12.74575 C14.7840986,12.74575 13.4172789,13.9961797 13.4172789,15.5331523 C13.4172789,17.0700586 14.7840986,18.3204883 16.4641856,18.3204883 C18.1444901,18.3204883 19.5114548,17.070125 19.5114548,15.5331523 C19.5114548,13.9961797 18.1444901,12.74575 16.4641856,12.74575 Z M16.4641856,16.9326641 C15.6195022,16.9326641 14.9323586,16.3048594 14.9323586,15.5330859 C14.9323586,14.7613789 15.6195022,14.1334414 16.4641856,14.1334414 C17.309014,14.1334414 17.9963751,14.7613125 17.9963751,15.5330859 C17.9963751,16.3048594 17.3090865,16.9326641 16.4641856,16.9326641 Z" id="Shape" fill="#000000"></path>
            <path d="M29.7487192,7.21776172 L22.0892943,0.203335937 C22.0652972,0.181355469 22.0391977,0.161433594 22.0121556,0.142574219 C22.0062107,0.138390625 22.0003383,0.134339844 21.9943209,0.130355469 C21.9672789,0.112558594 21.9392218,0.0960898437 21.9097873,0.0816132812 C21.9078299,0.0806171875 21.9057999,0.079953125 21.9039149,0.0789570312 C21.8760029,0.0655429687 21.8469309,0.0541210937 21.8172064,0.0439609375 C21.811189,0.04196875 21.8053891,0.03984375 21.7993717,0.037984375 C21.7676897,0.0280898437 21.7354277,0.0195234375 21.7020058,0.0134140625 C21.7006283,0.0131484375 21.6992508,0.0130820312 21.6979459,0.0128828125 C21.6677139,0.0075703125 21.6367569,0.00425 21.6053649,0.00232421875 C21.5964476,0.00179296875 21.5874577,0.001328125 21.5785404,0.0010625 C21.570058,0.0009296875 21.5619381,0 21.5534558,0 L0.757539874,0 C0.339149348,0 0,0.310648437 0,0.693878906 L0,33.3061211 C0,33.6893516 0.339149348,34 0.757539874,34 L29.2409377,34 C29.6593282,34 29.9984775,33.6893516 29.9984775,33.3061211 L29.9984775,7.76142969 C29.99884,7.75226562 30,7.74323438 30,7.7339375 C30,7.52900781 29.9029966,7.34486328 29.7487192,7.21776172 Z M22.3109957,2.36884375 L27.4117931,7.040125 L22.3109957,7.040125 L22.3109957,2.36884375 L22.3109957,2.36884375 Z M1.51507975,32.6122422 L1.51507975,1.38775781 L20.7959159,1.38775781 L20.7959159,7.7339375 C20.7959159,8.11716797 21.1350652,8.42781641 21.5534558,8.42781641 L28.4833253,8.42781641 L28.4833253,32.6122422 L1.51507975,32.6122422 Z" id="Shape" fill="#000000"></path>
        </g>
    </g>
</svg>