<svg width="24" height="24" viewBox="0 0 24 24" fill="none" xmlns="http://www.w3.org/2000/svg">
<g id="color/24px/images">
<g id="icon-img">
<path id="Combined Shape" fill-rule="evenodd" clip-rule="evenodd" d="M1 0C0.447715 0 0 0.447716 0 1V23C0 23.5523 0.447716 24 1 24H23C23.5523 24 24 23.5523 24 23V6.26087L18.48 0H1Z" fill="#FF6969"/>
<path id="Combined Shape_2" fill-rule="evenodd" clip-rule="evenodd" d="M7.41817 11.4187C8.86415 11.4187 10.0364 10.1519 10.0364 8.58924C10.0364 7.02656 8.86415 5.75977 7.41817 5.75977C5.97219 5.75977 4.79999 7.02656 4.79999 8.58924C4.79999 10.1519 5.97219 11.4187 7.41817 11.4187ZM4.79999 16.0166V19.1998H19.2V11.4187L16.9091 9.65029L10.0364 16.0166L7.41817 13.5408L4.79999 16.0166Z" fill="white"/>
</g>
</g>
</svg>
