<?xml version="1.0" encoding="UTF-8"?>
<svg width="19px" height="18px" viewBox="0 0 19 18" version="1.1" xmlns="http://www.w3.org/2000/svg" xmlns:xlink="http://www.w3.org/1999/xlink">
    <title>602C94B9-F5F4-4BE9-9ECD-1CCF791A3D99</title>
    <g id="Page-1" stroke="none" stroke-width="1" fill="none" fill-rule="evenodd">
        <g id="Edition" transform="translate(-775.000000, -1199.000000)" fill="#306CD3" fill-rule="nonzero">
            <g id="contenu1" transform="translate(268.000000, 170.000000)">
                <g id="ajouts-pj" transform="translate(401.000000, 1021.000000)">
                    <path d="M112.732601,16.01227 L108.447808,20.295522 C107.721714,21.022444 107.721714,22.20416 108.447808,22.932014 L109.106792,23.589972 C109.81238,24.29546 111.039935,24.294528 111.743659,23.589972 L113.768147,21.566704 C114.132592,21.202312 114.722602,21.202312 115.086115,21.566704 C115.45056,21.930166 115.45056,22.520092 115.086115,22.884484 L113.061627,24.907752 C112.357903,25.611376 111.42209,26 110.425691,26 C109.429293,26 108.49348,25.612308 107.788824,24.90682 L107.12984,24.249794 C105.67672,22.79595 105.67672,20.430656 107.12984,18.977742 L111.414633,14.693558 C112.119289,13.989934 113.055102,13.602242 114.050569,13.602242 C115.046035,13.602242 115.98278,13.989934 116.687436,14.695422 L117.345488,15.352448 C117.709933,15.716842 117.709933,16.306768 117.345488,16.67116 C116.981975,17.035554 116.391966,17.035554 116.02752,16.67116 L115.368537,16.01227 C114.664813,15.307716 113.437257,15.307716 112.732601,16.01227 Z M118.664668,19.307374 C117.960012,20.010066 117.024199,20.39869 116.0278,20.39869 C115.031402,20.39869 114.096521,20.010066 113.391865,19.30551 C113.028352,18.941116 113.028352,18.353054 113.392797,17.98773 C113.75631,17.624268 114.346319,17.624268 114.710764,17.988662 C115.414488,18.693216 116.642044,18.693216 117.345768,17.98773 L121.630561,13.70541 C121.981957,13.353132 122.175831,12.885292 122.175831,12.38763 C122.175831,11.889036 121.981957,11.421196 121.630561,11.06985 L120.971577,10.41096 C120.619249,10.05775 120.151343,9.863904 119.652677,9.863904 C119.154944,9.863904 118.687038,10.05775 118.33471,10.41096 L116.484522,12.259952 C116.120076,12.625278 115.530067,12.625278 115.165622,12.259952 C114.802109,11.896492 114.802109,11.306566 115.166554,10.942172 L117.016742,9.092248 C117.720466,8.387692 118.657211,8 119.652677,8 C120.649076,8 121.584889,8.387692 122.289545,9.092248 L122.948529,9.75207 C123.653185,10.455694 124.04,11.391374 124.04,12.38763 C124.04,13.382954 123.653185,14.318634 122.948529,15.02319 L118.664668,19.307374 Z" id="icon/link"></path>
                </g>
            </g>
        </g>
    </g>
</svg>