
<svg width="30px" height="33px" viewBox="0 0 30 33" version="1.1" xmlns="http://www.w3.org/2000/svg" xmlns:xlink="http://www.w3.org/1999/xlink">
    <g id="Page-1" stroke="none" stroke-width="1" fill="none" fill-rule="evenodd">
        <g id="MindMap" transform="translate(-0.000000, 0.007805)" fill="#0091FF" fill-rule="nonzero">
            <path d="M27.3175095,15.839745 C26.5029435,15.839745 25.7822614,16.2883841 25.3474456,16.972356 L23.5759515,16.6347173 C23.5781471,16.5614898 23.5810453,16.488359 23.5810453,16.4145518 C23.5810453,15.5495399 23.4250702,14.7241366 23.1442975,13.9688694 L26.1446224,11.9776225 C26.5483485,12.3158408 27.0515789,12.5170715 27.5970526,12.5170715 C28.9220505,12.5170715 30,11.331327 30,9.87382938 C30,8.41642832 28.9220505,7.23078049 27.5970526,7.23078049 C26.2721425,7.23078049 25.1942809,8.41642832 25.1942809,9.87382938 C25.1942809,10.0286891 25.2071032,10.1801676 25.2304644,10.3277819 L22.2450695,12.3090783 C21.3392546,11.0943521 20.0409552,10.2470191 18.5653395,10.0033783 L18.5653395,5.94871968 C19.6663866,5.54355329 20.4626851,4.39915631 20.4626851,3.0533354 C20.4626851,1.36977924 19.2175191,0 17.6871013,0 C16.1567714,0 14.9116932,1.36968263 14.9116932,3.0533354 C14.9116932,4.39915631 15.7077282,5.54345669 16.8088632,5.94871968 L16.8088632,10.0033783 C14.7980492,10.3353172 13.1177161,11.7892404 12.3099126,13.7649337 L6.81240541,11.9074864 C6.82891628,11.7580366 6.83840125,11.6061717 6.83840125,11.4518916 C6.83840125,9.37794978 5.30464617,7.69062598 3.41933236,7.69062598 C1.53384291,7.69062598 0,9.37794978 0,11.4518916 C0,13.5257368 1.53384291,15.212964 3.41942019,15.212964 C4.5365391,15.212964 5.53000208,14.6204782 6.15434157,13.7063904 L11.8382988,15.6268249 C11.8097561,15.8852465 11.7932452,16.1477255 11.7932452,16.4144552 C11.7932452,18.1533667 12.4201315,19.733361 13.43678,20.8988182 L10.9605876,23.7977769 C10.5991926,23.6203113 10.1993308,23.5208069 9.77856691,23.5208069 C8.1732354,23.5208069 6.86738312,24.957341 6.86738312,26.7231091 C6.86738312,28.4886839 8.1732354,29.9251214 9.77856691,29.9251214 C11.3836349,29.9251214 12.689575,28.4886839 12.689575,26.7231091 C12.689575,26.122605 12.5382545,25.5604535 12.275837,25.0796445 L14.8339691,22.0846592 C15.6799759,22.6017922 16.6525368,22.8975038 17.6871892,22.8975038 C18.6755584,22.8975038 19.6072812,22.6271996 20.4264139,22.152187 L22.9789252,26.4215045 C22.3570448,27.1029646 21.9714983,28.0452615 21.9714983,29.0847441 C21.9714983,31.1586859 23.505429,32.8460097 25.3908306,32.8460097 C27.2762323,32.8460097 28.810163,31.1587825 28.810163,29.0847441 C28.810163,27.0108989 27.2762323,25.3236717 25.3908306,25.3236717 C25.0836229,25.3236717 24.7859002,25.3691733 24.5024927,25.4532206 L21.8436267,21.0061477 C22.4720062,20.3179251 22.9591648,19.4746497 23.2558337,18.534285 L24.9392405,18.8551141 C25.1042615,20.1367885 26.1077364,21.1258427 27.3176851,21.1258427 C28.642683,21.1258427 29.7206325,19.9400983 29.7206325,18.4826006 C29.7204568,17.0253928 28.6425073,15.839745 27.3175095,15.839745 Z M13.5496336,16.4144552 C13.5496336,13.9049161 15.4057021,11.8632408 17.6870135,11.8632408 C19.9685005,11.8632408 21.8244812,13.9049161 21.8244812,16.4144552 C21.8244812,18.9238977 19.9684127,20.9654765 17.6870135,20.9654765 C15.4057021,20.9654765 13.5496336,18.9238977 13.5496336,16.4144552 Z" id="Shape"></path>
        </g>
    </g>
</svg>