
<svg width="30px" height="35px" viewBox="0 0 30 35" version="1.1" xmlns="http://www.w3.org/2000/svg" xmlns:xlink="http://www.w3.org/1999/xlink">
    <g id="Page-1" stroke="none" stroke-width="1" fill="none" fill-rule="evenodd">
        <g id="PDF_file_icon" transform="translate(0.000195, 0.007135)" fill-rule="nonzero">
            <path d="M3.80930611,0 C1.70938781,0 0,1.57697084 0,3.5126129 L0,30.4875015 C0,32.4231491 1.70938781,34 3.80930611,34 L26.185946,34 C28.2858638,34 29.9952516,32.4232145 29.9952516,30.4875015 L29.9952516,8.3066328 C29.9952516,8.3066328 30.0551713,7.65713351 29.7493041,7.02510591 C29.462591,6.43266485 28.9952945,6.02031964 28.9952945,6.02031964 C28.9941393,6.01886137 28.9929766,6.0174081 28.9918065,6.01595989 L23.4400809,0.996284755 C23.4370338,0.993421389 23.4339545,0.990587397 23.4308434,0.987783242 C23.4308434,0.987783242 22.9568562,0.571732243 22.2542194,0.293798143 C21.4268985,-0.0334556361 20.5741528,0.00108993765 20.5741528,0.00108993765 L20.5868541,0 L3.80930611,0 Z" id="Path" fill="#FF2116"></path>
            <path d="M3.80930611,1.25180415 L20.5868786,1.25180415 C20.5911122,1.25180415 20.5953462,1.25180415 20.5995799,1.25180415 C20.5995799,1.25180415 21.2704748,1.25783808 21.761193,1.45322252 C22.2335003,1.64127299 22.5683979,1.9259323 22.5706271,1.92784122 C22.5706345,1.92784671 22.5729387,1.93003538 22.5729387,1.93003538 L28.1108075,6.97081571 C28.1108075,6.97081571 28.4444528,7.29764678 28.6061675,7.63399501 C28.7366918,7.90547291 28.7447297,8.40216486 28.7447297,8.40216486 C28.7441478,8.41036598 28.7437536,8.41857765 28.7435473,8.4267943 L28.7435473,30.777652 C28.7435473,32.1028806 27.6142053,33.1518041 26.1859202,33.1518041 L3.80930611,33.1518041 C2.38102087,33.1518041 1.25167881,32.1029464 1.25167881,30.777652 L1.25167881,3.62600019 C1.25167881,2.30071124 2.38102087,1.25180415 3.80930611,1.25180415 L3.80930611,1.25180415 Z" id="Path" fill="#F5F5F5"></path>
            <path d="M7.48960793,18.9606317 C6.62841468,18.0994385 7.56016159,16.916036 10.0888012,15.6593959 L11.6798588,14.868709 L12.2997011,13.5125051 C12.6406159,12.7665956 13.1494251,11.5495125 13.4303923,10.8078892 L13.9412471,9.45947139 L13.5892119,8.46156936 C13.156354,7.23455418 13.0019979,5.39065861 13.2766333,4.72762926 C13.6486333,3.82954522 14.8671293,3.92168945 15.3495297,4.8843856 C15.7262829,5.63624847 15.6877663,6.99785004 15.2411689,8.71503398 L14.8750396,10.1228259 L15.1975385,10.6702996 C15.3749158,10.9714089 15.8930246,11.686375 16.3488979,12.2591047 L17.2056868,13.3248704 L18.2718384,13.1857436 C21.6588182,12.7437753 22.8188938,13.4949406 22.8188938,14.5719627 C22.8188938,15.9312527 20.1593915,16.0434504 17.9260822,14.4748702 C17.423583,14.1219364 17.0785039,13.7713378 17.0785039,13.7713378 C17.0785039,13.7713378 15.6794129,14.0561655 14.9905651,14.2418315 C14.2795263,14.4334803 13.9247875,14.5535055 12.883232,14.9050736 C12.883232,14.9050736 12.5177884,15.435775 12.2796536,15.8215854 C11.393695,17.2569567 10.3592451,18.4464958 9.62048317,18.8794424 C8.79333706,19.364184 7.92620227,19.3972261 7.48960793,18.9606317 L7.48960793,18.9606317 Z M8.84111774,18.4778116 C9.32520898,18.1786237 10.3050203,17.0197678 10.9832731,15.9442118 L11.2578789,15.5087466 L10.0075114,16.1374214 C8.07633127,17.1084003 7.19285574,18.0235404 7.65225852,18.5770857 C7.91033449,18.8880444 8.21906437,18.8622622 8.84111774,18.4778116 L8.84111774,18.4778116 Z M21.3852251,14.9567621 C21.8587103,14.6251174 21.7899775,13.9567968 21.2546766,13.6873403 C20.8380826,13.4776362 20.5023128,13.4345496 19.420094,13.4505238 C18.7550546,13.4958688 17.6856561,13.6298935 17.5044123,13.6706685 C17.5044123,13.6706685 18.0918959,14.0766919 18.352721,14.2259341 C18.6999379,14.4242458 19.5437003,14.7923675 20.1597293,14.9809303 C20.7673929,15.1669274 21.1188901,15.1473173 21.3852251,14.9567503 L21.3852251,14.9567621 Z M16.3414015,12.860407 C16.0548475,12.5591794 15.5675875,11.9304751 15.2586093,11.4632862 C14.8545072,10.933318 14.651868,10.5594202 14.651868,10.5594202 C14.651868,10.5594202 14.3565051,11.5094411 14.1141846,12.0811302 L13.3581833,13.9497675 L13.1389964,14.3736274 C13.1389964,14.3736274 14.3042744,13.9915534 14.8971563,13.8366889 C15.5251079,13.6726667 16.7995569,13.4220576 16.7995569,13.4220576 L16.3414015,12.860407 Z M14.7159716,6.34200966 C14.7890615,5.728641 14.8200817,5.11618279 14.6230115,4.80733467 C14.0763892,4.20976875 13.4166292,4.70809014 13.5283835,6.12876429 C13.5659837,6.60668932 13.6847142,7.42368455 13.8434451,7.92724397 L14.1320506,8.84279202 L14.3351746,8.15322967 C14.4468935,7.77396979 14.6182524,6.9589196 14.7159716,6.34200966 L14.7159716,6.34200966 Z" id="Shape" fill="#FF2116"></path>
            <path d="M8.95414725,22.9486395 L10.3523239,22.9486395 C10.7990786,22.9486395 11.1617224,22.9913832 11.4402555,23.0768705 C11.7187881,23.1596028 11.9531962,23.3457516 12.1434798,23.6353168 C12.333765,23.9221231 12.4289076,24.2682206 12.4289076,24.6736095 C12.4289076,25.0459031 12.3516907,25.3658007 12.197257,25.6333024 C12.0428229,25.900804 11.834613,26.0938462 11.5726272,26.2124288 C11.3133984,26.3310115 10.9135254,26.3903028 10.3730082,26.3903028 L9.88902277,26.3903028 L9.88902277,28.5951251 L8.95414725,28.5951251 L8.95414725,22.9486395 Z M9.88902277,23.6725446 L9.88902277,25.6415792 L10.3523239,25.6415792 C10.7659864,25.6415792 11.0514132,25.5643607 11.2086043,25.4099239 C11.3685535,25.2554909 11.4485281,25.0045369 11.4485281,24.6570619 C11.4485281,24.3978331 11.3961308,24.1882433 11.2913361,24.0282925 C11.1865425,23.8655867 11.0707174,23.7663087 10.9438608,23.7304584 C10.8197619,23.6918334 10.6225829,23.6725209 10.3523239,23.6725209 L9.88902277,23.6725446 Z M13.1445412,22.9486395 L14.4144845,22.9486395 C15.0294624,22.9486395 15.520341,23.0575698 15.8871202,23.2754305 C16.2566585,23.4932912 16.5351914,23.8173272 16.7227189,24.2475385 C16.9130025,24.6777459 17.0081443,25.1548354 17.0081443,25.678807 C17.0081443,26.2303559 16.922654,26.7226136 16.7516733,27.1555799 C16.5834517,27.5857874 16.3242239,27.9332624 15.97399,28.1980052 C15.6265136,28.4627518 15.1301193,28.5951251 14.484807,28.5951251 L13.1445412,28.5951251 L13.1445412,22.9486395 Z M14.0794191,23.6973631 L14.0794191,27.8463956 L14.4682594,27.8463956 C15.0115359,27.8463956 15.4058938,27.6588674 15.6513331,27.2838109 C15.8967724,26.9060034 16.019492,26.402716 16.019492,25.7739486 C16.019492,24.3895583 15.5024145,23.6973631 14.4682594,23.6973631 L14.0794191,23.6973631 Z M17.9057904,22.9486395 L21.0413484,22.9486395 L21.0413484,23.6973631 L18.8406679,23.6973631 L18.8406679,25.3851053 L20.6028672,25.3851053 L20.6028672,26.1338349 L18.8406679,26.1338349 L18.8406679,28.5951251 L17.9057904,28.5951251 L17.9057904,22.9486395 Z" id="Shape" fill="#2C2C2C"></path>
        </g>
    </g>
</svg>