
<svg width="32px" height="34px" viewBox="0 0 32 34" version="1.1" xmlns="http://www.w3.org/2000/svg" xmlns:xlink="http://www.w3.org/1999/xlink">
    <g id="Page-1" stroke="none" stroke-width="1" fill="none" fill-rule="evenodd">
        <g id="scratch-cat" transform="translate(0.921017, 0.907805)">
            <path d="M6.69691732,23.2711606 C5.93078857,23.1115505 5.00504967,22.8561742 4.23892093,22.1538896 C2.48320922,20.58971 1.94053469,18.0040255 0.72749751,18.6743882 C-0.517461702,19.3447508 -0.485539671,23.5265369 3.40894812,24.8034181 C4.74967342,25.2503266 5.96271061,25.2503266 6.95229357,25.2184045 C7.20766982,25.2184045 9.41028996,24.9949503 10.1764187,23.9096013 C10.9425475,22.8242522 10.3998729,22.5369539 10.1444967,22.4092658 C9.8571984,22.2496557 7.78226638,23.4626928 6.69691732,23.2711606 Z" id="Path" stroke="#001026" stroke-width="1.2" fill="#FFAB19" fill-rule="nonzero" stroke-linecap="round" stroke-linejoin="round"></path>
            <path d="M0.919029696,18.7382322 C0.280589075,18.9297644 -0.0386312359,20.2704897 0.280589075,21.3877608 C0.599809385,22.5050319 1.11056188,23.0796285 1.52554829,23.4946149 C1.46170422,23.2711606 1.3340161,22.568876 1.87669063,22.1538896 C2.54705328,21.611215 3.72816843,21.8985133 3.72816843,21.8985133 C3.72816843,21.8985133 2.73858547,20.6854761 2.22783297,19.8235813 C1.71708047,19.0893746 1.55747032,18.6105441 0.919029696,18.7382322 Z" id="Path" fill="#FFFFFF" fill-rule="nonzero"></path>
            <path d="M11.7405982,25.729157 C11.1660017,26.1122214 9.18683574,27.5167908 6.66499529,28.3148416 L6.53730716,28.3467636 C6.40961904,28.3786856 6.34577498,28.5382958 6.40961904,28.6659839 C6.95229357,29.4321126 7.94187653,30.9643701 6.18616482,31.5070447 C4.49429718,32.0497192 1.3340161,27.5487128 2.6747414,26.3675977 C3.28126,25.9206892 3.82393452,26.1441434 4.1112328,26.2718316 C4.27084296,26.3356756 4.43045311,26.3356756 4.59006327,26.3037536 C4.97312764,26.1760655 5.67541233,25.9206892 6.21808685,25.6333909 C7.59073419,24.9311063 7.9099545,24.643808 8.54839512,24.1649775 C9.18683574,23.6861471 10.6552492,22.5050319 11.8363643,23.5265369 C12.8578693,24.3884317 12.2832728,25.3460927 11.7405982,25.729157 L11.7405982,25.729157 Z M16.8162012,19.0893746 C16.9758113,19.2170627 18.9230552,21.5154489 19.5614958,20.9408524 C20.3276246,20.2704897 21.3810516,18.9616865 22.5302447,20.0151135 C23.6794378,21.0685405 21.5087397,22.8561742 20.5830008,23.3350047 C18.3803807,24.3245877 16.592747,22.4411878 16.2096826,21.9304353 C15.8266182,21.4196828 15.1562556,20.557788 15.1562556,19.7278152 C15.1881776,18.8339983 16.2735266,18.6105441 16.8162012,19.0893746 L16.8162012,19.0893746 Z" id="Shape" stroke="#001026" stroke-width="1.2" fill="#FFAB19" fill-rule="nonzero" stroke-linecap="round" stroke-linejoin="round"></path>
            <path d="M14.4539709,24.1968996 C14.8370352,23.9096013 15.2200996,23.4307708 15.7308521,22.6965641 C16.1458385,22.0900455 16.592747,20.9089304 16.592747,20.9089304 C16.8800452,20.1108796 17.0715774,18.5786221 16.0181504,18.6105441 C15.3158657,18.6424661 14.6774251,18.5467001 13.592076,18.3870899 C11.6767542,18.0040255 11.3256118,17.7486493 10.527561,19.0574525 C9.66566621,20.58971 7.46304607,21.7069811 10.1764187,24.3565097 C10.1764187,24.3565097 11.7405982,25.5695469 13.6239981,27.4210247 C14.9008793,28.6659839 16.9119673,30.4536176 17.6142519,31.0601362 C17.7738621,31.1878244 17.9653943,31.2516684 18.1569265,31.2835904 C21.2533635,31.5708887 23.5517497,31.2516684 23.5517497,29.8790211 C23.5517497,27.5806348 18.9868993,28.3786856 18.9868993,28.3786856 C18.9868993,28.3786856 17.5184859,27.1337264 16.8481232,26.5272078 L14.4539709,24.1968996 Z" id="Path" stroke="#001026" stroke-width="1.2" fill="#FFAB19" fill-rule="nonzero" stroke-linecap="round" stroke-linejoin="round"></path>
            <path d="M15.8585402,22.0581235 C15.8585402,22.0581235 16.4650588,21.2600727 15.0924115,20.3981779 C13.6559201,19.472439 13.1132456,20.4939439 12.538649,21.2600727 C11.9002084,22.2496557 12.538649,22.7284861 13.1770896,23.3030827 C13.6878421,23.7819131 14.1666726,24.1649775 14.1666726,24.1649775 C14.1666726,24.1649775 15.1562556,23.4946149 15.8585402,22.0581235 L15.8585402,22.0581235 Z" id="Path" fill="#FFFFFF" fill-rule="nonzero"></path>
            <path d="M9.3464459,21.547371 C10.0487306,22.4411878 11.1340796,23.5584589 9.7614323,24.4841978 C7.87803247,25.5376249 6.31385295,22.3454217 5.99463264,21.2281507 C5.70733436,20.2385677 6.53730716,19.6001271 7.23959185,19.0574525 C8.61223918,18.0678696 9.7614323,17.1740527 11.0383135,17.6528832 C12.6344151,18.2274797 11.485222,19.504361 10.6871712,20.0789575 C10.2083407,20.4300999 9.72951027,20.8131643 9.37836793,21.0366185 C9.28260184,21.1962286 9.25067981,21.3877608 9.3464459,21.547371 Z" id="Path" stroke="#001026" stroke-width="1.2" fill="#FFAB19" fill-rule="nonzero" stroke-linecap="round" stroke-linejoin="round"></path>
            <path d="M16.656591,2.58568452 C15.9223843,2.45799639 15.1562556,2.39415233 14.2624387,2.45799639 C12.7621032,2.52184045 11.3256118,3.06451498 11.3256118,3.06451498 L7.46304607,0.542674528 C7.33535794,0.478830466 7.17574779,0.574596559 7.20766982,0.702284684 L7.87803247,6.41632824 C8.06956466,6.160952 4.49429718,10.5023482 6.76076138,14.1414598 C9.02722559,17.7805713 13.8474523,19.4085949 19.8487941,18.2274797 C25.850136,17.0463646 27.2547053,13.5987852 26.871641,11.7792295 C26.4885766,9.95967369 24.2221124,9.28931104 24.2221124,9.28931104 C24.2221124,9.28931104 24.1901903,7.85281964 23.1686854,6.09710793 C22.5621668,5.04368091 20.5191568,3.54334545 20.5191568,3.54334545 L19.689184,0.127688124 C19.6572619,0 19.4976518,-0.0319220311 19.4018857,0.0319220311 L16.656591,2.58568452 Z" id="Path" stroke="#001026" stroke-width="1.2" fill="#FFAB19" fill-rule="nonzero"></path>
            <path d="M24.1263463,9.41699917 C24.1263463,9.41699917 26.3289664,9.99159572 26.7120308,11.8111515 C27.0950952,13.6307073 25.5628377,16.9186765 19.6253399,18.0678696 C11.9002084,19.6639711 8.22917481,15.0671987 10.3679509,11.6834634 C12.506727,8.26780605 16.1777605,11.1727109 18.8592112,10.9811787 C21.1575974,10.8215685 21.4129736,8.81048058 24.1263463,9.41699917 Z" id="Path" fill="#FFFFFF" fill-rule="nonzero"></path>
            <g id="Group" stroke-linecap="round" stroke-linejoin="round" transform="translate(4.366609, 4.665512)" stroke="#001026" stroke-width="1.2">
                <path d="M9.70429744,8.1671443 C9.70429744,8.03945617 9.83198557,7.94369008 9.95967369,7.97561211 C10.5661923,8.19906633 12.289982,8.70981883 14.2053038,8.83750695 C15.9290935,8.93327304 16.9505985,8.83750695 17.429429,8.74174086 C17.5890391,8.70981883 17.7167272,8.86942898 17.6528832,9.02903914 C17.3655849,9.89093398 16.1525477,12.2850863 12.8007345,12.0935541 C9.89582963,11.7743338 9.60853135,9.73132382 9.70429744,8.1671443 L9.70429744,8.1671443 Z" id="Path" fill="#FFFFFF" fill-rule="nonzero"></path>
                <path d="M21.8346693,6.34758853 C21.8346693,6.34758853 24.1330555,6.3156665 25.6333909,5.10262932 M21.9623574,8.23098836 C21.9623574,8.23098836 23.2073166,8.83750695 25.2184045,8.6778968" id="Shape"></path>
                <path d="M14.364914,5.48569369 C15.0352766,5.48569369 15.7375613,5.54953775 15.7694833,5.77299197 C15.8014054,6.2199004 15.3225749,7.11371727 14.8118224,7.1456393 C14.2372259,7.20948337 12.8965006,6.41143259 12.8965006,5.90068009 C12.8645785,5.51761572 13.7264734,5.48569369 14.364914,5.48569369 Z" id="Path" fill="#001026" fill-rule="nonzero"></path>
                <path d="M-5.67049182e-16,5.00686322 C-5.67049182e-16,5.00686322 2.74529467,5.90068009 3.86256576,6.89026306 M0.223454217,8.19906633 C0.223454217,8.19906633 2.58568452,8.55020867 3.95833185,8.00753414" id="Shape"></path>
                <path d="M18.1317136,1.75081605 C19.0574525,3.18730745 19.0893746,4.81533104 18.1955577,5.3899276 C17.3017408,5.96452416 15.8333274,5.2941615 14.8756665,3.8576701 C13.9499276,2.42117871 13.9180055,0.793155122 14.8118224,0.218558563 C15.7056393,-0.387960027 17.2059747,0.314324656 18.1317136,1.75081605 Z" id="Path" fill="#FFFFFF" fill-rule="nonzero"></path>
            </g>
            <path d="M22.3706346,8.23588402 C22.3706346,8.58702636 22.1152583,8.87432464 21.796038,8.87432464 C21.4768177,8.87432464 21.2214415,8.58702636 21.2214415,8.23588402 C21.2214415,7.88474167 21.4768177,7.59744339 21.796038,7.59744339 C22.1152583,7.59744339 22.3706346,7.88474167 22.3706346,8.23588402" id="Path" fill="#001026" fill-rule="nonzero"></path>
            <path d="M14.581659,7.31014511 C15.5393199,8.71471448 15.4754759,10.4385042 14.613581,11.0450227 C13.560154,11.6515413 12.1555846,11.2046329 11.1979237,9.80006354 C10.2083407,8.39549417 10.1444967,6.5759384 11.1340796,5.87365372 C12.1236626,5.139447 13.6239981,5.90557575 14.581659,7.31014511 L14.581659,7.31014511 Z" id="Path" stroke="#001026" stroke-width="1.2" fill="#FFFFFF" fill-rule="nonzero" stroke-linecap="round" stroke-linejoin="round"></path>
            <path d="M14.3901268,9.16162292 C14.3901268,9.51276526 14.1347506,9.80006354 13.8155302,9.80006354 C13.4963099,9.80006354 13.2409337,9.51276526 13.2409337,9.16162292 C13.2409337,8.81048058 13.4963099,8.5231823 13.8155302,8.5231823 C14.1347506,8.55510433 14.3901268,8.81048058 14.3901268,9.16162292" id="Path" fill="#001026" fill-rule="nonzero"></path>
        </g>
    </g>
</svg>