
<svg width="30px" height="34px" viewBox="0 0 30 34" version="1.1" xmlns="http://www.w3.org/2000/svg" xmlns:xlink="http://www.w3.org/1999/xlink">
    <g id="Page-1" stroke="none" stroke-width="1" fill="none" fill-rule="evenodd">
        <g id="video-icon" fill="#0B3C5F" fill-rule="nonzero">
            <path d="M7.5,0 L22.5,0 L22.5,4.243625 L26.25,4.243625 L26.25,0 C28.321875,0 30,1.904 30,4.25 L30,29.75 C30,32.096 28.321875,34 26.25,34 L26.25,29.743625 L22.5,29.743625 L22.5,34 L7.5,34 L7.5,29.743625 L3.75,29.743625 L3.75,34 C1.678125,34 0,32.098125 0,29.75 L0,4.25 C0,1.901875 1.678125,0 3.75,0 L3.75,4.243625 L7.5,4.243625 L7.5,0 Z M11.25,23.375 L19.6875,17 L11.25,10.625 L11.25,23.375 Z M26.25,25.493625 L26.25,19.118625 L22.5,19.118625 L22.5,25.493625 L26.25,25.493625 Z M26.25,14.868625 L26.25,8.493625 L22.5,8.493625 L22.5,14.868625 L26.25,14.868625 Z M7.5,25.493625 L7.5,19.118625 L3.75,19.118625 L3.75,25.493625 L7.5,25.493625 Z M7.5,14.868625 L7.5,8.493625 L3.75,8.493625 L3.75,14.868625 L7.5,14.868625 Z" id="Shape"></path>
        </g>
    </g>
</svg>