
<svg width="30px" height="35px" viewBox="0 0 30 35" version="1.1" xmlns="http://www.w3.org/2000/svg" xmlns:xlink="http://www.w3.org/1999/xlink">
    <g id="Page-1" stroke="none" stroke-width="1" fill="none" fill-rule="evenodd">
        <g id="icon-note" transform="translate(-0.000000, 0.000000)">
            <path d="M16.6666667,0.00780512487 L16.6666667,10.8878051 L30,10.8878051 L30,31.2878051 C30,32.7900196 28.5076158,34.0078051 26.6666667,34.0078051 L3.33333333,34.0078051 C1.49238417,34.0078051 0,32.7900196 0,31.2878051 L0,2.72780512 C0,1.2255906 1.49238417,0.00780512487 3.33333333,0.00780512487 L16.6666667,0.00780512487 Z M15,1.36780512 L3.33333333,1.36780512 C2.47860693,1.36780512 1.77415473,1.89281978 1.67787955,2.56920039 L1.66666667,2.72780512 L1.66666667,31.2878051 C1.66666667,31.9852618 2.31006698,32.5600949 3.13896478,32.6386555 L3.33333333,32.6478051 L26.6666667,32.6478051 C27.521393,32.6478051 28.2258453,32.1227905 28.3221205,31.4464098 L28.3333333,31.2878051 L28.3333333,12.2478051 L15,12.2478051 L15,1.36780512 Z" id="Shape" fill="#000000" fill-rule="nonzero"></path>
            <rect id="Rectangle" fill="#FFFFFF" fill-rule="nonzero" x="13" y="0" width="17" height="17"></rect>
            <g id="icon/Crayon" transform="translate(10.422381, 3.814683)" fill="#000000" fill-rule="nonzero">
                <path d="M10.7386018,0.507553953 C11.4366905,-0.190534759 12.5936562,-0.16539452 13.3227569,0.563706249 L15.65244,2.89338929 C16.3815407,3.62249006 16.406681,4.77945573 15.7085923,5.47754444 L6.59974159,14.5865849 C6.58223918,14.9267342 6.36569629,15.2052014 5.89950104,15.3145793 L1.63716594,16.4712013 C0.693823288,16.6925267 -0.186659636,15.812274 0.0344052212,14.8688596 L1.04856419,10.7219574 C1.13858097,10.3378026 1.36591765,10.1045964 1.65255562,10.0088021 C1.57319127,9.93039973 1.50434474,9.86155321 1.44447363,9.80168209 Z M2.19461376,11.3592227 L1.29124182,15.2144443 L5.14554562,14.3101545 L2.19461376,11.3592227 Z M10.249,2.86 L2.84686026,10.262797 C2.92999376,10.3224644 3.01047536,10.3906117 3.08685006,10.4669864 L5.971,13.351 L13.288,6.033 L10.249,2.86 Z M12.4305206,1.45594255 C12.2160792,1.24150115 11.8757952,1.23410696 11.670475,1.43942717 L11.161,1.948 L14.2,5.121 L14.776719,4.54567123 C14.9592259,4.36316437 14.9736621,4.07401945 14.8240079,3.86140914 L14.7602037,3.78562559 Z" id="Combined-Shape"></path>
            </g>
            <line x1="6.5" y1="24.5" x2="22.5" y2="24.5" id="Line" stroke="#000000" stroke-linecap="square"></line>
            <line x1="6.5" y1="27.5" x2="16.5" y2="27.5" id="Line" stroke="#000000" stroke-linecap="square"></line>
        </g>
    </g>
</svg>
